<svg width="2160" height="2700" viewBox="0 0 2160 2700" fill="none" xmlns="http://www.w3.org/2000/svg">
<rect width="2160" height="2700" fill="white"/>
<path d="M801.304 1327.55C800.619 1325.15 799.934 1323.26 799.249 1321.89C798.564 1320.46 797.741 1319.36 796.782 1318.61C795.823 1317.78 794.556 1317.17 792.98 1316.76V1314.08H816.1V1316.76C814.114 1317.24 812.71 1317.89 811.888 1318.71C811.134 1319.53 810.791 1320.56 810.86 1321.79C810.928 1323.02 811.305 1324.84 811.99 1327.24L824.321 1369.37H824.937L840.762 1325.29L836.96 1314.08H848.468L865.423 1368.03H866.04L878.165 1327.85C878.918 1325.18 879.364 1323.16 879.501 1321.79C879.638 1320.42 879.329 1319.33 878.576 1318.5C877.891 1317.68 876.555 1317.1 874.568 1316.76V1314.08H892.962V1316.76C891.249 1317.17 889.845 1317.82 888.749 1318.71C887.721 1319.53 886.865 1320.63 886.18 1322C885.563 1323.37 884.878 1325.32 884.125 1327.85L866.862 1385.5H860.388L844.153 1334.22H843.536L825.143 1385.5H818.567L801.304 1327.55ZM911.055 1382.83C913.179 1382.55 914.789 1381.8 915.885 1380.57C917.049 1379.33 918.18 1377.28 919.276 1374.4C919.413 1374.13 919.516 1373.89 919.584 1373.68C919.721 1373.41 919.824 1373.14 919.892 1372.86L943.012 1314.08H949.075L973.223 1372.14C973.36 1372.42 973.462 1372.72 973.531 1373.07C973.668 1373.34 973.805 1373.61 973.942 1373.89C974.832 1376.08 975.62 1377.76 976.305 1378.92C976.99 1380.02 977.744 1380.91 978.566 1381.6C979.456 1382.21 980.587 1382.62 981.957 1382.83V1385.5H958.528V1382.83C960.447 1382.69 961.817 1382.21 962.639 1381.39C963.461 1380.5 963.803 1379.37 963.666 1378C963.598 1376.63 963.118 1374.88 962.228 1372.76L944.143 1328.27H943.526L925.955 1372.86C925.064 1375.12 924.585 1376.94 924.516 1378.31C924.448 1379.61 924.859 1380.64 925.749 1381.39C926.64 1382.14 928.147 1382.62 930.271 1382.83V1385.5H911.055V1382.83ZM927.496 1363.1V1357.65H960.07V1363.1H927.496ZM1012.3 1382.83C1014.15 1382.55 1015.52 1382.11 1016.41 1381.49C1017.37 1380.88 1018.02 1379.95 1018.36 1378.72C1018.7 1377.49 1018.88 1375.64 1018.88 1373.17V1326.31C1018.88 1323.78 1018.67 1321.89 1018.26 1320.66C1017.92 1319.36 1017.3 1318.43 1016.41 1317.89C1015.52 1317.34 1014.15 1316.96 1012.3 1316.76V1314.08H1035.62V1316.76C1033.71 1316.96 1032.3 1317.34 1031.41 1317.89C1030.52 1318.43 1029.9 1319.33 1029.56 1320.56C1029.29 1321.79 1029.15 1323.71 1029.15 1326.31V1380.05H1045.69C1048.85 1380.05 1051.41 1379.68 1053.4 1378.92C1055.46 1378.17 1057.1 1376.73 1058.33 1374.61C1059.57 1372.48 1060.39 1369.4 1060.8 1365.36H1063.68V1385.5H1012.3V1382.83ZM1103.15 1326.62C1103.15 1323.88 1102.94 1321.86 1102.53 1320.56C1102.12 1319.19 1101.47 1318.3 1100.58 1317.89C1099.75 1317.41 1098.42 1317.03 1096.57 1316.76V1314.08H1125.55C1133.36 1314.08 1140.21 1315.59 1146.1 1318.61C1151.99 1321.55 1156.54 1325.73 1159.76 1331.14C1163.05 1336.49 1164.7 1342.62 1164.7 1349.54C1164.7 1356.59 1163.05 1362.86 1159.76 1368.34C1156.54 1373.75 1151.99 1377.96 1146.1 1380.98C1140.21 1383.99 1133.36 1385.5 1125.55 1385.5H1096.57V1382.83C1098.62 1382.49 1100.1 1382.01 1100.99 1381.39C1101.88 1380.7 1102.46 1379.71 1102.73 1378.41C1103.01 1377.04 1103.15 1374.92 1103.15 1372.04V1326.62ZM1122.98 1380.05C1129.28 1380.05 1134.66 1378.89 1139.11 1376.56C1143.56 1374.23 1146.95 1370.77 1149.28 1366.18C1151.68 1361.59 1152.88 1356.04 1152.88 1349.54C1152.88 1343.16 1151.68 1337.72 1149.28 1333.2C1146.95 1328.68 1143.56 1325.29 1139.11 1323.02C1134.66 1320.7 1129.28 1319.53 1122.98 1319.53H1113.42V1380.05H1122.98ZM1253.88 1367.52V1385.5H1198.6V1382.83C1200.45 1382.49 1201.78 1382.07 1202.6 1381.6C1203.49 1381.05 1204.11 1380.19 1204.45 1379.03C1204.86 1377.86 1205.1 1376.05 1205.17 1373.58V1372.96V1326.42C1205.17 1323.88 1205 1322 1204.66 1320.76C1204.32 1319.46 1203.67 1318.54 1202.71 1317.99C1201.82 1317.37 1200.45 1316.96 1198.6 1316.76V1314.08H1251.82V1329.5H1248.95C1248.67 1327.03 1248.02 1325.08 1246.99 1323.64C1245.97 1322.2 1244.39 1321.18 1242.27 1320.56C1240.14 1319.87 1237.37 1319.53 1233.94 1319.53H1215.45V1346.66H1229.11C1231.99 1346.66 1234.29 1346.42 1236 1345.94C1237.71 1345.39 1238.98 1344.57 1239.8 1343.47C1240.62 1342.38 1241.07 1340.94 1241.14 1339.16H1244.01V1359.61H1241.14C1241.07 1357.76 1240.62 1356.28 1239.8 1355.19C1238.98 1354.09 1237.71 1353.3 1236 1352.82C1234.29 1352.34 1231.99 1352.1 1229.11 1352.1H1215.45V1380.05H1236.2C1239.15 1380.05 1241.65 1379.68 1243.71 1378.92C1245.76 1378.17 1247.4 1376.87 1248.64 1375.02C1249.94 1373.17 1250.73 1370.67 1251 1367.52H1253.88ZM1288.08 1382.83C1289.86 1382.55 1291.2 1382.14 1292.09 1381.6C1292.98 1380.98 1293.59 1380.02 1293.94 1378.72C1294.35 1377.42 1294.55 1375.5 1294.55 1372.96V1320.76L1289.83 1314.6V1314.08H1304.83L1343.05 1368.24H1343.67V1326.42C1343.67 1323.81 1343.5 1321.89 1343.16 1320.66C1342.81 1319.36 1342.2 1318.43 1341.31 1317.89C1340.42 1317.34 1339.08 1316.96 1337.3 1316.76V1314.08H1356.1V1316.76C1354.25 1316.96 1352.88 1317.34 1351.99 1317.89C1351.17 1318.43 1350.55 1319.36 1350.14 1320.66C1349.8 1321.96 1349.63 1323.88 1349.63 1326.42V1385.5H1342.54L1301.13 1326.93H1300.51V1372.96C1300.51 1375.5 1300.68 1377.42 1301.03 1378.72C1301.44 1380.02 1302.05 1380.98 1302.88 1381.6C1303.77 1382.14 1305.14 1382.55 1306.99 1382.83V1385.5H1288.08V1382.83Z" fill="black"/>
<path d="M1506.25 1328.47C1505.43 1325.8 1504.64 1323.74 1503.88 1322.31C1503.2 1320.87 1502.38 1319.74 1501.42 1318.91C1500.53 1318.09 1499.29 1317.44 1497.72 1316.96V1314.08H1523.82V1316.96C1521.7 1317.51 1520.22 1318.23 1519.4 1319.12C1518.58 1319.94 1518.2 1321.04 1518.27 1322.41C1518.34 1323.78 1518.75 1325.73 1519.5 1328.27L1530.5 1365.87H1531.22L1545.3 1326L1541.08 1314.08H1555.37L1571.5 1364.54H1572.22L1583.11 1328.06C1583.93 1325.39 1584.41 1323.37 1584.55 1322C1584.68 1320.63 1584.38 1319.53 1583.62 1318.71C1582.87 1317.89 1581.43 1317.3 1579.31 1316.96V1314.08H1598.83V1316.96C1597.26 1317.37 1595.95 1318.02 1594.93 1318.91C1593.97 1319.74 1593.14 1320.83 1592.46 1322.2C1591.84 1323.57 1591.16 1325.49 1590.4 1327.96L1573.04 1385.5H1565.33L1549.51 1336.28H1548.79L1531.42 1385.5H1523.51L1506.25 1328.47ZM1615.99 1382.62C1618.12 1382.28 1619.73 1381.53 1620.82 1380.36C1621.92 1379.2 1623.02 1377.28 1624.11 1374.61C1624.25 1374.4 1624.35 1374.2 1624.42 1373.99C1624.49 1373.72 1624.59 1373.48 1624.73 1373.27L1648.26 1314.08H1655.35L1679.7 1372.55C1679.84 1372.83 1679.94 1373.1 1680.01 1373.37C1680.15 1373.58 1680.25 1373.82 1680.32 1374.09C1681.21 1376.15 1682 1377.72 1682.68 1378.82C1683.37 1379.85 1684.16 1380.67 1685.05 1381.29C1685.94 1381.84 1687.07 1382.28 1688.44 1382.62V1385.5H1662.13V1382.62C1664.19 1382.35 1665.59 1381.84 1666.35 1381.08C1667.17 1380.26 1667.51 1379.23 1667.37 1378C1667.3 1376.77 1666.86 1375.12 1666.04 1373.07L1649.08 1331.55H1648.36L1632.13 1372.76C1631.24 1374.95 1630.76 1376.7 1630.69 1378C1630.62 1379.3 1631.07 1380.33 1632.02 1381.08C1632.98 1381.84 1634.56 1382.35 1636.75 1382.62V1385.5H1615.99V1382.62ZM1632.95 1364.13V1357.86H1664.8V1364.13H1632.95ZM1718.04 1382.62C1719.89 1382.35 1721.22 1381.94 1722.05 1381.39C1722.94 1380.77 1723.55 1379.88 1723.9 1378.72C1724.24 1377.55 1724.41 1375.88 1724.41 1373.68V1326.21C1724.41 1323.81 1724.24 1322.03 1723.9 1320.87C1723.62 1319.7 1723.04 1318.81 1722.15 1318.2C1721.33 1317.58 1719.96 1317.17 1718.04 1316.96V1314.08H1743.52V1316.96C1741.6 1317.17 1740.2 1317.58 1739.31 1318.2C1738.42 1318.81 1737.84 1319.7 1737.56 1320.87C1737.29 1322.03 1737.15 1323.81 1737.15 1326.21V1379.23H1752.15C1755.24 1379.23 1757.77 1378.86 1759.76 1378.1C1761.74 1377.28 1763.35 1375.81 1764.59 1373.68C1765.89 1371.56 1766.81 1368.51 1767.36 1364.54H1770.44V1385.5H1718.04V1382.62ZM1808.88 1326.11C1808.88 1323.64 1808.68 1321.83 1808.26 1320.66C1807.92 1319.5 1807.31 1318.67 1806.41 1318.2C1805.59 1317.65 1804.29 1317.24 1802.51 1316.96V1314.08H1832.1C1840.19 1314.08 1847.21 1315.56 1853.17 1318.5C1859.2 1321.45 1863.85 1325.63 1867.14 1331.04C1870.5 1336.38 1872.18 1342.58 1872.18 1349.64C1872.18 1356.76 1870.5 1363.03 1867.14 1368.44C1863.85 1373.85 1859.2 1378.07 1853.17 1381.08C1847.21 1384.03 1840.19 1385.5 1832.1 1385.5H1802.51V1382.62C1804.43 1382.28 1805.8 1381.8 1806.62 1381.18C1807.51 1380.57 1808.09 1379.64 1808.37 1378.41C1808.71 1377.11 1808.88 1375.12 1808.88 1372.45V1326.11ZM1829.53 1379.33C1835.43 1379.33 1840.46 1378.24 1844.64 1376.05C1848.89 1373.79 1852.14 1370.46 1854.4 1366.08C1856.66 1361.63 1857.79 1356.15 1857.79 1349.64C1857.79 1343.13 1856.66 1337.68 1854.4 1333.3C1852.14 1328.92 1848.89 1325.66 1844.64 1323.54C1840.46 1321.35 1835.43 1320.25 1829.53 1320.25H1821.62V1379.33H1829.53ZM1961.45 1366.59V1385.5H1905.14V1382.62C1906.99 1382.28 1908.32 1381.87 1909.15 1381.39C1909.97 1380.91 1910.55 1380.09 1910.89 1378.92C1911.24 1377.76 1911.44 1375.98 1911.51 1373.58V1372.96V1326C1911.51 1323.61 1911.34 1321.83 1911 1320.66C1910.65 1319.5 1910.04 1318.67 1909.15 1318.2C1908.26 1317.65 1906.92 1317.24 1905.14 1316.96V1314.08H1959.39V1330.32H1956.31C1955.97 1327.92 1955.25 1326 1954.15 1324.57C1953.13 1323.13 1951.55 1322.07 1949.43 1321.38C1947.37 1320.7 1944.63 1320.35 1941.21 1320.35H1924.25V1346.25H1936.89C1939.7 1346.25 1941.92 1346.01 1943.57 1345.53C1945.28 1344.98 1946.48 1344.16 1947.17 1343.06C1947.92 1341.97 1948.4 1340.53 1948.6 1338.75H1951.69V1360.02H1948.6C1948.47 1358.24 1948.02 1356.8 1947.27 1355.7C1946.51 1354.6 1945.28 1353.82 1943.57 1353.34C1941.92 1352.86 1939.7 1352.62 1936.89 1352.62H1924.25V1379.23H1943.47C1946.41 1379.23 1948.88 1378.86 1950.86 1378.1C1952.92 1377.35 1954.6 1376.05 1955.9 1374.2C1957.2 1372.35 1958.06 1369.81 1958.47 1366.59H1961.45ZM1994.82 1382.62C1996.61 1382.42 1997.94 1382.01 1998.83 1381.39C1999.72 1380.7 2000.34 1379.71 2000.68 1378.41C2001.02 1377.04 2001.2 1375.16 2001.2 1372.76V1321.18L1996.16 1314.7V1314.08H2014.55L2049.29 1364.33H2050V1326.52C2050 1324.12 2049.83 1322.27 2049.49 1320.97C2049.15 1319.67 2048.53 1318.74 2047.64 1318.2C2046.75 1317.58 2045.45 1317.17 2043.74 1316.96V1314.08H2063.36V1316.96C2061.58 1317.17 2060.25 1317.58 2059.36 1318.2C2058.46 1318.74 2057.85 1319.67 2057.51 1320.97C2057.16 1322.27 2056.99 1324.12 2056.99 1326.52V1385.5H2048.26L2008.9 1328.68H2008.18V1372.76C2008.18 1375.22 2008.35 1377.11 2008.7 1378.41C2009.04 1379.71 2009.66 1380.7 2010.55 1381.39C2011.44 1382.01 2012.77 1382.42 2014.55 1382.62V1385.5H1994.82V1382.62Z" fill="black"/>
<path d="M101.998 1326.83C101.313 1324.57 100.628 1322.78 99.9426 1321.48C99.3261 1320.11 98.5383 1319.02 97.5792 1318.2C96.6202 1317.37 95.3529 1316.76 93.7773 1316.35V1314.08H114.02V1316.35C111.965 1316.76 110.526 1317.37 109.704 1318.2C108.882 1319.02 108.506 1320.04 108.574 1321.28C108.643 1322.44 109.019 1324.15 109.704 1326.42L123.474 1373.07H124.09L141.456 1324.67L137.962 1314.08H146.183L164.37 1372.24H164.987L178.653 1327.34C179.475 1324.74 179.921 1322.75 179.989 1321.38C180.126 1320.01 179.818 1318.91 179.064 1318.09C178.379 1317.27 177.078 1316.69 175.16 1316.35V1314.08H191.909V1316.35C190.265 1316.83 188.929 1317.48 187.901 1318.3C186.942 1319.12 186.12 1320.22 185.435 1321.59C184.819 1322.89 184.134 1324.77 183.38 1327.24L165.603 1385.5H160.979L144.127 1331.86H143.614L124.296 1385.5H119.569L101.998 1326.83ZM211.157 1383.24C213.212 1382.76 214.788 1381.9 215.884 1380.67C216.98 1379.44 218.076 1377.45 219.172 1374.71C219.309 1374.44 219.412 1374.2 219.48 1373.99C219.617 1373.72 219.72 1373.44 219.788 1373.17L243.011 1314.08H247.224L271.372 1372.66C271.509 1372.93 271.612 1373.2 271.68 1373.48C271.817 1373.75 271.954 1374.03 272.091 1374.3C272.982 1376.42 273.769 1378.07 274.454 1379.23C275.139 1380.33 275.893 1381.18 276.715 1381.8C277.537 1382.42 278.633 1382.9 280.003 1383.24V1385.5H259.76V1383.24C261.678 1382.97 263.049 1382.45 263.871 1381.7C264.693 1380.88 265.069 1379.81 265.001 1378.51C264.932 1377.14 264.453 1375.36 263.562 1373.17L243.936 1325.18H243.422L224.515 1373.37C223.625 1375.57 223.111 1377.31 222.974 1378.62C222.905 1379.85 223.282 1380.84 224.104 1381.6C224.995 1382.35 226.433 1382.9 228.42 1383.24V1385.5H211.157V1383.24ZM227.187 1362.17V1357.86H260.582V1362.17H227.187ZM311.4 1383.24C313.249 1382.97 314.619 1382.52 315.51 1381.9C316.469 1381.29 317.086 1380.33 317.36 1379.03C317.702 1377.72 317.873 1375.77 317.873 1373.17V1326.42C317.873 1323.74 317.702 1321.76 317.36 1320.46C317.086 1319.09 316.469 1318.13 315.51 1317.58C314.619 1316.96 313.249 1316.55 311.4 1316.35V1314.08H331.848V1316.35C329.93 1316.55 328.526 1316.96 327.635 1317.58C326.745 1318.13 326.128 1319.05 325.786 1320.35C325.512 1321.65 325.375 1323.68 325.375 1326.42V1381.18H343.973C347.262 1381.18 349.899 1380.84 351.886 1380.16C353.941 1379.4 355.516 1378 356.612 1375.94C357.777 1373.89 358.53 1370.87 358.873 1366.9H361.339V1385.5H311.4V1383.24ZM401.541 1326.62C401.541 1323.74 401.336 1321.62 400.925 1320.25C400.582 1318.88 399.966 1317.96 399.075 1317.48C398.253 1317 396.883 1316.62 394.965 1316.35V1314.08H422.092C429.902 1314.08 436.752 1315.56 442.644 1318.5C448.535 1321.45 453.09 1325.63 456.31 1331.04C459.53 1336.38 461.14 1342.58 461.14 1349.64C461.14 1356.83 459.53 1363.13 456.31 1368.55C453.09 1373.96 448.535 1378.14 442.644 1381.08C436.752 1384.03 429.902 1385.5 422.092 1385.5H394.965V1383.24C396.952 1383.03 398.39 1382.62 399.281 1382.01C400.171 1381.39 400.754 1380.43 401.028 1379.13C401.37 1377.76 401.541 1375.7 401.541 1372.96V1326.62ZM420.243 1381.18C426.888 1381.18 432.642 1379.99 437.506 1377.59C442.37 1375.12 446.103 1371.53 448.706 1366.8C451.309 1362 452.611 1356.28 452.611 1349.64C452.611 1343.13 451.309 1337.51 448.706 1332.79C446.103 1328.06 442.37 1324.5 437.506 1322.1C432.642 1319.63 426.888 1318.4 420.243 1318.4H408.94V1381.18H420.243ZM550.238 1369.06V1385.5H496.189V1383.24C498.107 1383.03 499.477 1382.69 500.299 1382.21C501.19 1381.66 501.806 1380.81 502.149 1379.64C502.491 1378.41 502.697 1376.53 502.765 1373.99V1373.37V1326.21C502.765 1323.61 502.594 1321.65 502.251 1320.35C501.909 1319.05 501.258 1318.13 500.299 1317.58C499.408 1316.96 498.038 1316.55 496.189 1316.35V1314.08H548.183V1327.85H545.717C545.511 1325.53 544.929 1323.68 543.97 1322.31C543.011 1320.94 541.504 1319.94 539.449 1319.33C537.462 1318.71 534.756 1318.4 531.331 1318.4H510.164V1347.17H526.707C529.447 1347.17 531.639 1346.93 533.284 1346.45C534.928 1345.97 536.092 1345.22 536.777 1344.19C537.531 1343.1 537.976 1341.69 538.113 1339.98H540.476V1358.68H538.113C537.976 1356.9 537.531 1355.5 536.777 1354.47C536.092 1353.44 534.928 1352.69 533.284 1352.21C531.639 1351.73 529.447 1351.49 526.707 1351.49H510.164V1381.18H534.003C536.948 1381.18 539.346 1380.84 541.196 1380.16C543.114 1379.4 544.621 1378.14 545.717 1376.35C546.813 1374.57 547.498 1372.14 547.772 1369.06H550.238ZM585.371 1383.24C587.221 1382.97 588.591 1382.55 589.481 1382.01C590.372 1381.39 590.988 1380.43 591.331 1379.13C591.742 1377.83 591.947 1375.88 591.947 1373.27V1320.35L587.323 1314.5V1314.08H598.01L640.756 1372.55H641.27V1326.11C641.27 1323.5 641.099 1321.55 640.756 1320.25C640.414 1318.95 639.797 1318.02 638.907 1317.48C638.016 1316.93 636.646 1316.55 634.796 1316.35V1314.08H652.368V1316.35C650.586 1316.55 649.251 1316.93 648.36 1317.48C647.47 1318.02 646.819 1318.98 646.408 1320.35C646.065 1321.65 645.894 1323.57 645.894 1326.11V1385.5H640.859L597.085 1325.49H596.571V1373.27C596.571 1375.88 596.743 1377.83 597.085 1379.13C597.496 1380.43 598.147 1381.39 599.037 1382.01C599.928 1382.55 601.264 1382.97 603.045 1383.24V1385.5H585.371V1383.24Z" fill="black"/>
<path d="M801.138 1500.18C800.316 1497.71 799.46 1495.72 798.569 1494.22C797.747 1492.71 796.685 1491.54 795.384 1490.72C794.151 1489.83 792.472 1489.18 790.349 1488.77V1486.71H819.839V1488.77C816.825 1489.18 814.667 1489.83 813.366 1490.72C812.064 1491.61 811.379 1492.74 811.311 1494.11C811.311 1495.48 811.687 1497.37 812.441 1499.76L824.977 1540.46H825.491L840.288 1499.66L835.664 1486.71H847.583L865.36 1539.63H865.874L877.999 1501.2C878.958 1498.12 879.472 1495.83 879.54 1494.32C879.609 1492.81 879.027 1491.61 877.794 1490.72C876.629 1489.76 874.471 1489.11 871.32 1488.77V1486.71H893.721V1488.77C891.323 1489.18 889.439 1489.87 888.069 1490.82C886.699 1491.78 885.603 1493.05 884.781 1494.63C883.959 1496.13 883.103 1498.29 882.212 1501.1L863.922 1558.75H860.633L842.754 1506.03H842.24L822.922 1558.75H819.634L801.138 1500.18ZM908.529 1556.07C911.337 1555.73 913.427 1554.88 914.797 1553.51C916.167 1552.14 917.468 1549.98 918.701 1547.03C918.838 1546.76 918.941 1546.52 919.01 1546.31C919.147 1546.04 919.284 1545.76 919.421 1545.49L942.952 1486.1H946.034L971.004 1544.67C971.141 1545.01 971.278 1545.35 971.415 1545.7C971.552 1545.97 971.689 1546.24 971.826 1546.52C972.854 1548.85 973.744 1550.63 974.498 1551.86C975.32 1553.03 976.245 1553.95 977.272 1554.64C978.368 1555.32 979.807 1555.8 981.588 1556.07V1558.13H952.097V1556.07C955.111 1555.87 957.269 1555.32 958.571 1554.43C959.941 1553.54 960.626 1552.38 960.626 1550.94C960.694 1549.5 960.283 1547.68 959.393 1545.49L941.205 1502.02H940.794L923.531 1545.49C922.64 1547.89 922.229 1549.77 922.298 1551.14C922.435 1552.51 923.223 1553.61 924.661 1554.43C926.1 1555.25 928.463 1555.8 931.751 1556.07V1558.13H908.529V1556.07ZM926.408 1534.7V1530.9H956.824V1534.7H926.408ZM1009.64 1556.07C1012.31 1555.87 1014.33 1555.46 1015.7 1554.84C1017.07 1554.22 1017.99 1553.23 1018.47 1551.86C1019.02 1550.42 1019.3 1548.37 1019.3 1545.7V1499.04C1019.3 1496.3 1019.02 1494.25 1018.47 1492.88C1017.99 1491.51 1017.07 1490.55 1015.7 1490C1014.4 1489.39 1012.38 1488.97 1009.64 1488.77V1486.71H1039.85V1488.77C1037.11 1488.97 1035.05 1489.39 1033.68 1490C1032.38 1490.55 1031.45 1491.51 1030.91 1492.88C1030.43 1494.25 1030.19 1496.3 1030.19 1499.04V1554.53H1042.42C1046.46 1554.53 1049.78 1553.98 1052.38 1552.89C1055.05 1551.72 1057.21 1549.57 1058.86 1546.42C1060.57 1543.26 1061.73 1538.71 1062.35 1532.75H1064.4V1558.13H1009.64V1556.07ZM1105.57 1499.35C1105.57 1496.48 1105.3 1494.35 1104.75 1492.98C1104.2 1491.54 1103.24 1490.55 1101.87 1490C1100.57 1489.39 1098.58 1488.97 1095.91 1488.77V1486.71H1127.56C1135.51 1486.71 1142.5 1488.19 1148.52 1491.13C1154.62 1494.08 1159.35 1498.26 1162.7 1503.67C1166.13 1509.08 1167.84 1515.31 1167.84 1522.37C1167.84 1529.43 1166.13 1535.69 1162.7 1541.17C1159.35 1546.59 1154.62 1550.77 1148.52 1553.71C1142.5 1556.66 1135.51 1558.13 1127.56 1558.13H1095.91V1556.07C1098.65 1555.8 1100.67 1555.35 1101.98 1554.74C1103.35 1554.05 1104.27 1553.03 1104.75 1551.66C1105.3 1550.22 1105.57 1548.03 1105.57 1545.08V1499.35ZM1124.99 1554.53C1131.36 1554.53 1136.78 1553.3 1141.23 1550.83C1145.68 1548.3 1149.07 1544.63 1151.4 1539.84C1153.8 1534.98 1155 1529.15 1155 1522.37C1155 1515.59 1153.8 1509.8 1151.4 1505C1149.07 1500.21 1145.68 1496.58 1141.23 1494.11C1136.78 1491.58 1131.36 1490.31 1124.99 1490.31H1116.46V1554.53H1124.99ZM1258.64 1535.73V1558.13H1199.24V1556.07C1201.92 1555.8 1203.9 1555.39 1205.2 1554.84C1206.51 1554.29 1207.43 1553.37 1207.98 1552.07C1208.53 1550.77 1208.83 1548.81 1208.9 1546.21V1545.59V1499.15C1208.9 1496.41 1208.63 1494.35 1208.08 1492.98C1207.6 1491.54 1206.68 1490.55 1205.31 1490C1203.94 1489.39 1201.92 1488.97 1199.24 1488.77V1486.71H1255.86V1505.31H1253.81C1253.4 1501.68 1252.54 1498.77 1251.24 1496.58C1250.01 1494.39 1248.19 1492.81 1245.79 1491.85C1243.39 1490.82 1240.28 1490.31 1236.44 1490.31H1219.8V1520.11H1230.17C1233.39 1520.11 1236 1519.73 1237.98 1518.98C1239.97 1518.23 1241.44 1517.06 1242.4 1515.49C1243.36 1513.84 1243.98 1511.72 1244.25 1509.12H1246.31V1534.8H1244.25C1243.98 1532.13 1243.33 1530.01 1242.3 1528.43C1241.34 1526.79 1239.87 1525.59 1237.88 1524.84C1235.89 1524.08 1233.29 1523.71 1230.07 1523.71H1219.8V1554.53H1237.26C1241.03 1554.53 1244.22 1553.98 1246.82 1552.89C1249.49 1551.72 1251.65 1549.77 1253.29 1547.03C1254.94 1544.22 1256.03 1540.46 1256.58 1535.73H1258.64ZM1290.43 1556.07C1293.17 1555.8 1295.19 1555.35 1296.49 1554.74C1297.79 1554.12 1298.72 1553.13 1299.27 1551.76C1299.82 1550.39 1300.09 1548.3 1300.09 1545.49V1496.07L1292.79 1487.13V1486.71H1308.72L1347.97 1538.61H1348.38V1499.25C1348.38 1496.44 1348.11 1494.35 1347.56 1492.98C1347.08 1491.61 1346.16 1490.62 1344.79 1490C1343.49 1489.39 1341.47 1488.97 1338.73 1488.77V1486.71H1362.15V1488.77C1359.48 1488.97 1357.46 1489.39 1356.09 1490C1354.72 1490.62 1353.76 1491.61 1353.21 1492.98C1352.73 1494.35 1352.5 1496.44 1352.5 1499.25V1558.75H1348.9L1304.61 1500.48H1304.2V1545.49C1304.2 1548.3 1304.47 1550.39 1305.02 1551.76C1305.57 1553.13 1306.49 1554.12 1307.8 1554.74C1309.1 1555.35 1311.12 1555.8 1313.86 1556.07V1558.13H1290.43V1556.07Z" fill="black"/>
<path d="M800.968 1672.7C800.077 1670.17 799.118 1668.11 798.091 1666.54C797.132 1664.96 795.864 1663.73 794.289 1662.84C792.713 1661.88 790.624 1661.19 788.021 1660.78V1659.34H823.368V1660.78C819.327 1661.19 816.415 1661.88 814.634 1662.84C812.922 1663.8 811.997 1665 811.86 1666.43C811.791 1667.87 812.168 1669.86 812.99 1672.39L825.732 1711.75H826.04L839.912 1673.93L834.569 1659.34H846.797L865.395 1711.24H865.704L877.829 1674.45C878.993 1671.09 879.576 1668.59 879.576 1666.95C879.576 1665.24 878.754 1663.86 877.11 1662.84C875.465 1661.81 872.588 1661.12 868.478 1660.78V1659.34H894.475V1660.78C891.393 1661.26 888.995 1662.05 887.282 1663.15C885.638 1664.17 884.337 1665.51 883.378 1667.15C882.487 1668.8 881.494 1671.19 880.398 1674.35L861.285 1731.99H860.977L841.351 1677.84H840.94L821.005 1731.99H820.697L800.968 1672.7ZM906.406 1729.32C909.763 1728.84 912.229 1727.88 913.805 1726.44C915.449 1725 916.956 1722.74 918.326 1719.66C918.463 1719.39 918.6 1719.11 918.737 1718.84C918.874 1718.57 918.977 1718.29 919.045 1718.02L942.987 1658.11H943.295L969.087 1717.2C969.224 1717.54 969.361 1717.88 969.498 1718.22C969.704 1718.5 969.875 1718.8 970.012 1719.15C971.108 1721.61 972.101 1723.46 972.992 1724.7C973.882 1725.93 974.944 1726.92 976.177 1727.68C977.479 1728.36 979.26 1728.91 981.52 1729.32V1730.76H946.378V1729.32C950.283 1728.98 953.16 1728.36 955.009 1727.47C956.859 1726.51 957.852 1725.31 957.989 1723.87C958.195 1722.37 957.852 1720.48 956.962 1718.22L938.774 1675.68H938.363L921.511 1718.22C920.552 1720.69 920.21 1722.64 920.484 1724.08C920.758 1725.45 921.854 1726.58 923.772 1727.47C925.758 1728.29 928.944 1728.91 933.328 1729.32V1730.76H906.406V1729.32ZM925.519 1706.41V1704.15H954.085V1706.41H925.519ZM1007.28 1729.32C1010.77 1729.11 1013.41 1728.7 1015.19 1728.09C1016.97 1727.4 1018.2 1726.34 1018.89 1724.9C1019.57 1723.39 1019.92 1721.17 1019.92 1718.22V1671.88C1019.92 1668.93 1019.57 1666.74 1018.89 1665.3C1018.2 1663.8 1016.97 1662.73 1015.19 1662.12C1013.41 1661.43 1010.77 1660.99 1007.28 1660.78V1659.34H1043.96V1660.78C1040.47 1660.99 1037.83 1661.43 1036.05 1662.12C1034.27 1662.73 1033.03 1663.8 1032.35 1665.3C1031.73 1666.74 1031.42 1668.93 1031.42 1671.88V1728.81H1039.44C1044.37 1728.81 1048.45 1728.09 1051.67 1726.65C1054.89 1725.14 1057.52 1722.33 1059.58 1718.22C1061.7 1714.11 1063.14 1708.22 1063.9 1700.55H1065.33V1730.76H1007.28V1729.32ZM1108 1672.09C1108 1669.07 1107.65 1666.81 1106.97 1665.3C1106.28 1663.8 1105.05 1662.73 1103.27 1662.12C1101.49 1661.43 1098.85 1660.99 1095.36 1660.78V1659.34H1129.58C1137.73 1659.34 1144.92 1660.82 1151.15 1663.76C1157.39 1666.71 1162.22 1670.89 1165.64 1676.3C1169.14 1681.71 1170.88 1687.98 1170.88 1695.1C1170.88 1702.23 1169.14 1708.5 1165.64 1713.91C1162.22 1719.32 1157.39 1723.5 1151.15 1726.44C1144.92 1729.32 1137.73 1730.76 1129.58 1730.76H1095.36V1729.32C1098.85 1729.11 1101.49 1728.7 1103.27 1728.09C1105.05 1727.4 1106.28 1726.31 1106.97 1724.8C1107.65 1723.29 1108 1721.03 1108 1718.02V1672.09ZM1127.01 1728.81C1133.45 1728.81 1138.89 1727.5 1143.34 1724.9C1147.87 1722.23 1151.29 1718.36 1153.62 1713.29C1155.95 1708.22 1157.11 1702.16 1157.11 1695.1C1157.11 1688.05 1155.95 1681.98 1153.62 1676.91C1151.29 1671.85 1147.87 1667.98 1143.34 1665.3C1138.89 1662.63 1133.45 1661.3 1127.01 1661.3H1119.51V1728.81H1127.01ZM1263.19 1704.25V1730.76H1200V1729.32C1203.42 1729.11 1205.99 1728.7 1207.7 1728.09C1209.48 1727.47 1210.72 1726.48 1211.4 1725.11C1212.15 1723.67 1212.57 1721.55 1212.63 1718.74V1718.12V1671.98C1212.63 1668.97 1212.29 1666.74 1211.61 1665.3C1210.92 1663.8 1209.69 1662.73 1207.91 1662.12C1206.13 1661.43 1203.49 1660.99 1200 1660.78V1659.34H1259.8V1680.82H1258.46C1257.92 1676.09 1256.92 1672.33 1255.48 1669.52C1254.04 1666.64 1251.99 1664.55 1249.32 1663.25C1246.65 1661.95 1243.15 1661.3 1238.84 1661.3H1224.14V1693.56H1231.23C1234.8 1693.56 1237.67 1693.08 1239.86 1692.12C1242.13 1691.1 1243.84 1689.55 1245 1687.5C1246.17 1685.38 1246.95 1682.6 1247.37 1679.18H1248.7V1709.8H1247.37C1246.95 1706.37 1246.13 1703.63 1244.9 1701.58C1243.74 1699.45 1242.02 1697.91 1239.76 1696.95C1237.57 1695.92 1234.73 1695.41 1231.23 1695.41H1224.14V1728.81H1238.43C1242.95 1728.81 1246.78 1728.09 1249.93 1726.65C1253.09 1725.14 1255.65 1722.61 1257.64 1719.04C1259.7 1715.41 1261.1 1710.48 1261.85 1704.25H1263.19ZM1292.79 1729.32C1296.35 1729.11 1298.99 1728.67 1300.7 1727.98C1302.41 1727.3 1303.61 1726.24 1304.3 1724.8C1305.05 1723.29 1305.43 1721.03 1305.43 1718.02V1671.26L1295.66 1659.65V1659.34H1312.31L1352.59 1709.18H1352.9V1672.09C1352.9 1669.07 1352.56 1666.81 1351.87 1665.3C1351.26 1663.8 1350.06 1662.73 1348.28 1662.12C1346.49 1661.43 1343.82 1660.99 1340.26 1660.78V1659.34H1367.9V1660.78C1364.34 1660.99 1361.67 1661.43 1359.89 1662.12C1358.17 1662.73 1356.98 1663.8 1356.29 1665.3C1355.61 1666.81 1355.26 1669.07 1355.26 1672.09V1731.99H1354.95L1308.1 1674.04H1307.69V1718.02C1307.69 1721.03 1308.03 1723.29 1308.71 1724.8C1309.47 1726.24 1310.7 1727.3 1312.41 1727.98C1314.13 1728.67 1316.76 1729.11 1320.33 1729.32V1730.76H1292.79V1729.32Z" fill="black"/>
<path d="M1505.68 1501.1C1504.79 1498.29 1503.9 1496.1 1503.01 1494.52C1502.12 1492.95 1501.06 1491.72 1499.82 1490.82C1498.59 1489.93 1496.95 1489.28 1494.89 1488.87V1486.71H1527.05V1488.87C1523.97 1489.35 1521.81 1490.07 1520.58 1491.03C1519.35 1491.92 1518.73 1493.12 1518.73 1494.63C1518.73 1496.13 1519.14 1498.19 1519.96 1500.79L1531.27 1536.86H1531.78L1544.83 1500.69L1539.69 1486.71H1554.49L1571.55 1535.73H1572.16L1582.85 1501.82C1583.81 1498.67 1584.36 1496.3 1584.49 1494.73C1584.63 1493.09 1584.12 1491.78 1582.95 1490.82C1581.79 1489.87 1579.63 1489.21 1576.48 1488.87V1486.71H1599.29V1488.87C1596.96 1489.28 1595.11 1490 1593.74 1491.03C1592.37 1492.06 1591.24 1493.39 1590.35 1495.04C1589.53 1496.61 1588.67 1498.84 1587.78 1501.72L1569.59 1558.85H1565.69L1547.71 1507.88H1547.09L1528.6 1558.85H1524.59L1505.68 1501.1ZM1612.97 1555.97C1615.78 1555.56 1617.87 1554.67 1619.24 1553.3C1620.68 1551.93 1622.05 1549.7 1623.35 1546.62C1623.48 1546.35 1623.59 1546.07 1623.66 1545.8C1623.79 1545.52 1623.93 1545.25 1624.07 1544.98L1647.91 1486H1651.5L1676.68 1544.57C1676.81 1544.91 1676.92 1545.22 1676.99 1545.49C1677.12 1545.76 1677.26 1546.07 1677.4 1546.42C1678.42 1548.68 1679.35 1550.42 1680.17 1551.66C1680.99 1552.82 1681.95 1553.75 1683.05 1554.43C1684.14 1555.12 1685.62 1555.63 1687.47 1555.97V1558.13H1655.1V1555.97C1657.98 1555.63 1660.06 1555.01 1661.37 1554.12C1662.67 1553.23 1663.35 1552.1 1663.42 1550.73C1663.49 1549.36 1663.04 1547.55 1662.09 1545.28L1645.34 1505.42H1644.82L1629 1544.77C1627.97 1547.37 1627.49 1549.4 1627.56 1550.83C1627.7 1552.27 1628.52 1553.4 1630.03 1554.22C1631.53 1555.05 1633.96 1555.63 1637.32 1555.97V1558.13H1612.97V1555.97ZM1630.85 1535.73V1531.41H1661.06V1535.73H1630.85ZM1714.88 1555.97C1717.48 1555.7 1719.43 1555.25 1720.74 1554.64C1722.04 1554.02 1722.93 1553.06 1723.41 1551.76C1723.96 1550.39 1724.23 1548.4 1724.23 1545.8V1499.15C1724.23 1496.48 1723.96 1494.49 1723.41 1493.19C1722.93 1491.82 1722.04 1490.82 1720.74 1490.21C1719.5 1489.52 1717.55 1489.08 1714.88 1488.87V1486.71H1747.04V1488.87C1744.37 1489.08 1742.38 1489.52 1741.08 1490.21C1739.85 1490.82 1738.99 1491.82 1738.51 1493.19C1738.03 1494.49 1737.79 1496.48 1737.79 1499.15V1554.02H1748.27C1752.25 1554.02 1755.54 1553.44 1758.14 1552.27C1760.81 1551.11 1763 1548.95 1764.72 1545.8C1766.43 1542.65 1767.66 1538.13 1768.41 1532.24H1770.67V1558.13H1714.88V1555.97ZM1810.6 1499.15C1810.6 1496.48 1810.33 1494.46 1809.78 1493.09C1809.3 1491.72 1808.41 1490.72 1807.11 1490.11C1805.81 1489.49 1803.89 1489.08 1801.36 1488.87V1486.71H1833.62C1841.91 1486.71 1849.14 1488.19 1855.3 1491.13C1861.54 1494.08 1866.33 1498.26 1869.69 1503.67C1873.11 1509.01 1874.83 1515.25 1874.83 1522.37C1874.83 1529.49 1873.11 1535.76 1869.69 1541.17C1866.33 1546.59 1861.54 1550.77 1855.3 1553.71C1849.14 1556.66 1841.91 1558.13 1833.62 1558.13H1801.36V1555.97C1803.96 1555.7 1805.91 1555.25 1807.21 1554.64C1808.51 1553.95 1809.41 1552.92 1809.89 1551.55C1810.36 1550.11 1810.6 1547.99 1810.6 1545.18V1499.15ZM1831.05 1554.12C1837.08 1554.12 1842.18 1552.92 1846.36 1550.53C1850.61 1548.06 1853.83 1544.46 1856.02 1539.74C1858.21 1534.94 1859.31 1529.15 1859.31 1522.37C1859.31 1515.59 1858.21 1509.83 1856.02 1505.11C1853.83 1500.38 1850.61 1496.82 1846.36 1494.42C1842.18 1491.95 1837.08 1490.72 1831.05 1490.72H1824.17V1554.12H1831.05ZM1965.7 1535.11V1558.13H1905.49V1555.97C1908.09 1555.7 1910.01 1555.29 1911.24 1554.74C1912.48 1554.12 1913.37 1553.2 1913.92 1551.96C1914.46 1550.66 1914.77 1548.71 1914.84 1546.11V1545.49V1499.15C1914.84 1496.48 1914.57 1494.46 1914.02 1493.09C1913.54 1491.72 1912.65 1490.72 1911.35 1490.11C1910.05 1489.49 1908.09 1489.08 1905.49 1488.87V1486.71H1962.93V1505.83H1960.77C1960.29 1502.26 1959.4 1499.39 1958.1 1497.2C1956.87 1495 1955.02 1493.39 1952.55 1492.37C1950.15 1491.34 1947 1490.82 1943.1 1490.82H1928.4V1519.9H1937.04C1940.26 1519.9 1942.86 1519.53 1944.85 1518.77C1946.9 1517.95 1948.41 1516.75 1949.37 1515.18C1950.39 1513.53 1951.05 1511.41 1951.32 1508.81H1953.58V1535.11H1951.32C1951.05 1532.44 1950.39 1530.32 1949.37 1528.74C1948.41 1527.1 1946.9 1525.9 1944.85 1525.14C1942.86 1524.39 1940.26 1524.01 1937.04 1524.01H1928.4V1554.02H1943.92C1947.69 1554.02 1950.87 1553.47 1953.48 1552.38C1956.08 1551.21 1958.2 1549.26 1959.85 1546.52C1961.56 1543.78 1962.76 1539.98 1963.44 1535.11H1965.7ZM1996.88 1555.97C1999.49 1555.77 2001.44 1555.32 2002.74 1554.64C2004.04 1553.95 2004.93 1552.92 2005.41 1551.55C2005.96 1550.11 2006.24 1548.03 2006.24 1545.28V1496.68L1998.43 1487.23V1486.71H2017.95L2053.91 1534.29H2054.53V1499.35C2054.53 1496.68 2054.26 1494.66 2053.71 1493.29C2053.23 1491.85 2052.34 1490.82 2051.04 1490.21C2049.74 1489.52 2047.78 1489.08 2045.18 1488.87V1486.71H2068.51V1488.87C2065.9 1489.08 2063.95 1489.52 2062.65 1490.21C2061.42 1490.82 2060.52 1491.85 2059.98 1493.29C2059.43 1494.66 2059.15 1496.68 2059.15 1499.35V1558.85H2054.84L2011.48 1501.82H2010.86V1545.28C2010.86 1548.03 2011.13 1550.11 2011.68 1551.55C2012.23 1552.92 2013.12 1553.95 2014.35 1554.64C2015.65 1555.32 2017.61 1555.77 2020.21 1555.97V1558.13H1996.88V1555.97Z" fill="black"/>
<path d="M1504.59 1673.83C1503.49 1670.82 1502.43 1668.49 1501.4 1666.84C1500.44 1665.13 1499.17 1663.83 1497.6 1662.94C1496.09 1661.98 1494.07 1661.3 1491.54 1660.89V1659.34H1529.25V1660.89C1525.34 1661.23 1522.57 1661.91 1520.92 1662.94C1519.28 1663.97 1518.42 1665.3 1518.36 1666.95C1518.29 1668.52 1518.73 1670.68 1519.69 1673.42L1531.2 1707.95H1531.61L1543.74 1675.37L1537.57 1659.34H1552.98L1570.97 1707.02H1571.27L1581.86 1675.48C1583.02 1671.85 1583.64 1669.14 1583.71 1667.36C1583.84 1665.51 1583.13 1664.07 1581.55 1663.04C1580.04 1661.95 1577.23 1661.23 1573.12 1660.89V1659.34H1599.02V1660.89C1596 1661.3 1593.64 1662.08 1591.93 1663.25C1590.22 1664.34 1588.85 1665.82 1587.82 1667.67C1586.79 1669.52 1585.73 1672.09 1584.63 1675.37L1565.73 1732.09H1565.31L1545.38 1679.48H1544.97L1525.24 1732.09H1524.93L1504.59 1673.83ZM1609.62 1729.22C1613.11 1728.74 1615.68 1727.74 1617.32 1726.24C1619.03 1724.66 1620.64 1722.13 1622.15 1718.63C1622.29 1718.36 1622.43 1718.09 1622.56 1717.81C1622.7 1717.47 1622.84 1717.13 1622.97 1716.78L1647.12 1657.91H1647.43L1673.32 1716.68C1673.46 1717.02 1673.6 1717.37 1673.74 1717.71C1673.87 1718.05 1674.01 1718.39 1674.15 1718.74C1675.31 1721.2 1676.34 1723.12 1677.23 1724.49C1678.19 1725.79 1679.32 1726.82 1680.62 1727.57C1681.99 1728.26 1683.77 1728.81 1685.96 1729.22V1730.76H1648.05V1729.22C1651.75 1728.87 1654.45 1728.22 1656.16 1727.27C1657.94 1726.24 1658.94 1724.97 1659.14 1723.46C1659.35 1721.89 1658.94 1719.94 1657.91 1717.61L1641.37 1679.18H1641.06L1625.65 1716.89C1624.48 1719.76 1624.04 1721.99 1624.31 1723.57C1624.58 1725.14 1625.71 1726.37 1627.7 1727.27C1629.69 1728.16 1632.91 1728.81 1637.36 1729.22V1730.76H1609.62V1729.22ZM1628.42 1707.33V1704.97H1656.99V1707.33H1628.42ZM1711.6 1729.22C1714.89 1729.01 1717.35 1728.6 1719 1727.98C1720.71 1727.3 1721.91 1726.2 1722.59 1724.7C1723.28 1723.19 1723.62 1720.96 1723.62 1718.02V1672.09C1723.62 1669.14 1723.28 1666.91 1722.59 1665.41C1721.91 1663.9 1720.74 1662.84 1719.1 1662.22C1717.45 1661.54 1714.95 1661.09 1711.6 1660.89V1659.34H1749.93V1660.89C1746.57 1661.09 1744.07 1661.54 1742.42 1662.22C1740.78 1662.84 1739.62 1663.9 1738.93 1665.41C1738.25 1666.91 1737.9 1669.14 1737.9 1672.09V1728.7H1744.17C1749.03 1728.7 1753.08 1727.95 1756.3 1726.44C1759.58 1724.94 1762.29 1722.13 1764.41 1718.02C1766.54 1713.91 1768.04 1708.02 1768.93 1700.34H1770.37V1730.76H1711.6V1729.22ZM1811.9 1672.19C1811.9 1669.24 1811.56 1667.02 1810.87 1665.51C1810.19 1664 1808.99 1662.91 1807.28 1662.22C1805.63 1661.54 1803.17 1661.09 1799.88 1660.89V1659.34H1834.61C1843.1 1659.34 1850.54 1660.82 1856.91 1663.76C1863.28 1666.71 1868.21 1670.89 1871.7 1676.3C1875.2 1681.64 1876.95 1687.91 1876.95 1695.1C1876.95 1702.3 1875.2 1708.6 1871.7 1714.01C1868.21 1719.35 1863.28 1723.5 1856.91 1726.44C1850.54 1729.32 1843.1 1730.76 1834.61 1730.76H1799.88V1729.22C1803.17 1729.01 1805.63 1728.57 1807.28 1727.88C1808.99 1727.2 1810.19 1726.1 1810.87 1724.59C1811.56 1723.09 1811.9 1720.86 1811.9 1717.91V1672.19ZM1832.14 1728.7C1838.24 1728.7 1843.38 1727.4 1847.56 1724.8C1851.8 1722.13 1854.99 1718.29 1857.11 1713.29C1859.31 1708.22 1860.4 1702.16 1860.4 1695.1C1860.4 1688.05 1859.31 1682.02 1857.11 1677.02C1854.99 1671.95 1851.8 1668.08 1847.56 1665.41C1843.38 1662.73 1838.24 1661.4 1832.14 1661.4H1826.18V1728.7H1832.14ZM1969.33 1703.84V1730.76H1905.62V1729.22C1908.84 1729.01 1911.27 1728.6 1912.92 1727.98C1914.56 1727.37 1915.72 1726.34 1916.41 1724.9C1917.16 1723.46 1917.57 1721.37 1917.64 1718.63V1718.02V1672.19C1917.64 1669.24 1917.3 1667.02 1916.62 1665.51C1915.93 1663.93 1914.73 1662.84 1913.02 1662.22C1911.37 1661.54 1908.91 1661.09 1905.62 1660.89V1659.34H1966.04V1681.03H1964.5C1963.95 1676.44 1962.92 1672.74 1961.42 1669.93C1959.98 1667.05 1957.89 1664.93 1955.15 1663.56C1952.41 1662.12 1948.85 1661.4 1944.46 1661.4H1931.93V1693.46H1936.96C1940.59 1693.46 1943.54 1692.98 1945.8 1692.02C1948.13 1690.99 1949.91 1689.45 1951.14 1687.4C1952.37 1685.27 1953.2 1682.5 1953.61 1679.07H1955.05V1710H1953.61C1953.2 1706.58 1952.37 1703.8 1951.14 1701.68C1949.91 1699.56 1948.13 1698.01 1945.8 1697.05C1943.54 1696.03 1940.56 1695.51 1936.86 1695.51H1931.93V1728.7H1944.05C1948.57 1728.7 1952.41 1727.98 1955.56 1726.55C1958.71 1725.04 1961.31 1722.47 1963.37 1718.84C1965.42 1715.21 1966.93 1710.21 1967.89 1703.84H1969.33ZM1998.52 1729.22C2001.88 1729.01 2004.38 1728.57 2006.02 1727.88C2007.73 1727.2 2008.9 1726.1 2009.52 1724.59C2010.2 1723.09 2010.54 1720.86 2010.54 1717.91V1671.88L2000.27 1659.75V1659.34H2020.92L2058.02 1704.45H2058.43V1672.19C2058.43 1669.24 2058.08 1667.02 2057.4 1665.51C2056.71 1664 2055.52 1662.91 2053.8 1662.22C2052.16 1661.54 2049.69 1661.09 2046.4 1660.89V1659.34H2073.02V1660.89C2069.73 1661.09 2067.23 1661.54 2065.52 1662.22C2063.87 1662.91 2062.71 1664 2062.02 1665.51C2061.34 1667.02 2061 1669.24 2061 1672.19V1732.09H2060.69L2013.52 1675.07H2013.21V1717.91C2013.21 1720.86 2013.56 1723.09 2014.24 1724.59C2014.93 1726.1 2016.09 1727.2 2017.74 1727.88C2019.38 1728.57 2021.88 1729.01 2025.24 1729.22V1730.76H1998.52V1729.22Z" fill="black"/>
<path d="M100.351 1499.25C99.597 1496.99 98.8093 1495.14 97.9872 1493.7C97.2337 1492.26 96.2061 1491.13 94.9045 1490.31C93.603 1489.49 91.9246 1488.87 89.8695 1488.46V1486.71H115.969V1488.46C112.818 1488.8 110.592 1489.42 109.29 1490.31C108.057 1491.13 107.406 1492.16 107.338 1493.39C107.338 1494.63 107.68 1496.41 108.366 1498.74L122.443 1544.57H122.854L139.295 1498.53L135.287 1486.71H143.713L162.518 1544.05H162.929L176.903 1500.18C177.794 1497.37 178.239 1495.24 178.239 1493.8C178.308 1492.3 177.76 1491.13 176.595 1490.31C175.431 1489.42 173.376 1488.8 170.43 1488.46V1486.71H191.289V1488.46C189.029 1488.94 187.248 1489.63 185.946 1490.52C184.644 1491.41 183.617 1492.57 182.863 1494.01C182.11 1495.45 181.288 1497.47 180.397 1500.07L161.593 1558.64H159.23L141.247 1503.98H140.734L121.21 1558.64H118.847L100.351 1499.25ZM207.553 1556.38C210.224 1555.9 212.245 1555.05 213.615 1553.81C214.985 1552.51 216.253 1550.49 217.417 1547.75C217.486 1547.48 217.554 1547.24 217.623 1547.03C217.76 1546.76 217.862 1546.48 217.931 1546.21L241.462 1486.2H243.62L268.384 1545.59C268.521 1545.87 268.658 1546.18 268.795 1546.52C268.932 1546.79 269.035 1547.07 269.103 1547.34C270.062 1549.46 270.919 1551.11 271.672 1552.27C272.426 1553.37 273.316 1554.26 274.344 1554.94C275.44 1555.56 276.878 1556.04 278.66 1556.38V1558.13H252.765V1556.38C255.711 1556.11 257.834 1555.59 259.136 1554.84C260.506 1554.02 261.225 1552.96 261.294 1551.66C261.431 1550.29 261.054 1548.5 260.164 1546.31L240.434 1498.53H240.126L221.425 1546.42C220.534 1548.61 220.157 1550.35 220.294 1551.66C220.431 1552.96 221.151 1553.98 222.452 1554.74C223.822 1555.49 226.049 1556.04 229.131 1556.38V1558.13H207.553V1556.38ZM225.124 1533.88V1530.69H256.875V1533.88H225.124ZM307.659 1556.38C310.331 1556.18 312.317 1555.77 313.619 1555.15C314.989 1554.53 315.914 1553.54 316.393 1552.17C316.941 1550.8 317.215 1548.74 317.215 1546V1498.84C317.215 1496.03 316.941 1493.94 316.393 1492.57C315.914 1491.2 314.989 1490.24 313.619 1489.69C312.317 1489.08 310.331 1488.67 307.659 1488.46V1486.71H334.581V1488.46C331.909 1488.67 329.923 1489.08 328.621 1489.69C327.32 1490.24 326.395 1491.2 325.847 1492.57C325.367 1493.94 325.127 1496.03 325.127 1498.84V1555.15H339.822C344.069 1555.15 347.46 1554.6 349.994 1553.51C352.597 1552.41 354.653 1550.35 356.16 1547.34C357.667 1544.26 358.66 1539.77 359.14 1533.88H360.989V1558.13H307.659V1556.38ZM402.89 1499.15C402.89 1496.2 402.616 1494.04 402.068 1492.67C401.52 1491.24 400.595 1490.24 399.294 1489.69C398.061 1489.15 396.074 1488.74 393.334 1488.46V1486.71H422.825C430.771 1486.71 437.758 1488.19 443.787 1491.13C449.815 1494.01 454.473 1498.15 457.762 1503.57C461.118 1508.98 462.797 1515.25 462.797 1522.37C462.797 1529.56 461.118 1535.87 457.762 1541.28C454.473 1546.69 449.815 1550.87 443.787 1553.81C437.758 1556.69 430.771 1558.13 422.825 1558.13H393.334V1556.38C396.074 1556.18 398.095 1555.77 399.396 1555.15C400.698 1554.53 401.589 1553.54 402.068 1552.17C402.616 1550.73 402.89 1548.57 402.89 1545.7V1499.15ZM420.975 1555.15C427.688 1555.15 433.477 1553.88 438.341 1551.35C443.273 1548.74 447.041 1545.01 449.644 1540.15C452.316 1535.21 453.651 1529.29 453.651 1522.37C453.651 1515.59 452.316 1509.73 449.644 1504.8C447.041 1499.87 443.273 1496.13 438.341 1493.6C433.477 1491 427.688 1489.69 420.975 1489.69H410.7V1555.15H420.975ZM553.716 1536.86V1558.13H495.762V1556.38C498.434 1556.18 500.386 1555.8 501.619 1555.25C502.92 1554.7 503.845 1553.81 504.393 1552.58C505.01 1551.28 505.318 1549.29 505.318 1546.62V1546V1498.84C505.318 1496.03 505.044 1493.94 504.496 1492.57C504.017 1491.2 503.092 1490.24 501.722 1489.69C500.42 1489.08 498.434 1488.67 495.762 1488.46V1486.71H550.942V1503.98H549.195C548.852 1500.55 548.099 1497.81 546.934 1495.76C545.838 1493.63 544.125 1492.09 541.796 1491.13C539.536 1490.17 536.522 1489.69 532.754 1489.69H513.128V1520.42H527C530.014 1520.42 532.411 1520.04 534.192 1519.29C535.974 1518.53 537.275 1517.4 538.097 1515.9C538.988 1514.39 539.536 1512.33 539.741 1509.73H541.591V1534.08H539.741C539.536 1531.48 538.988 1529.43 538.097 1527.92C537.275 1526.41 535.939 1525.28 534.09 1524.53C532.309 1523.77 529.911 1523.4 526.897 1523.4H513.128V1555.15H534.09C537.926 1555.15 541.043 1554.6 543.44 1553.51C545.838 1552.34 547.722 1550.46 549.092 1547.85C550.531 1545.25 551.49 1541.59 551.969 1536.86H553.716ZM586.848 1556.38C589.588 1556.11 591.575 1555.7 592.808 1555.15C594.11 1554.53 595.034 1553.57 595.582 1552.27C596.13 1550.9 596.404 1548.81 596.404 1546V1495.65L589.417 1487.02V1486.71H600.617L644.494 1543.74H644.905V1498.84C644.905 1496.03 644.631 1493.94 644.083 1492.57C643.535 1491.2 642.61 1490.24 641.309 1489.69C640.007 1489.08 638.02 1488.67 635.349 1488.46V1486.71H657.75V1488.46C655.078 1488.67 653.091 1489.08 651.79 1489.69C650.488 1490.24 649.563 1491.2 649.015 1492.57C648.467 1493.94 648.193 1496.03 648.193 1498.84V1558.64H645.624L600.206 1499.46H599.795V1546C599.795 1548.81 600.069 1550.9 600.617 1552.27C601.165 1553.57 602.056 1554.53 603.289 1555.15C604.591 1555.7 606.612 1556.11 609.352 1556.38V1558.13H586.848V1556.38Z" fill="black"/>
<path d="M98.7459 1671.67C97.9924 1669.35 97.1361 1667.46 96.177 1666.02C95.2865 1664.52 94.0534 1663.32 92.4778 1662.43C90.9022 1661.54 88.8471 1660.92 86.3125 1660.58V1659.34H117.858V1660.58C113.748 1660.92 110.803 1661.54 109.021 1662.43C107.309 1663.25 106.384 1664.31 106.247 1665.61C106.179 1666.91 106.487 1668.73 107.172 1671.06L121.558 1716.17H121.866L137.279 1672.29L132.861 1659.34H141.389L160.81 1715.96H161.016L175.402 1673.01C176.429 1670 176.909 1667.7 176.84 1666.13C176.772 1664.55 175.915 1663.32 174.271 1662.43C172.696 1661.54 169.99 1660.92 166.154 1660.58V1659.34H190.712V1660.58C187.903 1661.06 185.711 1661.78 184.136 1662.73C182.56 1663.69 181.327 1664.93 180.437 1666.43C179.546 1667.94 178.655 1670.1 177.765 1672.91L158.036 1731.79H157.83L138.615 1676.09H138.307L118.578 1731.79H118.269L98.7459 1671.67ZM204.199 1729.53C207.487 1729.05 209.919 1728.16 211.494 1726.85C213.139 1725.55 214.543 1723.53 215.707 1720.79C215.844 1720.52 215.947 1720.28 216.016 1720.07C216.153 1719.8 216.255 1719.52 216.324 1719.25L239.958 1658.32H240.266L265.647 1718.53C265.784 1718.8 265.886 1719.11 265.955 1719.46C266.092 1719.73 266.229 1720 266.366 1720.28C267.393 1722.47 268.318 1724.15 269.14 1725.31C270.031 1726.48 271.093 1727.4 272.326 1728.09C273.627 1728.7 275.34 1729.18 277.463 1729.53V1730.76H246.431V1729.53C250.268 1729.25 253.076 1728.74 254.857 1727.98C256.707 1727.16 257.769 1726.07 258.043 1724.7C258.317 1723.33 258.008 1721.58 257.118 1719.46L237.286 1671.67H236.978L218.585 1719.46C217.763 1721.65 217.488 1723.39 217.763 1724.7C218.037 1726 219.098 1727.03 220.948 1727.78C222.798 1728.53 225.743 1729.11 229.785 1729.53V1730.76H204.199V1729.53ZM223.311 1705.58V1703.53H253.521V1705.58H223.311ZM304.374 1729.53C307.799 1729.32 310.368 1728.94 312.081 1728.4C313.793 1727.78 314.992 1726.75 315.677 1725.31C316.431 1723.87 316.808 1721.72 316.808 1718.84V1671.26C316.808 1668.39 316.431 1666.23 315.677 1664.79C314.992 1663.35 313.793 1662.36 312.081 1661.81C310.368 1661.19 307.799 1660.78 304.374 1660.58V1659.34H337.256V1660.58C333.831 1660.78 331.262 1661.19 329.549 1661.81C327.905 1662.36 326.706 1663.35 325.953 1664.79C325.268 1666.23 324.925 1668.39 324.925 1671.26V1729.01H336.126C341.263 1729.01 345.374 1728.29 348.456 1726.85C351.539 1725.35 353.971 1722.64 355.752 1718.74C357.602 1714.76 358.835 1708.97 359.451 1701.37H360.684V1730.76H304.374V1729.53ZM404.186 1671.67C404.186 1668.66 403.843 1666.43 403.158 1665C402.473 1663.56 401.274 1662.53 399.562 1661.91C397.918 1661.3 395.315 1660.85 391.752 1660.58V1659.34H423.607C431.69 1659.34 438.815 1660.82 444.98 1663.76C451.145 1666.64 455.906 1670.78 459.263 1676.2C462.688 1681.61 464.401 1687.91 464.401 1695.1C464.401 1702.36 462.688 1708.7 459.263 1714.11C455.906 1719.46 451.145 1723.57 444.98 1726.44C438.815 1729.32 431.69 1730.76 423.607 1730.76H391.752V1729.53C395.246 1729.32 397.849 1728.91 399.562 1728.29C401.274 1727.68 402.473 1726.65 403.158 1725.21C403.843 1723.7 404.186 1721.44 404.186 1718.43V1671.67ZM421.654 1729.01C428.436 1729.01 434.293 1727.68 439.226 1725C444.158 1722.33 447.96 1718.46 450.631 1713.39C453.303 1708.32 454.639 1702.23 454.639 1695.1C454.639 1688.05 453.303 1681.98 450.631 1676.91C447.96 1671.78 444.158 1667.87 439.226 1665.2C434.293 1662.46 428.436 1661.09 421.654 1661.09H412.304V1729.01H421.654ZM556.837 1705.17V1730.76H495.287V1729.53C498.712 1729.32 501.247 1728.94 502.891 1728.4C504.535 1727.85 505.734 1726.89 506.487 1725.52C507.241 1724.15 507.652 1722.09 507.72 1719.35V1718.74V1671.37C507.72 1668.42 507.343 1666.23 506.59 1664.79C505.905 1663.35 504.706 1662.36 502.993 1661.81C501.349 1661.19 498.78 1660.78 495.287 1660.58V1659.34H553.446V1679.79H552.316C551.837 1675.34 550.946 1671.78 549.644 1669.11C548.411 1666.37 546.527 1664.34 543.993 1663.04C541.527 1661.74 538.17 1661.09 533.923 1661.09H515.838V1693.56H527.141C530.361 1693.56 532.964 1693.08 534.95 1692.12C536.937 1691.16 538.41 1689.69 539.369 1687.7C540.328 1685.72 540.979 1683.08 541.321 1679.79H542.554V1709.18H541.321C540.979 1705.89 540.294 1703.25 539.266 1701.27C538.307 1699.28 536.834 1697.81 534.848 1696.85C532.929 1695.89 530.361 1695.41 527.141 1695.41H515.838V1729.01H534.231C538.821 1729.01 542.554 1728.29 545.431 1726.85C548.377 1725.35 550.672 1722.88 552.316 1719.46C553.96 1716.03 555.09 1711.27 555.707 1705.17H556.837ZM588.079 1729.53C591.573 1729.25 594.142 1728.84 595.786 1728.29C597.43 1727.68 598.594 1726.68 599.279 1725.31C600.033 1723.87 600.41 1721.65 600.41 1718.63V1670.75L591.162 1659.65V1659.34H602.876L647.78 1714.93H647.985V1671.47C647.985 1668.52 647.643 1666.33 646.958 1664.89C646.273 1663.45 645.074 1662.46 643.361 1661.91C641.717 1661.3 639.148 1660.85 635.655 1660.58V1659.34H662.577V1660.58C659.083 1660.85 656.48 1661.3 654.767 1661.91C653.055 1662.46 651.856 1663.45 651.171 1664.89C650.486 1666.33 650.143 1668.52 650.143 1671.47V1731.79H649.938L602.876 1673.42H602.567V1718.63C602.567 1721.65 602.91 1723.87 603.595 1725.31C604.349 1726.68 605.547 1727.68 607.191 1728.29C608.836 1728.84 611.404 1729.25 614.898 1729.53V1730.76H588.079V1729.53Z" fill="black"/>
<path d="M803.72 1157.49C803.104 1155.09 802.453 1153 801.768 1151.22C801.151 1149.44 800.466 1147.79 799.713 1146.29C798.959 1144.78 798.069 1143.31 797.041 1141.87V1141.46H813.79V1141.87C813.105 1143.37 812.694 1144.88 812.557 1146.39C812.42 1147.83 812.489 1149.4 812.763 1151.11C813.037 1152.76 813.482 1154.78 814.099 1157.18L825.299 1199H825.71L841.123 1147L839.274 1141.46H851.296L867.12 1198.38H867.634L879.04 1156.97C879.725 1154.51 880.205 1152.42 880.479 1150.7C880.753 1148.99 880.821 1147.42 880.684 1145.98C880.616 1144.54 880.273 1143.17 879.657 1141.87V1141.46H893.631V1141.87C892.604 1143.17 891.679 1144.57 890.857 1146.08C890.035 1147.59 889.316 1149.23 888.699 1151.01C888.083 1152.72 887.432 1154.75 886.747 1157.07L870.922 1212.87H861.572L846.056 1156.77H845.542L828.587 1212.87H818.928L803.72 1157.49ZM914.707 1212.46C916.215 1211.02 917.413 1209.34 918.304 1207.42C919.263 1205.51 920.462 1202.77 921.9 1199.2C922.037 1198.86 922.174 1198.52 922.311 1198.18C922.448 1197.77 922.585 1197.39 922.722 1197.05L944.507 1141.46H953.344L975.539 1196.53C975.744 1196.94 975.916 1197.35 976.053 1197.77C976.19 1198.11 976.327 1198.45 976.464 1198.79C977.217 1200.78 977.971 1202.66 978.724 1204.44C979.478 1206.16 980.231 1207.66 980.985 1208.97C981.807 1210.27 982.663 1211.43 983.554 1212.46V1212.87H966.496V1212.46C967.113 1211.36 967.455 1210.03 967.524 1208.45C967.592 1206.88 967.387 1205.13 966.907 1203.21C966.428 1201.29 965.743 1199.2 964.852 1196.94L947.795 1153.99H947.384L930.737 1197.15C929.847 1199.48 929.162 1201.6 928.682 1203.52C928.271 1205.37 928.1 1207.05 928.168 1208.55C928.305 1210.06 928.716 1211.36 929.402 1212.46V1212.87H914.707V1212.46ZM930.224 1191.5V1184.41H964.544V1191.5H930.224ZM1016.19 1212.46C1017.01 1211.36 1017.66 1210.13 1018.14 1208.76C1018.62 1207.32 1018.97 1205.71 1019.17 1203.93C1019.38 1202.08 1019.48 1199.96 1019.48 1197.56V1157.28C1019.48 1154.68 1019.38 1152.48 1019.17 1150.7C1018.97 1148.85 1018.62 1147.24 1018.14 1145.87C1017.66 1144.44 1017.01 1143.1 1016.19 1141.87V1141.46H1032.84V1141.87C1031.95 1143.1 1031.26 1144.44 1030.78 1145.87C1030.3 1147.24 1029.96 1148.82 1029.75 1150.6C1029.62 1152.38 1029.55 1154.61 1029.55 1157.28V1205.78H1047.74C1050.68 1205.78 1053.15 1205.57 1055.13 1205.16C1057.19 1204.75 1058.9 1204.03 1060.27 1203.01C1061.71 1201.91 1062.84 1200.37 1063.66 1198.38H1064.18V1212.87H1016.19V1212.46ZM1101.74 1157.38C1101.74 1154.64 1101.64 1152.38 1101.43 1150.6C1101.23 1148.75 1100.89 1147.14 1100.41 1145.77C1099.93 1144.4 1099.28 1143.1 1098.45 1141.87V1141.46H1124.55C1132.23 1141.46 1138.94 1142.96 1144.69 1145.98C1150.52 1148.92 1155 1153.1 1158.15 1158.51C1161.37 1163.92 1162.98 1170.12 1162.98 1177.11C1162.98 1184.17 1161.37 1190.4 1158.15 1195.81C1155 1201.22 1150.52 1205.44 1144.69 1208.45C1138.94 1211.4 1132.23 1212.87 1124.55 1212.87H1098.45V1212.46C1099.41 1211.3 1100.13 1209.99 1100.61 1208.55C1101.09 1207.05 1101.4 1205.4 1101.54 1203.62C1101.67 1201.77 1101.74 1199.41 1101.74 1196.53V1157.38ZM1122.29 1205.99C1128.25 1205.99 1133.46 1204.92 1137.91 1202.8C1142.36 1200.61 1145.79 1197.35 1148.19 1193.04C1150.65 1188.72 1151.89 1183.41 1151.89 1177.11C1151.89 1170.81 1150.65 1165.53 1148.19 1161.29C1145.79 1156.97 1142.36 1153.75 1137.91 1151.63C1133.46 1149.44 1128.25 1148.34 1122.29 1148.34H1111.81V1205.99H1122.29ZM1250.55 1199.51V1212.87H1199.28V1212.46C1200.1 1211.3 1200.75 1210.03 1201.23 1208.66C1201.71 1207.29 1202.05 1205.71 1202.26 1203.93C1202.46 1202.15 1202.56 1200.03 1202.56 1197.56V1196.94V1157.28C1202.56 1154.68 1202.46 1152.45 1202.26 1150.6C1202.12 1148.75 1201.81 1147.14 1201.33 1145.77C1200.85 1144.33 1200.17 1143.03 1199.28 1141.87V1141.46H1249.22V1153.48H1248.7C1247.74 1152.24 1246.61 1151.29 1245.31 1150.6C1244.01 1149.85 1242.36 1149.33 1240.38 1149.06C1238.46 1148.72 1235.99 1148.55 1232.98 1148.55H1212.63V1173.21H1228.25C1230.92 1173.21 1233.15 1173.07 1234.93 1172.8C1236.78 1172.52 1238.29 1172.11 1239.45 1171.56C1240.69 1171.01 1241.71 1170.3 1242.54 1169.41H1243.05V1184H1242.54C1241.71 1183.04 1240.69 1182.28 1239.45 1181.74C1238.29 1181.19 1236.82 1180.81 1235.03 1180.61C1233.25 1180.33 1230.99 1180.19 1228.25 1180.19H1212.63V1205.78H1234.42C1237.23 1205.78 1239.59 1205.61 1241.51 1205.27C1243.5 1204.86 1245.17 1204.2 1246.54 1203.31C1247.98 1202.36 1249.15 1201.09 1250.04 1199.51H1250.55ZM1287.16 1212.46C1287.98 1211.3 1288.63 1209.99 1289.11 1208.55C1289.59 1207.12 1289.9 1205.51 1290.03 1203.73C1290.24 1201.88 1290.34 1199.62 1290.34 1196.94V1145.46L1287.98 1141.66V1141.46H1302.88L1338.94 1198.48H1339.46V1157.28C1339.46 1154.61 1339.36 1152.38 1339.15 1150.6C1339.01 1148.75 1338.71 1147.14 1338.23 1145.77C1337.75 1144.33 1337.06 1143.03 1336.17 1141.87V1141.46H1350.56V1141.87C1349.73 1143.03 1349.08 1144.33 1348.6 1145.77C1348.12 1147.14 1347.78 1148.75 1347.58 1150.6C1347.37 1152.45 1347.27 1154.68 1347.27 1157.28V1212.87H1336.58L1298.77 1153.38H1298.25V1196.94C1298.25 1199.55 1298.36 1201.77 1298.56 1203.62C1298.77 1205.47 1299.11 1207.12 1299.59 1208.55C1300.07 1209.99 1300.72 1211.3 1301.54 1212.46V1212.87H1287.16V1212.46Z" fill="black"/>
<path d="M807.176 990.508C806.56 988.11 805.943 985.712 805.326 983.315C804.71 980.917 804.093 978.519 803.477 976.122C802.86 973.656 802.244 971.224 801.627 968.826H812.006C812.622 971.224 813.204 973.621 813.752 976.019C814.369 978.417 814.951 980.78 815.499 983.109C816.047 985.438 816.63 987.767 817.246 990.097L826.802 1028.73H827.111L842.216 968.826H854.855L869.446 1028.73H869.754L880.03 989.069C880.509 986.877 881.057 984.685 881.674 982.493C882.29 980.232 882.873 977.971 883.421 975.711C884.037 973.382 884.654 971.087 885.27 968.826H895.032C894.416 971.155 893.799 973.484 893.182 975.813C892.566 978.074 891.949 980.369 891.333 982.698C890.716 984.959 890.1 987.219 889.483 989.48L875.714 1040.24H863.281L848.484 979.513H848.176L832.659 1040.24H820.021L807.176 990.508ZM919.191 1040.24C920.355 1037.16 921.588 1033.94 922.89 1030.58C924.192 1027.23 925.493 1023.8 926.795 1020.31C926.932 1019.96 927.035 1019.66 927.103 1019.38C927.24 1019.04 927.377 1018.7 927.514 1018.35L946.524 968.826H958.341L977.35 1018.05C977.487 1018.39 977.59 1018.7 977.659 1018.97C977.796 1019.24 977.933 1019.55 978.07 1019.9C978.96 1022.22 979.851 1024.59 980.741 1026.99C981.7 1029.31 982.591 1031.61 983.413 1033.87C984.304 1036.06 985.16 1038.19 985.982 1040.24H975.193C974.371 1038.05 973.48 1035.75 972.521 1033.36C971.63 1030.89 970.706 1028.39 969.747 1025.86C968.856 1023.32 967.931 1020.79 966.972 1018.25L952.278 979.615H951.867L937.276 1018.46C936.385 1020.92 935.46 1023.42 934.501 1025.96C933.611 1028.49 932.72 1030.96 931.83 1033.36C930.939 1035.75 930.083 1038.05 929.261 1040.24H919.191ZM933.679 1019.9V1011.16H969.644V1019.9H933.679ZM1020.81 1040.24C1020.81 1038.05 1020.81 1035.75 1020.81 1033.36C1020.81 1030.89 1020.81 1028.39 1020.81 1025.86C1020.81 1023.25 1020.81 1020.68 1020.81 1018.15V990.919C1020.81 988.384 1020.81 985.849 1020.81 983.315C1020.81 980.712 1020.81 978.211 1020.81 975.813C1020.81 973.347 1020.81 971.018 1020.81 968.826H1030.67C1030.67 971.018 1030.67 973.347 1030.67 975.813C1030.67 978.211 1030.67 980.712 1030.67 983.315C1030.67 985.849 1030.67 988.384 1030.67 990.919V1031.51H1048.04C1050.51 1031.51 1052.84 1031.51 1055.03 1031.51C1057.22 1031.51 1059.17 1031.51 1060.89 1031.51C1062.6 1031.51 1064.14 1031.51 1065.51 1031.51V1040.24H1020.81ZM1100.96 990.919C1100.96 988.384 1100.96 985.849 1100.96 983.315C1100.96 980.712 1100.96 978.211 1100.96 975.813C1100.96 973.347 1100.96 971.018 1100.96 968.826H1124.29C1131.76 968.826 1138.33 970.333 1144.02 973.347C1149.77 976.362 1154.19 980.574 1157.27 985.986C1160.42 991.398 1162 997.632 1162 1004.69C1162 1011.74 1160.42 1017.98 1157.27 1023.39C1154.19 1028.73 1149.77 1032.88 1144.02 1035.82C1138.33 1038.77 1131.76 1040.24 1124.29 1040.24H1100.96C1100.96 1038.05 1100.96 1035.75 1100.96 1033.36C1100.96 1030.89 1100.96 1028.39 1100.96 1025.86C1100.96 1023.25 1100.96 1020.68 1100.96 1018.15V990.919ZM1122.13 1031.82C1127.89 1031.82 1132.95 1030.86 1137.34 1028.94C1141.79 1027.02 1145.29 1024.04 1147.82 1020C1150.35 1015.96 1151.62 1010.85 1151.62 1004.69C1151.62 998.522 1150.35 993.419 1147.82 989.377C1145.29 985.267 1141.79 982.219 1137.34 980.232C1132.95 978.245 1127.89 977.252 1122.13 977.252H1110.83V1031.82H1122.13ZM1247.95 1031.51V1040.24H1200.68C1200.68 1038.12 1200.68 1035.89 1200.68 1033.56C1200.68 1031.16 1200.68 1028.73 1200.68 1026.27C1200.68 1023.73 1200.68 1021.23 1200.68 1018.77V1018.15V990.919C1200.68 988.384 1200.68 985.849 1200.68 983.315C1200.68 980.712 1200.68 978.211 1200.68 975.813C1200.68 973.347 1200.68 971.018 1200.68 968.826H1247.23V977.56C1245.66 977.56 1243.98 977.56 1242.2 977.56C1240.49 977.56 1238.6 977.56 1236.55 977.56C1234.49 977.56 1232.23 977.56 1229.76 977.56H1210.55V999.756H1225.35C1227.81 999.756 1230.07 999.756 1232.13 999.756C1234.18 999.756 1236.07 999.756 1237.78 999.756C1239.56 999.756 1241.24 999.756 1242.81 999.756V1008.49C1241.24 1008.49 1239.56 1008.49 1237.78 1008.49C1236.07 1008.49 1234.18 1008.49 1232.13 1008.49C1230.07 1008.49 1227.81 1008.49 1225.35 1008.49H1210.55V1031.51H1230.48C1232.95 1031.51 1235.21 1031.51 1237.27 1031.51C1239.32 1031.51 1241.2 1031.51 1242.92 1031.51C1244.7 1031.51 1246.38 1031.51 1247.95 1031.51ZM1286.76 1040.24C1286.76 1038.05 1286.76 1035.75 1286.76 1033.36C1286.76 1030.89 1286.76 1028.39 1286.76 1025.86C1286.76 1023.25 1286.76 1020.68 1286.76 1018.15V970.265V968.826H1301.45L1335.36 1028.73H1335.67V990.919C1335.67 988.384 1335.67 985.849 1335.67 983.315C1335.67 980.712 1335.67 978.211 1335.67 975.813C1335.67 973.347 1335.67 971.018 1335.67 968.826H1345.53C1345.53 971.018 1345.53 973.347 1345.53 975.813C1345.53 978.211 1345.53 980.712 1345.53 983.315C1345.53 985.849 1345.53 988.384 1345.53 990.919V1040.24H1331.15L1296.93 979.821H1296.62V1018.15C1296.62 1020.68 1296.62 1023.25 1296.62 1025.86C1296.62 1028.39 1296.62 1030.89 1296.62 1033.36C1296.62 1035.75 1296.62 1038.05 1296.62 1040.24H1286.76Z" fill="black"/>
<path d="M1507.96 1157.9C1507.34 1155.57 1506.69 1153.44 1506 1151.53C1505.39 1149.61 1504.7 1147.89 1503.95 1146.39C1503.19 1144.88 1502.34 1143.41 1501.38 1141.97V1141.46H1520.59V1141.97C1519.84 1143.48 1519.36 1145.02 1519.16 1146.59C1518.95 1148.1 1518.95 1149.71 1519.16 1151.42C1519.43 1153.14 1519.91 1155.22 1520.59 1157.69L1530.77 1196.43H1531.28L1545.15 1147.42L1542.99 1141.46H1557.79L1572.59 1196.02H1573.1L1583.38 1157.28C1584.06 1154.75 1584.54 1152.62 1584.82 1150.91C1585.09 1149.2 1585.12 1147.62 1584.92 1146.18C1584.78 1144.68 1584.37 1143.27 1583.69 1141.97V1141.46H1599.2V1141.97C1598.17 1143.34 1597.28 1144.78 1596.53 1146.29C1595.78 1147.72 1595.09 1149.37 1594.48 1151.22C1593.86 1153.07 1593.21 1155.16 1592.52 1157.49L1577.01 1212.87H1565.6L1551.01 1158.72H1550.5L1534.88 1212.87H1523.27L1507.96 1157.9ZM1619.25 1212.36C1620.75 1210.92 1621.95 1209.27 1622.84 1207.42C1623.8 1205.57 1624.97 1202.87 1626.34 1199.31C1626.47 1198.96 1626.61 1198.62 1626.75 1198.28C1626.88 1197.94 1627.02 1197.59 1627.16 1197.25L1648.94 1141.46H1659.42L1681.72 1196.74C1681.86 1197.01 1681.96 1197.29 1682.03 1197.56C1682.17 1197.83 1682.27 1198.11 1682.34 1198.38C1683.16 1200.37 1683.95 1202.29 1684.7 1204.14C1685.52 1205.92 1686.31 1207.46 1687.06 1208.76C1687.89 1210.06 1688.81 1211.26 1689.84 1212.36V1212.87H1670.32V1212.36C1671 1211.19 1671.34 1209.86 1671.34 1208.35C1671.41 1206.77 1671.21 1205.1 1670.73 1203.31C1670.32 1201.46 1669.66 1199.38 1668.77 1197.05L1652.85 1156.25H1652.33L1636.71 1197.05C1635.82 1199.38 1635.17 1201.46 1634.76 1203.31C1634.35 1205.16 1634.21 1206.84 1634.35 1208.35C1634.56 1209.86 1635.04 1211.19 1635.79 1212.36V1212.87H1619.25V1212.36ZM1635.48 1192.63V1184.41H1668.88V1192.63H1635.48ZM1721.53 1212.36C1722.28 1211.4 1722.9 1210.23 1723.38 1208.86C1723.86 1207.42 1724.2 1205.78 1724.41 1203.93C1724.61 1202.01 1724.71 1199.85 1724.71 1197.46V1157.28C1724.71 1154.75 1724.61 1152.62 1724.41 1150.91C1724.27 1149.13 1723.96 1147.52 1723.48 1146.08C1723.07 1144.64 1722.42 1143.27 1721.53 1141.97V1141.46H1740.13V1141.97C1739.24 1143.27 1738.55 1144.64 1738.07 1146.08C1737.66 1147.52 1737.39 1149.09 1737.25 1150.81C1737.11 1152.52 1737.05 1154.68 1737.05 1157.28V1204.65H1754C1756.88 1204.65 1759.31 1204.44 1761.3 1204.03C1763.28 1203.62 1764.96 1202.9 1766.33 1201.88C1767.77 1200.78 1768.97 1199.27 1769.93 1197.35H1770.54V1212.87H1721.53V1212.36ZM1807.18 1156.97C1807.18 1154.44 1807.07 1152.31 1806.87 1150.6C1806.73 1148.82 1806.42 1147.24 1805.94 1145.87C1805.53 1144.44 1804.92 1143.13 1804.09 1141.97V1141.46H1830.91C1838.72 1141.46 1845.57 1142.93 1851.46 1145.87C1857.36 1148.82 1861.91 1153 1865.13 1158.41C1868.35 1163.82 1869.96 1170.06 1869.96 1177.11C1869.96 1184.24 1868.35 1190.5 1865.13 1195.92C1861.91 1201.33 1857.36 1205.51 1851.46 1208.45C1845.57 1211.4 1838.72 1212.87 1830.91 1212.87H1804.09V1212.36C1804.98 1211.19 1805.63 1209.89 1806.05 1208.45C1806.53 1207.01 1806.83 1205.4 1806.97 1203.62C1807.11 1201.84 1807.18 1199.55 1807.18 1196.74V1156.97ZM1828.24 1204.86C1834 1204.86 1838.96 1203.9 1843.14 1201.98C1847.39 1199.99 1850.68 1196.94 1853.01 1192.83C1855.33 1188.65 1856.5 1183.41 1856.5 1177.11C1856.5 1170.81 1855.33 1165.6 1853.01 1161.49C1850.68 1157.31 1847.39 1154.27 1843.14 1152.35C1838.96 1150.43 1834 1149.47 1828.24 1149.47H1819.51V1204.86H1828.24ZM1957.93 1198.38V1212.87H1905.42V1212.36C1906.24 1211.19 1906.86 1209.92 1907.27 1208.55C1907.75 1207.18 1908.09 1205.64 1908.29 1203.93C1908.5 1202.15 1908.6 1200.03 1908.6 1197.56V1196.94V1156.97C1908.6 1154.44 1908.5 1152.28 1908.29 1150.5C1908.09 1148.72 1907.75 1147.14 1907.27 1145.77C1906.86 1144.4 1906.24 1143.13 1905.42 1141.97V1141.46H1956.38V1154.61H1955.87C1954.91 1153.38 1953.78 1152.42 1952.48 1151.73C1951.18 1150.98 1949.53 1150.46 1947.55 1150.19C1945.56 1149.85 1943.06 1149.68 1940.05 1149.68H1920.93V1172.69H1935.63C1938.3 1172.69 1940.53 1172.56 1942.31 1172.28C1944.09 1172.01 1945.53 1171.63 1946.62 1171.15C1947.79 1170.6 1948.81 1169.88 1949.71 1168.99H1950.32V1184.72H1949.71C1948.88 1183.76 1947.89 1183.04 1946.73 1182.56C1945.56 1182.01 1944.09 1181.6 1942.31 1181.32C1940.53 1181.05 1938.3 1180.91 1935.63 1180.91H1920.93V1204.65H1941.59C1944.4 1204.65 1946.76 1204.48 1948.68 1204.14C1950.66 1203.79 1952.34 1203.18 1953.71 1202.29C1955.15 1201.33 1956.35 1200.03 1957.31 1198.38H1957.93ZM1993.6 1212.36C1994.49 1211.26 1995.14 1209.99 1995.55 1208.55C1996.03 1207.05 1996.34 1205.37 1996.48 1203.52C1996.68 1201.67 1996.78 1199.48 1996.78 1196.94V1145.67L1994.22 1141.76V1141.46H2012.4L2045.08 1195.61H2045.7V1157.18C2045.7 1154.64 2045.59 1152.48 2045.39 1150.7C2045.25 1148.85 2044.94 1147.21 2044.46 1145.77C2043.98 1144.33 2043.33 1143.07 2042.51 1141.97V1141.46H2058.23V1141.97C2057.41 1143.07 2056.76 1144.33 2056.28 1145.77C2055.8 1147.21 2055.46 1148.85 2055.25 1150.7C2055.12 1152.48 2055.05 1154.64 2055.05 1157.18V1212.87H2041.89L2006.75 1155.12H2006.13V1196.94C2006.13 1199.48 2006.2 1201.67 2006.34 1203.52C2006.55 1205.37 2006.89 1207.05 2007.37 1208.55C2007.85 1209.99 2008.5 1211.26 2009.32 1212.36V1212.87H1993.6V1212.36Z" fill="black"/>
<path d="M1510.58 990.405C1509.97 988.007 1509.35 985.61 1508.73 983.212C1508.12 980.814 1507.5 978.417 1506.88 976.019C1506.27 973.621 1505.65 971.224 1505.03 968.826H1517.47C1518.02 971.361 1518.56 973.827 1519.11 976.225C1519.73 978.554 1520.31 980.883 1520.86 983.212C1521.41 985.541 1521.95 987.904 1522.5 990.302L1531.24 1026.99H1531.54L1545.11 968.826H1560.42L1573.78 1027.5H1574.09L1583.13 989.583C1583.68 987.322 1584.22 985.061 1584.77 982.801C1585.32 980.472 1585.87 978.177 1586.42 975.916C1586.96 973.587 1587.51 971.224 1588.06 968.826H1599.67C1599.06 971.224 1598.44 973.587 1597.82 975.916C1597.21 978.245 1596.59 980.575 1595.97 982.904C1595.42 985.233 1594.84 987.562 1594.23 989.891L1581.18 1040.24H1566.07L1552.61 981.157H1552.3L1538.53 1040.24H1523.12L1510.58 990.405ZM1622.9 1040.24C1624.06 1037.16 1625.3 1033.94 1626.6 1030.58C1627.9 1027.16 1629.24 1023.7 1630.61 1020.2C1630.74 1019.86 1630.84 1019.55 1630.91 1019.28C1631.05 1018.94 1631.19 1018.59 1631.32 1018.25L1650.03 968.826H1664L1683.01 1018.15C1683.15 1018.49 1683.25 1018.8 1683.32 1019.07C1683.46 1019.35 1683.59 1019.66 1683.73 1020C1684.62 1022.33 1685.51 1024.69 1686.4 1027.09C1687.36 1029.42 1688.25 1031.71 1689.07 1033.97C1689.96 1036.17 1690.79 1038.25 1691.54 1040.24H1678.8C1678.04 1038.05 1677.22 1035.75 1676.33 1033.36C1675.44 1030.89 1674.52 1028.39 1673.56 1025.86C1672.6 1023.25 1671.64 1020.68 1670.68 1018.15L1656.91 981.054H1656.6L1642.94 1018.46C1641.98 1020.92 1641.05 1023.42 1640.16 1025.96C1639.27 1028.49 1638.38 1030.96 1637.49 1033.36C1636.6 1035.75 1635.78 1038.05 1635.02 1040.24H1622.9ZM1638.41 1021.03V1010.96H1673.35V1021.03H1638.41ZM1725.42 1040.24C1725.42 1038.05 1725.42 1035.75 1725.42 1033.36C1725.42 1030.89 1725.42 1028.39 1725.42 1025.86C1725.42 1023.25 1725.42 1020.68 1725.42 1018.15V990.919C1725.42 988.384 1725.42 985.849 1725.42 983.315C1725.42 980.712 1725.42 978.211 1725.42 975.813C1725.42 973.347 1725.42 971.018 1725.42 968.826H1737.24C1737.24 971.018 1737.24 973.347 1737.24 975.813C1737.24 978.28 1737.24 980.78 1737.24 983.315C1737.24 985.849 1737.24 988.384 1737.24 990.919V1030.17H1753.58C1756.04 1030.17 1758.37 1030.17 1760.56 1030.17C1762.76 1030.17 1764.71 1030.17 1766.42 1030.17C1768.13 1030.17 1769.67 1030.17 1771.04 1030.17V1040.24H1725.42ZM1805.88 990.919C1805.88 988.384 1805.88 985.849 1805.88 983.315C1805.88 980.712 1805.88 978.211 1805.88 975.813C1805.88 973.347 1805.88 971.018 1805.88 968.826H1829.82C1837.49 968.826 1844.2 970.333 1849.96 973.347C1855.71 976.293 1860.13 980.472 1863.21 985.884C1866.36 991.295 1867.94 997.529 1867.94 1004.59C1867.94 1011.78 1866.36 1018.08 1863.21 1023.49C1860.13 1028.84 1855.71 1032.98 1849.96 1035.93C1844.2 1038.8 1837.49 1040.24 1829.82 1040.24H1805.88C1805.88 1038.05 1805.88 1035.75 1805.88 1033.36C1805.88 1030.89 1805.88 1028.39 1805.88 1025.86C1805.88 1023.25 1805.88 1020.68 1805.88 1018.15V990.919ZM1827.35 1030.48C1832.9 1030.48 1837.76 1029.62 1841.94 1027.91C1846.12 1026.2 1849.41 1023.42 1851.81 1019.59C1854.2 1015.75 1855.4 1010.75 1855.4 1004.59C1855.4 998.488 1854.2 993.522 1851.81 989.685C1849.41 985.781 1846.12 982.972 1841.94 981.26C1837.76 979.478 1832.9 978.588 1827.35 978.588H1817.69V1030.48H1827.35ZM1954.4 1030.17V1040.24H1905.8C1905.8 1038.12 1905.8 1035.89 1905.8 1033.56C1905.8 1031.16 1905.8 1028.73 1905.8 1026.27C1905.8 1023.73 1905.8 1021.23 1905.8 1018.77V1018.15V990.919C1905.8 988.384 1905.8 985.849 1905.8 983.315C1905.8 980.712 1905.8 978.211 1905.8 975.813C1905.8 973.347 1905.8 971.018 1905.8 968.826H1953.48V978.896C1951.9 978.896 1950.22 978.896 1948.44 978.896C1946.73 978.896 1944.84 978.896 1942.79 978.896C1940.73 978.896 1938.47 978.896 1936.01 978.896H1917.61V999.242H1931.49C1933.95 999.242 1936.21 999.242 1938.27 999.242C1940.32 999.242 1942.21 999.242 1943.92 999.242C1945.7 999.242 1947.38 999.242 1948.95 999.242V1009.31C1947.45 1009.31 1945.8 1009.31 1944.02 1009.31C1942.31 1009.31 1940.39 1009.31 1938.27 1009.31C1936.21 1009.31 1933.95 1009.31 1931.49 1009.31H1917.61V1030.17H1936.93C1939.4 1030.17 1941.66 1030.17 1943.71 1030.17C1945.77 1030.17 1947.65 1030.17 1949.37 1030.17C1951.15 1030.17 1952.83 1030.17 1954.4 1030.17ZM1992.37 1040.24C1992.37 1038.05 1992.37 1035.75 1992.37 1033.36C1992.37 1030.89 1992.37 1028.39 1992.37 1025.86C1992.37 1023.25 1992.37 1020.68 1992.37 1018.15V970.059V968.826H2010.15L2040.87 1027.09H2041.28V990.919C2041.28 988.384 2041.28 985.849 2041.28 983.315C2041.28 980.712 2041.28 978.211 2041.28 975.813C2041.28 973.347 2041.28 971.018 2041.28 968.826H2053C2053 971.018 2053 973.347 2053 975.813C2053 978.211 2053 980.712 2053 983.315C2053 985.849 2053 988.384 2053 990.919V1040.24H2035.32L2004.4 981.568H2004.09V1018.15C2004.09 1020.68 2004.09 1023.25 2004.09 1025.86C2004.09 1028.39 2004.09 1030.89 2004.09 1033.36C2004.09 1035.75 2004.09 1038.05 2004.09 1040.24H1992.37Z" fill="black"/>
<path d="M103.917 1156.77C103.3 1154.44 102.684 1152.45 102.067 1150.81C101.451 1149.09 100.766 1147.52 100.012 1146.08C99.2585 1144.57 98.3679 1143.13 97.3404 1141.76V1141.46H111.212V1141.76C110.527 1143.07 110.082 1144.47 109.877 1145.98C109.74 1147.42 109.808 1148.96 110.082 1150.6C110.356 1152.18 110.836 1154.13 111.521 1156.46L124.262 1202.18H124.571L141.731 1146.7L139.984 1141.46H148.615L165.981 1201.67H166.392L179.339 1156.56C180.024 1154.16 180.504 1152.14 180.778 1150.5C181.052 1148.79 181.12 1147.21 180.983 1145.77C180.915 1144.33 180.572 1143 179.956 1141.76V1141.46H191.978V1141.76C190.882 1143.07 189.923 1144.44 189.101 1145.87C188.348 1147.31 187.662 1148.92 187.046 1150.7C186.429 1152.42 185.813 1154.4 185.196 1156.66L168.755 1212.87H162.076L145.224 1154.4H144.916L126.728 1212.87H119.844L103.917 1156.77ZM214.108 1212.56C215.615 1210.99 216.883 1209.21 217.91 1207.22C218.938 1205.23 220.137 1202.49 221.507 1199C221.644 1198.72 221.781 1198.42 221.918 1198.07C222.055 1197.73 222.158 1197.42 222.226 1197.15L244.113 1141.46H250.278L272.679 1196.74C272.885 1197.15 273.056 1197.53 273.193 1197.87C273.33 1198.21 273.467 1198.59 273.604 1199C274.426 1201.05 275.214 1202.94 275.967 1204.65C276.721 1206.29 277.474 1207.77 278.228 1209.07C278.981 1210.3 279.838 1211.47 280.797 1212.56V1212.87H266.822V1212.56C267.37 1211.4 267.644 1210.06 267.644 1208.55C267.713 1206.98 267.507 1205.27 267.027 1203.42C266.548 1201.57 265.829 1199.44 264.87 1197.05L246.579 1151.22H246.168L228.186 1197.25C227.295 1199.65 226.61 1201.77 226.131 1203.62C225.651 1205.4 225.446 1207.05 225.514 1208.55C225.583 1210.06 225.925 1211.4 226.542 1212.56V1212.87H214.108V1212.56ZM229.008 1190.47V1185.02H263.842V1190.47H229.008ZM314.693 1212.56C315.515 1211.47 316.166 1210.23 316.646 1208.86C317.125 1207.42 317.468 1205.81 317.673 1204.03C317.879 1202.25 317.981 1200.16 317.981 1197.77V1157.18C317.981 1154.51 317.879 1152.28 317.673 1150.5C317.468 1148.65 317.125 1147.04 316.646 1145.67C316.166 1144.23 315.515 1142.93 314.693 1141.76V1141.46H328.565V1141.76C327.675 1143 326.99 1144.3 326.51 1145.67C326.031 1147.04 325.688 1148.61 325.483 1150.4C325.346 1152.18 325.277 1154.44 325.277 1157.18V1207.53H345.109C348.054 1207.53 350.521 1207.32 352.507 1206.91C354.494 1206.5 356.138 1205.78 357.44 1204.75C358.81 1203.73 359.94 1202.25 360.83 1200.33H361.344V1212.87H314.693V1212.56ZM399.64 1157.49C399.64 1154.68 399.537 1152.35 399.332 1150.5C399.195 1148.65 398.886 1147.04 398.407 1145.67C397.927 1144.3 397.242 1143 396.352 1141.76V1141.46H420.808C428.411 1141.46 435.125 1142.93 440.948 1145.87C446.77 1148.82 451.257 1153 454.409 1158.41C457.628 1163.82 459.238 1170.06 459.238 1177.11C459.238 1184.3 457.628 1190.61 454.409 1196.02C451.257 1201.36 446.77 1205.51 440.948 1208.45C435.125 1211.4 428.411 1212.87 420.808 1212.87H396.352V1212.56C397.311 1211.4 398.03 1210.13 398.51 1208.76C398.989 1207.32 399.297 1205.71 399.434 1203.93C399.571 1202.08 399.64 1199.72 399.64 1196.84V1157.49ZM419.061 1207.63C425.5 1207.63 431.117 1206.47 435.913 1204.14C440.776 1201.74 444.51 1198.28 447.113 1193.76C449.716 1189.17 451.018 1183.62 451.018 1177.11C451.018 1170.67 449.716 1165.19 447.113 1160.67C444.51 1156.08 440.776 1152.62 435.913 1150.29C431.117 1147.89 425.5 1146.7 419.061 1146.7H407.038V1207.63H419.061ZM546.714 1201.36V1212.87H496.775V1212.56C497.597 1211.47 498.248 1210.23 498.728 1208.86C499.207 1207.49 499.515 1205.95 499.652 1204.24C499.858 1202.46 499.961 1200.27 499.961 1197.66V1197.05V1157.28C499.961 1154.61 499.858 1152.35 499.652 1150.5C499.515 1148.65 499.207 1147.04 498.728 1145.67C498.248 1144.23 497.597 1142.93 496.775 1141.76V1141.46H545.379V1151.53H544.968C544.008 1150.43 542.878 1149.54 541.577 1148.85C540.344 1148.1 538.768 1147.59 536.85 1147.31C534.932 1146.97 532.5 1146.8 529.554 1146.8H507.359V1174.03H524.93C527.533 1174.03 529.725 1173.89 531.507 1173.62C533.288 1173.34 534.726 1172.97 535.822 1172.49C536.987 1171.94 537.98 1171.25 538.802 1170.43H539.316V1182.97H538.802C537.98 1182.08 536.987 1181.39 535.822 1180.91C534.726 1180.37 533.288 1179.99 531.507 1179.78C529.794 1179.51 527.602 1179.37 524.93 1179.37H507.359V1207.53H531.198C534.007 1207.53 536.336 1207.36 538.186 1207.01C540.035 1206.6 541.611 1205.95 542.912 1205.06C544.214 1204.17 545.344 1202.94 546.303 1201.36H546.714ZM584.251 1212.56C585.142 1211.4 585.827 1210.1 586.307 1208.66C586.786 1207.22 587.094 1205.61 587.231 1203.83C587.437 1201.98 587.54 1199.72 587.54 1197.05V1145.15L585.176 1141.66V1141.46H595.863L636.76 1201.88H637.171V1157.18C637.171 1154.51 637.068 1152.28 636.862 1150.5C636.725 1148.65 636.417 1147.04 635.937 1145.67C635.458 1144.23 634.773 1142.93 633.882 1141.76V1141.46H646.419V1141.76C645.596 1142.93 644.946 1144.23 644.466 1145.67C643.987 1147.04 643.644 1148.65 643.439 1150.5C643.233 1152.35 643.13 1154.57 643.13 1157.18V1212.87H635.526L593.91 1151.42H593.397V1197.05C593.397 1199.65 593.499 1201.88 593.705 1203.73C593.91 1205.57 594.253 1207.22 594.733 1208.66C595.212 1210.1 595.863 1211.4 596.685 1212.56V1212.87H584.251V1212.56Z" fill="black"/>
<path d="M107.781 989.685C107.165 987.356 106.514 985.061 105.829 982.801C105.212 980.472 104.596 978.143 103.979 975.813C103.363 973.484 102.746 971.155 102.13 968.826H109.733C110.35 971.155 110.932 973.484 111.48 975.813C112.097 978.074 112.713 980.335 113.33 982.595C113.946 984.856 114.563 987.151 115.18 989.48L126.174 1031.3H126.483L143.232 968.826H152.377L168.818 1031.2H169.023L180.635 988.863C181.183 986.671 181.765 984.479 182.382 982.287C182.998 980.026 183.58 977.8 184.128 975.608C184.745 973.347 185.362 971.087 185.978 968.826H193.274C192.657 971.087 192.041 973.347 191.424 975.608C190.808 977.8 190.157 980.026 189.472 982.287C188.855 984.548 188.239 986.808 187.622 989.069L173.339 1040.24H164.399L147.753 977.047H147.445L130.387 1040.24H121.345L107.781 989.685ZM218.391 1040.24C219.556 1037.16 220.789 1033.94 222.09 1030.58C223.46 1027.16 224.83 1023.7 226.2 1020.2C226.337 1019.86 226.44 1019.55 226.509 1019.28C226.646 1018.94 226.783 1018.59 226.92 1018.25L246.341 968.826H254.664L274.187 1018.15C274.324 1018.49 274.427 1018.8 274.496 1019.07C274.633 1019.35 274.77 1019.66 274.907 1020C275.797 1022.4 276.688 1024.76 277.578 1027.09C278.537 1029.42 279.428 1031.68 280.25 1033.87C281.14 1036.06 281.997 1038.19 282.819 1040.24H274.907C274.085 1038.05 273.194 1035.75 272.235 1033.36C271.344 1030.89 270.385 1028.39 269.358 1025.86C268.399 1023.32 267.405 1020.79 266.378 1018.25L250.348 977.252H250.142L234.113 1018.35C233.154 1020.82 232.195 1023.36 231.235 1025.96C230.276 1028.49 229.317 1030.96 228.358 1033.36C227.468 1035.75 226.611 1038.05 225.789 1040.24H218.391ZM231.852 1018.77V1012.29H268.125V1018.77H231.852ZM319.012 1040.24C319.012 1038.05 319.012 1035.75 319.012 1033.36C319.012 1030.89 319.012 1028.36 319.012 1025.75C319.012 1023.15 319.012 1020.58 319.012 1018.05V990.919C319.012 988.384 319.012 985.849 319.012 983.315C319.012 980.712 319.012 978.211 319.012 975.813C319.012 973.347 319.012 971.018 319.012 968.826H326.308C326.308 971.018 326.308 973.347 326.308 975.813C326.308 978.211 326.308 980.712 326.308 983.315C326.308 985.849 326.308 988.384 326.308 990.919V1033.77H344.906C347.372 1033.77 349.667 1033.77 351.791 1033.77C353.915 1033.77 355.833 1033.77 357.545 1033.77C359.326 1033.77 360.936 1033.77 362.375 1033.77V1040.24H319.012ZM398.764 990.919C398.764 988.384 398.764 985.849 398.764 983.315C398.764 980.712 398.764 978.211 398.764 975.813C398.764 973.347 398.764 971.018 398.764 968.826H420.445C427.981 968.826 434.591 970.333 440.277 973.347C446.031 976.293 450.45 980.472 453.533 985.884C456.684 991.295 458.259 997.563 458.259 1004.69C458.259 1011.74 456.684 1017.98 453.533 1023.39C450.45 1028.73 446.031 1032.88 440.277 1035.82C434.591 1038.77 427.981 1040.24 420.445 1040.24H398.764C398.764 1038.05 398.764 1035.75 398.764 1033.36C398.764 1030.89 398.764 1028.39 398.764 1025.86C398.764 1023.25 398.764 1020.68 398.764 1018.15V990.919ZM419.007 1033.97C425.241 1033.97 430.721 1032.88 435.448 1030.68C440.243 1028.42 443.976 1025.1 446.648 1020.72C449.32 1016.33 450.655 1010.99 450.655 1004.69C450.655 998.385 449.32 993.042 446.648 988.658C443.976 984.205 440.243 980.849 435.448 978.588C430.721 976.259 425.241 975.094 419.007 975.094H406.06V1033.97H419.007ZM544.218 1033.77V1040.24H498.184C498.184 1038.12 498.184 1035.89 498.184 1033.56C498.184 1031.16 498.184 1028.73 498.184 1026.27C498.184 1023.73 498.184 1021.23 498.184 1018.77V1018.15V990.919C498.184 988.384 498.184 985.849 498.184 983.315C498.184 980.712 498.184 978.211 498.184 975.813C498.184 973.347 498.184 971.018 498.184 968.826H543.499V975.3C541.924 975.3 540.245 975.3 538.464 975.3C536.751 975.3 534.868 975.3 532.813 975.3C530.757 975.3 528.497 975.3 526.031 975.3H505.48V1000.89H521.612C524.078 1000.89 526.339 1000.89 528.394 1000.89C530.449 1000.89 532.333 1000.89 534.046 1000.89C535.827 1000.89 537.505 1000.89 539.081 1000.89V1007.36C537.505 1007.36 535.827 1007.36 534.046 1007.36C532.333 1007.36 530.449 1007.36 528.394 1007.36C526.339 1007.36 524.078 1007.36 521.612 1007.36H505.48V1033.77H526.75C529.216 1033.77 531.477 1033.77 533.532 1033.77C535.587 1033.77 537.471 1033.77 539.183 1033.77C540.964 1033.77 542.643 1033.77 544.218 1033.77ZM583.856 1040.24C583.856 1038.05 583.856 1035.75 583.856 1033.36C583.856 1030.89 583.856 1028.39 583.856 1025.86C583.856 1023.25 583.856 1020.68 583.856 1018.15V969.956V968.826H594.337L633.59 1031.3H633.795V990.919C633.795 988.384 633.795 985.849 633.795 983.315C633.795 980.712 633.795 978.211 633.795 975.813C633.795 973.347 633.795 971.018 633.795 968.826H641.091C641.091 971.018 641.091 973.347 641.091 975.813C641.091 978.211 641.091 980.712 641.091 983.315C641.091 985.849 641.091 988.384 641.091 990.919V1040.24H630.918L591.46 977.355H591.152V1018.15C591.152 1020.68 591.152 1023.25 591.152 1025.86C591.152 1028.39 591.152 1030.89 591.152 1033.36C591.152 1035.75 591.152 1038.05 591.152 1040.24H583.856Z" fill="black"/>
</svg>
