<svg width="5120" height="2880" viewBox="0 0 5120 2880" fill="none" xmlns="http://www.w3.org/2000/svg">
<rect width="5120" height="2880" fill="black"/>
<path d="M3052.55 1761.31C3070.4 1771.61 3067.91 1798.41 3048.71 1805.91C2980.44 1832.59 2906.71 1868 2832.01 1911.13C2757.32 1954.25 2689.79 2000.4 2632.56 2046.18C2616.46 2059.05 2592.01 2047.81 2592.01 2027.2L2592 1523.12C2592 1510.81 2605.34 1503.11 2616 1509.27L3052.55 1761.31Z" fill="white"/>
<path d="M2528.01 2027.19C2528.01 2047.81 2503.55 2059.05 2487.46 2046.17C2430.22 2000.39 2362.69 1954.24 2288 1911.12C2213.31 1867.99 2139.59 1832.58 2071.32 1805.91C2052.12 1798.41 2049.63 1771.61 2067.48 1761.31L2504.01 1509.28C2514.67 1503.12 2528.01 1510.82 2528.01 1523.14V2027.19Z" fill="white"/>
<path d="M2472.01 1426.13C2482.68 1432.29 2482.68 1447.69 2472.01 1453.85L2035.48 1705.88C2017.63 1716.19 1995.67 1700.63 1998.77 1680.25C2009.8 1607.8 2016 1526.24 2016 1440C2016 1353.75 2009.8 1272.19 1998.77 1199.73C1995.67 1179.35 2017.63 1163.79 2035.48 1174.1L2472.01 1426.13Z" fill="white"/>
<path d="M3084.53 1174.12C3102.38 1163.81 3124.34 1179.37 3121.23 1199.74C3110.2 1272.2 3104 1353.75 3104 1440C3104 1526.24 3110.2 1607.79 3121.23 1680.24C3124.34 1700.61 3102.38 1716.17 3084.52 1705.87L2648.01 1453.85C2637.35 1447.69 2637.35 1432.29 2648.01 1426.13L3084.53 1174.12Z" fill="white"/>
<path d="M2592.01 852.809C2592.01 832.196 2616.46 820.956 2632.56 833.833C2689.79 879.613 2757.31 925.76 2832 968.881C2906.69 1012 2980.42 1047.41 3048.69 1074.08C3067.89 1081.59 3070.38 1108.38 3052.53 1118.69L2616.01 1370.72C2605.34 1376.87 2592.01 1369.18 2592.01 1356.86V852.809Z" fill="white"/>
<path d="M2528.01 1356.85C2528.01 1369.16 2514.67 1376.86 2504.01 1370.7L2067.5 1118.69C2049.64 1108.38 2052.14 1081.58 2071.34 1074.08C2139.59 1047.41 2213.31 1012 2288 968.883C2362.69 925.759 2430.22 879.609 2487.46 833.826C2503.55 820.949 2528.01 832.189 2528.01 852.803V1356.85Z" fill="white"/>
</svg>
