<svg width="5120" height="2880" viewBox="0 0 5120 2880" fill="none" xmlns="http://www.w3.org/2000/svg">
<rect width="5120" height="2880" fill="white"/>
<rect x="538.75" y="239" width="1970" height="2402" fill="#E7E7E7"/>
<path d="M604.744 2408.24C602.44 2400.18 600.136 2393.85 597.832 2389.24C595.528 2384.41 592.763 2380.73 589.537 2378.19C586.312 2375.43 582.049 2373.36 576.75 2371.98V2363H654.512V2371.98C647.83 2373.59 643.106 2375.78 640.342 2378.54C637.807 2381.3 636.655 2384.76 636.886 2388.9C637.116 2393.04 638.383 2399.14 640.687 2407.2L682.16 2548.78H684.234L737.457 2400.64L724.67 2363H763.378L820.403 2544.29H822.476L863.258 2409.27C865.792 2400.29 867.29 2393.5 867.751 2388.9C868.212 2384.29 867.175 2380.61 864.64 2377.85C862.336 2375.09 857.843 2373.13 851.162 2371.98V2363H913.025V2371.98C907.265 2373.36 902.542 2375.55 898.855 2378.54C895.399 2381.3 892.519 2384.99 890.215 2389.59C888.142 2394.19 885.838 2400.76 883.303 2409.27L825.241 2603H803.468L748.862 2430.68H746.788L684.925 2603H662.806L604.744 2408.24Z" fill="black"/>
<path d="M973.882 2594.02C981.024 2593.1 986.439 2590.57 990.125 2586.42C994.042 2582.28 997.844 2575.37 1001.53 2565.71C1001.99 2564.78 1002.34 2563.98 1002.57 2563.29C1003.03 2562.37 1003.37 2561.45 1003.6 2560.53L1081.37 2363H1101.76L1182.97 2558.11C1183.43 2559.03 1183.78 2560.06 1184.01 2561.22C1184.47 2562.14 1184.93 2563.06 1185.39 2563.98C1188.39 2571.35 1191.04 2576.99 1193.34 2580.9C1195.65 2584.58 1198.18 2587.58 1200.95 2589.88C1203.94 2591.95 1207.74 2593.33 1212.35 2594.02V2603H1133.55V2594.02C1140 2593.56 1144.61 2591.95 1147.38 2589.19C1150.14 2586.19 1151.29 2582.4 1150.83 2577.79C1150.6 2573.19 1148.99 2567.32 1145.99 2560.18L1085.17 2410.65H1083.09L1023.99 2560.53C1021 2568.12 1019.39 2574.22 1019.16 2578.83C1018.93 2583.2 1020.31 2586.65 1023.3 2589.19C1026.3 2591.72 1031.37 2593.33 1038.51 2594.02V2603H973.882V2594.02ZM1029.18 2527.72V2509.42H1138.74V2527.72H1029.18Z" fill="black"/>
<path d="M1314.4 2594.02C1320.63 2593.1 1325.23 2591.6 1328.23 2589.53C1331.45 2587.46 1333.64 2584.35 1334.79 2580.21C1335.95 2576.06 1336.52 2569.85 1336.52 2561.56V2404.09C1336.52 2395.58 1335.83 2389.24 1334.45 2385.1C1333.3 2380.73 1331.22 2377.62 1328.23 2375.78C1325.23 2373.94 1320.63 2372.67 1314.4 2371.98V2363H1392.86V2371.98C1386.41 2372.67 1381.68 2373.94 1378.69 2375.78C1375.69 2377.62 1373.62 2380.61 1372.47 2384.76C1371.54 2388.9 1371.08 2395.35 1371.08 2404.09V2584.7H1426.73C1437.32 2584.7 1445.97 2583.43 1452.65 2580.9C1459.56 2578.37 1465.09 2573.53 1469.24 2566.4C1473.38 2559.26 1476.15 2548.9 1477.53 2535.32H1487.21V2603H1314.4V2594.02Z" fill="black"/>
<path d="M1619.96 2405.13C1619.96 2395.92 1619.26 2389.13 1617.88 2384.76C1616.5 2380.15 1614.31 2377.16 1611.32 2375.78C1608.55 2374.17 1604.06 2372.9 1597.84 2371.98V2363H1695.3C1721.56 2363 1744.6 2368.06 1764.42 2378.19C1784.23 2388.09 1799.56 2402.14 1810.38 2420.32C1821.44 2438.28 1826.97 2458.88 1826.97 2482.14C1826.97 2505.85 1821.44 2526.91 1810.38 2545.33C1799.56 2563.52 1784.23 2577.68 1764.42 2587.81C1744.6 2597.94 1721.56 2603 1695.3 2603H1597.84V2594.02C1604.75 2592.87 1609.7 2591.26 1612.7 2589.19C1615.69 2586.88 1617.65 2583.55 1618.57 2579.17C1619.49 2574.57 1619.96 2567.43 1619.96 2557.76V2405.13ZM1686.66 2584.7C1707.85 2584.7 1725.94 2580.78 1740.92 2572.96C1755.89 2565.13 1767.3 2553.5 1775.13 2538.08C1783.2 2522.65 1787.23 2504.01 1787.23 2482.14C1787.23 2460.73 1783.2 2442.42 1775.13 2427.23C1767.3 2412.04 1755.89 2400.64 1740.92 2393.04C1725.94 2385.22 1707.85 2381.3 1686.66 2381.3H1654.52V2584.7H1686.66Z" fill="black"/>
<path d="M2126.93 2542.57V2603H1940.99V2594.02C1947.21 2592.87 1951.71 2591.49 1954.47 2589.88C1957.47 2588.04 1959.54 2585.16 1960.69 2581.24C1962.07 2577.33 1962.88 2571.23 1963.11 2562.94V2560.87V2404.44C1963.11 2395.92 1962.53 2389.59 1961.38 2385.45C1960.23 2381.07 1958.04 2377.96 1954.82 2376.12C1951.82 2374.05 1947.21 2372.67 1940.99 2371.98V2363H2120.02V2414.8H2110.34C2109.42 2406.51 2107.23 2399.95 2103.77 2395.12C2100.32 2390.28 2095.02 2386.83 2087.87 2384.76C2080.73 2382.45 2071.4 2381.3 2059.88 2381.3H1997.67V2472.47H2043.64C2053.31 2472.47 2061.03 2471.66 2066.79 2470.05C2072.55 2468.21 2076.82 2465.45 2079.58 2461.76C2082.34 2458.08 2083.84 2453.24 2084.07 2447.26H2093.75V2515.98H2084.07C2083.84 2509.76 2082.34 2504.81 2079.58 2501.13C2076.82 2497.45 2072.55 2494.8 2066.79 2493.19C2061.03 2491.58 2053.31 2490.77 2043.64 2490.77H1997.67V2584.7H2067.48C2077.39 2584.7 2085.8 2583.43 2092.71 2580.9C2099.63 2578.37 2105.15 2573.99 2109.3 2567.78C2113.68 2561.56 2116.33 2553.16 2117.25 2542.57H2126.93Z" fill="black"/>
<path d="M2241.96 2594.02C2247.95 2593.1 2252.44 2591.72 2255.44 2589.88C2258.43 2587.81 2260.51 2584.58 2261.66 2580.21C2263.04 2575.83 2263.73 2569.39 2263.73 2560.87V2385.45L2247.83 2364.73V2363H2298.29L2426.86 2544.99H2428.93V2404.44C2428.93 2395.69 2428.36 2389.24 2427.2 2385.1C2426.05 2380.73 2423.98 2377.62 2420.98 2375.78C2417.99 2373.94 2413.49 2372.67 2407.5 2371.98V2363H2470.75V2371.98C2464.53 2372.67 2459.92 2373.94 2456.93 2375.78C2454.16 2377.62 2452.09 2380.73 2450.7 2385.1C2449.55 2389.47 2448.98 2395.92 2448.98 2404.44V2603H2425.13L2285.85 2406.17H2283.78V2560.87C2283.78 2569.39 2284.35 2575.83 2285.5 2580.21C2286.89 2584.58 2288.96 2587.81 2291.73 2589.88C2294.72 2591.72 2299.33 2593.1 2305.55 2594.02V2603H2241.96V2594.02Z" fill="black"/>
<rect x="2611.25" y="239" width="1970" height="2402" fill="#181818"/>
<path d="M2677.24 320.238C2674.94 312.18 2672.64 305.849 2670.33 301.245C2668.03 296.41 2665.26 292.727 2662.04 290.194C2658.81 287.432 2654.55 285.36 2649.25 283.979V275H2727.01V283.979C2720.33 285.59 2715.61 287.777 2712.84 290.54C2710.31 293.302 2709.16 296.756 2709.39 300.9C2709.62 305.043 2710.88 311.144 2713.19 319.202L2754.66 460.784H2756.73L2809.96 312.641L2797.17 275H2835.88L2892.9 456.295H2894.98L2935.76 321.274C2938.29 312.295 2939.79 305.504 2940.25 300.9C2940.71 296.295 2939.67 292.612 2937.14 289.849C2934.84 287.087 2930.34 285.13 2923.66 283.979V275H2985.53V283.979C2979.77 285.36 2975.04 287.547 2971.36 290.54C2967.9 293.302 2965.02 296.986 2962.72 301.59C2960.64 306.194 2958.34 312.756 2955.8 321.274L2897.74 515H2875.97L2821.36 342.684H2819.29L2757.42 515H2735.31L2677.24 320.238Z" fill="#404040"/>
<path d="M3046.38 506.022C3053.52 505.101 3058.94 502.569 3062.63 498.425C3066.54 494.281 3070.34 487.374 3074.03 477.705C3074.49 476.784 3074.84 475.979 3075.07 475.288C3075.53 474.367 3075.87 473.446 3076.1 472.525L3153.87 275H3174.26L3255.47 470.108C3255.93 471.029 3256.28 472.065 3256.51 473.216C3256.97 474.137 3257.43 475.058 3257.89 475.979C3260.89 483.346 3263.54 488.986 3265.84 492.9C3268.15 496.583 3270.68 499.576 3273.45 501.878C3276.44 503.95 3280.24 505.331 3284.85 506.022V515H3206.05V506.022C3212.5 505.561 3217.11 503.95 3219.88 501.187C3222.64 498.195 3223.79 494.396 3223.33 489.792C3223.1 485.187 3221.49 479.317 3218.49 472.18L3157.67 322.655H3155.59L3096.49 472.525C3093.5 480.123 3091.89 486.223 3091.66 490.828C3091.43 495.202 3092.81 498.655 3095.8 501.187C3098.8 503.72 3103.87 505.331 3111.01 506.022V515H3046.38V506.022ZM3101.68 439.72V421.418H3211.24V439.72H3101.68Z" fill="#404040"/>
<path d="M3386.9 506.022C3393.13 505.101 3397.73 503.605 3400.73 501.533C3403.95 499.461 3406.14 496.353 3407.29 492.209C3408.45 488.065 3409.02 481.849 3409.02 473.561V316.094C3409.02 307.576 3408.33 301.245 3406.95 297.101C3405.8 292.727 3403.72 289.619 3400.73 287.777C3397.73 285.936 3393.13 284.669 3386.9 283.979V275H3465.36V283.979C3458.91 284.669 3454.18 285.936 3451.19 287.777C3448.19 289.619 3446.12 292.612 3444.97 296.756C3444.04 300.9 3443.58 307.346 3443.58 316.094V496.698H3499.23C3509.82 496.698 3518.47 495.432 3525.15 492.9C3532.06 490.367 3537.59 485.533 3541.74 478.396C3545.88 471.259 3548.65 460.9 3550.03 447.317H3559.71V515H3386.9V506.022Z" fill="#404040"/>
<path d="M3692.46 317.13C3692.46 307.921 3691.76 301.13 3690.38 296.756C3689 292.151 3686.81 289.159 3683.82 287.777C3681.05 286.166 3676.56 284.9 3670.34 283.979V275H3767.8C3794.06 275 3817.1 280.065 3836.92 290.194C3856.73 300.094 3872.06 314.137 3882.88 332.324C3893.94 350.281 3899.47 370.885 3899.47 394.137C3899.47 417.849 3893.94 438.914 3882.88 457.331C3872.06 475.518 3856.73 489.677 3836.92 499.806C3817.1 509.936 3794.06 515 3767.8 515H3670.34V506.022C3677.25 504.871 3682.2 503.259 3685.2 501.187C3688.19 498.885 3690.15 495.547 3691.07 491.173C3691.99 486.569 3692.46 479.432 3692.46 469.763V317.13ZM3759.16 496.698C3780.35 496.698 3798.44 492.784 3813.42 484.957C3828.39 477.13 3839.8 465.504 3847.63 450.079C3855.7 434.655 3859.73 416.007 3859.73 394.137C3859.73 372.727 3855.7 354.425 3847.63 339.23C3839.8 324.036 3828.39 312.641 3813.42 305.043C3798.44 297.216 3780.35 293.302 3759.16 293.302H3727.02V496.698H3759.16Z" fill="#404040"/>
<path d="M4199.43 454.569V515H4013.49V506.022C4019.71 504.871 4024.21 503.489 4026.97 501.878C4029.97 500.036 4032.04 497.159 4033.19 493.245C4034.57 489.331 4035.38 483.23 4035.61 474.943V472.871V316.439C4035.61 307.921 4035.03 301.59 4033.88 297.446C4032.73 293.072 4030.54 289.964 4027.32 288.123C4024.32 286.051 4019.71 284.669 4013.49 283.979V275H4192.52V326.799H4182.84C4181.92 318.511 4179.73 311.95 4176.27 307.115C4172.82 302.281 4167.52 298.828 4160.37 296.756C4153.23 294.453 4143.9 293.302 4132.38 293.302H4070.17V384.468H4116.14C4125.81 384.468 4133.53 383.662 4139.29 382.051C4145.05 380.209 4149.32 377.446 4152.08 373.763C4154.84 370.079 4156.34 365.245 4156.57 359.259H4166.25V427.979H4156.57C4156.34 421.763 4154.84 416.813 4152.08 413.13C4149.32 409.446 4145.05 406.799 4139.29 405.187C4133.53 403.576 4125.81 402.77 4116.14 402.77H4070.17V496.698H4139.98C4149.89 496.698 4158.3 495.432 4165.21 492.9C4172.13 490.367 4177.65 485.993 4181.8 479.777C4186.18 473.561 4188.83 465.159 4189.75 454.569H4199.43Z" fill="#404040"/>
<path d="M4314.46 506.022C4320.45 505.101 4324.94 503.72 4327.94 501.878C4330.93 499.806 4333.01 496.583 4334.16 492.209C4335.54 487.835 4336.23 481.389 4336.23 472.871V297.446L4320.33 276.727V275H4370.79L4499.36 456.986H4501.43V316.439C4501.43 307.691 4500.86 301.245 4499.7 297.101C4498.55 292.727 4496.48 289.619 4493.48 287.777C4490.49 285.936 4485.99 284.669 4480 283.979V275H4543.25V283.979C4537.03 284.669 4532.42 285.936 4529.43 287.777C4526.66 289.619 4524.59 292.727 4523.2 297.101C4522.05 301.475 4521.48 307.921 4521.48 316.439V515H4497.63L4358.35 318.166H4356.28V472.871C4356.28 481.389 4356.85 487.835 4358 492.209C4359.39 496.583 4361.46 499.806 4364.23 501.878C4367.22 503.72 4371.83 505.101 4378.05 506.022V515H4314.46V506.022Z" fill="#404040"/>
<path d="M4258.34 1975.49H4581.25V2481.39H4258.34V1975.49Z" fill="#D9D9D9"/>
</svg>
