<svg width="2800" height="1800" viewBox="0 0 2800 1800" fill="none" xmlns="http://www.w3.org/2000/svg">
<g clip-path="url(#clip0_4260_1434)">
<rect width="2800" height="1800" fill="#EEEEEE"/>
<path d="M1695.53 1092.78C1706.24 1098.97 1704.74 1115.05 1693.22 1119.55C1652.26 1135.55 1608.02 1156.8 1563.2 1182.68C1518.39 1208.55 1477.87 1236.24 1443.53 1263.71C1433.87 1271.43 1419.2 1264.69 1419.2 1252.32L1419.2 949.875C1419.2 942.485 1427.2 937.866 1433.6 941.561L1695.53 1092.78Z" fill="white"/>
<path d="M1380.8 1252.32C1380.8 1264.68 1366.13 1271.43 1356.47 1263.7C1322.13 1236.23 1281.61 1208.54 1236.8 1182.67C1191.98 1156.8 1147.75 1135.55 1106.79 1119.55C1095.27 1115.05 1093.77 1098.97 1104.49 1092.78L1366.4 941.568C1372.8 937.873 1380.8 942.492 1380.8 949.882V1252.32Z" fill="white"/>
<path d="M1347.21 891.68C1353.61 895.375 1353.61 904.613 1347.21 908.308L1085.29 1059.53C1074.57 1065.71 1061.4 1056.38 1063.26 1044.15C1069.88 1000.68 1073.6 951.745 1073.6 899.999C1073.6 848.249 1069.88 799.312 1063.26 755.838C1061.4 743.611 1074.57 734.276 1085.28 740.46L1347.21 891.68Z" fill="white"/>
<path d="M1714.71 740.469C1725.42 734.285 1738.6 743.62 1736.74 755.847C1730.12 799.319 1726.4 848.253 1726.4 899.999C1726.4 951.741 1730.12 1000.67 1736.74 1044.14C1738.6 1056.37 1725.42 1065.7 1714.71 1059.52L1452.81 908.308C1446.41 904.613 1446.41 895.375 1452.81 891.68L1714.71 740.469Z" fill="white"/>
<path d="M1419.2 547.685C1419.2 535.318 1433.87 528.574 1443.53 536.299C1477.87 563.768 1518.39 591.456 1563.2 617.328C1608.01 643.202 1652.25 664.447 1693.21 680.45C1704.73 684.951 1706.22 701.03 1695.51 707.214L1433.6 858.429C1427.2 862.124 1419.2 857.506 1419.2 850.115V547.685Z" fill="white"/>
<path d="M1380.8 850.108C1380.8 857.499 1372.8 862.117 1366.4 858.422L1104.49 707.211C1093.78 701.027 1095.28 684.949 1106.8 680.447C1147.75 664.444 1191.99 643.2 1236.79 617.329C1281.61 591.455 1322.13 563.766 1356.47 536.295C1366.13 528.569 1380.8 535.313 1380.8 547.681V850.108Z" fill="white"/>
<path d="M3261.6 -174.806L-461.61 1974.79" stroke="#CCCCCC" stroke-width="0.5"/>
<path d="M1399.79 -1249.59V3049.6" stroke="#CCCCCC" stroke-width="0.5"/>
<path d="M3261.62 1974.79L-461.592 -174.805" stroke="#CCCCCC" stroke-width="0.5"/>
<ellipse cx="326.4" cy="100.8" rx="326.4" ry="100.8" transform="matrix(4.37114e-08 1 1 -4.37114e-08 871.999 573.601)" stroke="#999999" stroke-width="0.5"/>
<ellipse cx="1186.4" cy="1269.97" rx="326.4" ry="100.8" transform="rotate(-150 1186.4 1269.97)" stroke="#999999" stroke-width="0.5"/>
<ellipse cx="1613.6" cy="1269.97" rx="326.4" ry="100.8" transform="rotate(150 1613.6 1269.97)" stroke="#999999" stroke-width="0.5"/>
<ellipse cx="1827.2" cy="900" rx="326.4" ry="100.8" transform="rotate(90 1827.2 900)" stroke="#999999" stroke-width="0.5"/>
<ellipse cx="1613.6" cy="530.034" rx="326.4" ry="100.8" transform="rotate(30 1613.6 530.034)" stroke="#999999" stroke-width="0.5"/>
<ellipse cx="1186.39" cy="530.036" rx="326.4" ry="100.8" transform="rotate(-30 1186.39 530.036)" stroke="#999999" stroke-width="0.5"/>
<rect x="31.9385" y="1712.02" width="38.4" height="3181.57" transform="rotate(-120 31.9385 1712.02)" stroke="#999999" stroke-width="0.5"/>
<rect x="-321.729" y="1916.22" width="38.4" height="3998.34" transform="rotate(-120 -321.729 1916.22)" stroke="#999999" stroke-width="0.5"/>
<rect x="1380.8" y="-96" width="38.4" height="1992" stroke="#999999" stroke-width="0.5"/>
<rect x="3140.93" y="1882.96" width="38.4" height="3998.34" transform="rotate(120 3140.93 1882.96)" stroke="#999999" stroke-width="0.5"/>
<g clip-path="url(#clip1_4260_1434)">
<rect x="872.002" y="1494.16" width="1.2" height="27.6" fill="black"/>
<rect x="873.202" y="1507.36" width="1053.6" height="1.2" fill="black"/>
<rect x="1926.8" y="1494.16" width="1.2" height="27.6" fill="black"/>
</g>
<rect width="81.8" height="26.8" transform="translate(1359.1 1494.24)" fill="black"/>
<path d="M1371.56 1515.28C1367.12 1515.28 1366.21 1514.49 1366.21 1510.7C1366.21 1508.44 1366.74 1507.7 1369.26 1506.31V1506.16C1367.07 1504.99 1366.62 1504.34 1366.62 1502.39C1366.62 1499.15 1367.46 1498.48 1371.56 1498.48C1375.69 1498.48 1376.53 1499.15 1376.53 1502.39C1376.53 1504.34 1376.07 1504.99 1373.89 1506.16V1506.31C1376.43 1507.72 1376.96 1508.47 1376.96 1510.7C1376.96 1514.49 1376.02 1515.28 1371.56 1515.28ZM1368.2 1510.79C1368.2 1513.05 1368.78 1513.51 1371.56 1513.51C1374.39 1513.51 1374.97 1513.05 1374.97 1510.84C1374.97 1508.71 1374.39 1508.06 1371.56 1507.03C1368.78 1508.03 1368.2 1508.68 1368.2 1510.79ZM1368.61 1502.39C1368.61 1504.19 1369.11 1504.72 1371.56 1505.42C1374.03 1504.7 1374.54 1504.19 1374.54 1502.42C1374.54 1500.62 1374.03 1500.23 1371.56 1500.23C1369.11 1500.23 1368.61 1500.59 1368.61 1502.39ZM1385.47 1515.28C1381.03 1515.28 1380.12 1514.49 1380.12 1510.7C1380.12 1508.44 1380.65 1507.7 1383.17 1506.31V1506.16C1380.98 1504.99 1380.53 1504.34 1380.53 1502.39C1380.53 1499.15 1381.37 1498.48 1385.47 1498.48C1389.6 1498.48 1390.44 1499.15 1390.44 1502.39C1390.44 1504.34 1389.98 1504.99 1387.8 1506.16V1506.31C1390.34 1507.72 1390.87 1508.47 1390.87 1510.7C1390.87 1514.49 1389.94 1515.28 1385.47 1515.28ZM1382.11 1510.79C1382.11 1513.05 1382.69 1513.51 1385.47 1513.51C1388.3 1513.51 1388.88 1513.05 1388.88 1510.84C1388.88 1508.71 1388.3 1508.06 1385.47 1507.03C1382.69 1508.03 1382.11 1508.68 1382.11 1510.79ZM1382.52 1502.39C1382.52 1504.19 1383.02 1504.72 1385.47 1505.42C1387.94 1504.7 1388.45 1504.19 1388.45 1502.42C1388.45 1500.62 1387.94 1500.23 1385.47 1500.23C1383.02 1500.23 1382.52 1500.59 1382.52 1502.39ZM1399.36 1508.78C1398.52 1508.78 1398.37 1508.68 1398.28 1508.2C1398.18 1507.79 1398.16 1507.53 1398.16 1506.98C1398.16 1506.19 1398.21 1506.11 1398.28 1505.78C1398.4 1505.25 1398.49 1505.18 1399.36 1505.18C1400.2 1505.18 1400.34 1505.27 1400.44 1505.75C1400.53 1506.16 1400.56 1506.43 1400.56 1506.98C1400.56 1507.77 1400.51 1507.84 1400.44 1508.18C1400.32 1508.71 1400.22 1508.78 1399.36 1508.78ZM1393.91 1506.98C1393.91 1504.46 1394.15 1503.19 1394.39 1502.18C1395.13 1499.03 1395.95 1498.58 1399.41 1498.58C1402.86 1498.58 1403.68 1499.03 1404.42 1502.18C1404.66 1503.19 1404.9 1504.46 1404.9 1506.98C1404.9 1509.5 1404.69 1510.77 1404.45 1511.78C1403.7 1514.92 1402.86 1515.38 1399.41 1515.38C1395.95 1515.38 1395.11 1514.92 1394.37 1511.78C1394.13 1510.77 1393.91 1509.5 1393.91 1506.98ZM1395.95 1506.98C1395.95 1509.35 1396.19 1510.46 1396.31 1511.15C1396.62 1512.91 1397.08 1513.6 1399.41 1513.6C1401.73 1513.6 1402.19 1512.91 1402.5 1511.15C1402.62 1510.46 1402.86 1509.35 1402.86 1506.98C1402.86 1504.6 1402.62 1503.5 1402.5 1502.8C1402.19 1501.05 1401.73 1500.35 1399.41 1500.35C1397.08 1500.35 1396.62 1501.05 1396.31 1502.8C1396.19 1503.5 1395.95 1504.6 1395.95 1506.98ZM1408.3 1520.2V1502.51H1410.29V1503.81H1410.46C1411.4 1502.56 1412.14 1502.2 1413.82 1502.2C1417.68 1502.2 1418.84 1503.69 1418.84 1508.75C1418.84 1513.79 1417.71 1515.28 1413.87 1515.28C1412 1515.28 1411.25 1514.92 1410.48 1513.67H1410.29V1520.2H1408.3ZM1410.24 1508.75C1410.24 1512.4 1410.96 1513.48 1413.39 1513.48C1416 1513.48 1416.8 1512.4 1416.8 1508.75C1416.8 1505.08 1416 1504 1413.39 1504C1410.96 1504 1410.24 1505.08 1410.24 1508.75ZM1421.66 1515.04L1425.93 1508.71L1421.88 1502.51H1424.2L1427.2 1507.41H1427.25L1430.25 1502.51H1432.58L1428.5 1508.71L1432.8 1515.04H1430.42L1427.23 1510.1H1427.2L1424.04 1515.04H1421.66Z" fill="white"/>
<rect x="1313.6" y="1053.6" width="9.6" height="9.6" transform="rotate(-180 1313.6 1053.6)" stroke="black" style="mix-blend-mode:multiply"/>
<rect x="1323.2" y="1044" width="9.6" height="9.6" transform="rotate(90 1323.2 1044)" stroke="black" style="mix-blend-mode:multiply"/>
<rect x="1304" y="1024.8" width="19.2016" height="19.2" stroke="black" style="mix-blend-mode:multiply"/>
<rect x="1275.2" y="1024.8" width="28.7995" height="28.8007" stroke="black" style="mix-blend-mode:multiply"/>
<rect x="1275.2" y="1053.6" width="48" height="48" stroke="black" style="mix-blend-mode:multiply"/>
<rect x="1323.2" y="1024.8" width="76.8" height="76.8" stroke="black" style="mix-blend-mode:multiply"/>
<rect x="1275.2" y="899.997" width="124.8" height="124.8" stroke="black" style="mix-blend-mode:multiply"/>
<rect x="1073.6" y="899.997" width="201.602" height="201.595" stroke="black" style="mix-blend-mode:multiply"/>
<rect x="1073.6" y="1101.6" width="326.4" height="326.4" stroke="black" style="mix-blend-mode:multiply"/>
<rect x="1400" y="899.997" width="528" height="528" stroke="black" style="mix-blend-mode:multiply"/>
<path d="M1313.6 1053.6C1308.3 1053.6 1304 1049.3 1304 1044" stroke="black" stroke-dasharray="2.4 2.4"/>
<path d="M1323.2 1044C1323.2 1049.3 1318.9 1053.6 1313.6 1053.6" stroke="black" stroke-dasharray="2.4 2.4"/>
<path d="M1304 1024.8C1314.6 1024.8 1323.2 1033.39 1323.2 1044" stroke="black" stroke-dasharray="2.4 2.4"/>
<path d="M1304 1024.8C1288.09 1024.8 1275.2 1037.69 1275.2 1053.6" stroke="black" stroke-dasharray="2.4 2.4"/>
<path d="M1275.2 1053.6C1275.2 1080.11 1296.69 1101.6 1323.2 1101.6" stroke="black" stroke-dasharray="2.4 2.4"/>
<path d="M1400 1024.8C1400 1067.21 1365.61 1101.6 1323.2 1101.6" stroke="black" stroke-dasharray="2.4 2.4"/>
<path d="M1275.2 899.997C1344.12 899.997 1400 955.872 1400 1024.8" stroke="black" stroke-dasharray="2.4 2.4"/>
<path d="M1275.2 899.997C1163.86 899.997 1073.6 990.256 1073.6 1101.6" stroke="black" stroke-dasharray="2.4 2.4"/>
<path d="M1073.6 1101.6C1073.6 1281.86 1219.73 1428 1400 1428" stroke="black" stroke-dasharray="2.4 2.4"/>
<path d="M1928 899.997C1928 1191.6 1691.61 1428 1400 1428" stroke="black" stroke-dasharray="2.4 2.4"/>
<path d="M1070.71 1101.59L1073.6 1104.48L1076.49 1101.59L1073.6 1098.7L1070.71 1101.59ZM1278.09 1101.59L1275.2 1098.7L1272.31 1101.59L1275.2 1104.48L1278.09 1101.59ZM1073.6 1101.59V1102.09H1275.2V1101.59V1101.09H1073.6V1101.59Z" fill="black"/>
<path d="M1301.11 1024.8L1304 1027.68L1306.89 1024.8L1304 1021.91L1301.11 1024.8ZM1326.09 1024.8L1323.2 1021.91L1320.31 1024.8L1323.2 1027.68L1326.09 1024.8ZM1304 1024.8V1025.3H1323.2V1024.8V1024.3H1304V1024.8Z" fill="black"/>
<path d="M1275.2 1021.91L1272.31 1024.8L1275.2 1027.69L1278.09 1024.8L1275.2 1021.91ZM1275.2 1056.49L1278.09 1053.6L1275.2 1050.71L1272.31 1053.6L1275.2 1056.49ZM1275.2 1024.8H1274.7V1053.6H1275.2H1275.7V1024.8H1275.2Z" fill="black"/>
<path d="M1313.6 1015.2L1313.1 1015.2L1313.1 1016.4L1313.6 1016.4L1314.1 1016.4L1314.1 1015.2L1313.6 1015.2ZM1313.6 1018.8L1313.1 1018.8L1313.1 1021.2L1313.6 1021.2L1314.1 1021.2L1314.1 1018.8L1313.6 1018.8ZM1313.6 1023.6L1313.1 1023.6L1313.1 1024.8L1313.6 1024.8L1314.1 1024.8L1314.1 1023.6L1313.6 1023.6Z" fill="black"/>
<path d="M1265.6 1039.2V1039.7H1266.8V1039.2V1038.7H1265.6V1039.2ZM1269.2 1039.2V1039.7H1271.6V1039.2V1038.7H1269.2V1039.2ZM1274 1039.2V1039.7H1275.2V1039.2V1038.7H1274V1039.2Z" fill="black"/>
<path d="M1930.89 899.999L1928 897.112L1925.11 899.999L1928 902.886L1930.89 899.999ZM1397.11 899.999L1400 902.886L1402.89 899.999L1400 897.112L1397.11 899.999ZM1928 899.999L1928 899.499L1400 899.499L1400 899.999L1400 900.499L1928 900.499L1928 899.999Z" fill="black"/>
<path d="M1070.71 900L1073.6 902.887L1076.49 900L1073.6 897.113L1070.71 900ZM1402.89 900L1400 897.113L1397.11 900L1400 902.887L1402.89 900ZM1073.6 900V900.5L1400 900.5V900V899.5L1073.6 899.5V900Z" fill="black"/>
<rect width="25.2" height="27.6" transform="translate(1161.8 1087.79)" fill="black"/>
<path d="M1174.43 1109.23C1169.89 1109.23 1168.6 1107.34 1168.6 1100.86C1168.6 1094.35 1169.89 1092.43 1174.4 1092.43C1177.6 1092.43 1178.96 1093.39 1179.25 1096.63H1177.21C1176.85 1094.54 1176.13 1094.18 1174.52 1094.18C1171.5 1094.18 1170.66 1095.62 1170.66 1100.81C1170.66 1106.02 1171.5 1107.48 1174.45 1107.48C1176.32 1107.48 1177.04 1106.9 1177.36 1105.15H1179.4C1179.11 1108.3 1177.64 1109.23 1174.43 1109.23Z" fill="white"/>
<rect width="25.2" height="27.6" transform="translate(1301 987.6)" fill="black"/>
<path d="M1307.68 1008.8V992.48H1309.74V999.344H1316.27V992.48H1318.33V1008.8H1316.27V1001.24H1309.74V1008.8H1307.68Z" fill="white"/>
<rect width="25.2" height="27.6" transform="translate(1240.4 1024.8)" fill="black"/>
<path d="M1248.3 1046V1044.1H1251.37V1031.58H1248.47V1029.68H1256.34V1031.58H1253.44V1044.1H1256.49V1046H1248.3Z" fill="white"/>
<rect width="25.2" height="27.6" transform="translate(1651.4 886.2)" fill="black"/>
<path d="M1657.19 907.4L1661.87 891.08H1664.99L1669.67 907.4H1667.63L1666.43 903.272H1660.41L1659.23 907.4H1657.19ZM1660.89 901.472H1665.97L1663.53 892.832H1663.33L1660.89 901.472Z" fill="white"/>
<rect width="25.2" height="27.6" transform="translate(1224.2 886.199)" fill="black"/>
<path d="M1235.25 907.591C1233.69 907.591 1232.75 907.543 1231.17 907.399L1231.17 891.079C1233.04 890.983 1233.78 890.959 1234.43 890.959C1239.49 890.959 1241.01 891.943 1241.01 895.279C1241.01 897.559 1240.48 898.351 1238.73 898.759V898.903C1241.01 899.551 1241.68 900.511 1241.68 903.079C1241.68 906.559 1240.21 907.591 1235.25 907.591ZM1233.18 905.647C1234.14 905.767 1234.77 905.791 1235.87 905.767C1238.75 905.695 1239.61 905.023 1239.61 902.839C1239.61 900.535 1238.85 899.863 1236.28 899.863H1233.18L1233.18 905.647ZM1233.18 898.087H1236.85C1238.51 898.015 1238.99 897.439 1238.99 895.519C1238.99 893.599 1238.39 892.975 1236.33 892.831C1235.25 892.735 1234.53 892.735 1233.18 892.783L1233.18 898.087Z" fill="white"/>
<circle cx="1390.4" cy="809.999" r="9.6" stroke="black" stroke-dasharray="2.4 2.4"/>
<circle cx="1371.2" cy="850.071" r="9.6" stroke="black" stroke-dasharray="2.4 2.4"/>
<circle cx="1111.53" cy="694.297" r="14.4" stroke="black" stroke-dasharray="2.4 2.4"/>
<circle cx="1409.6" cy="809.999" r="9.6" stroke="black" stroke-dasharray="2.4 2.4"/>
<path d="M1361.6 810L1361.6 810.5L1362.8 810.5L1362.8 810L1362.8 809.5L1361.6 809.5L1361.6 810ZM1365.2 810L1365.2 810.5L1367.6 810.5L1367.6 810L1367.6 809.5L1365.2 809.5L1365.2 810ZM1370 810L1370 810.5L1372.4 810.5L1372.4 810L1372.4 809.5L1370 809.5L1370 810ZM1374.8 810L1374.8 810.5L1377.2 810.5L1377.2 810L1377.2 809.5L1374.8 809.5L1374.8 810ZM1379.6 810L1379.6 810.5L1380.8 810.5L1380.8 810L1380.8 809.5L1379.6 809.5L1379.6 810Z" fill="black"/>
<path d="M1125.93 694.298L1125.93 694.798L1127.13 694.798L1127.13 694.298L1127.13 693.798L1125.93 693.798L1125.93 694.298ZM1129.53 694.298L1129.53 694.798L1131.93 694.798L1131.93 694.298L1131.93 693.798L1129.53 693.798L1129.53 694.298ZM1134.33 694.298L1134.33 694.798L1136.73 694.798L1136.73 694.298L1136.73 693.798L1134.33 693.798L1134.33 694.298ZM1139.13 694.298L1139.13 694.798L1141.53 694.798L1141.53 694.298L1141.53 693.798L1139.13 693.798L1139.13 694.298ZM1143.93 694.298L1143.93 694.798L1145.13 694.798L1145.13 694.298L1145.13 693.798L1143.93 693.798L1143.93 694.298Z" fill="black"/>
<path d="M1355.85 823.8L1355.41 824.05L1356.06 825.162L1356.49 824.912L1356.92 824.662L1356.28 823.55L1355.85 823.8ZM1357.77 827.137L1357.34 827.387L1358.63 829.611L1359.06 829.361L1359.49 829.111L1358.21 826.887L1357.77 827.137ZM1360.34 831.586L1359.91 831.836L1361.19 834.06L1361.63 833.81L1362.06 833.56L1360.78 831.336L1360.34 831.586ZM1362.91 836.035L1362.48 836.285L1363.76 838.509L1364.2 838.259L1364.63 838.009L1363.34 835.785L1362.91 836.035ZM1365.48 840.484L1365.05 840.734L1365.69 841.846L1366.12 841.596L1366.56 841.346L1365.91 840.234L1365.48 840.484Z" fill="black"/>
<rect width="25.2" height="27.6" transform="translate(1336.4 796.199)" fill="black"/>
<path d="M1343.08 817.399V801.079H1345.14V807.943H1351.67V801.079H1353.73V817.399H1351.67V809.839H1345.14V817.399H1343.08Z" fill="white"/>
<rect width="25.2" height="27.6" transform="translate(1145.13 680.496)" fill="black"/>
<path d="M1153.03 701.696V699.8H1156.11V687.272H1153.2V685.376H1161.07V687.272H1158.17V699.8H1161.22V701.696H1153.03Z" fill="white"/>
<path d="M869.113 899.957L872 902.844L874.887 899.957L872 897.07L869.113 899.957ZM1076.48 899.957L1073.6 897.07L1070.71 899.957L1073.6 902.844L1076.48 899.957ZM872 899.957V900.457L1073.6 900.457V899.957V899.457L872 899.457V899.957Z" fill="black"/>
<path d="M972.197 897.071L969.311 899.958L972.197 902.845L975.084 899.958L972.197 897.071ZM972.197 1229.25L975.084 1226.36L972.197 1223.47L969.311 1226.36L972.197 1229.25ZM972.197 899.958L971.697 899.958L971.697 1226.36L972.197 1226.36L972.697 1226.36L972.697 899.958L972.197 899.958Z" fill="black"/>
<path d="M972.192 570.736L969.306 573.623L972.192 576.51L975.079 573.623L972.192 570.736ZM972.192 902.911L975.079 900.024L972.192 897.137L969.306 900.024L972.192 902.911ZM972.192 573.623L971.692 573.623L971.692 900.024L972.192 900.024L972.692 900.024L972.692 573.623L972.192 573.623Z" fill="black"/>
<rect width="25.2" height="27.6" transform="translate(959.598 1049.36)" fill="black"/>
<path d="M970.642 1070.75C969.082 1070.75 968.146 1070.7 966.562 1070.56L966.562 1054.24C968.434 1054.14 969.178 1054.12 969.826 1054.12C974.89 1054.12 976.402 1055.1 976.402 1058.44C976.402 1060.72 975.874 1061.51 974.122 1061.92V1062.06C976.402 1062.71 977.074 1063.67 977.074 1066.24C977.074 1069.72 975.61 1070.75 970.642 1070.75ZM968.578 1068.81C969.538 1068.93 970.162 1068.95 971.266 1068.93C974.146 1068.85 975.01 1068.18 975.01 1066C975.01 1063.69 974.242 1063.02 971.674 1063.02H968.578L968.578 1068.81ZM968.578 1061.25H972.25C973.906 1061.17 974.386 1060.6 974.386 1058.68C974.386 1056.76 973.786 1056.13 971.722 1055.99C970.642 1055.89 969.922 1055.89 968.578 1055.94L968.578 1061.25Z" fill="white"/>
<rect width="25.2" height="27.6" transform="translate(959.598 722.954)" fill="black"/>
<path d="M970.642 744.346C969.082 744.346 968.146 744.298 966.562 744.154L966.562 727.834C968.434 727.738 969.178 727.714 969.826 727.714C974.89 727.714 976.402 728.698 976.402 732.034C976.402 734.314 975.874 735.106 974.122 735.514V735.658C976.402 736.306 977.074 737.266 977.074 739.834C977.074 743.314 975.61 744.346 970.642 744.346ZM968.578 742.402C969.538 742.522 970.162 742.546 971.266 742.522C974.146 742.45 975.01 741.778 975.01 739.594C975.01 737.29 974.242 736.618 971.674 736.618H968.578L968.578 742.402ZM968.578 734.842H972.25C973.906 734.77 974.386 734.194 974.386 732.274C974.386 730.354 973.786 729.73 971.722 729.586C970.642 729.49 969.922 729.49 968.578 729.538L968.578 734.842Z" fill="white"/>
<rect width="25.2" height="27.6" transform="translate(960.197 886.157)" fill="black"/>
<path d="M972.826 907.597C968.29 907.597 966.994 905.701 966.994 899.221C966.994 892.717 968.29 890.797 972.802 890.797C975.994 890.797 977.362 891.757 977.65 894.997H975.61C975.25 892.909 974.53 892.549 972.922 892.549C969.898 892.549 969.058 893.989 969.058 899.173C969.058 904.381 969.898 905.845 972.85 905.845C974.722 905.845 975.442 905.269 975.754 903.517H977.794C977.506 906.661 976.042 907.597 972.826 907.597Z" fill="white"/>
</g>
<defs>
<clipPath id="clip0_4260_1434">
<rect width="2800" height="1800" fill="white"/>
</clipPath>
<clipPath id="clip1_4260_1434">
<rect width="1056" height="27.6" fill="white" transform="translate(872.002 1494.16)"/>
</clipPath>
</defs>
</svg>
