<svg width="2400" height="1600" viewBox="0 0 2400 1600" fill="none" xmlns="http://www.w3.org/2000/svg">
<g clip-path="url(#clip0_3304_2)">
<rect width="2400" height="1600" fill="white"/>
<path d="M929.103 779.6C928.436 777.267 927.77 775.433 927.103 774.1C926.436 772.7 925.636 771.633 924.703 770.9C923.77 770.1 922.536 769.5 921.003 769.1V766.5H943.503V769.1C941.57 769.567 940.203 770.2 939.403 771C938.67 771.8 938.336 772.8 938.403 774C938.47 775.2 938.836 776.967 939.503 779.3L951.503 820.3H952.103L967.503 777.4L963.803 766.5H975.003L991.503 819H992.103L1003.9 779.9C1004.64 777.3 1005.07 775.333 1005.2 774C1005.34 772.667 1005.04 771.6 1004.3 770.8C1003.64 770 1002.34 769.433 1000.4 769.1V766.5H1018.3V769.1C1016.64 769.5 1015.27 770.133 1014.2 771C1013.2 771.8 1012.37 772.867 1011.7 774.2C1011.1 775.533 1010.44 777.433 1009.7 779.9L992.903 836H986.603L970.803 786.1H970.203L952.303 836H945.903L929.103 779.6ZM1035.91 833.4C1037.98 833.133 1039.55 832.4 1040.61 831.2C1041.75 830 1042.85 828 1043.91 825.2C1044.05 824.933 1044.15 824.7 1044.21 824.5C1044.35 824.233 1044.45 823.967 1044.51 823.7L1067.01 766.5H1072.91L1096.41 823C1096.55 823.267 1096.65 823.567 1096.71 823.9C1096.85 824.167 1096.98 824.433 1097.11 824.7C1097.98 826.833 1098.75 828.467 1099.41 829.6C1100.08 830.667 1100.81 831.533 1101.61 832.2C1102.48 832.8 1103.58 833.2 1104.91 833.4V836H1082.11V833.4C1083.98 833.267 1085.31 832.8 1086.11 832C1086.91 831.133 1087.25 830.033 1087.11 828.7C1087.05 827.367 1086.58 825.667 1085.71 823.6L1068.11 780.3H1067.51L1050.41 823.7C1049.55 825.9 1049.08 827.667 1049.01 829C1048.95 830.267 1049.35 831.267 1050.21 832C1051.08 832.733 1052.55 833.2 1054.61 833.4V836H1035.91V833.4ZM1051.91 814.2V808.9H1083.61V814.2H1051.91ZM1134.44 833.4C1136.24 833.133 1137.57 832.7 1138.44 832.1C1139.37 831.5 1140.01 830.6 1140.34 829.4C1140.67 828.2 1140.84 826.4 1140.84 824V778.4C1140.84 775.933 1140.64 774.1 1140.24 772.9C1139.91 771.633 1139.31 770.733 1138.44 770.2C1137.57 769.667 1136.24 769.3 1134.44 769.1V766.5H1157.14V769.1C1155.27 769.3 1153.91 769.667 1153.04 770.2C1152.17 770.733 1151.57 771.6 1151.24 772.8C1150.97 774 1150.84 775.867 1150.84 778.4V830.7H1166.94C1170.01 830.7 1172.51 830.333 1174.44 829.6C1176.44 828.867 1178.04 827.467 1179.24 825.4C1180.44 823.333 1181.24 820.333 1181.64 816.4H1184.44V836H1134.44V833.4ZM1222.85 778.7C1222.85 776.033 1222.65 774.067 1222.25 772.8C1221.85 771.467 1221.22 770.6 1220.35 770.2C1219.55 769.733 1218.25 769.367 1216.45 769.1V766.5H1244.65C1252.25 766.5 1258.92 767.967 1264.65 770.9C1270.38 773.767 1274.82 777.833 1277.95 783.1C1281.15 788.3 1282.75 794.267 1282.75 801C1282.75 807.867 1281.15 813.967 1277.95 819.3C1274.82 824.567 1270.38 828.667 1264.65 831.6C1258.92 834.533 1252.25 836 1244.65 836H1216.45V833.4C1218.45 833.067 1219.88 832.6 1220.75 832C1221.62 831.333 1222.18 830.367 1222.45 829.1C1222.72 827.767 1222.85 825.7 1222.85 822.9V778.7ZM1242.15 830.7C1248.28 830.7 1253.52 829.567 1257.85 827.3C1262.18 825.033 1265.48 821.667 1267.75 817.2C1270.08 812.733 1271.25 807.333 1271.25 801C1271.25 794.8 1270.08 789.5 1267.75 785.1C1265.48 780.7 1262.18 777.4 1257.85 775.2C1253.52 772.933 1248.28 771.8 1242.15 771.8H1232.85V830.7H1242.15ZM1369.54 818.5V836H1315.74V833.4C1317.54 833.067 1318.84 832.667 1319.64 832.2C1320.51 831.667 1321.11 830.833 1321.44 829.7C1321.84 828.567 1322.07 826.8 1322.14 824.4V823.8V778.5C1322.14 776.033 1321.97 774.2 1321.64 773C1321.31 771.733 1320.67 770.833 1319.74 770.3C1318.87 769.7 1317.54 769.3 1315.74 769.1V766.5H1367.54V781.5H1364.74C1364.47 779.1 1363.84 777.2 1362.84 775.8C1361.84 774.4 1360.31 773.4 1358.24 772.8C1356.17 772.133 1353.47 771.8 1350.14 771.8H1332.14V798.2H1345.44C1348.24 798.2 1350.47 797.967 1352.14 797.5C1353.81 796.967 1355.04 796.167 1355.84 795.1C1356.64 794.033 1357.07 792.633 1357.14 790.9H1359.94V810.8H1357.14C1357.07 809 1356.64 807.567 1355.84 806.5C1355.04 805.433 1353.81 804.667 1352.14 804.2C1350.47 803.733 1348.24 803.5 1345.44 803.5H1332.14V830.7H1352.34C1355.21 830.7 1357.64 830.333 1359.64 829.6C1361.64 828.867 1363.24 827.6 1364.44 825.8C1365.71 824 1366.47 821.567 1366.74 818.5H1369.54ZM1402.83 833.4C1404.56 833.133 1405.86 832.733 1406.73 832.2C1407.59 831.6 1408.19 830.667 1408.53 829.4C1408.93 828.133 1409.13 826.267 1409.13 823.8V773L1404.53 767V766.5H1419.13L1456.33 819.2H1456.93V778.5C1456.93 775.967 1456.76 774.1 1456.42 772.9C1456.09 771.633 1455.49 770.733 1454.63 770.2C1453.76 769.667 1452.46 769.3 1450.73 769.1V766.5H1469.03V769.1C1467.23 769.3 1465.89 769.667 1465.03 770.2C1464.23 770.733 1463.63 771.633 1463.23 772.9C1462.89 774.167 1462.73 776.033 1462.73 778.5V836H1455.83L1415.53 779H1414.93V823.8C1414.93 826.267 1415.09 828.133 1415.43 829.4C1415.83 830.667 1416.43 831.6 1417.23 832.2C1418.09 832.733 1419.43 833.133 1421.23 833.4V836H1402.83V833.4Z" fill="black"/>
<path d="M1615.17 780.5C1614.37 777.9 1613.6 775.9 1612.87 774.5C1612.2 773.1 1611.4 772 1610.47 771.2C1609.6 770.4 1608.4 769.767 1606.87 769.3V766.5H1632.27V769.3C1630.2 769.833 1628.77 770.533 1627.97 771.4C1627.17 772.2 1626.8 773.267 1626.87 774.6C1626.94 775.933 1627.34 777.833 1628.07 780.3L1638.77 816.9H1639.47L1653.17 778.1L1649.07 766.5H1662.97L1678.67 815.6H1679.37L1689.97 780.1C1690.77 777.5 1691.24 775.533 1691.37 774.2C1691.5 772.867 1691.2 771.8 1690.47 771C1689.74 770.2 1688.34 769.633 1686.27 769.3V766.5H1705.27V769.3C1703.74 769.7 1702.47 770.333 1701.47 771.2C1700.54 772 1699.74 773.067 1699.07 774.4C1698.47 775.733 1697.8 777.6 1697.07 780L1680.17 836H1672.67L1657.27 788.1H1656.57L1639.67 836H1631.97L1615.17 780.5ZM1721.97 833.2C1724.04 832.867 1725.61 832.133 1726.67 831C1727.74 829.867 1728.81 828 1729.87 825.4C1730.01 825.2 1730.11 825 1730.17 824.8C1730.24 824.533 1730.34 824.3 1730.47 824.1L1753.37 766.5H1760.27L1783.97 823.4C1784.11 823.667 1784.21 823.933 1784.27 824.2C1784.41 824.4 1784.51 824.633 1784.57 824.9C1785.44 826.9 1786.21 828.433 1786.87 829.5C1787.54 830.5 1788.31 831.3 1789.17 831.9C1790.04 832.433 1791.14 832.867 1792.47 833.2V836H1766.87V833.2C1768.87 832.933 1770.24 832.433 1770.97 831.7C1771.77 830.9 1772.11 829.9 1771.97 828.7C1771.91 827.5 1771.47 825.9 1770.67 823.9L1754.17 783.5H1753.47L1737.67 823.6C1736.81 825.733 1736.34 827.433 1736.27 828.7C1736.21 829.967 1736.64 830.967 1737.57 831.7C1738.51 832.433 1740.04 832.933 1742.17 833.2V836H1721.97V833.2ZM1738.47 815.2V809.1H1769.47V815.2H1738.47ZM1821.28 833.2C1823.08 832.933 1824.38 832.533 1825.18 832C1826.05 831.4 1826.65 830.533 1826.98 829.4C1827.32 828.267 1827.48 826.633 1827.48 824.5V778.3C1827.48 775.967 1827.32 774.233 1826.98 773.1C1826.72 771.967 1826.15 771.1 1825.28 770.5C1824.48 769.9 1823.15 769.5 1821.28 769.3V766.5H1846.08V769.3C1844.22 769.5 1842.85 769.9 1841.98 770.5C1841.12 771.1 1840.55 771.967 1840.28 773.1C1840.02 774.233 1839.88 775.967 1839.88 778.3V829.9H1854.48C1857.48 829.9 1859.95 829.533 1861.88 828.8C1863.82 828 1865.38 826.567 1866.58 824.5C1867.85 822.433 1868.75 819.467 1869.28 815.6H1872.28V836H1821.28V833.2ZM1909.69 778.2C1909.69 775.8 1909.49 774.033 1909.09 772.9C1908.75 771.767 1908.15 770.967 1907.29 770.5C1906.49 769.967 1905.22 769.567 1903.49 769.3V766.5H1932.29C1940.15 766.5 1946.99 767.933 1952.79 770.8C1958.65 773.667 1963.19 777.733 1966.39 783C1969.65 788.2 1971.29 794.233 1971.29 801.1C1971.29 808.033 1969.65 814.133 1966.39 819.4C1963.19 824.667 1958.65 828.767 1952.79 831.7C1946.99 834.567 1940.15 836 1932.29 836H1903.49V833.2C1905.35 832.867 1906.69 832.4 1907.49 831.8C1908.35 831.2 1908.92 830.3 1909.19 829.1C1909.52 827.833 1909.69 825.9 1909.69 823.3V778.2ZM1929.79 830C1935.52 830 1940.42 828.933 1944.49 826.8C1948.62 824.6 1951.79 821.367 1953.99 817.1C1956.19 812.767 1957.29 807.433 1957.29 801.1C1957.29 794.767 1956.19 789.467 1953.99 785.2C1951.79 780.933 1948.62 777.767 1944.49 775.7C1940.42 773.567 1935.52 772.5 1929.79 772.5H1922.09V830H1929.79ZM2058.16 817.6V836H2003.36V833.2C2005.16 832.867 2006.46 832.467 2007.26 832C2008.06 831.533 2008.63 830.733 2008.96 829.6C2009.3 828.467 2009.5 826.733 2009.56 824.4V823.8V778.1C2009.56 775.767 2009.4 774.033 2009.06 772.9C2008.73 771.767 2008.13 770.967 2007.26 770.5C2006.4 769.967 2005.1 769.567 2003.36 769.3V766.5H2056.16V782.3H2053.16C2052.83 779.967 2052.13 778.1 2051.06 776.7C2050.06 775.3 2048.53 774.267 2046.46 773.6C2044.46 772.933 2041.8 772.6 2038.46 772.6H2021.96V797.8H2034.26C2037 797.8 2039.16 797.567 2040.76 797.1C2042.43 796.567 2043.6 795.767 2044.26 794.7C2045 793.633 2045.46 792.233 2045.66 790.5H2048.66V811.2H2045.66C2045.53 809.467 2045.1 808.067 2044.36 807C2043.63 805.933 2042.43 805.167 2040.76 804.7C2039.16 804.233 2037 804 2034.26 804H2021.96V829.9H2040.66C2043.53 829.9 2045.93 829.533 2047.86 828.8C2049.86 828.067 2051.5 826.8 2052.76 825C2054.03 823.2 2054.86 820.733 2055.26 817.6H2058.16ZM2090.65 833.2C2092.38 833 2093.68 832.6 2094.55 832C2095.41 831.333 2096.01 830.367 2096.35 829.1C2096.68 827.767 2096.85 825.933 2096.85 823.6V773.4L2091.95 767.1V766.5H2109.85L2143.65 815.4H2144.35V778.6C2144.35 776.267 2144.18 774.467 2143.85 773.2C2143.51 771.933 2142.91 771.033 2142.05 770.5C2141.18 769.9 2139.91 769.5 2138.25 769.3V766.5H2157.35V769.3C2155.61 769.5 2154.31 769.9 2153.45 770.5C2152.58 771.033 2151.98 771.933 2151.65 773.2C2151.31 774.467 2151.15 776.267 2151.15 778.6V836H2142.65L2104.35 780.7H2103.65V823.6C2103.65 826 2103.81 827.833 2104.15 829.1C2104.48 830.367 2105.08 831.333 2105.95 832C2106.81 832.6 2108.11 833 2109.85 833.2V836H2090.65V833.2Z" fill="black"/>
<path d="M248.01 778.9C247.343 776.7 246.676 774.967 246.01 773.7C245.41 772.367 244.643 771.3 243.71 770.5C242.776 769.7 241.543 769.1 240.01 768.7V766.5H259.71V768.7C257.71 769.1 256.31 769.7 255.51 770.5C254.71 771.3 254.343 772.3 254.41 773.5C254.476 774.633 254.843 776.3 255.51 778.5L268.91 823.9H269.51L286.41 776.8L283.01 766.5H291.01L308.71 823.1H309.31L322.61 779.4C323.41 776.867 323.843 774.933 323.91 773.6C324.043 772.267 323.743 771.2 323.01 770.4C322.343 769.6 321.076 769.033 319.21 768.7V766.5H335.51V768.7C333.91 769.167 332.61 769.8 331.61 770.6C330.676 771.4 329.876 772.467 329.21 773.8C328.61 775.067 327.943 776.9 327.21 779.3L309.91 836H305.41L289.01 783.8H288.51L269.71 836H265.11L248.01 778.9ZM354.242 833.8C356.242 833.333 357.775 832.5 358.842 831.3C359.908 830.1 360.975 828.167 362.042 825.5C362.175 825.233 362.275 825 362.342 824.8C362.475 824.533 362.575 824.267 362.642 824L385.242 766.5H389.342L412.842 823.5C412.975 823.767 413.075 824.033 413.142 824.3C413.275 824.567 413.408 824.833 413.542 825.1C414.408 827.167 415.175 828.767 415.842 829.9C416.508 830.967 417.242 831.8 418.042 832.4C418.842 833 419.908 833.467 421.242 833.8V836H401.542V833.8C403.408 833.533 404.742 833.033 405.542 832.3C406.342 831.5 406.708 830.467 406.642 829.2C406.575 827.867 406.108 826.133 405.242 824L386.142 777.3H385.642L367.242 824.2C366.375 826.333 365.875 828.033 365.742 829.3C365.675 830.5 366.042 831.467 366.842 832.2C367.708 832.933 369.108 833.467 371.042 833.8V836H354.242V833.8ZM369.842 813.3V809.1H402.342V813.3H369.842ZM451.796 833.8C453.596 833.533 454.93 833.1 455.796 832.5C456.73 831.9 457.33 830.967 457.596 829.7C457.93 828.433 458.096 826.533 458.096 824V778.5C458.096 775.9 457.93 773.967 457.596 772.7C457.33 771.367 456.73 770.433 455.796 769.9C454.93 769.3 453.596 768.9 451.796 768.7V766.5H471.696V768.7C469.83 768.9 468.463 769.3 467.596 769.9C466.73 770.433 466.13 771.333 465.796 772.6C465.53 773.867 465.396 775.833 465.396 778.5V831.8H483.496C486.696 831.8 489.263 831.467 491.196 830.8C493.196 830.067 494.73 828.7 495.796 826.7C496.93 824.7 497.663 821.767 497.996 817.9H500.396V836H451.796V833.8ZM539.521 778.7C539.521 775.9 539.321 773.833 538.921 772.5C538.587 771.167 537.987 770.267 537.121 769.8C536.321 769.333 534.987 768.967 533.121 768.7V766.5H559.521C567.121 766.5 573.787 767.933 579.521 770.8C585.254 773.667 589.687 777.733 592.821 783C595.954 788.2 597.521 794.233 597.521 801.1C597.521 808.1 595.954 814.233 592.821 819.5C589.687 824.767 585.254 828.833 579.521 831.7C573.787 834.567 567.121 836 559.521 836H533.121V833.8C535.054 833.6 536.454 833.2 537.321 832.6C538.187 832 538.754 831.067 539.021 829.8C539.354 828.467 539.521 826.467 539.521 823.8V778.7ZM557.721 831.8C564.187 831.8 569.787 830.633 574.521 828.3C579.254 825.9 582.887 822.4 585.421 817.8C587.954 813.133 589.221 807.567 589.221 801.1C589.221 794.767 587.954 789.3 585.421 784.7C582.887 780.1 579.254 776.633 574.521 774.3C569.787 771.9 564.187 770.7 557.721 770.7H546.721V831.8H557.721ZM684.23 820V836H631.63V833.8C633.497 833.6 634.83 833.267 635.63 832.8C636.497 832.267 637.097 831.433 637.43 830.3C637.763 829.1 637.963 827.267 638.03 824.8V824.2V778.3C638.03 775.767 637.863 773.867 637.53 772.6C637.197 771.333 636.563 770.433 635.63 769.9C634.763 769.3 633.43 768.9 631.63 768.7V766.5H682.23V779.9H679.83C679.63 777.633 679.063 775.833 678.13 774.5C677.197 773.167 675.73 772.2 673.73 771.6C671.797 771 669.163 770.7 665.83 770.7H645.23V798.7H661.33C663.997 798.7 666.13 798.467 667.73 798C669.33 797.533 670.463 796.8 671.13 795.8C671.863 794.733 672.297 793.367 672.43 791.7H674.73V809.9H672.43C672.297 808.167 671.863 806.8 671.13 805.8C670.463 804.8 669.33 804.067 667.73 803.6C666.13 803.133 663.997 802.9 661.33 802.9H645.23V831.8H668.43C671.297 831.8 673.63 831.467 675.43 830.8C677.297 830.067 678.763 828.833 679.83 827.1C680.897 825.367 681.563 823 681.83 820H684.23ZM718.421 833.8C720.221 833.533 721.554 833.133 722.421 832.6C723.287 832 723.887 831.067 724.221 829.8C724.621 828.533 724.821 826.633 724.821 824.1V772.6L720.321 766.9V766.5H730.721L772.321 823.4H772.821V778.2C772.821 775.667 772.654 773.767 772.321 772.5C771.987 771.233 771.387 770.333 770.521 769.8C769.654 769.267 768.321 768.9 766.521 768.7V766.5H783.621V768.7C781.887 768.9 780.587 769.267 779.721 769.8C778.854 770.333 778.221 771.267 777.821 772.6C777.487 773.867 777.321 775.733 777.321 778.2V836H772.421L729.821 777.6H729.321V824.1C729.321 826.633 729.487 828.533 729.821 829.8C730.221 831.067 730.854 832 731.721 832.6C732.587 833.133 733.887 833.533 735.621 833.8V836H718.421V833.8Z" fill="black"/>
<path d="M929.022 947.6C928.222 945.2 927.389 943.267 926.522 941.8C925.722 940.333 924.689 939.2 923.422 938.4C922.222 937.533 920.589 936.9 918.522 936.5V934.5H947.222V936.5C944.289 936.9 942.189 937.533 940.922 938.4C939.656 939.267 938.989 940.367 938.922 941.7C938.922 943.033 939.289 944.867 940.022 947.2L952.222 986.8H952.722L967.122 947.1L962.622 934.5H974.222L991.522 986H992.022L1003.82 948.6C1004.76 945.6 1005.26 943.367 1005.32 941.9C1005.39 940.433 1004.82 939.267 1003.62 938.4C1002.49 937.467 1000.39 936.833 997.322 936.5V934.5H1019.12V936.5C1016.79 936.9 1014.96 937.567 1013.62 938.5C1012.29 939.433 1011.22 940.667 1010.42 942.2C1009.62 943.667 1008.79 945.767 1007.92 948.5L990.122 1004.6H986.922L969.522 953.3H969.022L950.222 1004.6H947.022L929.022 947.6ZM1033.53 1002C1036.27 1001.67 1038.3 1000.83 1039.63 999.5C1040.97 998.167 1042.23 996.067 1043.43 993.2C1043.57 992.933 1043.67 992.7 1043.73 992.5C1043.87 992.233 1044 991.967 1044.13 991.7L1067.03 933.9H1070.03L1094.33 990.9C1094.47 991.233 1094.6 991.567 1094.73 991.9C1094.87 992.167 1095 992.433 1095.13 992.7C1096.13 994.967 1097 996.7 1097.73 997.9C1098.53 999.033 1099.43 999.933 1100.43 1000.6C1101.5 1001.27 1102.9 1001.73 1104.63 1002V1004H1075.93V1002C1078.87 1001.8 1080.97 1001.27 1082.23 1000.4C1083.57 999.533 1084.23 998.4 1084.23 997C1084.3 995.6 1083.9 993.833 1083.03 991.7L1065.33 949.4H1064.93L1048.13 991.7C1047.27 994.033 1046.87 995.867 1046.93 997.2C1047.07 998.533 1047.83 999.6 1049.23 1000.4C1050.63 1001.2 1052.93 1001.73 1056.13 1002V1004H1033.53V1002ZM1050.93 981.2V977.5H1080.53V981.2H1050.93ZM1131.93 1002C1134.53 1001.8 1136.5 1001.4 1137.83 1000.8C1139.16 1000.2 1140.06 999.233 1140.53 997.9C1141.06 996.5 1141.33 994.5 1141.33 991.9V946.5C1141.33 943.833 1141.06 941.833 1140.53 940.5C1140.06 939.167 1139.16 938.233 1137.83 937.7C1136.56 937.1 1134.6 936.7 1131.93 936.5V934.5H1161.33V936.5C1158.66 936.7 1156.66 937.1 1155.33 937.7C1154.06 938.233 1153.16 939.167 1152.63 940.5C1152.16 941.833 1151.93 943.833 1151.93 946.5V1000.5H1163.83C1167.76 1000.5 1171 999.967 1173.53 998.9C1176.13 997.767 1178.23 995.667 1179.83 992.6C1181.5 989.533 1182.63 985.1 1183.23 979.3H1185.23V1004H1131.93V1002ZM1225.29 946.8C1225.29 944 1225.03 941.933 1224.49 940.6C1223.96 939.2 1223.03 938.233 1221.69 937.7C1220.43 937.1 1218.49 936.7 1215.89 936.5V934.5H1246.69C1254.43 934.5 1261.23 935.933 1267.09 938.8C1273.03 941.667 1277.63 945.733 1280.89 951C1284.23 956.267 1285.89 962.333 1285.89 969.2C1285.89 976.067 1284.23 982.167 1280.89 987.5C1277.63 992.767 1273.03 996.833 1267.09 999.7C1261.23 1002.57 1254.43 1004 1246.69 1004H1215.89V1002C1218.56 1001.73 1220.53 1001.3 1221.79 1000.7C1223.13 1000.03 1224.03 999.033 1224.49 997.7C1225.03 996.3 1225.29 994.167 1225.29 991.3V946.8ZM1244.19 1000.5C1250.39 1000.5 1255.66 999.3 1259.99 996.9C1264.33 994.433 1267.63 990.867 1269.89 986.2C1272.23 981.467 1273.39 975.8 1273.39 969.2C1273.39 962.6 1272.23 956.967 1269.89 952.3C1267.63 947.633 1264.33 944.1 1259.99 941.7C1255.66 939.233 1250.39 938 1244.19 938H1235.89V1000.5H1244.19ZM1374.25 982.2V1004H1316.45V1002C1319.05 1001.73 1320.99 1001.33 1322.25 1000.8C1323.52 1000.27 1324.42 999.367 1324.95 998.1C1325.49 996.833 1325.79 994.933 1325.85 992.4V991.8V946.6C1325.85 943.933 1325.59 941.933 1325.05 940.6C1324.59 939.2 1323.69 938.233 1322.35 937.7C1321.02 937.1 1319.05 936.7 1316.45 936.5V934.5H1371.55V952.6H1369.55C1369.15 949.067 1368.32 946.233 1367.05 944.1C1365.85 941.967 1364.09 940.433 1361.75 939.5C1359.42 938.5 1356.39 938 1352.65 938H1336.45V967H1346.55C1349.69 967 1352.22 966.633 1354.15 965.9C1356.09 965.167 1357.52 964.033 1358.45 962.5C1359.39 960.9 1359.99 958.833 1360.25 956.3H1362.25V981.3H1360.25C1359.99 978.7 1359.35 976.633 1358.35 975.1C1357.42 973.5 1355.99 972.333 1354.05 971.6C1352.12 970.867 1349.59 970.5 1346.45 970.5H1336.45V1000.5H1353.45C1357.12 1000.5 1360.22 999.967 1362.75 998.9C1365.35 997.767 1367.45 995.867 1369.05 993.2C1370.65 990.467 1371.72 986.8 1372.25 982.2H1374.25ZM1405.19 1002C1407.86 1001.73 1409.83 1001.3 1411.09 1000.7C1412.36 1000.1 1413.26 999.133 1413.79 997.8C1414.33 996.467 1414.59 994.433 1414.59 991.7V943.6L1407.49 934.9V934.5H1422.99L1461.19 985H1461.59V946.7C1461.59 943.967 1461.33 941.933 1460.79 940.6C1460.33 939.267 1459.43 938.3 1458.09 937.7C1456.83 937.1 1454.86 936.7 1452.19 936.5V934.5H1474.99V936.5C1472.39 936.7 1470.43 937.1 1469.09 937.7C1467.76 938.3 1466.83 939.267 1466.29 940.6C1465.83 941.933 1465.59 943.967 1465.59 946.7V1004.6H1462.09L1418.99 947.9H1418.59V991.7C1418.59 994.433 1418.86 996.467 1419.39 997.8C1419.93 999.133 1420.83 1000.1 1422.09 1000.7C1423.36 1001.3 1425.33 1001.73 1427.99 1002V1004H1405.19V1002Z" fill="black"/>
<path d="M928.437 1115.5C927.57 1113.03 926.637 1111.03 925.637 1109.5C924.703 1107.97 923.47 1106.77 921.937 1105.9C920.403 1104.97 918.37 1104.3 915.837 1103.9V1102.5H950.237V1103.9C946.303 1104.3 943.47 1104.97 941.737 1105.9C940.07 1106.83 939.17 1108 939.037 1109.4C938.97 1110.8 939.337 1112.73 940.137 1115.2L952.537 1153.5H952.837L966.337 1116.7L961.137 1102.5H973.037L991.137 1153H991.437L1003.24 1117.2C1004.37 1113.93 1004.94 1111.5 1004.94 1109.9C1004.94 1108.23 1004.14 1106.9 1002.54 1105.9C1000.94 1104.9 998.137 1104.23 994.137 1103.9V1102.5H1019.44V1103.9C1016.44 1104.37 1014.1 1105.13 1012.44 1106.2C1010.84 1107.2 1009.57 1108.5 1008.64 1110.1C1007.77 1111.7 1006.8 1114.03 1005.74 1117.1L987.137 1173.2H986.837L967.737 1120.5H967.337L947.937 1173.2H947.637L928.437 1115.5ZM1031.05 1170.6C1034.31 1170.13 1036.71 1169.2 1038.25 1167.8C1039.85 1166.4 1041.31 1164.2 1042.65 1161.2C1042.78 1160.93 1042.91 1160.67 1043.05 1160.4C1043.18 1160.13 1043.28 1159.87 1043.35 1159.6L1066.65 1101.3H1066.95L1092.05 1158.8C1092.18 1159.13 1092.31 1159.47 1092.45 1159.8C1092.65 1160.07 1092.81 1160.37 1092.95 1160.7C1094.01 1163.1 1094.98 1164.9 1095.85 1166.1C1096.71 1167.3 1097.75 1168.27 1098.95 1169C1100.21 1169.67 1101.95 1170.2 1104.15 1170.6V1172H1069.95V1170.6C1073.75 1170.27 1076.55 1169.67 1078.35 1168.8C1080.15 1167.87 1081.11 1166.7 1081.25 1165.3C1081.45 1163.83 1081.11 1162 1080.25 1159.8L1062.55 1118.4H1062.15L1045.75 1159.8C1044.81 1162.2 1044.48 1164.1 1044.75 1165.5C1045.01 1166.83 1046.08 1167.93 1047.95 1168.8C1049.88 1169.6 1052.98 1170.2 1057.25 1170.6V1172H1031.05V1170.6ZM1049.65 1148.3V1146.1H1077.45V1148.3H1049.65ZM1129.21 1170.6C1132.61 1170.4 1135.18 1170 1136.91 1169.4C1138.65 1168.73 1139.85 1167.7 1140.51 1166.3C1141.18 1164.83 1141.51 1162.67 1141.51 1159.8V1114.7C1141.51 1111.83 1141.18 1109.7 1140.51 1108.3C1139.85 1106.83 1138.65 1105.8 1136.91 1105.2C1135.18 1104.53 1132.61 1104.1 1129.21 1103.9V1102.5H1164.91V1103.9C1161.51 1104.1 1158.95 1104.53 1157.21 1105.2C1155.48 1105.8 1154.28 1106.83 1153.61 1108.3C1153.01 1109.7 1152.71 1111.83 1152.71 1114.7V1170.1H1160.51C1165.31 1170.1 1169.28 1169.4 1172.41 1168C1175.55 1166.53 1178.11 1163.8 1180.11 1159.8C1182.18 1155.8 1183.58 1150.07 1184.31 1142.6H1185.71V1172H1129.21V1170.6ZM1227.23 1114.9C1227.23 1111.97 1226.9 1109.77 1226.23 1108.3C1225.57 1106.83 1224.37 1105.8 1222.63 1105.2C1220.9 1104.53 1218.33 1104.1 1214.93 1103.9V1102.5H1248.23C1256.17 1102.5 1263.17 1103.93 1269.23 1106.8C1275.3 1109.67 1280 1113.73 1283.33 1119C1286.73 1124.27 1288.43 1130.37 1288.43 1137.3C1288.43 1144.23 1286.73 1150.33 1283.33 1155.6C1280 1160.87 1275.3 1164.93 1269.23 1167.8C1263.17 1170.6 1256.17 1172 1248.23 1172H1214.93V1170.6C1218.33 1170.4 1220.9 1170 1222.63 1169.4C1224.37 1168.73 1225.57 1167.67 1226.23 1166.2C1226.9 1164.73 1227.23 1162.53 1227.23 1159.6V1114.9ZM1245.73 1170.1C1252 1170.1 1257.3 1168.83 1261.63 1166.3C1266.03 1163.7 1269.37 1159.93 1271.63 1155C1273.9 1150.07 1275.03 1144.17 1275.03 1137.3C1275.03 1130.43 1273.9 1124.53 1271.63 1119.6C1269.37 1114.67 1266.03 1110.9 1261.63 1108.3C1257.3 1105.7 1252 1104.4 1245.73 1104.4H1238.43V1170.1H1245.73ZM1378.26 1146.2V1172H1316.76V1170.6C1320.1 1170.4 1322.6 1170 1324.26 1169.4C1326 1168.8 1327.2 1167.83 1327.86 1166.5C1328.6 1165.1 1329 1163.03 1329.06 1160.3V1159.7V1114.8C1329.06 1111.87 1328.73 1109.7 1328.06 1108.3C1327.4 1106.83 1326.2 1105.8 1324.46 1105.2C1322.73 1104.53 1320.16 1104.1 1316.76 1103.9V1102.5H1374.96V1123.4H1373.66C1373.13 1118.8 1372.16 1115.13 1370.76 1112.4C1369.36 1109.6 1367.36 1107.57 1364.76 1106.3C1362.16 1105.03 1358.76 1104.4 1354.56 1104.4H1340.26V1135.8H1347.16C1350.63 1135.8 1353.43 1135.33 1355.56 1134.4C1357.76 1133.4 1359.43 1131.9 1360.56 1129.9C1361.7 1127.83 1362.46 1125.13 1362.86 1121.8H1364.16V1151.6H1362.86C1362.46 1148.27 1361.66 1145.6 1360.46 1143.6C1359.33 1141.53 1357.66 1140.03 1355.46 1139.1C1353.33 1138.1 1350.56 1137.6 1347.16 1137.6H1340.26V1170.1H1354.16C1358.56 1170.1 1362.3 1169.4 1365.36 1168C1368.43 1166.53 1370.93 1164.07 1372.86 1160.6C1374.86 1157.07 1376.23 1152.27 1376.96 1146.2H1378.26ZM1407.07 1170.6C1410.53 1170.4 1413.1 1169.97 1414.77 1169.3C1416.43 1168.63 1417.6 1167.6 1418.27 1166.2C1419 1164.73 1419.37 1162.53 1419.37 1159.6V1114.1L1409.87 1102.8V1102.5H1426.07L1465.27 1151H1465.57V1114.9C1465.57 1111.97 1465.23 1109.77 1464.57 1108.3C1463.97 1106.83 1462.8 1105.8 1461.07 1105.2C1459.33 1104.53 1456.73 1104.1 1453.27 1103.9V1102.5H1480.17V1103.9C1476.7 1104.1 1474.1 1104.53 1472.37 1105.2C1470.7 1105.8 1469.53 1106.83 1468.87 1108.3C1468.2 1109.77 1467.87 1111.97 1467.87 1114.9V1173.2H1467.57L1421.97 1116.8H1421.57V1159.6C1421.57 1162.53 1421.9 1164.73 1422.57 1166.2C1423.3 1167.6 1424.5 1168.63 1426.17 1169.3C1427.83 1169.97 1430.4 1170.4 1433.87 1170.6V1172H1407.07V1170.6Z" fill="black"/>
<path d="M1614.69 948.5C1613.82 945.767 1612.95 943.633 1612.09 942.1C1611.22 940.567 1610.19 939.367 1608.99 938.5C1607.79 937.633 1606.19 937 1604.19 936.6V934.5H1635.49V936.6C1632.49 937.067 1630.39 937.767 1629.19 938.7C1627.99 939.567 1627.39 940.733 1627.39 942.2C1627.39 943.667 1627.79 945.667 1628.59 948.2L1639.59 983.3H1640.09L1652.79 948.1L1647.79 934.5H1662.19L1678.79 982.2H1679.39L1689.79 949.2C1690.72 946.133 1691.25 943.833 1691.39 942.3C1691.52 940.7 1691.02 939.433 1689.89 938.5C1688.75 937.567 1686.65 936.933 1683.59 936.6V934.5H1705.79V936.6C1703.52 937 1701.72 937.7 1700.39 938.7C1699.05 939.7 1697.95 941 1697.09 942.6C1696.29 944.133 1695.45 946.3 1694.59 949.1L1676.89 1004.7H1673.09L1655.59 955.1H1654.99L1636.99 1004.7H1633.09L1614.69 948.5ZM1719.1 1001.9C1721.83 1001.5 1723.86 1000.63 1725.2 999.3C1726.6 997.967 1727.93 995.8 1729.2 992.8C1729.33 992.533 1729.43 992.267 1729.5 992C1729.63 991.733 1729.76 991.467 1729.9 991.2L1753.1 933.8H1756.6L1781.1 990.8C1781.23 991.133 1781.33 991.433 1781.4 991.7C1781.53 991.967 1781.66 992.267 1781.8 992.6C1782.8 994.8 1783.7 996.5 1784.5 997.7C1785.3 998.833 1786.23 999.733 1787.3 1000.4C1788.36 1001.07 1789.8 1001.57 1791.6 1001.9V1004H1760.1V1001.9C1762.9 1001.57 1764.93 1000.97 1766.2 1000.1C1767.46 999.233 1768.13 998.133 1768.2 996.8C1768.26 995.467 1767.83 993.7 1766.9 991.5L1750.6 952.7H1750.1L1734.7 991C1733.7 993.533 1733.23 995.5 1733.3 996.9C1733.43 998.3 1734.23 999.4 1735.7 1000.2C1737.16 1001 1739.53 1001.57 1742.8 1001.9V1004H1719.1V1001.9ZM1736.5 982.2V978H1765.9V982.2H1736.5ZM1818.27 1001.9C1820.81 1001.63 1822.71 1001.2 1823.97 1000.6C1825.24 1000 1826.11 999.067 1826.57 997.8C1827.11 996.467 1827.37 994.533 1827.37 992V946.6C1827.37 944 1827.11 942.067 1826.57 940.8C1826.11 939.467 1825.24 938.5 1823.97 937.9C1822.77 937.233 1820.87 936.8 1818.27 936.6V934.5H1849.57V936.6C1846.97 936.8 1845.04 937.233 1843.77 937.9C1842.57 938.5 1841.74 939.467 1841.27 940.8C1840.81 942.067 1840.57 944 1840.57 946.6V1000H1850.77C1854.64 1000 1857.84 999.433 1860.37 998.3C1862.97 997.167 1865.11 995.067 1866.77 992C1868.44 988.933 1869.64 984.533 1870.37 978.8H1872.57V1004H1818.27V1001.9ZM1911.43 946.6C1911.43 944 1911.17 942.033 1910.63 940.7C1910.17 939.367 1909.3 938.4 1908.03 937.8C1906.77 937.2 1904.9 936.8 1902.43 936.6V934.5H1933.83C1941.9 934.5 1948.93 935.933 1954.93 938.8C1961 941.667 1965.67 945.733 1968.93 951C1972.27 956.2 1973.93 962.267 1973.93 969.2C1973.93 976.133 1972.27 982.233 1968.93 987.5C1965.67 992.767 1961 996.833 1954.93 999.7C1948.93 1002.57 1941.9 1004 1933.83 1004H1902.43V1001.9C1904.97 1001.63 1906.87 1001.2 1908.13 1000.6C1909.4 999.933 1910.27 998.933 1910.73 997.6C1911.2 996.2 1911.43 994.133 1911.43 991.4V946.6ZM1931.33 1000.1C1937.2 1000.1 1942.17 998.933 1946.23 996.6C1950.37 994.2 1953.5 990.7 1955.63 986.1C1957.77 981.433 1958.83 975.8 1958.83 969.2C1958.83 962.6 1957.77 957 1955.63 952.4C1953.5 947.8 1950.37 944.333 1946.23 942C1942.17 939.6 1937.2 938.4 1931.33 938.4H1924.63V1000.1H1931.33ZM2062.37 981.6V1004H2003.77V1001.9C2006.31 1001.63 2008.17 1001.23 2009.37 1000.7C2010.57 1000.1 2011.44 999.2 2011.97 998C2012.51 996.733 2012.81 994.833 2012.87 992.3V991.7V946.6C2012.87 944 2012.61 942.033 2012.07 940.7C2011.61 939.367 2010.74 938.4 2009.47 937.8C2008.21 937.2 2006.31 936.8 2003.77 936.6V934.5H2059.67V953.1H2057.57C2057.11 949.633 2056.24 946.833 2054.97 944.7C2053.77 942.567 2051.97 941 2049.57 940C2047.24 939 2044.17 938.5 2040.37 938.5H2026.07V966.8H2034.47C2037.61 966.8 2040.14 966.433 2042.07 965.7C2044.07 964.9 2045.54 963.733 2046.47 962.2C2047.47 960.6 2048.11 958.533 2048.37 956H2050.57V981.6H2048.37C2048.11 979 2047.47 976.933 2046.47 975.4C2045.54 973.8 2044.07 972.633 2042.07 971.9C2040.14 971.167 2037.61 970.8 2034.47 970.8H2026.07V1000H2041.17C2044.84 1000 2047.94 999.467 2050.47 998.4C2053.01 997.267 2055.07 995.367 2056.67 992.7C2058.34 990.033 2059.51 986.333 2060.17 981.6H2062.37ZM2092.72 1001.9C2095.25 1001.7 2097.15 1001.27 2098.42 1000.6C2099.68 999.933 2100.55 998.933 2101.02 997.6C2101.55 996.2 2101.82 994.167 2101.82 991.5V944.2L2094.22 935V934.5H2113.22L2148.22 980.8H2148.82V946.8C2148.82 944.2 2148.55 942.233 2148.02 940.9C2147.55 939.5 2146.68 938.5 2145.42 937.9C2144.15 937.233 2142.25 936.8 2139.72 936.6V934.5H2162.42V936.6C2159.88 936.8 2157.98 937.233 2156.72 937.9C2155.52 938.5 2154.65 939.5 2154.12 940.9C2153.58 942.233 2153.32 944.2 2153.32 946.8V1004.7H2149.12L2106.92 949.2H2106.32V991.5C2106.32 994.167 2106.58 996.2 2107.12 997.6C2107.65 998.933 2108.52 999.933 2109.72 1000.6C2110.98 1001.27 2112.88 1001.7 2115.42 1001.9V1004H2092.72V1001.9Z" fill="black"/>
<path d="M1613.2 1116.6C1612.13 1113.67 1611.1 1111.4 1610.1 1109.8C1609.17 1108.13 1607.93 1106.87 1606.4 1106C1604.93 1105.07 1602.97 1104.4 1600.5 1104V1102.5H1637.2V1104C1633.4 1104.33 1630.7 1105 1629.1 1106C1627.5 1107 1626.67 1108.3 1626.6 1109.9C1626.53 1111.43 1626.97 1113.53 1627.9 1116.2L1639.1 1149.8H1639.5L1651.3 1118.1L1645.3 1102.5H1660.3L1677.8 1148.9H1678.1L1688.4 1118.2C1689.53 1114.67 1690.13 1112.03 1690.2 1110.3C1690.33 1108.5 1689.63 1107.1 1688.1 1106.1C1686.63 1105.03 1683.9 1104.33 1679.9 1104V1102.5H1705.1V1104C1702.17 1104.4 1699.87 1105.17 1698.2 1106.3C1696.53 1107.37 1695.2 1108.8 1694.2 1110.6C1693.2 1112.4 1692.17 1114.9 1691.1 1118.1L1672.7 1173.3H1672.3L1652.9 1122.1H1652.5L1633.3 1173.3H1633L1613.2 1116.6ZM1715.41 1170.5C1718.81 1170.03 1721.31 1169.07 1722.91 1167.6C1724.58 1166.07 1726.15 1163.6 1727.61 1160.2C1727.75 1159.93 1727.88 1159.67 1728.01 1159.4C1728.15 1159.07 1728.28 1158.73 1728.41 1158.4L1751.91 1101.1H1752.21L1777.41 1158.3C1777.55 1158.63 1777.68 1158.97 1777.81 1159.3C1777.95 1159.63 1778.08 1159.97 1778.21 1160.3C1779.35 1162.7 1780.35 1164.57 1781.21 1165.9C1782.15 1167.17 1783.25 1168.17 1784.51 1168.9C1785.85 1169.57 1787.58 1170.1 1789.71 1170.5V1172H1752.81V1170.5C1756.41 1170.17 1759.05 1169.53 1760.71 1168.6C1762.45 1167.6 1763.41 1166.37 1763.61 1164.9C1763.81 1163.37 1763.41 1161.47 1762.41 1159.2L1746.31 1121.8H1746.01L1731.01 1158.5C1729.88 1161.3 1729.45 1163.47 1729.71 1165C1729.98 1166.53 1731.08 1167.73 1733.01 1168.6C1734.95 1169.47 1738.08 1170.1 1742.41 1170.5V1172H1715.41V1170.5ZM1733.71 1149.2V1146.9H1761.51V1149.2H1733.71ZM1814.66 1170.5C1817.86 1170.3 1820.26 1169.9 1821.86 1169.3C1823.53 1168.63 1824.69 1167.57 1825.36 1166.1C1826.03 1164.63 1826.36 1162.47 1826.36 1159.6V1114.9C1826.36 1112.03 1826.03 1109.87 1825.36 1108.4C1824.69 1106.93 1823.56 1105.9 1821.96 1105.3C1820.36 1104.63 1817.93 1104.2 1814.66 1104V1102.5H1851.96V1104C1848.69 1104.2 1846.26 1104.63 1844.66 1105.3C1843.06 1105.9 1841.93 1106.93 1841.26 1108.4C1840.59 1109.87 1840.26 1112.03 1840.26 1114.9V1170H1846.36C1851.09 1170 1855.03 1169.27 1858.16 1167.8C1861.36 1166.33 1863.99 1163.6 1866.06 1159.6C1868.13 1155.6 1869.59 1149.87 1870.46 1142.4H1871.86V1172H1814.66V1170.5ZM1912.27 1115C1912.27 1112.13 1911.94 1109.97 1911.27 1108.5C1910.61 1107.03 1909.44 1105.97 1907.77 1105.3C1906.17 1104.63 1903.77 1104.2 1900.57 1104V1102.5H1934.37C1942.64 1102.5 1949.87 1103.93 1956.07 1106.8C1962.27 1109.67 1967.07 1113.73 1970.47 1119C1973.87 1124.2 1975.57 1130.3 1975.57 1137.3C1975.57 1144.3 1973.87 1150.43 1970.47 1155.7C1967.07 1160.9 1962.27 1164.93 1956.07 1167.8C1949.87 1170.6 1942.64 1172 1934.37 1172H1900.57V1170.5C1903.77 1170.3 1906.17 1169.87 1907.77 1169.2C1909.44 1168.53 1910.61 1167.47 1911.27 1166C1911.94 1164.53 1912.27 1162.37 1912.27 1159.5V1115ZM1931.97 1170C1937.91 1170 1942.91 1168.73 1946.97 1166.2C1951.11 1163.6 1954.21 1159.87 1956.27 1155C1958.41 1150.07 1959.47 1144.17 1959.47 1137.3C1959.47 1130.43 1958.41 1124.57 1956.27 1119.7C1954.21 1114.77 1951.11 1111 1946.97 1108.4C1942.91 1105.8 1937.91 1104.5 1931.97 1104.5H1926.17V1170H1931.97ZM2065.48 1145.8V1172H2003.48V1170.5C2006.61 1170.3 2008.98 1169.9 2010.58 1169.3C2012.18 1168.7 2013.31 1167.7 2013.98 1166.3C2014.71 1164.9 2015.11 1162.87 2015.18 1160.2V1159.6V1115C2015.18 1112.13 2014.85 1109.97 2014.18 1108.5C2013.51 1106.97 2012.35 1105.9 2010.68 1105.3C2009.08 1104.63 2006.68 1104.2 2003.48 1104V1102.5H2062.28V1123.6H2060.78C2060.25 1119.13 2059.25 1115.53 2057.78 1112.8C2056.38 1110 2054.35 1107.93 2051.68 1106.6C2049.01 1105.2 2045.55 1104.5 2041.28 1104.5H2029.08V1135.7H2033.98C2037.51 1135.7 2040.38 1135.23 2042.58 1134.3C2044.85 1133.3 2046.58 1131.8 2047.78 1129.8C2048.98 1127.73 2049.78 1125.03 2050.18 1121.7H2051.58V1151.8H2050.18C2049.78 1148.47 2048.98 1145.77 2047.78 1143.7C2046.58 1141.63 2044.85 1140.13 2042.58 1139.2C2040.38 1138.2 2037.48 1137.7 2033.88 1137.7H2029.08V1170H2040.88C2045.28 1170 2049.01 1169.3 2052.08 1167.9C2055.15 1166.43 2057.68 1163.93 2059.68 1160.4C2061.68 1156.87 2063.15 1152 2064.08 1145.8H2065.48ZM2093.89 1170.5C2097.16 1170.3 2099.59 1169.87 2101.19 1169.2C2102.86 1168.53 2103.99 1167.47 2104.59 1166C2105.26 1164.53 2105.59 1162.37 2105.59 1159.5V1114.7L2095.59 1102.9V1102.5H2115.69L2151.79 1146.4H2152.19V1115C2152.19 1112.13 2151.86 1109.97 2151.19 1108.5C2150.52 1107.03 2149.36 1105.97 2147.69 1105.3C2146.09 1104.63 2143.69 1104.2 2140.49 1104V1102.5H2166.39V1104C2163.19 1104.2 2160.76 1104.63 2159.09 1105.3C2157.49 1105.97 2156.36 1107.03 2155.69 1108.5C2155.02 1109.97 2154.69 1112.13 2154.69 1115V1173.3H2154.39L2108.49 1117.8H2108.19V1159.5C2108.19 1162.37 2108.52 1164.53 2109.19 1166C2109.86 1167.47 2110.99 1168.53 2112.59 1169.2C2114.19 1169.87 2116.62 1170.3 2119.89 1170.5V1172H2093.89V1170.5Z" fill="black"/>
<path d="M246.987 946.7C246.254 944.5 245.487 942.7 244.687 941.3C243.954 939.9 242.954 938.8 241.687 938C240.42 937.2 238.787 936.6 236.787 936.2V934.5H262.187V936.2C259.12 936.533 256.954 937.133 255.687 938C254.487 938.8 253.854 939.8 253.787 941C253.787 942.2 254.12 943.933 254.787 946.2L268.487 990.8H268.887L284.887 946L280.987 934.5H289.187L307.487 990.3H307.887L321.487 947.6C322.354 944.867 322.787 942.8 322.787 941.4C322.854 939.933 322.32 938.8 321.187 938C320.054 937.133 318.054 936.533 315.187 936.2V934.5H335.487V936.2C333.287 936.667 331.554 937.333 330.287 938.2C329.02 939.067 328.02 940.2 327.287 941.6C326.554 943 325.754 944.967 324.887 947.5L306.587 1004.5H304.287L286.787 951.3H286.287L267.287 1004.5H264.987L246.987 946.7ZM351.314 1002.3C353.914 1001.83 355.881 1001 357.214 999.8C358.548 998.533 359.781 996.567 360.914 993.9C360.981 993.633 361.048 993.4 361.114 993.2C361.248 992.933 361.348 992.667 361.414 992.4L384.314 934H386.414L410.514 991.8C410.648 992.067 410.781 992.367 410.914 992.7C411.048 992.967 411.148 993.233 411.214 993.5C412.148 995.567 412.981 997.167 413.714 998.3C414.448 999.367 415.314 1000.23 416.314 1000.9C417.381 1001.5 418.781 1001.97 420.514 1002.3V1004H395.314V1002.3C398.181 1002.03 400.248 1001.53 401.514 1000.8C402.848 1000 403.548 998.967 403.614 997.7C403.748 996.367 403.381 994.633 402.514 992.5L383.314 946H383.014L364.814 992.6C363.948 994.733 363.581 996.433 363.714 997.7C363.848 998.967 364.548 999.967 365.814 1000.7C367.148 1001.43 369.314 1001.97 372.314 1002.3V1004H351.314V1002.3ZM368.414 980.4V977.3H399.314V980.4H368.414ZM448.736 1002.3C451.336 1002.1 453.27 1001.7 454.536 1001.1C455.87 1000.5 456.77 999.533 457.236 998.2C457.77 996.867 458.036 994.867 458.036 992.2V946.3C458.036 943.567 457.77 941.533 457.236 940.2C456.77 938.867 455.87 937.933 454.536 937.4C453.27 936.8 451.336 936.4 448.736 936.2V934.5H474.936V936.2C472.336 936.4 470.403 936.8 469.136 937.4C467.87 937.933 466.97 938.867 466.436 940.2C465.97 941.533 465.736 943.567 465.736 946.3V1001.1H480.036C484.17 1001.1 487.47 1000.57 489.936 999.5C492.47 998.433 494.47 996.433 495.936 993.5C497.403 990.5 498.37 986.133 498.836 980.4H500.636V1004H448.736V1002.3ZM541.414 946.6C541.414 943.733 541.147 941.633 540.614 940.3C540.08 938.9 539.18 937.933 537.914 937.4C536.714 936.867 534.78 936.467 532.114 936.2V934.5H560.814C568.547 934.5 575.347 935.933 581.214 938.8C587.08 941.6 591.614 945.633 594.814 950.9C598.08 956.167 599.714 962.267 599.714 969.2C599.714 976.2 598.08 982.333 594.814 987.6C591.614 992.867 587.08 996.933 581.214 999.8C575.347 1002.6 568.547 1004 560.814 1004H532.114V1002.3C534.78 1002.1 536.747 1001.7 538.014 1001.1C539.28 1000.5 540.147 999.533 540.614 998.2C541.147 996.8 541.414 994.7 541.414 991.9V946.6ZM559.014 1001.1C565.547 1001.1 571.18 999.867 575.914 997.4C580.714 994.867 584.38 991.233 586.914 986.5C589.514 981.7 590.814 975.933 590.814 969.2C590.814 962.6 589.514 956.9 586.914 952.1C584.38 947.3 580.714 943.667 575.914 941.2C571.18 938.667 565.547 937.4 559.014 937.4H549.014V1001.1H559.014ZM688.195 983.3V1004H631.795V1002.3C634.395 1002.1 636.295 1001.73 637.495 1001.2C638.762 1000.67 639.662 999.8 640.195 998.6C640.795 997.333 641.095 995.4 641.095 992.8V992.2V946.3C641.095 943.567 640.828 941.533 640.295 940.2C639.828 938.867 638.928 937.933 637.595 937.4C636.328 936.8 634.395 936.4 631.795 936.2V934.5H685.495V951.3H683.795C683.462 947.967 682.728 945.3 681.595 943.3C680.528 941.233 678.862 939.733 676.595 938.8C674.395 937.867 671.462 937.4 667.795 937.4H648.695V967.3H662.195C665.128 967.3 667.462 966.933 669.195 966.2C670.928 965.467 672.195 964.367 672.995 962.9C673.862 961.433 674.395 959.433 674.595 956.9H676.395V980.6H674.595C674.395 978.067 673.862 976.067 672.995 974.6C672.195 973.133 670.895 972.033 669.095 971.3C667.362 970.567 665.028 970.2 662.095 970.2H648.695V1001.1H669.095C672.828 1001.1 675.862 1000.57 678.195 999.5C680.528 998.367 682.362 996.533 683.695 994C685.095 991.467 686.028 987.9 686.495 983.3H688.195ZM720.439 1002.3C723.105 1002.03 725.039 1001.63 726.239 1001.1C727.505 1000.5 728.405 999.567 728.939 998.3C729.472 996.967 729.739 994.933 729.739 992.2V943.2L722.939 934.8V934.5H733.839L776.539 990H776.939V946.3C776.939 943.567 776.672 941.533 776.139 940.2C775.605 938.867 774.705 937.933 773.439 937.4C772.172 936.8 770.239 936.4 767.639 936.2V934.5H789.439V936.2C786.839 936.4 784.905 936.8 783.639 937.4C782.372 937.933 781.472 938.867 780.939 940.2C780.405 941.533 780.139 943.567 780.139 946.3V1004.5H777.639L733.439 946.9H733.039V992.2C733.039 994.933 733.305 996.967 733.839 998.3C734.372 999.567 735.239 1000.5 736.439 1001.1C737.705 1001.63 739.672 1002.03 742.339 1002.3V1004H720.439V1002.3Z" fill="black"/>
<path d="M245.506 1114.5C244.773 1112.23 243.94 1110.4 243.006 1109C242.14 1107.53 240.94 1106.37 239.406 1105.5C237.873 1104.63 235.873 1104.03 233.406 1103.7V1102.5H264.106V1103.7C260.106 1104.03 257.24 1104.63 255.506 1105.5C253.84 1106.3 252.94 1107.33 252.806 1108.6C252.74 1109.87 253.04 1111.63 253.706 1113.9L267.706 1157.8H268.006L283.006 1115.1L278.706 1102.5H287.006L305.906 1157.6H306.106L320.106 1115.8C321.106 1112.87 321.573 1110.63 321.506 1109.1C321.44 1107.57 320.606 1106.37 319.006 1105.5C317.473 1104.63 314.84 1104.03 311.106 1103.7V1102.5H335.006V1103.7C332.273 1104.17 330.14 1104.87 328.606 1105.8C327.073 1106.73 325.873 1107.93 325.006 1109.4C324.14 1110.87 323.273 1112.97 322.406 1115.7L303.206 1173H303.006L284.306 1118.8H284.006L264.806 1173H264.506L245.506 1114.5ZM348.131 1170.8C351.331 1170.33 353.698 1169.47 355.231 1168.2C356.831 1166.93 358.198 1164.97 359.331 1162.3C359.465 1162.03 359.565 1161.8 359.631 1161.6C359.765 1161.33 359.865 1161.07 359.931 1160.8L382.931 1101.5H383.231L407.931 1160.1C408.065 1160.37 408.165 1160.67 408.231 1161C408.365 1161.27 408.498 1161.53 408.631 1161.8C409.631 1163.93 410.531 1165.57 411.331 1166.7C412.198 1167.83 413.231 1168.73 414.431 1169.4C415.698 1170 417.365 1170.47 419.431 1170.8V1172H389.231V1170.8C392.965 1170.53 395.698 1170.03 397.431 1169.3C399.231 1168.5 400.265 1167.43 400.531 1166.1C400.798 1164.77 400.498 1163.07 399.631 1161L380.331 1114.5H380.031L362.131 1161C361.331 1163.13 361.065 1164.83 361.331 1166.1C361.598 1167.37 362.631 1168.37 364.431 1169.1C366.231 1169.83 369.098 1170.4 373.031 1170.8V1172H348.131V1170.8ZM366.731 1147.5V1145.5H396.131V1147.5H366.731ZM445.62 1170.8C448.954 1170.6 451.454 1170.23 453.12 1169.7C454.787 1169.1 455.954 1168.1 456.62 1166.7C457.354 1165.3 457.72 1163.2 457.72 1160.4V1114.1C457.72 1111.3 457.354 1109.2 456.62 1107.8C455.954 1106.4 454.787 1105.43 453.12 1104.9C451.454 1104.3 448.954 1103.9 445.62 1103.7V1102.5H477.62V1103.7C474.287 1103.9 471.787 1104.3 470.12 1104.9C468.52 1105.43 467.354 1106.4 466.62 1107.8C465.954 1109.2 465.62 1111.3 465.62 1114.1V1170.3H476.52C481.52 1170.3 485.52 1169.6 488.52 1168.2C491.52 1166.73 493.887 1164.1 495.62 1160.3C497.42 1156.43 498.62 1150.8 499.22 1143.4H500.42V1172H445.62V1170.8ZM542.755 1114.5C542.755 1111.57 542.422 1109.4 541.755 1108C541.089 1106.6 539.922 1105.6 538.255 1105C536.655 1104.4 534.122 1103.97 530.655 1103.7V1102.5H561.655C569.522 1102.5 576.455 1103.93 582.455 1106.8C588.455 1109.6 593.089 1113.63 596.355 1118.9C599.689 1124.17 601.355 1130.3 601.355 1137.3C601.355 1144.37 599.689 1150.53 596.355 1155.8C593.089 1161 588.455 1165 582.455 1167.8C576.455 1170.6 569.522 1172 561.655 1172H530.655V1170.8C534.055 1170.6 536.589 1170.2 538.255 1169.6C539.922 1169 541.089 1168 541.755 1166.6C542.422 1165.13 542.755 1162.93 542.755 1160V1114.5ZM559.755 1170.3C566.355 1170.3 572.055 1169 576.855 1166.4C581.655 1163.8 585.355 1160.03 587.955 1155.1C590.555 1150.17 591.855 1144.23 591.855 1137.3C591.855 1130.43 590.555 1124.53 587.955 1119.6C585.355 1114.6 581.655 1110.8 576.855 1108.2C572.055 1105.53 566.355 1104.2 559.755 1104.2H550.655V1170.3H559.755ZM691.313 1147.1V1172H631.413V1170.8C634.747 1170.6 637.213 1170.23 638.813 1169.7C640.413 1169.17 641.58 1168.23 642.313 1166.9C643.047 1165.57 643.447 1163.57 643.513 1160.9V1160.3V1114.2C643.513 1111.33 643.147 1109.2 642.413 1107.8C641.747 1106.4 640.58 1105.43 638.913 1104.9C637.313 1104.3 634.813 1103.9 631.413 1103.7V1102.5H688.013V1122.4H686.913C686.447 1118.07 685.58 1114.6 684.313 1112C683.113 1109.33 681.28 1107.37 678.813 1106.1C676.413 1104.83 673.147 1104.2 669.013 1104.2H651.413V1135.8H662.413C665.547 1135.8 668.08 1135.33 670.013 1134.4C671.947 1133.47 673.38 1132.03 674.313 1130.1C675.247 1128.17 675.88 1125.6 676.213 1122.4H677.413V1151H676.213C675.88 1147.8 675.213 1145.23 674.213 1143.3C673.28 1141.37 671.847 1139.93 669.913 1139C668.047 1138.07 665.547 1137.6 662.413 1137.6H651.413V1170.3H669.313C673.78 1170.3 677.413 1169.6 680.213 1168.2C683.08 1166.73 685.313 1164.33 686.913 1161C688.513 1157.67 689.613 1153.03 690.213 1147.1H691.313ZM721.717 1170.8C725.117 1170.53 727.617 1170.13 729.217 1169.6C730.817 1169 731.951 1168.03 732.617 1166.7C733.351 1165.3 733.717 1163.13 733.717 1160.2V1113.6L724.717 1102.8V1102.5H736.117L779.817 1156.6H780.017V1114.3C780.017 1111.43 779.684 1109.3 779.017 1107.9C778.351 1106.5 777.184 1105.53 775.517 1105C773.917 1104.4 771.417 1103.97 768.017 1103.7V1102.5H794.217V1103.7C790.817 1103.97 788.284 1104.4 786.617 1105C784.951 1105.53 783.784 1106.5 783.117 1107.9C782.451 1109.3 782.117 1111.43 782.117 1114.3V1173H781.917L736.117 1116.2H735.817V1160.2C735.817 1163.13 736.151 1165.3 736.817 1166.7C737.551 1168.03 738.717 1169 740.317 1169.6C741.917 1170.13 744.417 1170.53 747.817 1170.8V1172H721.717V1170.8Z" fill="black"/>
<path d="M931.375 614.1C930.775 611.767 930.141 609.733 929.475 608C928.875 606.267 928.208 604.667 927.475 603.2C926.741 601.733 925.875 600.3 924.875 598.9V598.5H941.175V598.9C940.508 600.367 940.108 601.833 939.975 603.3C939.841 604.7 939.908 606.233 940.175 607.9C940.441 609.5 940.875 611.467 941.475 613.8L952.375 654.5H952.775L967.775 603.9L965.975 598.5H977.675L993.075 653.9H993.575L1004.67 613.6C1005.34 611.2 1005.81 609.167 1006.07 607.5C1006.34 605.833 1006.41 604.3 1006.27 602.9C1006.21 601.5 1005.87 600.167 1005.27 598.9V598.5H1018.87V598.9C1017.87 600.167 1016.97 601.533 1016.17 603C1015.37 604.467 1014.67 606.067 1014.07 607.8C1013.47 609.467 1012.84 611.433 1012.17 613.7L996.775 668H987.675L972.575 613.4H972.075L955.575 668H946.175L931.375 614.1ZM1039.39 667.6C1040.85 666.2 1042.02 664.567 1042.89 662.7C1043.82 660.833 1044.99 658.167 1046.39 654.7C1046.52 654.367 1046.65 654.033 1046.79 653.7C1046.92 653.3 1047.05 652.933 1047.19 652.6L1068.39 598.5H1076.99L1098.59 652.1C1098.79 652.5 1098.95 652.9 1099.09 653.3C1099.22 653.633 1099.35 653.967 1099.49 654.3C1100.22 656.233 1100.95 658.067 1101.69 659.8C1102.42 661.467 1103.15 662.933 1103.89 664.2C1104.69 665.467 1105.52 666.6 1106.39 667.6V668H1089.79V667.6C1090.39 666.533 1090.72 665.233 1090.79 663.7C1090.85 662.167 1090.65 660.467 1090.19 658.6C1089.72 656.733 1089.05 654.7 1088.19 652.5L1071.59 610.7H1071.19L1054.99 652.7C1054.12 654.967 1053.45 657.033 1052.99 658.9C1052.59 660.7 1052.42 662.333 1052.49 663.8C1052.62 665.267 1053.02 666.533 1053.69 667.6V668H1039.39V667.6ZM1054.49 647.2V640.3H1087.89V647.2H1054.49ZM1138.15 667.6C1138.95 666.533 1139.58 665.333 1140.05 664C1140.51 662.6 1140.85 661.033 1141.05 659.3C1141.25 657.5 1141.35 655.433 1141.35 653.1V613.9C1141.35 611.367 1141.25 609.233 1141.05 607.5C1140.85 605.7 1140.51 604.133 1140.05 602.8C1139.58 601.4 1138.95 600.1 1138.15 598.9V598.5H1154.35V598.9C1153.48 600.1 1152.81 601.4 1152.35 602.8C1151.88 604.133 1151.55 605.667 1151.35 607.4C1151.21 609.133 1151.15 611.3 1151.15 613.9V661.1H1168.85C1171.71 661.1 1174.11 660.9 1176.05 660.5C1178.05 660.1 1179.71 659.4 1181.05 658.4C1182.45 657.333 1183.55 655.833 1184.35 653.9H1184.85V668H1138.15V667.6ZM1221.4 614C1221.4 611.333 1221.3 609.133 1221.1 607.4C1220.9 605.6 1220.57 604.033 1220.1 602.7C1219.64 601.367 1219 600.1 1218.2 598.9V598.5H1243.6C1251.07 598.5 1257.6 599.967 1263.2 602.9C1268.87 605.767 1273.24 609.833 1276.3 615.1C1279.44 620.367 1281 626.4 1281 633.2C1281 640.067 1279.44 646.133 1276.3 651.4C1273.24 656.667 1268.87 660.767 1263.2 663.7C1257.6 666.567 1251.07 668 1243.6 668H1218.2V667.6C1219.14 666.467 1219.84 665.2 1220.3 663.8C1220.77 662.333 1221.07 660.733 1221.2 659C1221.34 657.2 1221.4 654.9 1221.4 652.1V614ZM1241.4 661.3C1247.2 661.3 1252.27 660.267 1256.6 658.2C1260.94 656.067 1264.27 652.9 1266.6 648.7C1269 644.5 1270.2 639.333 1270.2 633.2C1270.2 627.067 1269 621.933 1266.6 617.8C1264.27 613.6 1260.94 610.467 1256.6 608.4C1252.27 606.267 1247.2 605.2 1241.4 605.2H1231.2V661.3H1241.4ZM1366.22 655V668H1316.32V667.6C1317.12 666.467 1317.76 665.233 1318.22 663.9C1318.69 662.567 1319.02 661.033 1319.22 659.3C1319.42 657.567 1319.52 655.5 1319.52 653.1V652.5V613.9C1319.52 611.367 1319.42 609.2 1319.22 607.4C1319.09 605.6 1318.79 604.033 1318.32 602.7C1317.86 601.3 1317.19 600.033 1316.32 598.9V598.5H1364.92V610.2H1364.42C1363.49 609 1362.39 608.067 1361.12 607.4C1359.86 606.667 1358.26 606.167 1356.32 605.9C1354.46 605.567 1352.06 605.4 1349.12 605.4H1329.32V629.4H1344.52C1347.12 629.4 1349.29 629.267 1351.02 629C1352.82 628.733 1354.29 628.333 1355.42 627.8C1356.62 627.267 1357.62 626.567 1358.42 625.7H1358.92V639.9H1358.42C1357.62 638.967 1356.62 638.233 1355.42 637.7C1354.29 637.167 1352.86 636.8 1351.12 636.6C1349.39 636.333 1347.19 636.2 1344.52 636.2H1329.32V661.1H1350.52C1353.26 661.1 1355.56 660.933 1357.42 660.6C1359.36 660.2 1360.99 659.567 1362.32 658.7C1363.72 657.767 1364.86 656.533 1365.72 655H1366.22ZM1401.85 667.6C1402.65 666.467 1403.28 665.2 1403.75 663.8C1404.21 662.4 1404.51 660.833 1404.65 659.1C1404.85 657.3 1404.95 655.1 1404.95 652.5V602.4L1402.65 598.7V598.5H1417.15L1452.25 654H1452.75V613.9C1452.75 611.3 1452.65 609.133 1452.45 607.4C1452.31 605.6 1452.01 604.033 1451.55 602.7C1451.08 601.3 1450.41 600.033 1449.55 598.9V598.5H1463.55V598.9C1462.75 600.033 1462.11 601.3 1461.65 602.7C1461.18 604.033 1460.85 605.6 1460.65 607.4C1460.45 609.2 1460.35 611.367 1460.35 613.9V668H1449.95L1413.15 610.1H1412.65V652.5C1412.65 655.033 1412.75 657.2 1412.95 659C1413.15 660.8 1413.48 662.4 1413.95 663.8C1414.41 665.2 1415.05 666.467 1415.85 667.6V668H1401.85V667.6Z" fill="black"/>
<path d="M934.644 451.6C934.044 449.267 933.444 446.933 932.844 444.6C932.244 442.267 931.644 439.933 931.044 437.6C930.444 435.2 929.844 432.833 929.244 430.5H939.344C939.944 432.833 940.51 435.167 941.044 437.5C941.644 439.833 942.21 442.133 942.744 444.4C943.277 446.667 943.844 448.933 944.444 451.2L953.744 488.8H954.044L968.744 430.5H981.044L995.244 488.8H995.544L1005.54 450.2C1006.01 448.067 1006.54 445.933 1007.14 443.8C1007.74 441.6 1008.31 439.4 1008.84 437.2C1009.44 434.933 1010.04 432.7 1010.64 430.5H1020.14C1019.54 432.767 1018.94 435.033 1018.34 437.3C1017.74 439.5 1017.14 441.733 1016.54 444C1015.94 446.2 1015.34 448.4 1014.74 450.6L1001.34 500H989.244L974.844 440.9H974.544L959.444 500H947.144L934.644 451.6ZM1043.65 500C1044.79 497 1045.99 493.867 1047.25 490.6C1048.52 487.333 1049.79 484 1051.05 480.6C1051.19 480.267 1051.29 479.967 1051.35 479.7C1051.49 479.367 1051.62 479.033 1051.75 478.7L1070.25 430.5H1081.75L1100.25 478.4C1100.39 478.733 1100.49 479.033 1100.55 479.3C1100.69 479.567 1100.82 479.867 1100.95 480.2C1101.82 482.467 1102.69 484.767 1103.55 487.1C1104.49 489.367 1105.35 491.6 1106.15 493.8C1107.02 495.933 1107.85 498 1108.65 500H1098.15C1097.35 497.867 1096.49 495.633 1095.55 493.3C1094.69 490.9 1093.79 488.467 1092.85 486C1091.99 483.533 1091.09 481.067 1090.15 478.6L1075.85 441H1075.45L1061.25 478.8C1060.39 481.2 1059.49 483.633 1058.55 486.1C1057.69 488.567 1056.82 490.967 1055.95 493.3C1055.09 495.633 1054.25 497.867 1053.45 500H1043.65ZM1057.75 480.2V471.7H1092.75V480.2H1057.75ZM1142.55 500C1142.55 497.867 1142.55 495.633 1142.55 493.3C1142.55 490.9 1142.55 488.467 1142.55 486C1142.55 483.467 1142.55 480.967 1142.55 478.5V452C1142.55 449.533 1142.55 447.067 1142.55 444.6C1142.55 442.067 1142.55 439.633 1142.55 437.3C1142.55 434.9 1142.55 432.633 1142.55 430.5H1152.15C1152.15 432.633 1152.15 434.9 1152.15 437.3C1152.15 439.633 1152.15 442.067 1152.15 444.6C1152.15 447.067 1152.15 449.533 1152.15 452V491.5H1169.05C1171.45 491.5 1173.72 491.5 1175.85 491.5C1177.98 491.5 1179.88 491.5 1181.55 491.5C1183.22 491.5 1184.72 491.5 1186.05 491.5V500H1142.55ZM1220.55 452C1220.55 449.533 1220.55 447.067 1220.55 444.6C1220.55 442.067 1220.55 439.633 1220.55 437.3C1220.55 434.9 1220.55 432.633 1220.55 430.5H1243.25C1250.52 430.5 1256.92 431.967 1262.45 434.9C1268.05 437.833 1272.35 441.933 1275.35 447.2C1278.42 452.467 1279.95 458.533 1279.95 465.4C1279.95 472.267 1278.42 478.333 1275.35 483.6C1272.35 488.8 1268.05 492.833 1262.45 495.7C1256.92 498.567 1250.52 500 1243.25 500H1220.55C1220.55 497.867 1220.55 495.633 1220.55 493.3C1220.55 490.9 1220.55 488.467 1220.55 486C1220.55 483.467 1220.55 480.967 1220.55 478.5V452ZM1241.15 491.8C1246.75 491.8 1251.69 490.867 1255.95 489C1260.29 487.133 1263.69 484.233 1266.15 480.3C1268.62 476.367 1269.85 471.4 1269.85 465.4C1269.85 459.4 1268.62 454.433 1266.15 450.5C1263.69 446.5 1260.29 443.533 1255.95 441.6C1251.69 439.667 1246.75 438.7 1241.15 438.7H1230.15V491.8H1241.15ZM1363.6 491.5V500H1317.6C1317.6 497.933 1317.6 495.767 1317.6 493.5C1317.6 491.167 1317.6 488.8 1317.6 486.4C1317.6 483.933 1317.6 481.5 1317.6 479.1V478.5V452C1317.6 449.533 1317.6 447.067 1317.6 444.6C1317.6 442.067 1317.6 439.633 1317.6 437.3C1317.6 434.9 1317.6 432.633 1317.6 430.5H1362.9V439C1361.37 439 1359.73 439 1358 439C1356.33 439 1354.5 439 1352.5 439C1350.5 439 1348.3 439 1345.9 439H1327.2V460.6H1341.6C1344 460.6 1346.2 460.6 1348.2 460.6C1350.2 460.6 1352.03 460.6 1353.7 460.6C1355.43 460.6 1357.07 460.6 1358.6 460.6V469.1C1357.07 469.1 1355.43 469.1 1353.7 469.1C1352.03 469.1 1350.2 469.1 1348.2 469.1C1346.2 469.1 1344 469.1 1341.6 469.1H1327.2V491.5H1346.6C1349 491.5 1351.2 491.5 1353.2 491.5C1355.2 491.5 1357.03 491.5 1358.7 491.5C1360.43 491.5 1362.07 491.5 1363.6 491.5ZM1401.37 500C1401.37 497.867 1401.37 495.633 1401.37 493.3C1401.37 490.9 1401.37 488.467 1401.37 486C1401.37 483.467 1401.37 480.967 1401.37 478.5V431.9V430.5H1415.67L1448.67 488.8H1448.97V452C1448.97 449.533 1448.97 447.067 1448.97 444.6C1448.97 442.067 1448.97 439.633 1448.97 437.3C1448.97 434.9 1448.97 432.633 1448.97 430.5H1458.57C1458.57 432.633 1458.57 434.9 1458.57 437.3C1458.57 439.633 1458.57 442.067 1458.57 444.6C1458.57 447.067 1458.57 449.533 1458.57 452V500H1444.57L1411.27 441.2H1410.97V478.5C1410.97 480.967 1410.97 483.467 1410.97 486C1410.97 488.467 1410.97 490.9 1410.97 493.3C1410.97 495.633 1410.97 497.867 1410.97 500H1401.37Z" fill="black"/>
<path d="M1616.75 614.5C1616.15 612.233 1615.52 610.167 1614.85 608.3C1614.25 606.433 1613.58 604.767 1612.85 603.3C1612.12 601.833 1611.28 600.4 1610.35 599V598.5H1629.05V599C1628.32 600.467 1627.85 601.967 1627.65 603.5C1627.45 604.967 1627.45 606.533 1627.65 608.2C1627.92 609.867 1628.38 611.9 1629.05 614.3L1638.95 652H1639.45L1652.95 604.3L1650.85 598.5H1665.25L1679.65 651.6H1680.15L1690.15 613.9C1690.82 611.433 1691.28 609.367 1691.55 607.7C1691.82 606.033 1691.85 604.5 1691.65 603.1C1691.52 601.633 1691.12 600.267 1690.45 599V598.5H1705.55V599C1704.55 600.333 1703.68 601.733 1702.95 603.2C1702.22 604.6 1701.55 606.2 1700.95 608C1700.35 609.8 1699.72 611.833 1699.05 614.1L1683.95 668H1672.85L1658.65 615.3H1658.15L1642.95 668H1631.65L1616.75 614.5ZM1725.06 667.5C1726.52 666.1 1727.69 664.5 1728.56 662.7C1729.49 660.9 1730.62 658.267 1731.96 654.8C1732.09 654.467 1732.22 654.133 1732.36 653.8C1732.49 653.467 1732.62 653.133 1732.76 652.8L1753.96 598.5H1764.16L1785.86 652.3C1785.99 652.567 1786.09 652.833 1786.16 653.1C1786.29 653.367 1786.39 653.633 1786.46 653.9C1787.26 655.833 1788.02 657.7 1788.76 659.5C1789.56 661.233 1790.32 662.733 1791.06 664C1791.86 665.267 1792.76 666.433 1793.76 667.5V668H1774.76V667.5C1775.42 666.367 1775.76 665.067 1775.76 663.6C1775.82 662.067 1775.62 660.433 1775.16 658.7C1774.76 656.9 1774.12 654.867 1773.26 652.6L1757.76 612.9H1757.26L1742.06 652.6C1741.19 654.867 1740.56 656.9 1740.16 658.7C1739.76 660.5 1739.62 662.133 1739.76 663.6C1739.96 665.067 1740.42 666.367 1741.16 667.5V668H1725.06V667.5ZM1740.86 648.3V640.3H1773.36V648.3H1740.86ZM1824.6 667.5C1825.33 666.567 1825.93 665.433 1826.4 664.1C1826.87 662.7 1827.2 661.1 1827.4 659.3C1827.6 657.433 1827.7 655.333 1827.7 653V613.9C1827.7 611.433 1827.6 609.367 1827.4 607.7C1827.27 605.967 1826.97 604.4 1826.5 603C1826.1 601.6 1825.47 600.267 1824.6 599V598.5H1842.7V599C1841.83 600.267 1841.17 601.6 1840.7 603C1840.3 604.4 1840.03 605.933 1839.9 607.6C1839.77 609.267 1839.7 611.367 1839.7 613.9V660H1856.2C1859 660 1861.37 659.8 1863.3 659.4C1865.23 659 1866.87 658.3 1868.2 657.3C1869.6 656.233 1870.77 654.767 1871.7 652.9H1872.3V668H1824.6V667.5ZM1907.95 613.6C1907.95 611.133 1907.85 609.067 1907.65 607.4C1907.52 605.667 1907.22 604.133 1906.75 602.8C1906.35 601.4 1905.75 600.133 1904.95 599V598.5H1931.05C1938.65 598.5 1945.32 599.933 1951.05 602.8C1956.78 605.667 1961.22 609.733 1964.35 615C1967.48 620.267 1969.05 626.333 1969.05 633.2C1969.05 640.133 1967.48 646.233 1964.35 651.5C1961.22 656.767 1956.78 660.833 1951.05 663.7C1945.32 666.567 1938.65 668 1931.05 668H1904.95V667.5C1905.82 666.367 1906.45 665.1 1906.85 663.7C1907.32 662.3 1907.62 660.733 1907.75 659C1907.88 657.267 1907.95 655.033 1907.95 652.3V613.6ZM1928.45 660.2C1934.05 660.2 1938.88 659.267 1942.95 657.4C1947.08 655.467 1950.28 652.5 1952.55 648.5C1954.82 644.433 1955.95 639.333 1955.95 633.2C1955.95 627.067 1954.82 622 1952.55 618C1950.28 613.933 1947.08 610.967 1942.95 609.1C1938.88 607.233 1934.05 606.3 1928.45 606.3H1919.95V660.2H1928.45ZM2054.66 653.9V668H2003.56V667.5C2004.36 666.367 2004.96 665.133 2005.36 663.8C2005.82 662.467 2006.16 660.967 2006.36 659.3C2006.56 657.567 2006.66 655.5 2006.66 653.1V652.5V613.6C2006.66 611.133 2006.56 609.033 2006.36 607.3C2006.16 605.567 2005.82 604.033 2005.36 602.7C2004.96 601.367 2004.36 600.133 2003.56 599V598.5H2053.16V611.3H2052.66C2051.72 610.1 2050.62 609.167 2049.36 608.5C2048.09 607.767 2046.49 607.267 2044.56 607C2042.62 606.667 2040.19 606.5 2037.26 606.5H2018.66V628.9H2032.96C2035.56 628.9 2037.72 628.767 2039.46 628.5C2041.19 628.233 2042.59 627.867 2043.66 627.4C2044.79 626.867 2045.79 626.167 2046.66 625.3H2047.26V640.6H2046.66C2045.86 639.667 2044.89 638.967 2043.76 638.5C2042.62 637.967 2041.19 637.567 2039.46 637.3C2037.72 637.033 2035.56 636.9 2032.96 636.9H2018.66V660H2038.76C2041.49 660 2043.79 659.833 2045.66 659.5C2047.59 659.167 2049.22 658.567 2050.56 657.7C2051.96 656.767 2053.12 655.5 2054.06 653.9H2054.66ZM2089.37 667.5C2090.24 666.433 2090.87 665.2 2091.27 663.8C2091.74 662.333 2092.04 660.7 2092.17 658.9C2092.37 657.1 2092.47 654.967 2092.47 652.5V602.6L2089.97 598.8V598.5H2107.67L2139.47 651.2H2140.07V613.8C2140.07 611.333 2139.97 609.233 2139.77 607.5C2139.64 605.7 2139.34 604.1 2138.87 602.7C2138.41 601.3 2137.77 600.067 2136.97 599V598.5H2152.27V599C2151.47 600.067 2150.84 601.3 2150.37 602.7C2149.91 604.1 2149.57 605.7 2149.37 607.5C2149.24 609.233 2149.17 611.333 2149.17 613.8V668H2136.37L2102.17 611.8H2101.57V652.5C2101.57 654.967 2101.64 657.1 2101.77 658.9C2101.97 660.7 2102.31 662.333 2102.77 663.8C2103.24 665.2 2103.87 666.433 2104.67 667.5V668H2089.37V667.5Z" fill="black"/>
<path d="M1619.23 451.5C1618.63 449.167 1618.03 446.833 1617.43 444.5C1616.83 442.167 1616.23 439.833 1615.63 437.5C1615.03 435.167 1614.43 432.833 1613.83 430.5H1625.93C1626.46 432.967 1626.99 435.367 1627.53 437.7C1628.13 439.967 1628.69 442.233 1629.23 444.5C1629.76 446.767 1630.29 449.067 1630.83 451.4L1639.33 487.1H1639.63L1652.83 430.5H1667.73L1680.73 487.6H1681.03L1689.83 450.7C1690.36 448.5 1690.89 446.3 1691.43 444.1C1691.96 441.833 1692.49 439.6 1693.03 437.4C1693.56 435.133 1694.09 432.833 1694.63 430.5H1705.93C1705.33 432.833 1704.73 435.133 1704.13 437.4C1703.53 439.667 1702.93 441.933 1702.33 444.2C1701.79 446.467 1701.23 448.733 1700.63 451L1687.93 500H1673.23L1660.13 442.5H1659.83L1646.43 500H1631.43L1619.23 451.5ZM1728.53 500C1729.66 497 1730.86 493.867 1732.13 490.6C1733.4 487.267 1734.7 483.9 1736.03 480.5C1736.16 480.167 1736.26 479.867 1736.33 479.6C1736.46 479.267 1736.6 478.933 1736.73 478.6L1754.93 430.5H1768.53L1787.03 478.5C1787.16 478.833 1787.26 479.133 1787.33 479.4C1787.46 479.667 1787.6 479.967 1787.73 480.3C1788.6 482.567 1789.46 484.867 1790.33 487.2C1791.26 489.467 1792.13 491.7 1792.93 493.9C1793.8 496.033 1794.6 498.067 1795.33 500H1782.93C1782.2 497.867 1781.4 495.633 1780.53 493.3C1779.66 490.9 1778.76 488.467 1777.83 486C1776.9 483.467 1775.96 480.967 1775.03 478.5L1761.63 442.4H1761.33L1748.03 478.8C1747.1 481.2 1746.2 483.633 1745.33 486.1C1744.46 488.567 1743.6 490.967 1742.73 493.3C1741.86 495.633 1741.06 497.867 1740.33 500H1728.53ZM1743.63 481.3V471.5H1777.63V481.3H1743.63ZM1828.31 500C1828.31 497.867 1828.31 495.633 1828.31 493.3C1828.31 490.9 1828.31 488.467 1828.31 486C1828.31 483.467 1828.31 480.967 1828.31 478.5V452C1828.31 449.533 1828.31 447.067 1828.31 444.6C1828.31 442.067 1828.31 439.633 1828.31 437.3C1828.31 434.9 1828.31 432.633 1828.31 430.5H1839.81C1839.81 432.633 1839.81 434.9 1839.81 437.3C1839.81 439.7 1839.81 442.133 1839.81 444.6C1839.81 447.067 1839.81 449.533 1839.81 452V490.2H1855.71C1858.11 490.2 1860.37 490.2 1862.51 490.2C1864.64 490.2 1866.54 490.2 1868.21 490.2C1869.87 490.2 1871.37 490.2 1872.71 490.2V500H1828.31ZM1906.6 452C1906.6 449.533 1906.6 447.067 1906.6 444.6C1906.6 442.067 1906.6 439.633 1906.6 437.3C1906.6 434.9 1906.6 432.633 1906.6 430.5H1929.9C1937.37 430.5 1943.9 431.967 1949.5 434.9C1955.1 437.767 1959.4 441.833 1962.4 447.1C1965.47 452.367 1967 458.433 1967 465.3C1967 472.3 1965.47 478.433 1962.4 483.7C1959.4 488.9 1955.1 492.933 1949.5 495.8C1943.9 498.6 1937.37 500 1929.9 500H1906.6C1906.6 497.867 1906.6 495.633 1906.6 493.3C1906.6 490.9 1906.6 488.467 1906.6 486C1906.6 483.467 1906.6 480.967 1906.6 478.5V452ZM1927.5 490.5C1932.9 490.5 1937.64 489.667 1941.7 488C1945.77 486.333 1948.97 483.633 1951.3 479.9C1953.64 476.167 1954.8 471.3 1954.8 465.3C1954.8 459.367 1953.64 454.533 1951.3 450.8C1948.97 447 1945.77 444.267 1941.7 442.6C1937.64 440.867 1932.9 440 1927.5 440H1918.1V490.5H1927.5ZM2051.14 490.2V500H2003.84C2003.84 497.933 2003.84 495.767 2003.84 493.5C2003.84 491.167 2003.84 488.8 2003.84 486.4C2003.84 483.933 2003.84 481.5 2003.84 479.1V478.5V452C2003.84 449.533 2003.84 447.067 2003.84 444.6C2003.84 442.067 2003.84 439.633 2003.84 437.3C2003.84 434.9 2003.84 432.633 2003.84 430.5H2050.24V440.3C2048.71 440.3 2047.08 440.3 2045.34 440.3C2043.68 440.3 2041.84 440.3 2039.84 440.3C2037.84 440.3 2035.64 440.3 2033.24 440.3H2015.34V460.1H2028.84C2031.24 460.1 2033.44 460.1 2035.44 460.1C2037.44 460.1 2039.28 460.1 2040.94 460.1C2042.68 460.1 2044.31 460.1 2045.84 460.1V469.9C2044.38 469.9 2042.78 469.9 2041.04 469.9C2039.38 469.9 2037.51 469.9 2035.44 469.9C2033.44 469.9 2031.24 469.9 2028.84 469.9H2015.34V490.2H2034.14C2036.54 490.2 2038.74 490.2 2040.74 490.2C2042.74 490.2 2044.58 490.2 2046.24 490.2C2047.98 490.2 2049.61 490.2 2051.14 490.2ZM2088.1 500C2088.1 497.867 2088.1 495.633 2088.1 493.3C2088.1 490.9 2088.1 488.467 2088.1 486C2088.1 483.467 2088.1 480.967 2088.1 478.5V431.7V430.5H2105.4L2135.3 487.2H2135.7V452C2135.7 449.533 2135.7 447.067 2135.7 444.6C2135.7 442.067 2135.7 439.633 2135.7 437.3C2135.7 434.9 2135.7 432.633 2135.7 430.5H2147.1C2147.1 432.633 2147.1 434.9 2147.1 437.3C2147.1 439.633 2147.1 442.067 2147.1 444.6C2147.1 447.067 2147.1 449.533 2147.1 452V500H2129.9L2099.8 442.9H2099.5V478.5C2099.5 480.967 2099.5 483.467 2099.5 486C2099.5 488.467 2099.5 490.9 2099.5 493.3C2099.5 495.633 2099.5 497.867 2099.5 500H2088.1Z" fill="black"/>
<path d="M250.284 613.4C249.684 611.133 249.084 609.2 248.484 607.6C247.884 605.933 247.217 604.4 246.484 603C245.75 601.533 244.884 600.133 243.884 598.8V598.5H257.384V598.8C256.717 600.067 256.284 601.433 256.084 602.9C255.95 604.3 256.017 605.8 256.284 607.4C256.55 608.933 257.017 610.833 257.684 613.1L270.084 657.6H270.384L287.084 603.6L285.384 598.5H293.784L310.684 657.1H311.084L323.684 613.2C324.35 610.867 324.817 608.9 325.084 607.3C325.35 605.633 325.417 604.1 325.284 602.7C325.217 601.3 324.884 600 324.284 598.8V598.5H335.984V598.8C334.917 600.067 333.984 601.4 333.184 602.8C332.45 604.2 331.784 605.767 331.184 607.5C330.584 609.167 329.984 611.1 329.384 613.3L313.384 668H306.884L290.484 611.1H290.184L272.484 668H265.784L250.284 613.4ZM357.52 667.7C358.987 666.167 360.22 664.433 361.22 662.5C362.22 660.567 363.387 657.9 364.72 654.5C364.854 654.233 364.987 653.933 365.12 653.6C365.254 653.267 365.354 652.967 365.42 652.7L386.72 598.5H392.72L414.52 652.3C414.72 652.7 414.887 653.067 415.02 653.4C415.154 653.733 415.287 654.1 415.42 654.5C416.22 656.5 416.987 658.333 417.72 660C418.454 661.6 419.187 663.033 419.92 664.3C420.654 665.5 421.487 666.633 422.42 667.7V668H408.82V667.7C409.354 666.567 409.62 665.267 409.62 663.8C409.687 662.267 409.487 660.6 409.02 658.8C408.554 657 407.854 654.933 406.92 652.6L389.12 608H388.72L371.22 652.8C370.354 655.133 369.687 657.2 369.22 659C368.754 660.733 368.554 662.333 368.62 663.8C368.687 665.267 369.02 666.567 369.62 667.7V668H357.52V667.7ZM372.02 646.2V640.9H405.92V646.2H372.02ZM455.408 667.7C456.208 666.633 456.841 665.433 457.308 664.1C457.774 662.7 458.108 661.133 458.308 659.4C458.508 657.667 458.608 655.633 458.608 653.3V613.8C458.608 611.2 458.508 609.033 458.308 607.3C458.108 605.5 457.774 603.933 457.308 602.6C456.841 601.2 456.208 599.933 455.408 598.8V598.5H468.908V598.8C468.041 600 467.374 601.267 466.908 602.6C466.441 603.933 466.108 605.467 465.908 607.2C465.774 608.933 465.708 611.133 465.708 613.8V662.8H485.008C487.874 662.8 490.274 662.6 492.208 662.2C494.141 661.8 495.741 661.1 497.008 660.1C498.341 659.1 499.441 657.667 500.308 655.8H500.808V668H455.408V667.7ZM538.077 614.1C538.077 611.367 537.977 609.1 537.777 607.3C537.643 605.5 537.343 603.933 536.877 602.6C536.41 601.267 535.743 600 534.877 598.8V598.5H558.677C566.077 598.5 572.61 599.933 578.277 602.8C583.943 605.667 588.31 609.733 591.377 615C594.51 620.267 596.077 626.333 596.077 633.2C596.077 640.2 594.51 646.333 591.377 651.6C588.31 656.8 583.943 660.833 578.277 663.7C572.61 666.567 566.077 668 558.677 668H534.877V667.7C535.81 666.567 536.51 665.333 536.977 664C537.443 662.6 537.743 661.033 537.877 659.3C538.01 657.5 538.077 655.2 538.077 652.4V614.1ZM556.977 662.9C563.243 662.9 568.71 661.767 573.377 659.5C578.11 657.167 581.743 653.8 584.277 649.4C586.81 644.933 588.077 639.533 588.077 633.2C588.077 626.933 586.81 621.6 584.277 617.2C581.743 612.733 578.11 609.367 573.377 607.1C568.71 604.767 563.243 603.6 556.977 603.6H545.277V662.9H556.977ZM681.207 656.8V668H632.607V667.7C633.407 666.633 634.04 665.433 634.507 664.1C634.974 662.767 635.274 661.267 635.407 659.6C635.607 657.867 635.707 655.733 635.707 653.2V652.6V613.9C635.707 611.3 635.607 609.1 635.407 607.3C635.274 605.5 634.974 603.933 634.507 602.6C634.04 601.2 633.407 599.933 632.607 598.8V598.5H679.907V608.3H679.507C678.574 607.233 677.474 606.367 676.207 605.7C675.007 604.967 673.474 604.467 671.607 604.2C669.74 603.867 667.374 603.7 664.507 603.7H642.907V630.2H660.007C662.54 630.2 664.674 630.067 666.407 629.8C668.14 629.533 669.54 629.167 670.607 628.7C671.74 628.167 672.707 627.5 673.507 626.7H674.007V638.9H673.507C672.707 638.033 671.74 637.367 670.607 636.9C669.54 636.367 668.14 636 666.407 635.8C664.74 635.533 662.607 635.4 660.007 635.4H642.907V662.8H666.107C668.84 662.8 671.107 662.633 672.907 662.3C674.707 661.9 676.24 661.267 677.507 660.4C678.774 659.533 679.874 658.333 680.807 656.8H681.207ZM717.738 667.7C718.604 666.567 719.271 665.3 719.738 663.9C720.204 662.5 720.504 660.933 720.638 659.2C720.838 657.4 720.938 655.2 720.938 652.6V602.1L718.638 598.7V598.5H729.038L768.838 657.3H769.238V613.8C769.238 611.2 769.138 609.033 768.938 607.3C768.804 605.5 768.504 603.933 768.038 602.6C767.571 601.2 766.904 599.933 766.038 598.8V598.5H778.238V598.8C777.438 599.933 776.804 601.2 776.338 602.6C775.871 603.933 775.538 605.5 775.338 607.3C775.138 609.1 775.038 611.267 775.038 613.8V668H767.638L727.138 608.2H726.638V652.6C726.638 655.133 726.738 657.3 726.938 659.1C727.138 660.9 727.471 662.5 727.938 663.9C728.404 665.3 729.038 666.567 729.838 667.7V668H717.738V667.7Z" fill="black"/>
<path d="M253.95 450.8C253.35 448.533 252.717 446.3 252.05 444.1C251.45 441.833 250.85 439.567 250.25 437.3C249.65 435.033 249.05 432.767 248.45 430.5H255.85C256.45 432.767 257.017 435.033 257.55 437.3C258.15 439.5 258.75 441.7 259.35 443.9C259.95 446.1 260.55 448.333 261.15 450.6L271.85 491.3H272.15L288.45 430.5H297.35L313.35 491.2H313.55L324.85 450C325.384 447.867 325.95 445.733 326.55 443.6C327.15 441.4 327.717 439.233 328.25 437.1C328.85 434.9 329.45 432.7 330.05 430.5H337.15C336.55 432.7 335.95 434.9 335.35 437.1C334.75 439.233 334.117 441.4 333.45 443.6C332.85 445.8 332.25 448 331.65 450.2L317.75 500H309.05L292.85 438.5H292.55L275.95 500H267.15L253.95 450.8ZM361.594 500C362.727 497 363.927 493.867 365.194 490.6C366.527 487.267 367.861 483.9 369.194 480.5C369.327 480.167 369.427 479.867 369.494 479.6C369.627 479.267 369.761 478.933 369.894 478.6L388.794 430.5H396.894L415.894 478.5C416.027 478.833 416.127 479.133 416.194 479.4C416.327 479.667 416.461 479.967 416.594 480.3C417.461 482.633 418.327 484.933 419.194 487.2C420.127 489.467 420.994 491.667 421.794 493.8C422.661 495.933 423.494 498 424.294 500H416.594C415.794 497.867 414.927 495.633 413.994 493.3C413.127 490.9 412.194 488.467 411.194 486C410.261 483.533 409.294 481.067 408.294 478.6L392.694 438.7H392.494L376.894 478.7C375.961 481.1 375.027 483.567 374.094 486.1C373.161 488.567 372.227 490.967 371.294 493.3C370.427 495.633 369.594 497.867 368.794 500H361.594ZM374.694 479.1V472.8H409.994V479.1H374.694ZM459.517 500C459.517 497.867 459.517 495.633 459.517 493.3C459.517 490.9 459.517 488.433 459.517 485.9C459.517 483.367 459.517 480.867 459.517 478.4V452C459.517 449.533 459.517 447.067 459.517 444.6C459.517 442.067 459.517 439.633 459.517 437.3C459.517 434.9 459.517 432.633 459.517 430.5H466.617C466.617 432.633 466.617 434.9 466.617 437.3C466.617 439.633 466.617 442.067 466.617 444.6C466.617 447.067 466.617 449.533 466.617 452V493.7H484.717C487.117 493.7 489.35 493.7 491.417 493.7C493.483 493.7 495.35 493.7 497.017 493.7C498.75 493.7 500.317 493.7 501.717 493.7V500H459.517ZM537.13 452C537.13 449.533 537.13 447.067 537.13 444.6C537.13 442.067 537.13 439.633 537.13 437.3C537.13 434.9 537.13 432.633 537.13 430.5H558.23C565.563 430.5 571.997 431.967 577.53 434.9C583.13 437.767 587.43 441.833 590.43 447.1C593.497 452.367 595.03 458.467 595.03 465.4C595.03 472.267 593.497 478.333 590.43 483.6C587.43 488.8 583.13 492.833 577.53 495.7C571.997 498.567 565.563 500 558.23 500H537.13C537.13 497.867 537.13 495.633 537.13 493.3C537.13 490.9 537.13 488.467 537.13 486C537.13 483.467 537.13 480.967 537.13 478.5V452ZM556.83 493.9C562.897 493.9 568.23 492.833 572.83 490.7C577.497 488.5 581.13 485.267 583.73 481C586.33 476.733 587.63 471.533 587.63 465.4C587.63 459.267 586.33 454.067 583.73 449.8C581.13 445.467 577.497 442.2 572.83 440C568.23 437.733 562.897 436.6 556.83 436.6H544.23V493.9H556.83ZM678.684 493.7V500H633.884C633.884 497.933 633.884 495.767 633.884 493.5C633.884 491.167 633.884 488.8 633.884 486.4C633.884 483.933 633.884 481.5 633.884 479.1V478.5V452C633.884 449.533 633.884 447.067 633.884 444.6C633.884 442.067 633.884 439.633 633.884 437.3C633.884 434.9 633.884 432.633 633.884 430.5H677.984V436.8C676.451 436.8 674.817 436.8 673.084 436.8C671.417 436.8 669.584 436.8 667.584 436.8C665.584 436.8 663.384 436.8 660.984 436.8H640.984V461.7H656.684C659.084 461.7 661.284 461.7 663.284 461.7C665.284 461.7 667.117 461.7 668.784 461.7C670.517 461.7 672.151 461.7 673.684 461.7V468C672.151 468 670.517 468 668.784 468C667.117 468 665.284 468 663.284 468C661.284 468 659.084 468 656.684 468H640.984V493.7H661.684C664.084 493.7 666.284 493.7 668.284 493.7C670.284 493.7 672.117 493.7 673.784 493.7C675.517 493.7 677.151 493.7 678.684 493.7ZM717.259 500C717.259 497.867 717.259 495.633 717.259 493.3C717.259 490.9 717.259 488.467 717.259 486C717.259 483.467 717.259 480.967 717.259 478.5V431.6V430.5H727.459L765.659 491.3H765.859V452C765.859 449.533 765.859 447.067 765.859 444.6C765.859 442.067 765.859 439.633 765.859 437.3C765.859 434.9 765.859 432.633 765.859 430.5H772.959C772.959 432.633 772.959 434.9 772.959 437.3C772.959 439.633 772.959 442.067 772.959 444.6C772.959 447.067 772.959 449.533 772.959 452V500H763.059L724.659 438.8H724.359V478.5C724.359 480.967 724.359 483.467 724.359 486C724.359 488.467 724.359 490.9 724.359 493.3C724.359 495.633 724.359 497.867 724.359 500H717.259Z" fill="black"/>
</g>
<defs>
<clipPath id="clip0_3304_2">
<rect width="2400" height="1600" fill="white"/>
</clipPath>
</defs>
</svg>
