<svg width="5120" height="2880" viewBox="0 0 5120 2880" fill="none" xmlns="http://www.w3.org/2000/svg">
<rect width="5120" height="2880" fill="white"/>
<path d="M1974.52 1394.48C1973.08 1389.44 1971.64 1385.48 1970.2 1382.6C1968.76 1379.57 1967.03 1377.27 1965.02 1375.68C1963 1373.96 1960.34 1372.66 1957.03 1371.8V1366.18H2005.63V1371.8C2001.45 1372.8 1998.5 1374.17 1996.77 1375.9C1995.19 1377.63 1994.47 1379.79 1994.61 1382.38C1994.75 1384.97 1995.55 1388.79 1996.99 1393.83L2022.91 1482.39H2024.2L2057.47 1389.72L2049.47 1366.18H2073.67L2109.31 1479.58H2110.6L2136.09 1395.12C2137.67 1389.51 2138.61 1385.26 2138.9 1382.38C2139.19 1379.5 2138.54 1377.2 2136.95 1375.47C2135.51 1373.74 2132.71 1372.52 2128.53 1371.8V1366.18H2167.19V1371.8C2163.59 1372.66 2160.64 1374.03 2158.34 1375.9C2156.18 1377.63 2154.38 1379.93 2152.94 1382.81C2151.64 1385.69 2150.2 1389.8 2148.62 1395.12L2112.33 1516.3H2098.72L2064.59 1408.52H2063.3L2024.63 1516.3H2010.81L1974.52 1394.48ZM2205.23 1510.68C2209.69 1510.11 2213.08 1508.52 2215.38 1505.93C2217.83 1503.34 2220.21 1499.02 2222.51 1492.97C2222.8 1492.4 2223.01 1491.89 2223.16 1491.46C2223.45 1490.88 2223.66 1490.31 2223.81 1489.73L2272.41 1366.18H2285.15L2335.91 1488.22C2336.2 1488.8 2336.41 1489.44 2336.56 1490.16C2336.85 1490.74 2337.13 1491.32 2337.42 1491.89C2339.29 1496.5 2340.95 1500.03 2342.39 1502.48C2343.83 1504.78 2345.41 1506.65 2347.14 1508.09C2349.01 1509.39 2351.39 1510.25 2354.27 1510.68V1516.3H2305.02V1510.68C2309.05 1510.4 2311.93 1509.39 2313.66 1507.66C2315.39 1505.79 2316.11 1503.41 2315.82 1500.53C2315.68 1497.65 2314.67 1493.98 2312.8 1489.52L2274.78 1395.99H2273.49L2236.55 1489.73C2234.68 1494.48 2233.67 1498.3 2233.53 1501.18C2233.38 1503.92 2234.25 1506.08 2236.12 1507.66C2237.99 1509.24 2241.16 1510.25 2245.62 1510.68V1516.3H2205.23V1510.68ZM2239.79 1469.21V1457.76H2308.26V1469.21H2239.79ZM2418.05 1510.68C2421.94 1510.11 2424.82 1509.17 2426.69 1507.88C2428.71 1506.58 2430.08 1504.64 2430.8 1502.04C2431.52 1499.45 2431.88 1495.56 2431.88 1490.38V1391.88C2431.88 1386.56 2431.44 1382.6 2430.58 1380C2429.86 1377.27 2428.56 1375.32 2426.69 1374.17C2424.82 1373.02 2421.94 1372.23 2418.05 1371.8V1366.18H2467.08V1371.8C2463.05 1372.23 2460.1 1373.02 2458.23 1374.17C2456.36 1375.32 2455.06 1377.2 2454.34 1379.79C2453.76 1382.38 2453.48 1386.41 2453.48 1391.88V1504.85H2488.25C2494.88 1504.85 2500.28 1504.06 2504.45 1502.48C2508.77 1500.89 2512.23 1497.87 2514.82 1493.4C2517.41 1488.94 2519.14 1482.46 2520 1473.96H2526.05V1516.3H2418.05V1510.68ZM2609.02 1392.53C2609.02 1386.77 2608.59 1382.52 2607.72 1379.79C2606.86 1376.91 2605.49 1375.04 2603.62 1374.17C2601.89 1373.16 2599.08 1372.37 2595.19 1371.8V1366.18H2656.11C2672.52 1366.18 2686.92 1369.35 2699.31 1375.68C2711.69 1381.88 2721.27 1390.66 2728.03 1402.04C2734.95 1413.27 2738.4 1426.16 2738.4 1440.7C2738.4 1455.53 2734.95 1468.71 2728.03 1480.23C2721.27 1491.6 2711.69 1500.46 2699.31 1506.8C2686.92 1513.13 2672.52 1516.3 2656.11 1516.3H2595.19V1510.68C2599.51 1509.96 2602.61 1508.96 2604.48 1507.66C2606.35 1506.22 2607.58 1504.13 2608.15 1501.4C2608.73 1498.52 2609.02 1494.05 2609.02 1488V1392.53ZM2650.71 1504.85C2663.95 1504.85 2675.26 1502.4 2684.62 1497.51C2693.98 1492.61 2701.11 1485.34 2706 1475.69C2711.04 1466.04 2713.56 1454.38 2713.56 1440.7C2713.56 1427.31 2711.04 1415.86 2706 1406.36C2701.11 1396.85 2693.98 1389.72 2684.62 1384.97C2675.26 1380.08 2663.95 1377.63 2650.71 1377.63H2630.62V1504.85H2650.71ZM2925.87 1478.5V1516.3H2809.66V1510.68C2813.55 1509.96 2816.36 1509.1 2818.09 1508.09C2819.96 1506.94 2821.25 1505.14 2821.97 1502.69C2822.84 1500.24 2823.34 1496.43 2823.49 1491.24V1489.95V1392.1C2823.49 1386.77 2823.13 1382.81 2822.41 1380.22C2821.69 1377.48 2820.32 1375.54 2818.3 1374.39C2816.43 1373.09 2813.55 1372.23 2809.66 1371.8V1366.18H2921.55V1398.58H2915.5C2914.93 1393.4 2913.56 1389.29 2911.4 1386.27C2909.24 1383.24 2905.93 1381.08 2901.46 1379.79C2897 1378.35 2891.17 1377.63 2883.97 1377.63H2845.09V1434.65H2873.81C2879.86 1434.65 2884.69 1434.15 2888.29 1433.14C2891.89 1431.99 2894.55 1430.26 2896.28 1427.96C2898.01 1425.65 2898.94 1422.63 2899.09 1418.88H2905.13V1461.87H2899.09C2898.94 1457.98 2898.01 1454.88 2896.28 1452.58C2894.55 1450.28 2891.89 1448.62 2888.29 1447.61C2884.69 1446.6 2879.86 1446.1 2873.81 1446.1H2845.09V1504.85H2888.72C2894.91 1504.85 2900.17 1504.06 2904.49 1502.48C2908.81 1500.89 2912.26 1498.16 2914.85 1494.27C2917.59 1490.38 2919.25 1485.12 2919.82 1478.5H2925.87ZM2997.76 1510.68C3001.51 1510.11 3004.31 1509.24 3006.19 1508.09C3008.06 1506.8 3009.35 1504.78 3010.07 1502.04C3010.94 1499.31 3011.37 1495.28 3011.37 1489.95V1380.22L3001.43 1367.26V1366.18H3032.97L3113.32 1480.01H3114.62V1392.1C3114.62 1386.63 3114.26 1382.6 3113.54 1380C3112.82 1377.27 3111.52 1375.32 3109.65 1374.17C3107.78 1373.02 3104.97 1372.23 3101.23 1371.8V1366.18H3140.75V1371.8C3136.87 1372.23 3133.99 1373.02 3132.11 1374.17C3130.39 1375.32 3129.09 1377.27 3128.23 1380C3127.51 1382.74 3127.15 1386.77 3127.15 1392.1V1516.3H3112.24L3025.19 1393.18H3023.9V1489.95C3023.9 1495.28 3024.26 1499.31 3024.98 1502.04C3025.84 1504.78 3027.14 1506.8 3028.87 1508.09C3030.74 1509.24 3033.62 1510.11 3037.51 1510.68V1516.3H2997.76V1510.68Z" fill="black"/>
<path d="M3455.77 1396.42C3454.04 1390.8 3452.38 1386.48 3450.8 1383.46C3449.36 1380.44 3447.63 1378.06 3445.62 1376.33C3443.74 1374.6 3441.15 1373.24 3437.84 1372.23V1366.18H3492.7V1372.23C3488.24 1373.38 3485.14 1374.89 3483.42 1376.76C3481.69 1378.49 3480.9 1380.8 3481.04 1383.68C3481.18 1386.56 3482.05 1390.66 3483.63 1395.99L3506.74 1475.04H3508.26L3537.85 1391.24L3528.99 1366.18H3559.02L3592.93 1472.24H3594.44L3617.34 1395.56C3619.06 1389.94 3620.07 1385.69 3620.36 1382.81C3620.65 1379.93 3620 1377.63 3618.42 1375.9C3616.83 1374.17 3613.81 1372.95 3609.34 1372.23V1366.18H3650.38V1372.23C3647.07 1373.09 3644.34 1374.46 3642.18 1376.33C3640.16 1378.06 3638.43 1380.36 3636.99 1383.24C3635.7 1386.12 3634.26 1390.16 3632.67 1395.34L3596.17 1516.3H3579.97L3546.7 1412.84H3545.19L3508.69 1516.3H3492.06L3455.77 1396.42ZM3686.46 1510.25C3690.93 1509.53 3694.31 1507.95 3696.62 1505.5C3698.92 1503.05 3701.22 1499.02 3703.53 1493.4C3703.82 1492.97 3704.03 1492.54 3704.18 1492.11C3704.32 1491.53 3704.54 1491.03 3704.82 1490.6L3754.29 1366.18H3769.19L3820.38 1489.08C3820.67 1489.66 3820.89 1490.24 3821.03 1490.81C3821.32 1491.24 3821.54 1491.75 3821.68 1492.32C3823.55 1496.64 3825.21 1499.96 3826.65 1502.26C3828.09 1504.42 3829.74 1506.15 3831.62 1507.44C3833.49 1508.6 3835.86 1509.53 3838.74 1510.25V1516.3H3783.45V1510.25C3787.77 1509.68 3790.72 1508.6 3792.3 1507.01C3794.03 1505.28 3794.75 1503.12 3794.46 1500.53C3794.32 1497.94 3793.38 1494.48 3791.66 1490.16L3756.02 1402.9H3754.5L3720.38 1489.52C3718.5 1494.12 3717.5 1497.8 3717.35 1500.53C3717.21 1503.27 3718.14 1505.43 3720.16 1507.01C3722.18 1508.6 3725.49 1509.68 3730.1 1510.25V1516.3H3686.46V1510.25ZM3722.1 1471.37V1458.2H3789.06V1471.37H3722.1ZM3900.97 1510.25C3904.86 1509.68 3907.67 1508.81 3909.39 1507.66C3911.27 1506.36 3912.56 1504.49 3913.28 1502.04C3914 1499.6 3914.36 1496.07 3914.36 1491.46V1391.67C3914.36 1386.63 3914 1382.88 3913.28 1380.44C3912.71 1377.99 3911.48 1376.12 3909.61 1374.82C3907.88 1373.52 3905 1372.66 3900.97 1372.23V1366.18H3954.54V1372.23C3950.51 1372.66 3947.55 1373.52 3945.68 1374.82C3943.81 1376.12 3942.59 1377.99 3942.01 1380.44C3941.43 1382.88 3941.15 1386.63 3941.15 1391.67V1503.12H3972.68C3979.16 1503.12 3984.49 1502.33 3988.67 1500.75C3992.84 1499.02 3996.23 1495.92 3998.82 1491.46C4001.55 1487 4003.5 1480.59 4004.65 1472.24H4011.13V1516.3H3900.97V1510.25ZM4091.93 1391.45C4091.93 1386.27 4091.49 1382.45 4090.63 1380C4089.91 1377.56 4088.61 1375.83 4086.74 1374.82C4085.01 1373.67 4082.28 1372.8 4078.53 1372.23V1366.18H4140.74C4157.73 1366.18 4172.49 1369.28 4185.02 1375.47C4197.69 1381.66 4207.49 1390.44 4214.4 1401.82C4221.45 1413.05 4224.98 1426.08 4224.98 1440.92C4224.98 1455.89 4221.45 1469.07 4214.4 1480.44C4207.49 1491.82 4197.69 1500.68 4185.02 1507.01C4172.49 1513.2 4157.73 1516.3 4140.74 1516.3H4078.53V1510.25C4082.57 1509.53 4085.45 1508.52 4087.17 1507.23C4089.05 1505.93 4090.27 1503.99 4090.85 1501.4C4091.57 1498.66 4091.93 1494.48 4091.93 1488.87V1391.45ZM4135.34 1503.34C4147.73 1503.34 4158.31 1501.04 4167.09 1496.43C4176.02 1491.68 4182.86 1484.69 4187.61 1475.48C4192.37 1466.12 4194.74 1454.6 4194.74 1440.92C4194.74 1427.24 4192.37 1415.79 4187.61 1406.57C4182.86 1397.36 4176.02 1390.52 4167.09 1386.05C4158.31 1381.44 4147.73 1379.14 4135.34 1379.14H4118.71V1503.34H4135.34ZM4412.63 1476.56V1516.3H4294.27V1510.25C4298.15 1509.53 4300.96 1508.67 4302.69 1507.66C4304.42 1506.65 4305.64 1504.92 4306.36 1502.48C4307.08 1500.03 4307.51 1496.28 4307.66 1491.24V1489.95V1391.24C4307.66 1386.2 4307.3 1382.45 4306.58 1380C4305.86 1377.56 4304.56 1375.83 4302.69 1374.82C4300.82 1373.67 4298.01 1372.8 4294.27 1372.23V1366.18H4408.31V1400.31H4401.83C4401.11 1395.27 4399.6 1391.24 4397.3 1388.21C4395.14 1385.19 4391.83 1382.96 4387.36 1381.52C4383.04 1380.08 4377.28 1379.36 4370.08 1379.36H4334.44V1433.79H4361.01C4366.91 1433.79 4371.59 1433.28 4375.05 1432.28C4378.65 1431.12 4381.17 1429.4 4382.61 1427.09C4384.19 1424.79 4385.2 1421.76 4385.63 1418.02H4392.11V1462.73H4385.63C4385.35 1458.99 4384.41 1455.96 4382.83 1453.66C4381.24 1451.36 4378.65 1449.7 4375.05 1448.69C4371.59 1447.68 4366.91 1447.18 4361.01 1447.18H4334.44V1503.12H4374.83C4381.03 1503.12 4386.21 1502.33 4390.39 1500.75C4394.71 1499.16 4398.23 1496.43 4400.97 1492.54C4403.71 1488.65 4405.51 1483.32 4406.37 1476.56H4412.63ZM4482.79 1510.25C4486.54 1509.82 4489.35 1508.96 4491.22 1507.66C4493.09 1506.22 4494.39 1504.13 4495.11 1501.4C4495.83 1498.52 4496.19 1494.56 4496.19 1489.52V1381.08L4485.6 1367.48V1366.18H4524.27L4597.27 1471.8H4598.79V1392.32C4598.79 1387.28 4598.43 1383.39 4597.71 1380.65C4596.99 1377.92 4595.69 1375.97 4593.82 1374.82C4591.95 1373.52 4589.21 1372.66 4585.61 1372.23V1366.18H4626.87V1372.23C4623.12 1372.66 4620.31 1373.52 4618.44 1374.82C4616.57 1375.97 4615.27 1377.92 4614.55 1380.65C4613.83 1383.39 4613.47 1387.28 4613.47 1392.32V1516.3H4595.11L4512.39 1396.85H4510.87V1489.52C4510.87 1494.7 4511.23 1498.66 4511.95 1501.4C4512.67 1504.13 4513.97 1506.22 4515.84 1507.66C4517.71 1508.96 4520.52 1509.82 4524.27 1510.25V1516.3H4482.79V1510.25Z" fill="black"/>
<path d="M503.681 1392.96C502.241 1388.21 500.801 1384.47 499.361 1381.73C498.065 1378.85 496.409 1376.55 494.393 1374.82C492.377 1373.09 489.713 1371.8 486.401 1370.93V1366.18H528.953V1370.93C524.633 1371.8 521.609 1373.09 519.881 1374.82C518.153 1376.55 517.361 1378.71 517.505 1381.3C517.649 1383.75 518.441 1387.35 519.881 1392.1L548.825 1490.16H550.121L586.625 1388.43L579.281 1366.18H596.561L634.793 1488.44H636.089L664.817 1394.04C666.545 1388.57 667.481 1384.4 667.625 1381.52C667.913 1378.64 667.265 1376.33 665.681 1374.6C664.241 1372.88 661.505 1371.65 657.473 1370.93V1366.18H692.681V1370.93C689.225 1371.94 686.417 1373.31 684.257 1375.04C682.241 1376.76 680.513 1379.07 679.073 1381.95C677.777 1384.68 676.337 1388.64 674.753 1393.83L637.385 1516.3H627.665L592.241 1403.55H591.161L550.553 1516.3H540.617L503.681 1392.96ZM733.142 1511.55C737.462 1510.54 740.774 1508.74 743.078 1506.15C745.382 1503.56 747.686 1499.38 749.99 1493.62C750.278 1493.04 750.494 1492.54 750.638 1492.11C750.926 1491.53 751.142 1490.96 751.286 1490.38L800.102 1366.18H808.958L859.719 1489.3C860.006 1489.88 860.222 1490.45 860.367 1491.03C860.655 1491.6 860.943 1492.18 861.231 1492.76C863.103 1497.22 864.758 1500.68 866.198 1503.12C867.639 1505.43 869.223 1507.23 870.95 1508.52C872.679 1509.82 874.983 1510.83 877.863 1511.55V1516.3H835.31V1511.55C839.343 1510.97 842.223 1509.89 843.95 1508.31C845.679 1506.58 846.471 1504.35 846.327 1501.61C846.182 1498.73 845.174 1494.99 843.303 1490.38L802.046 1389.51H800.966L761.222 1490.81C759.35 1495.42 758.27 1499.09 757.982 1501.83C757.838 1504.42 758.63 1506.51 760.358 1508.09C762.23 1509.68 765.254 1510.83 769.43 1511.55V1516.3H733.142V1511.55ZM766.838 1467.27V1458.2H837.038V1467.27H766.838ZM943.861 1511.55C947.749 1510.97 950.629 1510.04 952.501 1508.74C954.517 1507.44 955.813 1505.43 956.389 1502.69C957.109 1499.96 957.469 1495.85 957.469 1490.38V1392.1C957.469 1386.48 957.109 1382.31 956.389 1379.57C955.813 1376.69 954.517 1374.68 952.501 1373.52C950.629 1372.23 947.749 1371.36 943.861 1370.93V1366.18H986.845V1370.93C982.813 1371.36 979.861 1372.23 977.989 1373.52C976.117 1374.68 974.821 1376.62 974.101 1379.36C973.525 1382.09 973.237 1386.34 973.237 1392.1V1507.23H1012.33C1019.24 1507.23 1024.79 1506.51 1028.96 1505.07C1033.28 1503.48 1036.6 1500.53 1038.9 1496.21C1041.35 1491.89 1042.93 1485.56 1043.65 1477.2H1048.84V1516.3H943.861V1511.55ZM1133.34 1392.53C1133.34 1386.48 1132.91 1382.02 1132.05 1379.14C1131.33 1376.26 1130.03 1374.32 1128.16 1373.31C1126.43 1372.3 1123.55 1371.51 1119.52 1370.93V1366.18H1176.54C1192.96 1366.18 1207.36 1369.28 1219.74 1375.47C1232.13 1381.66 1241.7 1390.44 1248.47 1401.82C1255.24 1413.05 1258.62 1426.08 1258.62 1440.92C1258.62 1456.04 1255.24 1469.28 1248.47 1480.66C1241.7 1492.04 1232.13 1500.82 1219.74 1507.01C1207.36 1513.2 1192.96 1516.3 1176.54 1516.3H1119.52V1511.55C1123.7 1511.12 1126.72 1510.25 1128.59 1508.96C1130.46 1507.66 1131.69 1505.64 1132.26 1502.91C1132.98 1500.03 1133.34 1495.71 1133.34 1489.95V1392.53ZM1172.66 1507.23C1186.62 1507.23 1198.72 1504.71 1208.94 1499.67C1219.17 1494.48 1227.02 1486.92 1232.49 1476.99C1237.96 1466.91 1240.7 1454.88 1240.7 1440.92C1240.7 1427.24 1237.96 1415.43 1232.49 1405.49C1227.02 1395.56 1219.17 1388.07 1208.94 1383.03C1198.72 1377.84 1186.62 1375.25 1172.66 1375.25H1148.9V1507.23H1172.66ZM1445.92 1481.74V1516.3H1332.3V1511.55C1336.33 1511.12 1339.21 1510.4 1340.94 1509.39C1342.81 1508.24 1344.11 1506.44 1344.83 1503.99C1345.55 1501.4 1345.98 1497.44 1346.13 1492.11V1490.81V1391.67C1346.13 1386.2 1345.77 1382.09 1345.05 1379.36C1344.33 1376.62 1342.96 1374.68 1340.94 1373.52C1339.07 1372.23 1336.19 1371.36 1332.3 1370.93V1366.18H1441.6V1395.12H1436.41C1435.98 1390.23 1434.76 1386.34 1432.74 1383.46C1430.73 1380.58 1427.56 1378.49 1423.24 1377.2C1419.06 1375.9 1413.37 1375.25 1406.17 1375.25H1361.68V1435.73H1396.45C1402.21 1435.73 1406.82 1435.23 1410.28 1434.22C1413.73 1433.21 1416.18 1431.63 1417.62 1429.47C1419.21 1427.16 1420.14 1424.21 1420.43 1420.61H1425.4V1459.92H1420.43C1420.14 1456.18 1419.21 1453.23 1417.62 1451.07C1416.18 1448.91 1413.73 1447.32 1410.28 1446.32C1406.82 1445.31 1402.21 1444.8 1396.45 1444.8H1361.68V1507.23H1411.79C1417.98 1507.23 1423.02 1506.51 1426.91 1505.07C1430.94 1503.48 1434.11 1500.82 1436.41 1497.08C1438.72 1493.33 1440.16 1488.22 1440.73 1481.74H1445.92ZM1519.77 1511.55C1523.66 1510.97 1526.54 1510.11 1528.41 1508.96C1530.28 1507.66 1531.58 1505.64 1532.3 1502.91C1533.16 1500.17 1533.59 1496.07 1533.59 1490.6V1379.36L1523.87 1367.04V1366.18H1546.34L1636.19 1489.08H1637.27V1391.45C1637.27 1385.98 1636.91 1381.88 1636.19 1379.14C1635.47 1376.4 1634.18 1374.46 1632.3 1373.31C1630.43 1372.16 1627.55 1371.36 1623.66 1370.93V1366.18H1660.6V1370.93C1656.86 1371.36 1654.05 1372.16 1652.18 1373.31C1650.3 1374.46 1648.94 1376.48 1648.07 1379.36C1647.35 1382.09 1646.99 1386.12 1646.99 1391.45V1516.3H1636.41L1544.39 1390.16H1543.31V1490.6C1543.31 1496.07 1543.67 1500.17 1544.39 1502.91C1545.26 1505.64 1546.62 1507.66 1548.5 1508.96C1550.37 1510.11 1553.18 1510.97 1556.92 1511.55V1516.3H1519.77V1511.55Z" fill="black"/>
<path d="M1974.37 1757.36C1972.64 1752.17 1970.84 1748 1968.97 1744.83C1967.24 1741.66 1965.01 1739.21 1962.27 1737.48C1959.68 1735.61 1956.15 1734.24 1951.69 1733.38V1729.06H2013.68V1733.38C2007.34 1734.24 2002.81 1735.61 2000.07 1737.48C1997.34 1739.36 1995.9 1741.73 1995.75 1744.61C1995.75 1747.49 1996.54 1751.45 1998.13 1756.49L2024.48 1842.03H2025.56L2056.66 1756.28L2046.94 1729.06H2072L2109.37 1840.3H2110.45L2135.94 1759.52C2137.95 1753.04 2139.03 1748.21 2139.18 1745.04C2139.32 1741.88 2138.1 1739.36 2135.5 1737.48C2133.06 1735.47 2128.52 1734.1 2121.9 1733.38V1729.06H2168.98V1733.38C2163.94 1734.24 2159.98 1735.68 2157.1 1737.7C2154.22 1739.72 2151.92 1742.38 2150.19 1745.69C2148.46 1748.86 2146.66 1753.4 2144.79 1759.3L2106.34 1880.48H2099.43L2061.85 1769.67H2060.77L2020.16 1880.48H2013.25L1974.37 1757.36ZM2200.11 1874.86C2206.02 1874.14 2210.41 1872.34 2213.29 1869.46C2216.17 1866.58 2218.9 1862.04 2221.5 1855.85C2221.78 1855.28 2222 1854.77 2222.14 1854.34C2222.43 1853.76 2222.72 1853.19 2223.01 1852.61L2272.47 1727.76H2278.95L2331.44 1850.88C2331.73 1851.6 2332.02 1852.32 2332.3 1853.04C2332.59 1853.62 2332.88 1854.2 2333.17 1854.77C2335.33 1859.67 2337.2 1863.41 2338.78 1866C2340.51 1868.45 2342.46 1870.4 2344.62 1871.84C2346.92 1873.28 2349.94 1874.28 2353.69 1874.86V1879.18H2291.7V1874.86C2298.03 1874.43 2302.57 1873.28 2305.3 1871.4C2308.18 1869.53 2309.62 1867.08 2309.62 1864.06C2309.77 1861.04 2308.9 1857.22 2307.03 1852.61L2268.8 1761.24H2267.94L2231.65 1852.61C2229.78 1857.65 2228.91 1861.61 2229.06 1864.49C2229.34 1867.37 2231 1869.68 2234.02 1871.4C2237.05 1873.13 2242.02 1874.28 2248.93 1874.86V1879.18H2200.11V1874.86ZM2237.7 1829.93V1821.94H2301.63V1829.93H2237.7ZM2412.65 1874.86C2418.26 1874.43 2422.51 1873.56 2425.39 1872.27C2428.27 1870.97 2430.22 1868.88 2431.22 1866C2432.38 1862.98 2432.95 1858.66 2432.95 1853.04V1754.98C2432.95 1749.22 2432.38 1744.9 2431.22 1742.02C2430.22 1739.14 2428.27 1737.12 2425.39 1735.97C2422.66 1734.68 2418.41 1733.81 2412.65 1733.38V1729.06H2476.15V1733.38C2470.39 1733.81 2466.07 1734.68 2463.19 1735.97C2460.46 1737.12 2458.51 1739.14 2457.36 1742.02C2456.35 1744.9 2455.85 1749.22 2455.85 1754.98V1871.62H2481.55C2490.05 1871.62 2497.03 1870.47 2502.5 1868.16C2508.12 1865.72 2512.66 1861.18 2516.11 1854.56C2519.71 1847.93 2522.16 1838.36 2523.46 1825.83H2527.78V1879.18H2412.65V1874.86ZM2614.31 1755.63C2614.31 1749.58 2613.74 1745.12 2612.58 1742.24C2611.43 1739.21 2609.42 1737.12 2606.54 1735.97C2603.8 1734.68 2599.62 1733.81 2594.01 1733.38V1729.06H2660.54C2677.24 1729.06 2691.93 1732.16 2704.6 1738.35C2717.42 1744.54 2727.35 1753.32 2734.41 1764.7C2741.61 1776.08 2745.21 1789.18 2745.21 1804.01C2745.21 1818.84 2741.61 1832.02 2734.41 1843.54C2727.35 1854.92 2717.42 1863.7 2704.6 1869.89C2691.93 1876.08 2677.24 1879.18 2660.54 1879.18H2594.01V1874.86C2599.77 1874.28 2604.02 1873.35 2606.75 1872.05C2609.63 1870.61 2611.58 1868.45 2612.58 1865.57C2613.74 1862.55 2614.31 1857.94 2614.31 1851.75V1755.63ZM2655.14 1871.62C2668.53 1871.62 2679.9 1869.03 2689.26 1863.84C2698.62 1858.52 2705.75 1850.81 2710.65 1840.73C2715.69 1830.51 2718.21 1818.27 2718.21 1804.01C2718.21 1789.76 2715.69 1777.59 2710.65 1767.51C2705.75 1757.43 2698.62 1749.8 2689.26 1744.61C2679.9 1739.28 2668.53 1736.62 2655.14 1736.62H2637.21V1871.62H2655.14ZM2936.07 1832.09V1879.18H2811.22V1874.86C2816.83 1874.28 2821.01 1873.42 2823.75 1872.27C2826.48 1871.12 2828.43 1869.17 2829.58 1866.44C2830.73 1863.7 2831.38 1859.6 2831.52 1854.12V1852.83V1755.2C2831.52 1749.44 2830.95 1745.12 2829.79 1742.24C2828.79 1739.21 2826.84 1737.12 2823.96 1735.97C2821.08 1734.68 2816.83 1733.81 2811.22 1733.38V1729.06H2930.23V1768.16H2925.91C2925.05 1760.52 2923.25 1754.4 2920.51 1749.8C2917.92 1745.19 2914.11 1741.88 2909.07 1739.86C2904.03 1737.7 2897.47 1736.62 2889.41 1736.62H2854.42V1799.26H2876.23C2883 1799.26 2888.47 1798.47 2892.65 1796.88C2896.83 1795.3 2899.92 1792.85 2901.94 1789.54C2903.95 1786.08 2905.25 1781.62 2905.83 1776.15H2910.15V1830.15H2905.83C2905.25 1824.53 2903.88 1820.07 2901.72 1816.76C2899.71 1813.3 2896.61 1810.78 2892.43 1809.2C2888.26 1807.61 2882.79 1806.82 2876.02 1806.82H2854.42V1871.62H2891.14C2899.06 1871.62 2905.75 1870.47 2911.23 1868.16C2916.84 1865.72 2921.38 1861.61 2924.83 1855.85C2928.29 1849.95 2930.59 1842.03 2931.75 1832.09H2936.07ZM3002.9 1874.86C3008.66 1874.28 3012.91 1873.35 3015.64 1872.05C3018.38 1870.76 3020.32 1868.67 3021.48 1865.79C3022.63 1862.91 3023.2 1858.52 3023.2 1852.61V1748.72L3007.87 1729.92V1729.06H3041.35L3123.86 1838.14H3124.72V1755.41C3124.72 1749.51 3124.15 1745.12 3123 1742.24C3121.99 1739.36 3120.04 1737.27 3117.16 1735.97C3114.43 1734.68 3110.18 1733.81 3104.42 1733.38V1729.06H3153.67V1733.38C3148.05 1733.81 3143.8 1734.68 3140.92 1735.97C3138.04 1737.27 3136.03 1739.36 3134.88 1742.24C3133.87 1745.12 3133.36 1749.51 3133.36 1755.41V1880.48H3125.8L3032.71 1758H3031.84V1852.61C3031.84 1858.52 3032.42 1862.91 3033.57 1865.79C3034.72 1868.67 3036.67 1870.76 3039.4 1872.05C3042.14 1873.35 3046.39 1874.28 3052.15 1874.86V1879.18H3002.9V1874.86Z" fill="black"/>
<path d="M1973.2 2120.02C1971.33 2114.69 1969.32 2110.37 1967.16 2107.06C1965.14 2103.75 1962.48 2101.16 1959.16 2099.28C1955.85 2097.27 1951.46 2095.83 1945.99 2094.96V2091.94H2020.29V2094.96C2011.8 2095.83 2005.68 2097.27 2001.93 2099.28C1998.33 2101.3 1996.39 2103.82 1996.1 2106.84C1995.96 2109.87 1996.75 2114.04 1998.48 2119.37L2025.26 2202.1H2025.91L2055.07 2122.61L2043.84 2091.94H2069.54L2108.64 2201.02H2109.28L2134.77 2123.69C2137.22 2116.64 2138.44 2111.38 2138.44 2107.92C2138.44 2104.32 2136.72 2101.44 2133.26 2099.28C2129.8 2097.12 2123.76 2095.68 2115.12 2094.96V2091.94H2169.76V2094.96C2163.28 2095.97 2158.24 2097.63 2154.64 2099.93C2151.19 2102.09 2148.45 2104.9 2146.44 2108.36C2144.56 2111.81 2142.48 2116.85 2140.17 2123.48L2100 2244.65H2099.35L2058.09 2130.82H2057.23L2015.32 2244.65H2014.68L1973.2 2120.02ZM2194.84 2239.04C2201.9 2238.03 2207.08 2236.01 2210.39 2232.99C2213.85 2229.96 2217.02 2225.21 2219.9 2218.73C2220.19 2218.16 2220.47 2217.58 2220.76 2217C2221.05 2216.43 2221.27 2215.85 2221.41 2215.28L2271.74 2089.35H2272.39L2326.6 2213.55C2326.89 2214.27 2327.18 2214.99 2327.47 2215.71C2327.9 2216.28 2328.26 2216.93 2328.55 2217.65C2330.85 2222.84 2332.94 2226.72 2334.81 2229.32C2336.68 2231.91 2338.91 2234 2341.51 2235.58C2344.24 2237.02 2347.99 2238.17 2352.74 2239.04V2242.06H2278.87V2239.04C2287.07 2238.32 2293.12 2237.02 2297.01 2235.15C2300.9 2233.13 2302.99 2230.61 2303.27 2227.59C2303.71 2224.42 2302.99 2220.46 2301.11 2215.71L2262.88 2126.28H2262.02L2226.59 2215.71C2224.58 2220.89 2223.86 2225 2224.43 2228.02C2225.01 2230.9 2227.31 2233.28 2231.35 2235.15C2235.52 2236.88 2242.22 2238.17 2251.43 2239.04V2242.06H2194.84V2239.04ZM2235.02 2190.87V2186.12H2295.07V2190.87H2235.02ZM2406.88 2239.04C2414.22 2238.6 2419.77 2237.74 2423.51 2236.44C2427.26 2235 2429.85 2232.77 2431.29 2229.75C2432.73 2226.58 2433.45 2221.9 2433.45 2215.71V2118.29C2433.45 2112.1 2432.73 2107.49 2431.29 2104.47C2429.85 2101.3 2427.26 2099.07 2423.51 2097.77C2419.77 2096.33 2414.22 2095.4 2406.88 2094.96V2091.94H2483.99V2094.96C2476.65 2095.4 2471.1 2096.33 2467.36 2097.77C2463.62 2099.07 2461.02 2101.3 2459.58 2104.47C2458.29 2107.49 2457.64 2112.1 2457.64 2118.29V2237.96H2474.49C2484.86 2237.96 2493.42 2236.44 2500.19 2233.42C2506.96 2230.25 2512.5 2224.35 2516.82 2215.71C2521.29 2207.07 2524.31 2194.68 2525.9 2178.56H2528.92V2242.06H2406.88V2239.04ZM2618.6 2118.72C2618.6 2112.39 2617.88 2107.64 2616.44 2104.47C2615 2101.3 2612.41 2099.07 2608.67 2097.77C2604.92 2096.33 2599.38 2095.4 2592.03 2094.96V2091.94H2663.96C2681.1 2091.94 2696.22 2095.04 2709.32 2101.23C2722.43 2107.42 2732.58 2116.2 2739.78 2127.58C2747.12 2138.96 2750.79 2152.13 2750.79 2167.11C2750.79 2182.08 2747.12 2195.26 2739.78 2206.64C2732.58 2218.01 2722.43 2226.8 2709.32 2232.99C2696.22 2239.04 2681.1 2242.06 2663.96 2242.06H2592.03V2239.04C2599.38 2238.6 2604.92 2237.74 2608.67 2236.44C2612.41 2235 2615 2232.7 2616.44 2229.53C2617.88 2226.36 2618.6 2221.61 2618.6 2215.28V2118.72ZM2658.56 2237.96C2672.1 2237.96 2683.55 2235.22 2692.91 2229.75C2702.41 2224.13 2709.61 2216 2714.51 2205.34C2719.4 2194.68 2721.85 2181.94 2721.85 2167.11C2721.85 2152.28 2719.4 2139.53 2714.51 2128.88C2709.61 2118.22 2702.41 2110.08 2692.91 2104.47C2683.55 2098.85 2672.1 2096.04 2658.56 2096.04H2642.79V2237.96H2658.56ZM2944.83 2186.33V2242.06H2811.99V2239.04C2819.19 2238.6 2824.59 2237.74 2828.19 2236.44C2831.93 2235.15 2834.53 2233.06 2835.97 2230.18C2837.55 2227.16 2838.41 2222.69 2838.56 2216.79V2215.49V2118.51C2838.56 2112.17 2837.84 2107.49 2836.4 2104.47C2834.96 2101.3 2832.37 2099.07 2828.62 2097.77C2824.88 2096.33 2819.33 2095.4 2811.99 2094.96V2091.94H2937.7V2137.08H2934.89C2933.74 2127.15 2931.65 2119.23 2928.63 2113.32C2925.61 2107.28 2921.29 2102.88 2915.67 2100.15C2910.05 2097.41 2902.71 2096.04 2893.64 2096.04H2862.75V2163.87H2877.65C2885.14 2163.87 2891.19 2162.86 2895.8 2160.84C2900.55 2158.68 2904.15 2155.44 2906.6 2151.12C2909.05 2146.66 2910.7 2140.83 2911.57 2133.63H2914.37V2198H2911.57C2910.7 2190.8 2908.97 2185.04 2906.38 2180.72C2903.93 2176.25 2900.33 2173.01 2895.58 2171C2890.97 2168.84 2885 2167.76 2877.65 2167.76H2862.75V2237.96H2892.77C2902.28 2237.96 2910.34 2236.44 2916.97 2233.42C2923.59 2230.25 2928.99 2224.92 2933.17 2217.44C2937.49 2209.8 2940.44 2199.44 2942.02 2186.33H2944.83ZM3007.05 2239.04C3014.53 2238.6 3020.08 2237.67 3023.68 2236.23C3027.28 2234.79 3029.8 2232.56 3031.24 2229.53C3032.82 2226.36 3033.61 2221.61 3033.61 2215.28V2117L3013.09 2092.59V2091.94H3048.09L3132.76 2196.7H3133.41V2118.72C3133.41 2112.39 3132.69 2107.64 3131.25 2104.47C3129.95 2101.3 3127.43 2099.07 3123.69 2097.77C3119.94 2096.33 3114.33 2095.4 3106.84 2094.96V2091.94H3164.94V2094.96C3157.45 2095.4 3151.84 2096.33 3148.09 2097.77C3144.49 2099.07 3141.97 2101.3 3140.53 2104.47C3139.09 2107.64 3138.37 2112.39 3138.37 2118.72V2244.65H3137.73L3039.23 2122.83H3038.37V2215.28C3038.37 2221.61 3039.09 2226.36 3040.53 2229.53C3042.11 2232.56 3044.7 2234.79 3048.3 2236.23C3051.9 2237.67 3057.45 2238.6 3064.93 2239.04V2242.06H3007.05V2239.04Z" fill="black"/>
<path d="M3455.32 1759.3C3453.45 1753.4 3451.58 1748.79 3449.7 1745.48C3447.83 1742.16 3445.6 1739.57 3443.01 1737.7C3440.42 1735.83 3436.96 1734.46 3432.64 1733.6V1729.06H3500.25V1733.6C3493.77 1734.6 3489.23 1736.12 3486.64 1738.13C3484.05 1740 3482.75 1742.52 3482.75 1745.69C3482.75 1748.86 3483.62 1753.18 3485.34 1758.65L3509.1 1834.47H3510.18L3537.62 1758.44L3526.82 1729.06H3557.92L3593.78 1832.09H3595.07L3617.54 1760.81C3619.55 1754.19 3620.7 1749.22 3620.99 1745.91C3621.28 1742.45 3620.2 1739.72 3617.75 1737.7C3615.3 1735.68 3610.77 1734.32 3604.14 1733.6V1729.06H3652.1V1733.6C3647.2 1734.46 3643.31 1735.97 3640.43 1738.13C3637.55 1740.29 3635.18 1743.1 3633.3 1746.56C3631.58 1749.87 3629.78 1754.55 3627.9 1760.6L3589.67 1880.69H3581.46L3543.66 1773.56H3542.37L3503.49 1880.69H3495.06L3455.32 1759.3ZM3680.85 1874.64C3686.75 1873.78 3691.14 1871.91 3694.02 1869.03C3697.05 1866.15 3699.93 1861.47 3702.66 1854.99C3702.95 1854.41 3703.17 1853.84 3703.31 1853.26C3703.6 1852.68 3703.89 1852.11 3704.18 1851.53L3754.29 1727.55H3761.85L3814.77 1850.67C3815.06 1851.39 3815.27 1852.04 3815.42 1852.61C3815.7 1853.19 3815.99 1853.84 3816.28 1854.56C3818.44 1859.31 3820.38 1862.98 3822.11 1865.57C3823.84 1868.02 3825.86 1869.96 3828.16 1871.4C3830.46 1872.84 3833.56 1873.92 3837.45 1874.64V1879.18H3769.41V1874.64C3775.46 1873.92 3779.85 1872.63 3782.58 1870.76C3785.32 1868.88 3786.76 1866.51 3786.9 1863.63C3787.05 1860.75 3786.11 1856.93 3784.1 1852.18L3748.89 1768.37H3747.81L3714.54 1851.1C3712.38 1856.57 3711.38 1860.82 3711.52 1863.84C3711.81 1866.87 3713.54 1869.24 3716.7 1870.97C3719.87 1872.7 3724.98 1873.92 3732.04 1874.64V1879.18H3680.85V1874.64ZM3718.43 1832.09V1823.02H3781.94V1832.09H3718.43ZM3895.07 1874.64C3900.54 1874.07 3904.65 1873.13 3907.38 1871.84C3910.12 1870.54 3911.99 1868.52 3913 1865.79C3914.15 1862.91 3914.73 1858.73 3914.73 1853.26V1755.2C3914.73 1749.58 3914.15 1745.4 3913 1742.67C3911.99 1739.79 3910.12 1737.7 3907.38 1736.4C3904.79 1734.96 3900.69 1734.03 3895.07 1733.6V1729.06H3962.68V1733.6C3957.06 1734.03 3952.89 1734.96 3950.15 1736.4C3947.56 1737.7 3945.76 1739.79 3944.75 1742.67C3943.74 1745.4 3943.24 1749.58 3943.24 1755.2V1870.54H3965.27C3973.62 1870.54 3980.53 1869.32 3986.01 1866.87C3991.62 1864.42 3996.23 1859.88 3999.83 1853.26C4003.43 1846.64 4006.02 1837.13 4007.61 1824.75H4012.36V1879.18H3895.07V1874.64ZM4096.29 1755.2C4096.29 1749.58 4095.72 1745.33 4094.57 1742.45C4093.56 1739.57 4091.69 1737.48 4088.95 1736.19C4086.21 1734.89 4082.18 1734.03 4076.85 1733.6V1729.06H4144.68C4162.1 1729.06 4177.29 1732.16 4190.25 1738.35C4203.36 1744.54 4213.44 1753.32 4220.49 1764.7C4227.69 1775.93 4231.29 1789.04 4231.29 1804.01C4231.29 1818.99 4227.69 1832.16 4220.49 1843.54C4213.44 1854.92 4203.36 1863.7 4190.25 1869.89C4177.29 1876.08 4162.1 1879.18 4144.68 1879.18H4076.85V1874.64C4082.33 1874.07 4086.43 1873.13 4089.17 1871.84C4091.9 1870.4 4093.77 1868.24 4094.78 1865.36C4095.79 1862.33 4096.29 1857.87 4096.29 1851.96V1755.2ZM4139.28 1870.76C4151.95 1870.76 4162.68 1868.24 4171.46 1863.2C4180.39 1858.01 4187.16 1850.45 4191.77 1840.52C4196.37 1830.44 4198.68 1818.27 4198.68 1804.01C4198.68 1789.76 4196.37 1777.66 4191.77 1767.72C4187.16 1757.79 4180.39 1750.3 4171.46 1745.26C4162.68 1740.08 4151.95 1737.48 4139.28 1737.48H4124.81V1870.76H4139.28ZM4422.33 1830.8V1879.18H4295.75V1874.64C4301.22 1874.07 4305.25 1873.2 4307.85 1872.05C4310.44 1870.76 4312.31 1868.81 4313.46 1866.22C4314.61 1863.48 4315.26 1859.38 4315.41 1853.91V1852.61V1755.2C4315.41 1749.58 4314.83 1745.33 4313.68 1742.45C4312.67 1739.57 4310.8 1737.48 4308.06 1736.19C4305.33 1734.89 4301.22 1734.03 4295.75 1733.6V1729.06H4416.49V1769.24H4411.96C4410.95 1761.75 4409.08 1755.7 4406.34 1751.09C4403.75 1746.48 4399.86 1743.1 4394.68 1740.94C4389.64 1738.78 4383.01 1737.7 4374.81 1737.7H4343.92V1798.83H4362.06C4368.83 1798.83 4374.3 1798.04 4378.48 1796.45C4382.8 1794.72 4385.97 1792.2 4387.98 1788.89C4390.14 1785.44 4391.51 1780.97 4392.09 1775.5H4396.84V1830.8H4392.09C4391.51 1825.18 4390.14 1820.72 4387.98 1817.4C4385.97 1813.95 4382.8 1811.43 4378.48 1809.84C4374.3 1808.26 4368.83 1807.47 4362.06 1807.47H4343.92V1870.54H4376.53C4384.45 1870.54 4391.15 1869.39 4396.62 1867.08C4402.09 1864.64 4406.56 1860.53 4410.01 1854.77C4413.61 1849.01 4416.13 1841.02 4417.57 1830.8H4422.33ZM4487.87 1874.64C4493.34 1874.21 4497.45 1873.28 4500.18 1871.84C4502.92 1870.4 4504.79 1868.24 4505.8 1865.36C4506.95 1862.33 4507.53 1857.94 4507.53 1852.18V1750.01L4491.11 1730.14V1729.06H4532.15L4607.75 1829.07H4609.05V1755.63C4609.05 1750.01 4608.47 1745.76 4607.32 1742.88C4606.31 1739.86 4604.44 1737.7 4601.7 1736.4C4598.97 1734.96 4594.86 1734.03 4589.39 1733.6V1729.06H4638.42V1733.6C4632.95 1734.03 4628.85 1734.96 4626.11 1736.4C4623.52 1737.7 4621.65 1739.86 4620.49 1742.88C4619.34 1745.76 4618.77 1750.01 4618.77 1755.63V1880.69H4609.69L4518.54 1760.81H4517.25V1852.18C4517.25 1857.94 4517.82 1862.33 4518.97 1865.36C4520.13 1868.24 4522 1870.4 4524.59 1871.84C4527.33 1873.28 4531.43 1874.21 4536.9 1874.64V1879.18H4487.87V1874.64Z" fill="black"/>
<path d="M3452.71 2122.4C3450.41 2116.06 3448.17 2111.16 3446.01 2107.71C3444 2104.11 3441.33 2101.37 3438.02 2099.5C3434.85 2097.48 3430.61 2096.04 3425.28 2095.18V2091.94H3504.55V2095.18C3496.34 2095.9 3490.51 2097.34 3487.05 2099.5C3483.6 2101.66 3481.8 2104.47 3481.65 2107.92C3481.51 2111.24 3482.45 2115.77 3484.46 2121.53L3508.65 2194.11H3509.52L3535.01 2125.64L3522.05 2091.94H3554.45L3592.25 2192.16H3592.89L3615.14 2125.85C3617.59 2118.22 3618.89 2112.53 3619.03 2108.79C3619.32 2104.9 3617.81 2101.88 3614.49 2099.72C3611.33 2097.41 3605.42 2095.9 3596.78 2095.18V2091.94H3651.21V2095.18C3644.88 2096.04 3639.91 2097.7 3636.31 2100.15C3632.71 2102.45 3629.83 2105.55 3627.67 2109.44C3625.51 2113.32 3623.28 2118.72 3620.97 2125.64L3581.23 2244.87H3580.37L3538.46 2134.28H3537.6L3496.13 2244.87H3495.48L3452.71 2122.4ZM3673.49 2238.82C3680.84 2237.81 3686.24 2235.72 3689.69 2232.56C3693.29 2229.24 3696.68 2223.92 3699.84 2216.57C3700.13 2216 3700.42 2215.42 3700.71 2214.84C3701 2214.12 3701.28 2213.4 3701.57 2212.68L3752.33 2088.92H3752.98L3807.41 2212.47C3807.7 2213.19 3807.99 2213.91 3808.28 2214.63C3808.56 2215.35 3808.85 2216.07 3809.14 2216.79C3811.59 2221.97 3813.75 2226 3815.62 2228.88C3817.64 2231.62 3820.01 2233.78 3822.75 2235.36C3825.63 2236.8 3829.37 2237.96 3833.98 2238.82V2242.06H3754.28V2238.82C3762.05 2238.1 3767.74 2236.73 3771.34 2234.72C3775.08 2232.56 3777.17 2229.89 3777.6 2226.72C3778.04 2223.41 3777.17 2219.31 3775.01 2214.41L3740.24 2133.63H3739.59L3707.19 2212.9C3704.74 2218.95 3703.8 2223.63 3704.38 2226.94C3704.96 2230.25 3707.33 2232.84 3711.51 2234.72C3715.68 2236.59 3722.45 2237.96 3731.81 2238.82V2242.06H3673.49V2238.82ZM3713.02 2192.81V2187.84H3773.07V2192.81H3713.02ZM3887.86 2238.82C3894.78 2238.39 3899.96 2237.52 3903.42 2236.23C3907.02 2234.79 3909.54 2232.48 3910.98 2229.32C3912.42 2226.15 3913.14 2221.47 3913.14 2215.28V2118.72C3913.14 2112.53 3912.42 2107.85 3910.98 2104.68C3909.54 2101.52 3907.09 2099.28 3903.63 2097.99C3900.18 2096.55 3894.92 2095.61 3887.86 2095.18V2091.94H3968.43V2095.18C3961.38 2095.61 3956.12 2096.55 3952.66 2097.99C3949.21 2099.28 3946.76 2101.52 3945.32 2104.68C3943.88 2107.85 3943.16 2112.53 3943.16 2118.72V2237.74H3956.34C3966.56 2237.74 3975.06 2236.16 3981.82 2232.99C3988.74 2229.82 3994.42 2223.92 3998.89 2215.28C4003.35 2206.64 4006.52 2194.25 4008.39 2178.12H4011.42V2242.06H3887.86V2238.82ZM4098.71 2118.94C4098.71 2112.75 4097.99 2108.07 4096.55 2104.9C4095.11 2101.73 4092.59 2099.43 4088.99 2097.99C4085.54 2096.55 4080.35 2095.61 4073.44 2095.18V2091.94H4146.45C4164.3 2091.94 4179.93 2095.04 4193.32 2101.23C4206.71 2107.42 4217.08 2116.2 4224.42 2127.58C4231.77 2138.81 4235.44 2151.99 4235.44 2167.11C4235.44 2182.23 4231.77 2195.48 4224.42 2206.85C4217.08 2218.08 4206.71 2226.8 4193.32 2232.99C4179.93 2239.04 4164.3 2242.06 4146.45 2242.06H4073.44V2238.82C4080.35 2238.39 4085.54 2237.45 4088.99 2236.01C4092.59 2234.57 4095.11 2232.27 4096.55 2229.1C4097.99 2225.93 4098.71 2221.25 4098.71 2215.06V2118.94ZM4141.26 2237.74C4154.08 2237.74 4164.88 2235 4173.66 2229.53C4182.59 2223.92 4189.29 2215.85 4193.75 2205.34C4198.36 2194.68 4200.66 2181.94 4200.66 2167.11C4200.66 2152.28 4198.36 2139.6 4193.75 2129.09C4189.29 2118.44 4182.59 2110.3 4173.66 2104.68C4164.88 2099.07 4154.08 2096.26 4141.26 2096.26H4128.74V2237.74H4141.26ZM4429.64 2185.47V2242.06H4295.72V2238.82C4302.48 2238.39 4307.6 2237.52 4311.05 2236.23C4314.51 2234.93 4316.96 2232.77 4318.4 2229.75C4319.98 2226.72 4320.84 2222.33 4320.99 2216.57V2215.28V2118.94C4320.99 2112.75 4320.27 2108.07 4318.83 2104.9C4317.39 2101.59 4314.87 2099.28 4311.27 2097.99C4307.81 2096.55 4302.63 2095.61 4295.72 2095.18V2091.94H4422.72V2137.52H4419.48C4418.33 2127.87 4416.17 2120.09 4413 2114.19C4409.98 2108.14 4405.59 2103.68 4399.83 2100.8C4394.07 2097.77 4386.58 2096.26 4377.36 2096.26H4351.01V2163.65H4361.6C4369.23 2163.65 4375.42 2162.64 4380.17 2160.63C4385.07 2158.47 4388.81 2155.23 4391.4 2150.91C4394 2146.44 4395.72 2140.61 4396.59 2133.41H4399.61V2198.43H4396.59C4395.72 2191.23 4394 2185.4 4391.4 2180.93C4388.81 2176.47 4385.07 2173.23 4380.17 2171.21C4375.42 2169.05 4369.16 2167.97 4361.38 2167.97H4351.01V2237.74H4376.5C4386 2237.74 4394.07 2236.23 4400.69 2233.2C4407.32 2230.04 4412.79 2224.64 4417.11 2217C4421.43 2209.37 4424.6 2198.86 4426.61 2185.47H4429.64ZM4491 2238.82C4498.06 2238.39 4503.31 2237.45 4506.77 2236.01C4510.37 2234.57 4512.82 2232.27 4514.11 2229.1C4515.55 2225.93 4516.27 2221.25 4516.27 2215.06V2118.29L4494.67 2092.8V2091.94H4538.09L4616.06 2186.76H4616.93V2118.94C4616.93 2112.75 4616.21 2108.07 4614.77 2104.9C4613.33 2101.73 4610.81 2099.43 4607.21 2097.99C4603.75 2096.55 4598.57 2095.61 4591.66 2095.18V2091.94H4647.6V2095.18C4640.69 2095.61 4635.43 2096.55 4631.83 2097.99C4628.38 2099.43 4625.93 2101.73 4624.49 2104.9C4623.05 2108.07 4622.33 2112.75 4622.33 2118.94V2244.87H4621.68L4522.54 2124.99H4521.89V2215.06C4521.89 2221.25 4522.61 2225.93 4524.05 2229.1C4525.49 2232.27 4527.94 2234.57 4531.39 2236.01C4534.85 2237.45 4540.1 2238.39 4547.16 2238.82V2242.06H4491V2238.82Z" fill="black"/>
<path d="M500.912 1755.41C499.328 1750.66 497.672 1746.77 495.944 1743.75C494.36 1740.72 492.2 1738.35 489.464 1736.62C486.728 1734.89 483.2 1733.6 478.88 1732.73V1729.06H533.744V1732.73C527.12 1733.45 522.44 1734.75 519.704 1736.62C517.112 1738.35 515.744 1740.51 515.6 1743.1C515.6 1745.69 516.32 1749.44 517.76 1754.33L547.352 1850.67H548.216L582.776 1753.9L574.352 1729.06H592.064L631.592 1849.59H632.456L661.832 1757.36C663.704 1751.45 664.64 1746.99 664.64 1743.96C664.784 1740.8 663.632 1738.35 661.184 1736.62C658.736 1734.75 654.416 1733.45 648.224 1732.73V1729.06H692.072V1732.73C687.32 1733.74 683.576 1735.18 680.84 1737.05C678.104 1738.92 675.944 1741.37 674.36 1744.4C672.776 1747.42 671.048 1751.67 669.176 1757.14L629.648 1880.26H624.68L586.88 1765.35H585.8L544.76 1880.26H539.792L500.912 1755.41ZM726.259 1875.51C731.875 1874.5 736.123 1872.7 739.003 1870.11C741.883 1867.37 744.547 1863.12 746.995 1857.36C747.139 1856.79 747.283 1856.28 747.427 1855.85C747.715 1855.28 747.931 1854.7 748.075 1854.12L797.539 1727.98H802.075L854.131 1852.83C854.419 1853.4 854.707 1854.05 854.995 1854.77C855.283 1855.35 855.499 1855.92 855.643 1856.5C857.659 1860.96 859.459 1864.42 861.043 1866.87C862.627 1869.17 864.499 1871.04 866.659 1872.48C868.963 1873.78 871.987 1874.79 875.731 1875.51V1879.18H821.299V1875.51C827.491 1874.93 831.955 1873.85 834.691 1872.27C837.571 1870.54 839.083 1868.31 839.227 1865.57C839.515 1862.69 838.723 1858.95 836.851 1854.34L795.379 1753.9H794.731L755.419 1854.56C753.547 1859.16 752.755 1862.84 753.043 1865.57C753.331 1868.31 754.843 1870.47 757.579 1872.05C760.459 1873.64 765.139 1874.79 771.619 1875.51V1879.18H726.259V1875.51ZM763.195 1828.2V1821.51H829.939V1828.2H763.195ZM936.69 1875.51C942.306 1875.08 946.482 1874.21 949.218 1872.92C952.098 1871.62 954.042 1869.53 955.05 1866.65C956.202 1863.77 956.778 1859.45 956.778 1853.69V1754.55C956.778 1748.64 956.202 1744.25 955.05 1741.37C954.042 1738.49 952.098 1736.48 949.218 1735.32C946.482 1734.03 942.306 1733.16 936.69 1732.73V1729.06H993.282V1732.73C987.666 1733.16 983.49 1734.03 980.754 1735.32C978.018 1736.48 976.074 1738.49 974.922 1741.37C973.914 1744.25 973.41 1748.64 973.41 1754.55V1872.92H1004.3C1013.23 1872.92 1020.35 1871.76 1025.68 1869.46C1031.15 1867.16 1035.47 1862.84 1038.64 1856.5C1041.81 1850.02 1043.9 1840.59 1044.91 1828.2H1048.79V1879.18H936.69V1875.51ZM1136.87 1755.2C1136.87 1749 1136.3 1744.47 1135.15 1741.59C1133.99 1738.56 1132.05 1736.48 1129.31 1735.32C1126.72 1734.17 1122.55 1733.31 1116.79 1732.73V1729.06H1178.78C1195.48 1729.06 1210.17 1732.16 1222.84 1738.35C1235.51 1744.4 1245.31 1753.11 1252.22 1764.48C1259.27 1775.86 1262.8 1789.04 1262.8 1804.01C1262.8 1819.13 1259.27 1832.38 1252.22 1843.76C1245.31 1855.13 1235.51 1863.92 1222.84 1870.11C1210.17 1876.16 1195.48 1879.18 1178.78 1879.18H1116.79V1875.51C1122.55 1875.08 1126.79 1874.21 1129.53 1872.92C1132.27 1871.62 1134.14 1869.53 1135.15 1866.65C1136.3 1863.63 1136.87 1859.09 1136.87 1853.04V1755.2ZM1174.89 1872.92C1189 1872.92 1201.17 1870.25 1211.39 1864.92C1221.76 1859.45 1229.68 1851.6 1235.15 1841.38C1240.77 1831.01 1243.58 1818.56 1243.58 1804.01C1243.58 1789.76 1240.77 1777.44 1235.15 1767.08C1229.68 1756.71 1221.76 1748.86 1211.39 1743.53C1201.17 1738.06 1189 1735.32 1174.89 1735.32H1153.29V1872.92H1174.89ZM1453.92 1834.47V1879.18H1332.1V1875.51C1337.71 1875.08 1341.82 1874.28 1344.41 1873.13C1347.14 1871.98 1349.09 1870.11 1350.24 1867.52C1351.54 1864.78 1352.18 1860.6 1352.18 1854.99V1853.69V1754.55C1352.18 1748.64 1351.61 1744.25 1350.46 1741.37C1349.45 1738.49 1347.5 1736.48 1344.62 1735.32C1341.89 1734.03 1337.71 1733.16 1332.1 1732.73V1729.06H1448.09V1765.35H1444.42C1443.7 1758.15 1442.11 1752.39 1439.66 1748.07C1437.36 1743.6 1433.76 1740.36 1428.86 1738.35C1424.11 1736.33 1417.78 1735.32 1409.86 1735.32H1368.6V1799.91H1397.76C1404.1 1799.91 1409.14 1799.12 1412.88 1797.53C1416.62 1795.95 1419.36 1793.57 1421.09 1790.4C1422.96 1787.24 1424.11 1782.92 1424.54 1777.44H1428.43V1828.64H1424.54C1424.11 1823.16 1422.96 1818.84 1421.09 1815.68C1419.36 1812.51 1416.55 1810.13 1412.66 1808.55C1408.92 1806.96 1403.88 1806.17 1397.54 1806.17H1368.6V1872.92H1412.66C1420.73 1872.92 1427.28 1871.76 1432.32 1869.46C1437.36 1867.01 1441.32 1863.05 1444.2 1857.58C1447.22 1852.11 1449.24 1844.4 1450.25 1834.47H1453.92ZM1523.57 1875.51C1529.33 1874.93 1533.5 1874.07 1536.1 1872.92C1538.83 1871.62 1540.78 1869.6 1541.93 1866.87C1543.08 1863.99 1543.66 1859.6 1543.66 1853.69V1747.85L1528.97 1729.71V1729.06H1552.51L1644.74 1848.94H1645.61V1754.55C1645.61 1748.64 1645.03 1744.25 1643.88 1741.37C1642.73 1738.49 1640.78 1736.48 1638.05 1735.32C1635.31 1734.03 1631.14 1733.16 1625.52 1732.73V1729.06H1672.61V1732.73C1666.99 1733.16 1662.82 1734.03 1660.08 1735.32C1657.34 1736.48 1655.4 1738.49 1654.25 1741.37C1653.1 1744.25 1652.52 1748.64 1652.52 1754.55V1880.26H1647.12L1551.65 1755.84H1550.78V1853.69C1550.78 1859.6 1551.36 1863.99 1552.51 1866.87C1553.66 1869.6 1555.54 1871.62 1558.13 1872.92C1560.86 1874.07 1565.11 1874.93 1570.87 1875.51V1879.18H1523.57V1875.51Z" fill="black"/>
<path d="M497.733 2117.86C496.149 2112.96 494.349 2109 492.333 2105.98C490.461 2102.81 487.869 2100.29 484.557 2098.42C481.245 2096.55 476.925 2095.25 471.597 2094.53V2091.94H537.909V2094.53C529.269 2095.25 523.077 2096.55 519.333 2098.42C515.733 2100.15 513.789 2102.38 513.501 2105.12C513.357 2107.85 514.005 2111.67 515.445 2116.56L545.685 2211.39H546.333L578.733 2119.16L569.445 2091.94H587.373L628.197 2210.96H628.629L658.869 2120.67C661.029 2114.33 662.037 2109.51 661.893 2106.2C661.749 2102.88 659.949 2100.29 656.493 2098.42C653.181 2096.55 647.493 2095.25 639.429 2094.53V2091.94H691.053V2094.53C685.149 2095.54 680.541 2097.05 677.229 2099.07C673.917 2101.08 671.325 2103.68 669.453 2106.84C667.581 2110.01 665.709 2114.55 663.837 2120.45L622.365 2244.22H621.933L581.541 2127.15H580.893L539.421 2244.22H538.773L497.733 2117.86ZM719.403 2239.47C726.315 2238.46 731.427 2236.59 734.739 2233.85C738.195 2231.12 741.147 2226.87 743.595 2221.11C743.883 2220.53 744.099 2220.03 744.243 2219.6C744.531 2219.02 744.747 2218.44 744.891 2217.87L794.571 2089.78H795.219L848.571 2216.36C848.859 2216.93 849.075 2217.58 849.219 2218.3C849.507 2218.88 849.795 2219.45 850.083 2220.03C852.243 2224.64 854.187 2228.16 855.915 2230.61C857.787 2233.06 860.019 2235 862.611 2236.44C865.347 2237.74 868.947 2238.75 873.411 2239.47V2242.06H808.179V2239.47C816.243 2238.89 822.147 2237.81 825.891 2236.23C829.779 2234.5 832.011 2232.2 832.587 2229.32C833.163 2226.44 832.515 2222.76 830.643 2218.3L788.955 2117.86H788.307L749.643 2218.3C747.915 2222.91 747.339 2226.58 747.915 2229.32C748.491 2232.05 750.723 2234.21 754.611 2235.8C758.499 2237.38 764.691 2238.6 773.187 2239.47V2242.06H719.403V2239.47ZM759.579 2189.14V2184.82H823.083V2189.14H759.579ZM929.98 2239.47C937.18 2239.04 942.58 2238.24 946.18 2237.09C949.78 2235.8 952.3 2233.64 953.74 2230.61C955.324 2227.59 956.116 2223.05 956.116 2217V2117C956.116 2110.95 955.324 2106.41 953.74 2103.39C952.3 2100.36 949.78 2098.28 946.18 2097.12C942.58 2095.83 937.18 2094.96 929.98 2094.53V2091.94H999.1V2094.53C991.9 2094.96 986.5 2095.83 982.9 2097.12C979.444 2098.28 976.924 2100.36 975.34 2103.39C973.9 2106.41 973.18 2110.95 973.18 2117V2238.39H996.724C1007.52 2238.39 1016.16 2236.88 1022.64 2233.85C1029.12 2230.68 1034.24 2225 1037.98 2216.79C1041.87 2208.44 1044.46 2196.27 1045.76 2180.28H1048.35V2242.06H929.98V2239.47ZM1139.79 2117.86C1139.79 2111.52 1139.07 2106.84 1137.63 2103.82C1136.19 2100.8 1133.67 2098.64 1130.07 2097.34C1126.62 2096.04 1121.14 2095.11 1113.66 2094.53V2091.94H1180.62C1197.61 2091.94 1212.58 2095.04 1225.54 2101.23C1238.5 2107.28 1248.51 2115.99 1255.57 2127.36C1262.77 2138.74 1266.37 2151.99 1266.37 2167.11C1266.37 2182.37 1262.77 2195.69 1255.57 2207.07C1248.51 2218.3 1238.5 2226.94 1225.54 2232.99C1212.58 2239.04 1197.61 2242.06 1180.62 2242.06H1113.66V2239.47C1121 2239.04 1126.47 2238.17 1130.07 2236.88C1133.67 2235.58 1136.19 2233.42 1137.63 2230.4C1139.07 2227.23 1139.79 2222.48 1139.79 2216.14V2117.86ZM1176.51 2238.39C1190.77 2238.39 1203.08 2235.58 1213.45 2229.96C1223.82 2224.35 1231.81 2216.21 1237.42 2205.56C1243.04 2194.9 1245.85 2182.08 1245.85 2167.11C1245.85 2152.28 1243.04 2139.53 1237.42 2128.88C1231.81 2118.08 1223.82 2109.87 1213.45 2104.25C1203.08 2098.49 1190.77 2095.61 1176.51 2095.61H1156.86V2238.39H1176.51ZM1460.68 2188.28V2242.06H1331.29V2239.47C1338.49 2239.04 1343.82 2238.24 1347.28 2237.09C1350.73 2235.94 1353.25 2233.92 1354.84 2231.04C1356.42 2228.16 1357.28 2223.84 1357.43 2218.08V2216.79V2117.21C1357.43 2111.02 1356.64 2106.41 1355.05 2103.39C1353.61 2100.36 1351.09 2098.28 1347.49 2097.12C1344.04 2095.83 1338.64 2094.96 1331.29 2094.53V2091.94H1453.55V2134.92H1451.17C1450.16 2125.56 1448.29 2118.08 1445.56 2112.46C1442.96 2106.7 1439 2102.45 1433.68 2099.72C1428.49 2096.98 1421.44 2095.61 1412.51 2095.61H1374.49V2163.87H1398.25C1405.02 2163.87 1410.49 2162.86 1414.67 2160.84C1418.84 2158.83 1421.94 2155.73 1423.96 2151.56C1425.97 2147.38 1427.34 2141.84 1428.06 2134.92H1430.65V2196.7H1428.06C1427.34 2189.79 1425.9 2184.24 1423.74 2180.07C1421.72 2175.89 1418.63 2172.8 1414.45 2170.78C1410.42 2168.76 1405.02 2167.76 1398.25 2167.76H1374.49V2238.39H1413.16C1422.8 2238.39 1430.65 2236.88 1436.7 2233.85C1442.89 2230.68 1447.72 2225.5 1451.17 2218.3C1454.63 2211.1 1457 2201.09 1458.3 2188.28H1460.68ZM1526.35 2239.47C1533.69 2238.89 1539.09 2238.03 1542.55 2236.88C1546 2235.58 1548.45 2233.49 1549.89 2230.61C1551.48 2227.59 1552.27 2222.91 1552.27 2216.57V2115.92L1532.83 2092.59V2091.94H1557.45L1651.85 2208.8H1652.28V2117.43C1652.28 2111.24 1651.56 2106.63 1650.12 2103.6C1648.68 2100.58 1646.16 2098.49 1642.56 2097.34C1639.1 2096.04 1633.7 2095.11 1626.36 2094.53V2091.94H1682.95V2094.53C1675.61 2095.11 1670.13 2096.04 1666.53 2097.34C1662.93 2098.49 1660.41 2100.58 1658.97 2103.6C1657.53 2106.63 1656.81 2111.24 1656.81 2117.43V2244.22H1656.38L1557.45 2121.53H1556.8V2216.57C1556.8 2222.91 1557.52 2227.59 1558.96 2230.61C1560.55 2233.49 1563.07 2235.58 1566.52 2236.88C1569.98 2238.03 1575.38 2238.89 1582.72 2239.47V2242.06H1526.35V2239.47Z" fill="black"/>
<path d="M1978.91 1037C1977.61 1031.96 1976.25 1027.56 1974.81 1023.82C1973.51 1020.08 1972.07 1016.62 1970.49 1013.45C1968.9 1010.28 1967.03 1007.19 1964.87 1004.16V1003.3H2000.08V1004.16C1998.64 1007.33 1997.77 1010.5 1997.49 1013.67C1997.2 1016.69 1997.34 1020 1997.92 1023.6C1998.49 1027.06 1999.43 1031.31 2000.73 1036.35L2024.27 1124.26H2025.13L2057.53 1014.96L2053.65 1003.3H2078.92L2112.18 1122.96H2113.26L2137.24 1035.92C2138.68 1030.73 2139.69 1026.34 2140.26 1022.74C2140.84 1019.14 2140.98 1015.83 2140.69 1012.8C2140.55 1009.78 2139.83 1006.9 2138.53 1004.16V1003.3H2167.91V1004.16C2165.75 1006.9 2163.81 1009.85 2162.08 1013.02C2160.35 1016.19 2158.84 1019.64 2157.54 1023.39C2156.25 1026.99 2154.88 1031.24 2153.44 1036.13L2120.17 1153.42H2100.52L2067.9 1035.48H2066.82L2031.18 1153.42H2010.88L1978.91 1037ZM2212.21 1152.56C2215.38 1149.53 2217.9 1146 2219.77 1141.97C2221.79 1137.94 2224.31 1132.18 2227.33 1124.69C2227.62 1123.97 2227.91 1123.25 2228.2 1122.53C2228.48 1121.67 2228.77 1120.88 2229.06 1120.16L2274.85 1003.3H2293.43L2340.08 1119.08C2340.52 1119.94 2340.88 1120.8 2341.16 1121.67C2341.45 1122.39 2341.74 1123.11 2342.03 1123.83C2343.61 1128 2345.2 1131.96 2346.78 1135.71C2348.36 1139.31 2349.95 1142.48 2351.53 1145.21C2353.26 1147.95 2355.06 1150.4 2356.93 1152.56V1153.42H2321.08V1152.56C2322.37 1150.25 2323.09 1147.44 2323.24 1144.13C2323.38 1140.82 2322.95 1137.15 2321.94 1133.12C2320.93 1129.08 2319.49 1124.69 2317.62 1119.94L2281.76 1029.65H2280.9L2245.91 1120.37C2244.04 1125.27 2242.6 1129.73 2241.59 1133.76C2240.72 1137.65 2240.36 1141.18 2240.51 1144.35C2240.8 1147.52 2241.66 1150.25 2243.1 1152.56V1153.42H2212.21V1152.56ZM2244.83 1108.49V1093.59H2316.97V1108.49H2244.83ZM2425.54 1152.56C2427.27 1150.25 2428.63 1147.66 2429.64 1144.78C2430.65 1141.76 2431.37 1138.37 2431.8 1134.63C2432.23 1130.74 2432.45 1126.28 2432.45 1121.24V1036.56C2432.45 1031.09 2432.23 1026.48 2431.8 1022.74C2431.37 1018.85 2430.65 1015.47 2429.64 1012.59C2428.63 1009.56 2427.27 1006.76 2425.54 1004.16V1003.3H2460.53V1004.16C2458.66 1006.76 2457.22 1009.56 2456.21 1012.59C2455.2 1015.47 2454.48 1018.78 2454.05 1022.52C2453.76 1026.27 2453.62 1030.95 2453.62 1036.56V1138.52H2491.85C2498.04 1138.52 2503.23 1138.08 2507.4 1137.22C2511.72 1136.36 2515.32 1134.84 2518.2 1132.68C2521.23 1130.38 2523.6 1127.14 2525.33 1122.96H2526.41V1153.42H2425.54V1152.56ZM2605.37 1036.78C2605.37 1031.02 2605.16 1026.27 2604.73 1022.52C2604.29 1018.64 2603.57 1015.25 2602.57 1012.37C2601.56 1009.49 2600.19 1006.76 2598.46 1004.16V1003.3H2653.33C2669.45 1003.3 2683.57 1006.47 2695.66 1012.8C2707.9 1019 2717.33 1027.78 2723.96 1039.16C2730.73 1050.53 2734.11 1063.56 2734.11 1078.25C2734.11 1093.08 2730.73 1106.19 2723.96 1117.56C2717.33 1128.94 2707.9 1137.8 2695.66 1144.13C2683.57 1150.32 2669.45 1153.42 2653.33 1153.42H2598.46V1152.56C2600.48 1150.11 2601.99 1147.37 2603 1144.35C2604.01 1141.18 2604.65 1137.72 2604.94 1133.98C2605.23 1130.09 2605.37 1125.12 2605.37 1119.08V1036.78ZM2648.57 1138.95C2661.1 1138.95 2672.05 1136.72 2681.41 1132.25C2690.77 1127.64 2697.97 1120.8 2703.01 1111.73C2708.19 1102.66 2710.78 1091.5 2710.78 1078.25C2710.78 1065 2708.19 1053.92 2703.01 1044.99C2697.97 1035.92 2690.77 1029.15 2681.41 1024.68C2672.05 1020.08 2661.1 1017.77 2648.57 1017.77H2626.54V1138.95H2648.57ZM2918.18 1125.34V1153.42H2810.4V1152.56C2812.13 1150.11 2813.49 1147.44 2814.5 1144.56C2815.51 1141.68 2816.23 1138.37 2816.66 1134.63C2817.09 1130.88 2817.31 1126.42 2817.31 1121.24V1119.94V1036.56C2817.31 1031.09 2817.09 1026.41 2816.66 1022.52C2816.37 1018.64 2815.73 1015.25 2814.72 1012.37C2813.71 1009.35 2812.27 1006.61 2810.4 1004.16V1003.3H2915.37V1028.57H2914.29C2912.28 1025.98 2909.9 1023.96 2907.17 1022.52C2904.43 1020.94 2900.97 1019.86 2896.8 1019.28C2892.77 1018.56 2887.58 1018.2 2881.25 1018.2H2838.48V1070.04H2871.31C2876.93 1070.04 2881.61 1069.76 2885.35 1069.18C2889.24 1068.6 2892.41 1067.74 2894.85 1066.59C2897.45 1065.44 2899.61 1063.92 2901.33 1062.05H2902.41V1092.72H2901.33C2899.61 1090.71 2897.45 1089.12 2894.85 1087.97C2892.41 1086.82 2889.31 1086.03 2885.57 1085.6C2881.82 1085.02 2877.07 1084.73 2871.31 1084.73H2838.48V1138.52H2884.27C2890.17 1138.52 2895.14 1138.16 2899.17 1137.44C2903.35 1136.57 2906.88 1135.2 2909.76 1133.33C2912.78 1131.32 2915.23 1128.65 2917.1 1125.34H2918.18ZM2995.13 1152.56C2996.86 1150.11 2998.22 1147.37 2999.23 1144.35C3000.24 1141.32 3000.89 1137.94 3001.18 1134.2C3001.61 1130.31 3001.82 1125.56 3001.82 1119.94V1011.72L2996.86 1003.73V1003.3H3028.18L3103.99 1123.18H3105.07V1036.56C3105.07 1030.95 3104.86 1026.27 3104.42 1022.52C3104.14 1018.64 3103.49 1015.25 3102.48 1012.37C3101.47 1009.35 3100.03 1006.61 3098.16 1004.16V1003.3H3128.4V1004.16C3126.67 1006.61 3125.3 1009.35 3124.3 1012.37C3123.29 1015.25 3122.57 1018.64 3122.14 1022.52C3121.7 1026.41 3121.49 1031.09 3121.49 1036.56V1153.42H3099.02L3019.54 1028.36H3018.46V1119.94C3018.46 1125.41 3018.67 1130.09 3019.1 1133.98C3019.54 1137.87 3020.26 1141.32 3021.26 1144.35C3022.27 1147.37 3023.64 1150.11 3025.37 1152.56V1153.42H2995.13V1152.56Z" fill="black"/>
<path d="M1986.53 685.996C1985.23 680.956 1983.94 675.916 1982.64 670.876C1981.35 665.836 1980.05 660.796 1978.75 655.756C1977.46 650.572 1976.16 645.46 1974.87 640.42H1996.68C1997.98 645.46 1999.2 650.5 2000.35 655.54C2001.65 660.58 2002.87 665.548 2004.03 670.444C2005.18 675.34 2006.4 680.236 2007.7 685.132L2027.79 766.348H2028.43L2060.19 640.42H2086.75L2117.43 766.348H2118.07L2139.67 682.972C2140.68 678.364 2141.83 673.756 2143.13 669.148C2144.43 664.396 2145.65 659.644 2146.8 654.892C2148.1 649.996 2149.39 645.172 2150.69 640.42H2171.21C2169.91 645.316 2168.62 650.212 2167.32 655.108C2166.03 659.86 2164.73 664.684 2163.43 669.58C2162.14 674.332 2160.84 679.084 2159.55 683.836L2130.6 790.54H2104.47L2073.36 662.884H2072.71L2040.1 790.54H2013.53L1986.53 685.996ZM2221.99 790.54C2224.44 784.06 2227.03 777.292 2229.77 770.236C2232.51 763.18 2235.24 755.98 2237.98 748.636C2238.27 747.916 2238.48 747.268 2238.63 746.692C2238.91 745.972 2239.2 745.252 2239.49 744.532L2279.45 640.42H2304.29L2344.25 743.884C2344.54 744.604 2344.75 745.252 2344.9 745.828C2345.19 746.404 2345.47 747.052 2345.76 747.772C2347.63 752.668 2349.51 757.636 2351.38 762.676C2353.39 767.572 2355.27 772.396 2356.99 777.148C2358.87 781.756 2360.67 786.22 2362.39 790.54H2339.71C2337.99 785.932 2336.11 781.108 2334.1 776.068C2332.23 770.884 2330.28 765.628 2328.27 760.3C2326.39 754.972 2324.45 749.644 2322.43 744.316L2291.55 663.1H2290.68L2260.01 744.748C2258.14 749.932 2256.19 755.188 2254.18 760.516C2252.31 765.844 2250.43 771.028 2248.56 776.068C2246.69 781.108 2244.89 785.932 2243.16 790.54H2221.99ZM2252.45 747.772V729.412H2328.05V747.772H2252.45ZM2435.61 790.54C2435.61 785.932 2435.61 781.108 2435.61 776.068C2435.61 770.884 2435.61 765.628 2435.61 760.3C2435.61 754.828 2435.61 749.428 2435.61 744.1V686.86C2435.61 681.532 2435.61 676.204 2435.61 670.876C2435.61 665.404 2435.61 660.148 2435.61 655.108C2435.61 649.924 2435.61 645.028 2435.61 640.42H2456.34C2456.34 645.028 2456.34 649.924 2456.34 655.108C2456.34 660.148 2456.34 665.404 2456.34 670.876C2456.34 676.204 2456.34 681.532 2456.34 686.86V772.18H2492.85C2498.03 772.18 2502.93 772.18 2507.53 772.18C2512.14 772.18 2516.25 772.18 2519.85 772.18C2523.45 772.18 2526.69 772.18 2529.57 772.18V790.54H2435.61ZM2604.1 686.86C2604.1 681.532 2604.1 676.204 2604.1 670.876C2604.1 665.404 2604.1 660.148 2604.1 655.108C2604.1 649.924 2604.1 645.028 2604.1 640.42H2653.13C2668.82 640.42 2682.65 643.588 2694.6 649.924C2706.7 656.26 2715.98 665.116 2722.46 676.492C2729.09 687.868 2732.4 700.972 2732.4 715.804C2732.4 730.636 2729.09 743.74 2722.46 755.116C2715.98 766.348 2706.7 775.06 2694.6 781.252C2682.65 787.444 2668.82 790.54 2653.13 790.54H2604.1C2604.1 785.932 2604.1 781.108 2604.1 776.068C2604.1 770.884 2604.1 765.628 2604.1 760.3C2604.1 754.828 2604.1 749.428 2604.1 744.1V686.86ZM2648.59 772.828C2660.69 772.828 2671.34 770.812 2680.56 766.78C2689.92 762.748 2697.26 756.484 2702.59 747.988C2707.92 739.492 2710.58 728.764 2710.58 715.804C2710.58 702.844 2707.92 692.116 2702.59 683.62C2697.26 674.98 2689.92 668.572 2680.56 664.396C2671.34 660.22 2660.69 658.132 2648.59 658.132H2624.83V772.828H2648.59ZM2913.08 772.18V790.54H2813.72C2813.72 786.076 2813.72 781.396 2813.72 776.5C2813.72 771.46 2813.72 766.348 2813.72 761.164C2813.72 755.836 2813.72 750.58 2813.72 745.396V744.1V686.86C2813.72 681.532 2813.72 676.204 2813.72 670.876C2813.72 665.404 2813.72 660.148 2813.72 655.108C2813.72 649.924 2813.72 645.028 2813.72 640.42H2911.56V658.78C2908.25 658.78 2904.72 658.78 2900.98 658.78C2897.38 658.78 2893.42 658.78 2889.1 658.78C2884.78 658.78 2880.03 658.78 2874.84 658.78H2834.45V705.436H2865.56C2870.74 705.436 2875.49 705.436 2879.81 705.436C2884.13 705.436 2888.09 705.436 2891.69 705.436C2895.44 705.436 2898.96 705.436 2902.28 705.436V723.796C2898.96 723.796 2895.44 723.796 2891.69 723.796C2888.09 723.796 2884.13 723.796 2879.81 723.796C2875.49 723.796 2870.74 723.796 2865.56 723.796H2834.45V772.18H2876.36C2881.54 772.18 2886.29 772.18 2890.61 772.18C2894.93 772.18 2898.89 772.18 2902.49 772.18C2906.24 772.18 2909.76 772.18 2913.08 772.18ZM2994.65 790.54C2994.65 785.932 2994.65 781.108 2994.65 776.068C2994.65 770.884 2994.65 765.628 2994.65 760.3C2994.65 754.828 2994.65 749.428 2994.65 744.1V643.444V640.42H3025.54L3096.82 766.348H3097.47V686.86C3097.47 681.532 3097.47 676.204 3097.47 670.876C3097.47 665.404 3097.47 660.148 3097.47 655.108C3097.47 649.924 3097.47 645.028 3097.47 640.42H3118.2C3118.2 645.028 3118.2 649.924 3118.2 655.108C3118.2 660.148 3118.2 665.404 3118.2 670.876C3118.2 676.204 3118.2 681.532 3118.2 686.86V790.54H3087.96L3016.03 663.532H3015.39V744.1C3015.39 749.428 3015.39 754.828 3015.39 760.3C3015.39 765.628 3015.39 770.884 3015.39 776.068C3015.39 781.108 3015.39 785.932 3015.39 790.54H2994.65Z" fill="black"/>
<path d="M3459.66 1037.86C3458.37 1032.96 3457 1028.5 3455.56 1024.47C3454.26 1020.44 3452.82 1016.84 3451.24 1013.67C3449.66 1010.5 3447.86 1007.4 3445.84 1004.38V1003.3H3486.23V1004.38C3484.65 1007.55 3483.64 1010.79 3483.21 1014.1C3482.78 1017.27 3482.78 1020.65 3483.21 1024.25C3483.78 1027.85 3484.79 1032.24 3486.23 1037.43L3507.62 1118.86H3508.7L3537.86 1015.83L3533.32 1003.3H3564.42L3595.53 1118H3596.61L3618.21 1036.56C3619.65 1031.24 3620.66 1026.77 3621.23 1023.17C3621.81 1019.57 3621.88 1016.26 3621.45 1013.24C3621.16 1010.07 3620.3 1007.12 3618.86 1004.38V1003.3H3651.47V1004.38C3649.31 1007.26 3647.44 1010.28 3645.86 1013.45C3644.27 1016.48 3642.83 1019.93 3641.54 1023.82C3640.24 1027.71 3638.87 1032.1 3637.43 1037L3604.82 1153.42H3580.84L3550.17 1039.59H3549.09L3516.26 1153.42H3491.85L3459.66 1037.86ZM3693.6 1152.34C3696.77 1149.32 3699.29 1145.86 3701.16 1141.97C3703.18 1138.08 3705.63 1132.4 3708.51 1124.91C3708.8 1124.19 3709.08 1123.47 3709.37 1122.75C3709.66 1122.03 3709.95 1121.31 3710.24 1120.59L3756.03 1003.3H3778.06L3824.93 1119.51C3825.22 1120.08 3825.44 1120.66 3825.58 1121.24C3825.87 1121.81 3826.08 1122.39 3826.23 1122.96C3827.96 1127.14 3829.61 1131.17 3831.2 1135.06C3832.92 1138.8 3834.58 1142.04 3836.16 1144.78C3837.89 1147.52 3839.84 1150.04 3842 1152.34V1153.42H3800.96V1152.34C3802.4 1149.89 3803.12 1147.08 3803.12 1143.92C3803.26 1140.6 3802.83 1137.08 3801.82 1133.33C3800.96 1129.44 3799.59 1125.05 3797.72 1120.16L3764.24 1034.4H3763.16L3730.32 1120.16C3728.45 1125.05 3727.08 1129.44 3726.22 1133.33C3725.36 1137.22 3725.07 1140.75 3725.36 1143.92C3725.79 1147.08 3726.8 1149.89 3728.38 1152.34V1153.42H3693.6V1152.34ZM3727.73 1110.87V1093.59H3797.93V1110.87H3727.73ZM3908.61 1152.34C3910.2 1150.32 3911.49 1147.88 3912.5 1145C3913.51 1141.97 3914.23 1138.52 3914.66 1134.63C3915.09 1130.6 3915.31 1126.06 3915.31 1121.02V1036.56C3915.31 1031.24 3915.09 1026.77 3914.66 1023.17C3914.37 1019.43 3913.72 1016.04 3912.72 1013.02C3911.85 1010 3910.48 1007.12 3908.61 1004.38V1003.3H3947.71V1004.38C3945.84 1007.12 3944.4 1010 3943.39 1013.02C3942.52 1016.04 3941.95 1019.36 3941.66 1022.96C3941.37 1026.56 3941.23 1031.09 3941.23 1036.56V1136.14H3976.87C3982.92 1136.14 3988.03 1135.71 3992.2 1134.84C3996.38 1133.98 3999.91 1132.47 4002.79 1130.31C4005.81 1128 4008.33 1124.84 4010.35 1120.8H4011.64V1153.42H3908.61V1152.34ZM4088.65 1035.92C4088.65 1030.59 4088.43 1026.12 4088 1022.52C4087.71 1018.78 4087.06 1015.47 4086.06 1012.59C4085.19 1009.56 4083.9 1006.83 4082.17 1004.38V1003.3H4138.54C4154.96 1003.3 4169.36 1006.4 4181.74 1012.59C4194.13 1018.78 4203.7 1027.56 4210.47 1038.94C4217.24 1050.32 4220.62 1063.42 4220.62 1078.25C4220.62 1093.23 4217.24 1106.4 4210.47 1117.78C4203.7 1129.16 4194.13 1137.94 4181.74 1144.13C4169.36 1150.32 4154.96 1153.42 4138.54 1153.42H4082.17V1152.34C4084.04 1149.89 4085.41 1147.16 4086.27 1144.13C4087.28 1141.11 4087.93 1137.72 4088.22 1133.98C4088.5 1130.24 4088.65 1125.41 4088.65 1119.51V1035.92ZM4132.93 1136.57C4145.02 1136.57 4155.46 1134.56 4164.25 1130.52C4173.18 1126.35 4180.09 1119.94 4184.98 1111.3C4189.88 1102.52 4192.33 1091.5 4192.33 1078.25C4192.33 1065 4189.88 1054.06 4184.98 1045.42C4180.09 1036.64 4173.18 1030.23 4164.25 1026.2C4155.46 1022.16 4145.02 1020.15 4132.93 1020.15H4114.57V1136.57H4132.93ZM4405.54 1122.96V1153.42H4295.16V1152.34C4296.89 1149.89 4298.18 1147.23 4299.05 1144.35C4300.06 1141.47 4300.78 1138.23 4301.21 1134.63C4301.64 1130.88 4301.86 1126.42 4301.86 1121.24V1119.94V1035.92C4301.86 1030.59 4301.64 1026.05 4301.21 1022.31C4300.78 1018.56 4300.06 1015.25 4299.05 1012.37C4298.18 1009.49 4296.89 1006.83 4295.16 1004.38V1003.3H4402.3V1030.95H4401.22C4399.2 1028.36 4396.82 1026.34 4394.09 1024.9C4391.35 1023.32 4387.9 1022.24 4383.72 1021.66C4379.54 1020.94 4374.29 1020.58 4367.95 1020.58H4327.78V1068.96H4358.66C4364.28 1068.96 4368.96 1068.68 4372.7 1068.1C4376.45 1067.52 4379.47 1066.73 4381.78 1065.72C4384.22 1064.57 4386.38 1063.06 4388.26 1061.19H4389.55V1094.24H4388.26C4386.53 1092.22 4384.44 1090.71 4381.99 1089.7C4379.54 1088.55 4376.45 1087.68 4372.7 1087.11C4368.96 1086.53 4364.28 1086.24 4358.66 1086.24H4327.78V1136.14H4371.19C4377.1 1136.14 4382.06 1135.78 4386.1 1135.06C4390.27 1134.34 4393.8 1133.04 4396.68 1131.17C4399.7 1129.16 4402.22 1126.42 4404.24 1122.96H4405.54ZM4480.52 1152.34C4482.4 1150.04 4483.76 1147.37 4484.63 1144.35C4485.64 1141.18 4486.28 1137.65 4486.57 1133.76C4487 1129.88 4487.22 1125.27 4487.22 1119.94V1012.16L4481.82 1003.95V1003.3H4520.05L4588.74 1117.13H4590.04V1036.35C4590.04 1031.02 4589.82 1026.48 4589.39 1022.74C4589.1 1018.85 4588.45 1015.4 4587.44 1012.37C4586.44 1009.35 4585.07 1006.68 4583.34 1004.38V1003.3H4616.39V1004.38C4614.66 1006.68 4613.29 1009.35 4612.28 1012.37C4611.28 1015.4 4610.56 1018.85 4610.12 1022.74C4609.84 1026.48 4609.69 1031.02 4609.69 1036.35V1153.42H4582.04L4508.17 1032.03H4506.88V1119.94C4506.88 1125.27 4507.02 1129.88 4507.31 1133.76C4507.74 1137.65 4508.46 1141.18 4509.47 1144.35C4510.48 1147.37 4511.84 1150.04 4513.57 1152.34V1153.42H4480.52V1152.34Z" fill="black"/>
<path d="M3464.99 685.78C3463.7 680.74 3462.4 675.7 3461.1 670.66C3459.81 665.62 3458.51 660.58 3457.22 655.54C3455.92 650.5 3454.62 645.46 3453.33 640.42H3479.46C3480.62 645.748 3481.77 650.932 3482.92 655.972C3484.22 660.868 3485.44 665.764 3486.59 670.66C3487.74 675.556 3488.9 680.524 3490.05 685.564L3508.41 762.676H3509.06L3537.57 640.42H3569.75L3597.83 763.756H3598.48L3617.49 684.052C3618.64 679.3 3619.79 674.548 3620.94 669.796C3622.1 664.9 3623.25 660.076 3624.4 655.324C3625.55 650.428 3626.7 645.46 3627.86 640.42H3652.26C3650.97 645.46 3649.67 650.428 3648.38 655.324C3647.08 660.22 3645.78 665.116 3644.49 670.012C3643.34 674.908 3642.11 679.804 3640.82 684.7L3613.38 790.54H3581.63L3553.34 666.34H3552.69L3523.74 790.54H3491.34L3464.99 685.78ZM3701.09 790.54C3703.54 784.06 3706.13 777.292 3708.86 770.236C3711.6 763.036 3714.41 755.764 3717.29 748.42C3717.58 747.7 3717.79 747.052 3717.94 746.476C3718.22 745.756 3718.51 745.036 3718.8 744.316L3758.11 640.42H3787.49L3827.45 744.1C3827.74 744.82 3827.95 745.468 3828.1 746.044C3828.38 746.62 3828.67 747.268 3828.96 747.988C3830.83 752.884 3832.7 757.852 3834.58 762.892C3836.59 767.788 3838.46 772.612 3840.19 777.364C3842.06 781.972 3843.79 786.364 3845.38 790.54H3818.59C3817.01 785.932 3815.28 781.108 3813.41 776.068C3811.54 770.884 3809.59 765.628 3807.58 760.3C3805.56 754.828 3803.54 749.428 3801.53 744.1L3772.58 666.124H3771.94L3743.21 744.748C3741.19 749.932 3739.25 755.188 3737.38 760.516C3735.5 765.844 3733.63 771.028 3731.76 776.068C3729.89 781.108 3728.16 785.932 3726.58 790.54H3701.09ZM3733.7 750.148V728.98H3807.14V750.148H3733.7ZM3916.6 790.54C3916.6 785.932 3916.6 781.108 3916.6 776.068C3916.6 770.884 3916.6 765.628 3916.6 760.3C3916.6 754.828 3916.6 749.428 3916.6 744.1V686.86C3916.6 681.532 3916.6 676.204 3916.6 670.876C3916.6 665.404 3916.6 660.148 3916.6 655.108C3916.6 649.924 3916.6 645.028 3916.6 640.42H3941.44C3941.44 645.028 3941.44 649.924 3941.44 655.108C3941.44 660.292 3941.44 665.548 3941.44 670.876C3941.44 676.204 3941.44 681.532 3941.44 686.86V769.372H3975.78C3980.97 769.372 3985.86 769.372 3990.47 769.372C3995.08 769.372 3999.18 769.372 4002.78 769.372C4006.38 769.372 4009.62 769.372 4012.5 769.372V790.54H3916.6ZM4085.72 686.86C4085.72 681.532 4085.72 676.204 4085.72 670.876C4085.72 665.404 4085.72 660.148 4085.72 655.108C4085.72 649.924 4085.72 645.028 4085.72 640.42H4136.05C4152.18 640.42 4166.29 643.588 4178.38 649.924C4190.48 656.116 4199.77 664.9 4206.25 676.276C4212.87 687.652 4216.18 700.756 4216.18 715.588C4216.18 730.708 4212.87 743.956 4206.25 755.332C4199.77 766.564 4190.48 775.276 4178.38 781.468C4166.29 787.516 4152.18 790.54 4136.05 790.54H4085.72C4085.72 785.932 4085.72 781.108 4085.72 776.068C4085.72 770.884 4085.72 765.628 4085.72 760.3C4085.72 754.828 4085.72 749.428 4085.72 744.1V686.86ZM4130.86 770.02C4142.53 770.02 4152.75 768.22 4161.54 764.62C4170.32 761.02 4177.23 755.188 4182.27 747.124C4187.31 739.06 4189.83 728.548 4189.83 715.588C4189.83 702.772 4187.31 692.332 4182.27 684.268C4177.23 676.06 4170.32 670.156 4161.54 666.556C4152.75 662.812 4142.53 660.94 4130.86 660.94H4110.56V770.02H4130.86ZM4397.93 769.372V790.54H4295.76C4295.76 786.076 4295.76 781.396 4295.76 776.5C4295.76 771.46 4295.76 766.348 4295.76 761.164C4295.76 755.836 4295.76 750.58 4295.76 745.396V744.1V686.86C4295.76 681.532 4295.76 676.204 4295.76 670.876C4295.76 665.404 4295.76 660.148 4295.76 655.108C4295.76 649.924 4295.76 645.028 4295.76 640.42H4395.99V661.588C4392.67 661.588 4389.15 661.588 4385.4 661.588C4381.8 661.588 4377.84 661.588 4373.52 661.588C4369.2 661.588 4364.45 661.588 4359.27 661.588H4320.6V704.356H4349.76C4354.95 704.356 4359.7 704.356 4364.02 704.356C4368.34 704.356 4372.3 704.356 4375.9 704.356C4379.64 704.356 4383.17 704.356 4386.48 704.356V725.524C4383.31 725.524 4379.86 725.524 4376.11 725.524C4372.51 725.524 4368.48 725.524 4364.02 725.524C4359.7 725.524 4354.95 725.524 4349.76 725.524H4320.6V769.372H4361.21C4366.39 769.372 4371.15 769.372 4375.47 769.372C4379.79 769.372 4383.75 769.372 4387.35 769.372C4391.09 769.372 4394.62 769.372 4397.93 769.372ZM4477.75 790.54C4477.75 785.932 4477.75 781.108 4477.75 776.068C4477.75 770.884 4477.75 765.628 4477.75 760.3C4477.75 754.828 4477.75 749.428 4477.75 744.1V643.012V640.42H4515.12L4579.7 762.892H4580.57V686.86C4580.57 681.532 4580.57 676.204 4580.57 670.876C4580.57 665.404 4580.57 660.148 4580.57 655.108C4580.57 649.924 4580.57 645.028 4580.57 640.42H4605.19C4605.19 645.028 4605.19 649.924 4605.19 655.108C4605.19 660.148 4605.19 665.404 4605.19 670.876C4605.19 676.204 4605.19 681.532 4605.19 686.86V790.54H4568.04L4503.02 667.204H4502.38V744.1C4502.38 749.428 4502.38 754.828 4502.38 760.3C4502.38 765.628 4502.38 770.884 4502.38 776.068C4502.38 781.108 4502.38 785.932 4502.38 790.54H4477.75Z" fill="black"/>
<path d="M508.573 1035.48C507.277 1030.59 505.981 1026.41 504.685 1022.96C503.389 1019.36 501.949 1016.04 500.365 1013.02C498.781 1009.85 496.909 1006.83 494.749 1003.95V1003.3H523.909V1003.95C522.469 1006.68 521.533 1009.64 521.101 1012.8C520.813 1015.83 520.957 1019.07 521.533 1022.52C522.109 1025.84 523.117 1029.94 524.557 1034.84L551.341 1130.96H551.989L588.061 1014.32L584.389 1003.3H602.533L639.037 1129.88H639.901L667.117 1035.05C668.557 1030.01 669.565 1025.76 670.141 1022.31C670.717 1018.71 670.861 1015.4 670.573 1012.37C670.429 1009.35 669.709 1006.54 668.413 1003.95V1003.3H693.685V1003.95C691.381 1006.68 689.365 1009.56 687.637 1012.59C686.053 1015.61 684.613 1019 683.317 1022.74C682.021 1026.34 680.725 1030.52 679.429 1035.27L644.869 1153.42H630.829L595.405 1030.52H594.757L556.525 1153.42H542.053L508.573 1035.48ZM740.204 1152.77C743.372 1149.46 746.036 1145.72 748.196 1141.54C750.356 1137.36 752.876 1131.6 755.756 1124.26C756.044 1123.68 756.332 1123.04 756.62 1122.32C756.908 1121.6 757.124 1120.95 757.268 1120.37L803.276 1003.3H816.236L863.324 1119.51C863.756 1120.37 864.116 1121.16 864.404 1121.88C864.692 1122.6 864.98 1123.4 865.268 1124.26C866.996 1128.58 868.652 1132.54 870.236 1136.14C871.82 1139.6 873.404 1142.69 874.988 1145.43C876.572 1148.02 878.372 1150.47 880.388 1152.77V1153.42H851.012V1152.77C852.164 1150.32 852.74 1147.52 852.74 1144.35C852.884 1141.04 852.452 1137.44 851.444 1133.55C850.436 1129.66 848.924 1125.2 846.908 1120.16L808.46 1023.82H807.596L769.796 1120.59C767.924 1125.63 766.484 1130.09 765.476 1133.98C764.468 1137.72 764.036 1141.18 764.18 1144.35C764.324 1147.52 765.044 1150.32 766.34 1152.77V1153.42H740.204V1152.77ZM771.524 1106.33V1094.88H844.748V1106.33H771.524ZM951.641 1152.77C953.369 1150.47 954.737 1147.88 955.745 1145C956.753 1141.97 957.473 1138.59 957.905 1134.84C958.337 1131.1 958.553 1126.71 958.553 1121.67V1036.35C958.553 1030.73 958.337 1026.05 957.905 1022.31C957.473 1018.42 956.753 1015.04 955.745 1012.16C954.737 1009.13 953.369 1006.4 951.641 1003.95V1003.3H980.801V1003.95C978.929 1006.54 977.489 1009.28 976.481 1012.16C975.473 1015.04 974.753 1018.35 974.321 1022.09C974.033 1025.84 973.889 1030.59 973.889 1036.35V1142.19H1015.58C1021.77 1142.19 1026.95 1141.76 1031.13 1140.89C1035.31 1140.03 1038.76 1138.52 1041.5 1136.36C1044.38 1134.2 1046.75 1131.1 1048.63 1127.07H1049.71V1153.42H951.641V1152.77ZM1130.21 1037C1130.21 1031.09 1129.99 1026.2 1129.56 1022.31C1129.27 1018.42 1128.62 1015.04 1127.61 1012.16C1126.61 1009.28 1125.17 1006.54 1123.29 1003.95V1003.3H1174.7C1190.69 1003.3 1204.8 1006.4 1217.04 1012.59C1229.28 1018.78 1238.71 1027.56 1245.33 1038.94C1252.1 1050.32 1255.49 1063.42 1255.49 1078.25C1255.49 1093.37 1252.1 1106.62 1245.33 1118C1238.71 1129.23 1229.28 1137.94 1217.04 1144.13C1204.8 1150.32 1190.69 1153.42 1174.7 1153.42H1123.29V1152.77C1125.31 1150.32 1126.82 1147.66 1127.83 1144.78C1128.84 1141.76 1129.49 1138.37 1129.77 1134.63C1130.06 1130.74 1130.21 1125.77 1130.21 1119.72V1037ZM1171.03 1142.4C1184.57 1142.4 1196.37 1139.96 1206.45 1135.06C1216.68 1130.02 1224.53 1122.75 1230 1113.24C1235.47 1103.6 1238.21 1091.93 1238.21 1078.25C1238.21 1064.72 1235.47 1053.2 1230 1043.69C1224.53 1034.04 1216.68 1026.77 1206.45 1021.88C1196.37 1016.84 1184.57 1014.32 1171.03 1014.32H1145.76V1142.4H1171.03ZM1439.37 1129.23V1153.42H1334.39V1152.77C1336.12 1150.47 1337.49 1147.88 1338.5 1145C1339.5 1142.12 1340.15 1138.88 1340.44 1135.28C1340.87 1131.53 1341.09 1126.92 1341.09 1121.45V1120.16V1036.56C1341.09 1030.95 1340.87 1026.2 1340.44 1022.31C1340.15 1018.42 1339.5 1015.04 1338.5 1012.16C1337.49 1009.13 1336.12 1006.4 1334.39 1003.95V1003.3H1436.56V1024.47H1435.7C1433.68 1022.16 1431.3 1020.29 1428.57 1018.85C1425.98 1017.27 1422.66 1016.19 1418.63 1015.61C1414.6 1014.89 1409.49 1014.53 1403.3 1014.53H1356.64V1071.77H1393.58C1399.05 1071.77 1403.66 1071.48 1407.4 1070.91C1411.14 1070.33 1414.17 1069.54 1416.47 1068.53C1418.92 1067.38 1421.01 1065.94 1422.74 1064.21H1423.82V1090.56H1422.74C1421.01 1088.69 1418.92 1087.25 1416.47 1086.24C1414.17 1085.09 1411.14 1084.3 1407.4 1083.87C1403.8 1083.29 1399.19 1083 1393.58 1083H1356.64V1142.19H1406.75C1412.66 1142.19 1417.55 1141.83 1421.44 1141.11C1425.33 1140.24 1428.64 1138.88 1431.38 1137C1434.11 1135.13 1436.49 1132.54 1438.5 1129.23H1439.37ZM1518.27 1152.77C1520.15 1150.32 1521.59 1147.59 1522.59 1144.56C1523.6 1141.54 1524.25 1138.16 1524.54 1134.41C1524.97 1130.52 1525.19 1125.77 1525.19 1120.16V1011.08L1520.22 1003.73V1003.3H1542.68L1628.65 1130.31H1629.51V1036.35C1629.51 1030.73 1629.3 1026.05 1628.87 1022.31C1628.58 1018.42 1627.93 1015.04 1626.92 1012.16C1625.91 1009.13 1624.47 1006.4 1622.6 1003.95V1003.3H1648.95V1003.95C1647.23 1006.4 1645.86 1009.13 1644.85 1012.16C1643.84 1015.04 1643.12 1018.42 1642.69 1022.31C1642.26 1026.2 1642.04 1030.88 1642.04 1036.35V1153.42H1626.06L1538.58 1024.25H1537.5V1120.16C1537.5 1125.63 1537.71 1130.31 1538.15 1134.2C1538.58 1138.08 1539.3 1141.54 1540.31 1144.56C1541.31 1147.59 1542.68 1150.32 1544.41 1152.77V1153.42H1518.27V1152.77Z" fill="black"/>
<path d="M516.553 684.268C515.257 679.372 513.889 674.548 512.449 669.796C511.153 664.9 509.857 660.004 508.561 655.108C507.265 650.212 505.969 645.316 504.673 640.42H520.657C521.953 645.316 523.177 650.212 524.329 655.108C525.625 659.86 526.921 664.612 528.217 669.364C529.513 674.116 530.809 678.94 532.105 683.836L555.217 771.748H555.865L591.073 640.42H610.297L644.857 771.532H645.289L669.697 682.54C670.849 677.932 672.073 673.324 673.369 668.716C674.665 663.964 675.889 659.284 677.041 654.676C678.337 649.924 679.633 645.172 680.929 640.42H696.265C694.969 645.172 693.673 649.924 692.377 654.676C691.081 659.284 689.713 663.964 688.273 668.716C686.977 673.468 685.681 678.22 684.385 682.972L654.361 790.54H635.569L600.577 657.7H599.929L564.073 790.54H545.065L516.553 684.268ZM749.063 790.54C751.511 784.06 754.103 777.292 756.839 770.236C759.719 763.036 762.599 755.764 765.479 748.42C765.767 747.7 765.983 747.052 766.127 746.476C766.415 745.756 766.703 745.036 766.991 744.316L807.815 640.42H825.311L866.351 744.1C866.639 744.82 866.855 745.468 866.999 746.044C867.287 746.62 867.575 747.268 867.863 747.988C869.735 753.028 871.607 757.996 873.479 762.892C875.495 767.788 877.367 772.54 879.095 777.148C880.967 781.756 882.767 786.22 884.495 790.54H867.863C866.135 785.932 864.263 781.108 862.247 776.068C860.375 770.884 858.359 765.628 856.199 760.3C854.183 754.972 852.095 749.644 849.935 744.316L816.239 658.132H815.807L782.111 744.532C780.095 749.716 778.079 755.044 776.063 760.516C774.047 765.844 772.031 771.028 770.015 776.068C768.143 781.108 766.343 785.932 764.615 790.54H749.063ZM777.359 745.396V731.788H853.607V745.396H777.359ZM960.576 790.54C960.576 785.932 960.576 781.108 960.576 776.068C960.576 770.884 960.576 765.556 960.576 760.084C960.576 754.612 960.576 749.212 960.576 743.884V686.86C960.576 681.532 960.576 676.204 960.576 670.876C960.576 665.404 960.576 660.148 960.576 655.108C960.576 649.924 960.576 645.028 960.576 640.42H975.912C975.912 645.028 975.912 649.924 975.912 655.108C975.912 660.148 975.912 665.404 975.912 670.876C975.912 676.204 975.912 681.532 975.912 686.86V776.932H1015.01C1020.19 776.932 1025.02 776.932 1029.48 776.932C1033.94 776.932 1037.98 776.932 1041.58 776.932C1045.32 776.932 1048.7 776.932 1051.73 776.932V790.54H960.576ZM1128.22 686.86C1128.22 681.532 1128.22 676.204 1128.22 670.876C1128.22 665.404 1128.22 660.148 1128.22 655.108C1128.22 649.924 1128.22 645.028 1128.22 640.42H1173.8C1189.64 640.42 1203.53 643.588 1215.48 649.924C1227.58 656.116 1236.87 664.9 1243.35 676.276C1249.97 687.652 1253.28 700.828 1253.28 715.804C1253.28 730.636 1249.97 743.74 1243.35 755.116C1236.87 766.348 1227.58 775.06 1215.48 781.252C1203.53 787.444 1189.64 790.54 1173.8 790.54H1128.22C1128.22 785.932 1128.22 781.108 1128.22 776.068C1128.22 770.884 1128.22 765.628 1128.22 760.3C1128.22 754.828 1128.22 749.428 1128.22 744.1V686.86ZM1170.77 777.364C1183.88 777.364 1195.4 775.06 1205.33 770.452C1215.41 765.7 1223.26 758.716 1228.88 749.5C1234.49 740.284 1237.3 729.052 1237.3 715.804C1237.3 702.556 1234.49 691.324 1228.88 682.108C1223.26 672.748 1215.41 665.692 1205.33 660.94C1195.4 656.044 1183.88 653.596 1170.77 653.596H1143.56V777.364H1170.77ZM1433.98 776.932V790.54H1337.21C1337.21 786.076 1337.21 781.396 1337.21 776.5C1337.21 771.46 1337.21 766.348 1337.21 761.164C1337.21 755.836 1337.21 750.58 1337.21 745.396V744.1V686.86C1337.21 681.532 1337.21 676.204 1337.21 670.876C1337.21 665.404 1337.21 660.148 1337.21 655.108C1337.21 649.924 1337.21 645.028 1337.21 640.42H1432.47V654.028C1429.15 654.028 1425.63 654.028 1421.88 654.028C1418.28 654.028 1414.32 654.028 1410 654.028C1405.68 654.028 1400.93 654.028 1395.75 654.028H1352.55V707.812H1386.46C1391.64 707.812 1396.39 707.812 1400.71 707.812C1405.03 707.812 1408.99 707.812 1412.59 707.812C1416.34 707.812 1419.87 707.812 1423.18 707.812V721.42C1419.87 721.42 1416.34 721.42 1412.59 721.42C1408.99 721.42 1405.03 721.42 1400.71 721.42C1396.39 721.42 1391.64 721.42 1386.46 721.42H1352.55V776.932H1397.26C1402.44 776.932 1407.19 776.932 1411.51 776.932C1415.83 776.932 1419.79 776.932 1423.39 776.932C1427.14 776.932 1430.67 776.932 1433.98 776.932ZM1517.3 790.54C1517.3 785.932 1517.3 781.108 1517.3 776.068C1517.3 770.884 1517.3 765.628 1517.3 760.3C1517.3 754.828 1517.3 749.428 1517.3 744.1V642.796V640.42H1539.33L1621.84 771.748H1622.28V686.86C1622.28 681.532 1622.28 676.204 1622.28 670.876C1622.28 665.404 1622.28 660.148 1622.28 655.108C1622.28 649.924 1622.28 645.028 1622.28 640.42H1637.61C1637.61 645.028 1637.61 649.924 1637.61 655.108C1637.61 660.148 1637.61 665.404 1637.61 670.876C1637.61 676.204 1637.61 681.532 1637.61 686.86V790.54H1616.23L1533.28 658.348H1532.64V744.1C1532.64 749.428 1532.64 754.828 1532.64 760.3C1532.64 765.628 1532.64 770.884 1532.64 776.068C1532.64 781.108 1532.64 785.932 1532.64 790.54H1517.3Z" fill="black"/>
</svg>
