<svg width="2160" height="2700" viewBox="0 0 2160 2700" fill="none" xmlns="http://www.w3.org/2000/svg">
<rect width="2160" height="2700" fill="black"/>
<rect width="1440" height="810" transform="translate(360 538)" fill="white"/>
<path d="M501.504 683.92C501.504 698.032 490.848 710.416 471.264 713.008V727.84H457.008V713.008C440.016 711.136 428.208 701.056 425.328 684.784H440.448C443.472 694.72 451.68 700.192 463.488 700.192C478.176 700.192 486.096 693.856 486.096 683.92C486.096 659.872 428.496 677.152 428.496 637.84C428.496 623.008 439.296 612.208 457.008 610.192V595.36H471.264V610.336C486.672 612.64 496.608 621.856 499.344 635.824H484.224C481.776 628.336 475.008 623.008 463.632 623.008C450.672 623.008 443.76 629.2 443.76 637.84C443.76 663.184 501.504 646.336 501.504 683.92ZM544.644 712H529.524V637.12H509.94V623.728H524.052C527.652 623.728 529.812 621.568 529.812 617.968V611.2H544.644V712ZM569.49 726.832H558.834L564.594 697.312H578.13L569.49 726.832ZM629.449 713.44C604.969 713.44 587.689 696.16 587.689 661.6C587.689 628.624 603.817 609.76 629.449 609.76C653.785 609.76 671.065 627.04 671.065 661.6C671.065 694.576 655.081 713.44 629.449 713.44ZM629.449 700.048C645.145 700.048 655.945 686.08 655.945 661.6C655.945 635.248 643.849 623.152 629.449 623.152C613.609 623.152 602.809 637.12 602.809 661.6C602.809 687.952 614.905 700.048 629.449 700.048ZM724.899 713.44C700.419 713.44 683.139 696.16 683.139 661.6C683.139 628.624 699.267 609.76 724.899 609.76C749.235 609.76 766.515 627.04 766.515 661.6C766.515 694.576 750.531 713.44 724.899 713.44ZM724.899 700.048C740.595 700.048 751.395 686.08 751.395 661.6C751.395 635.248 739.299 623.152 724.899 623.152C709.059 623.152 698.259 637.12 698.259 661.6C698.259 687.952 710.355 700.048 724.899 700.048ZM820.35 713.44C795.87 713.44 778.59 696.16 778.59 661.6C778.59 628.624 794.718 609.76 820.35 609.76C844.686 609.76 861.966 627.04 861.966 661.6C861.966 694.576 845.982 713.44 820.35 713.44ZM820.35 700.048C836.046 700.048 846.846 686.08 846.846 661.6C846.846 635.248 834.75 623.152 820.35 623.152C804.51 623.152 793.71 637.12 793.71 661.6C793.71 687.952 805.806 700.048 820.35 700.048Z" fill="black"/>
<path d="M431.546 783.58V796.42H452.906V802H425.246V760H452.306V765.58H431.546V778.12H451.106V783.58H431.546ZM472.496 802H465.716L453.776 770.62H459.896L469.016 795.46H469.316L478.376 770.62H484.436L472.496 802ZM514.673 785.08C514.673 786.4 514.493 787.6 514.373 788.2H491.453C492.053 794.2 495.233 797.5 500.393 797.5C503.933 797.5 506.153 796.06 507.773 793.36H513.833C511.913 798.94 507.293 802.6 500.393 802.6C491.633 802.6 485.633 796.78 485.633 786.28C485.633 775.78 491.633 770.02 500.213 770.02C509.693 770.02 514.673 777.64 514.673 785.08ZM491.513 783.4H508.973C508.493 779.26 505.733 775.12 500.213 775.12C495.053 775.12 492.233 778.48 491.513 783.4ZM526.335 802H520.635V770.62H525.315L526.035 774.64H526.335C528.135 771.7 530.835 770.62 534.435 770.62H537.915V776.02H534.615C529.755 776.02 526.335 779.2 526.335 783.82V802ZM552.442 814H546.442L551.242 802L538.342 770.62H544.462L554.062 794.38H554.362L563.602 770.62H569.602L552.442 814ZM594.172 802H587.452L578.752 770.62H584.452L590.932 794.68H591.232L597.892 770.62H603.712L610.312 794.68H610.612L617.092 770.62H622.732L614.032 802H607.312L600.892 779.02H600.592L594.172 802ZM654.232 785.08C654.232 786.4 654.052 787.6 653.932 788.2H631.012C631.612 794.2 634.792 797.5 639.952 797.5C643.492 797.5 645.712 796.06 647.332 793.36H653.392C651.472 798.94 646.852 802.6 639.952 802.6C631.192 802.6 625.192 796.78 625.192 786.28C625.192 775.78 631.192 770.02 639.772 770.02C649.252 770.02 654.232 777.64 654.232 785.08ZM631.072 783.4H648.532C648.052 779.26 645.292 775.12 639.772 775.12C634.612 775.12 631.792 778.48 631.072 783.4ZM687.733 785.08C687.733 786.4 687.553 787.6 687.433 788.2H664.513C665.113 794.2 668.293 797.5 673.453 797.5C676.993 797.5 679.213 796.06 680.833 793.36H686.893C684.973 798.94 680.353 802.6 673.453 802.6C664.693 802.6 658.693 796.78 658.693 786.28C658.693 775.78 664.693 770.02 673.273 770.02C682.753 770.02 687.733 777.64 687.733 785.08ZM664.573 783.4H682.033C681.553 779.26 678.793 775.12 673.273 775.12C668.113 775.12 665.293 778.48 664.573 783.4ZM699.695 802H693.995V760H699.695V785.14L713.495 770.62H720.455L705.875 785.98L721.355 802H714.335L699.695 786.88V802Z" fill="#757575"/>
<path d="M428.854 1184H424.519V1148.3H430.639L448.489 1178.64H448.744V1148.3H453.079V1184H446.959L429.109 1153.65H428.854V1184ZM483.703 1169.46C483.703 1170.59 483.55 1171.56 483.448 1172.01H463.609C464.017 1177.88 467.23 1180.94 471.973 1180.94C475.033 1180.94 477.328 1179.66 478.858 1177.11H482.938C481.153 1181.96 477.073 1184.51 471.973 1184.51C464.833 1184.51 459.733 1179.66 459.733 1170.74C459.733 1161.81 464.833 1156.97 471.718 1156.97C479.878 1156.97 483.703 1163.85 483.703 1169.46ZM463.711 1168.44H479.827C479.47 1164.36 476.92 1160.54 471.718 1160.54C466.72 1160.54 464.272 1163.85 463.711 1168.44ZM489.564 1184H485.229L494.664 1170.23L485.739 1157.48H490.074L496.959 1167.42L503.844 1157.48H508.179L499.254 1170.23L508.689 1184H504.354L496.959 1173.03L489.564 1184ZM524.752 1184H520.672C516.847 1184 514.042 1181.19 514.042 1177.37V1161.05H509.962V1157.48H514.042L514.552 1150.34H517.867V1157.48H524.752V1161.05H517.867V1177.37C517.867 1179.15 519.142 1180.43 520.927 1180.43H524.752V1184Z" fill="#757575"/>
<path d="M474.298 1281H465.394L460.438 1267.48H434.146L429.19 1281H420.286L442.126 1222.2H452.458L474.298 1281ZM447.082 1232.03L436.918 1259.75H457.666L447.502 1232.03H447.082ZM487.272 1297.8H479.292V1237.07H485.844L486.852 1242.7H487.272C490.044 1238.83 494.748 1236.23 501.048 1236.23C512.052 1236.23 520.032 1244.21 520.032 1258.99C520.032 1273.86 512.052 1281.84 501.048 1281.84C494.58 1281.84 490.212 1279.07 487.692 1275.79H487.272V1297.8ZM499.704 1274.53C506.844 1274.53 512.052 1269.32 512.052 1258.99C512.052 1248.74 506.844 1243.54 499.704 1243.54C492.48 1243.54 487.272 1248.74 487.272 1258.99C487.272 1269.32 492.48 1274.53 499.704 1274.53ZM536.307 1281H528.327V1237.07H534.879L535.887 1242.7H536.307C538.827 1238.58 542.607 1237.07 547.647 1237.07H552.519V1244.63H547.899C541.095 1244.63 536.307 1249.08 536.307 1255.55V1281ZM588.658 1281H579.838V1237.32H568.414V1229.51H576.646C578.746 1229.51 580.006 1228.25 580.006 1226.15V1222.2H588.658V1281ZM619.28 1281.84C608.78 1281.84 600.38 1275.62 598.448 1264.79H607.268C608.696 1270.16 613.232 1274.03 619.112 1274.03C627.008 1274.03 631.544 1269.07 631.544 1261.68C631.544 1254.46 626.756 1249.16 619.112 1249.16C614.408 1249.16 610.628 1251.35 607.94 1254.96H599.54L602.648 1222.2H637.004V1229.93H610.04L608.528 1245.72H608.948C612.056 1242.86 616.256 1241.69 620.876 1241.69C632.216 1241.69 640.364 1250.26 640.364 1261.85C640.364 1273.44 632.468 1281.84 619.28 1281.84Z" fill="black"/>
<rect x="913.5" y="1193.5" width="105" height="105" rx="52.5" fill="#FBFBFA"/>
<rect x="913.5" y="1193.5" width="105" height="105" rx="52.5" stroke="#F0F0F0" stroke-width="3"/>
<circle cx="966" cy="1226.5" r="4.5" fill="#757575"/>
<circle cx="966" cy="1244.5" r="4.5" fill="#757575"/>
<circle cx="966" cy="1262.5" r="4.5" fill="#757575"/>
<path d="M1160.75 737.25H1156.93V705.75H1163L1172.45 731.625H1172.68L1182.13 705.75H1188.2V737.25H1184.38V710.475H1184.15L1174.25 737.25H1170.88L1160.98 710.475H1160.75V737.25Z" fill="#757575"/>
<path d="M1263.63 737.25H1259.8V709.125H1249.68V705.75H1273.75V709.125H1263.63V737.25Z" fill="#757575"/>
<path d="M1344.44 737.25H1338.82L1330.94 705.75H1334.99L1341.52 732.975H1341.74L1348.27 705.75H1353.44L1359.97 732.975H1360.19L1366.72 705.75H1370.77L1362.89 737.25H1357.27L1350.97 710.475H1350.74L1344.44 737.25Z" fill="#757575"/>
<path d="M1441.91 737.25H1438.09V709.125H1427.96V705.75H1452.04V709.125H1441.91V737.25Z" fill="#757575"/>
<path d="M1539.93 705.75V709.125H1523.96V720.15H1538.81V723.525H1523.96V737.25H1520.13V705.75H1539.93Z" fill="#757575"/>
<path d="M1618.29 737.7C1611.99 737.7 1607.94 734.325 1606.81 729.15H1610.64C1611.76 732.525 1614.46 734.325 1618.29 734.325C1623.46 734.325 1625.94 731.85 1625.94 728.7C1625.94 720.6 1607.71 726 1607.71 713.85C1607.71 709.125 1611.54 705.3 1618.29 705.3C1623.91 705.3 1627.96 708 1629.09 712.95H1625.26C1624.36 710.475 1622.11 708.675 1618.29 708.675C1613.79 708.675 1611.54 710.925 1611.54 713.85C1611.54 722.4 1629.76 717 1629.76 728.7C1629.76 733.425 1625.71 737.7 1618.29 737.7Z" fill="#757575"/>
<path d="M1707.43 737.7C1701.13 737.7 1697.08 734.325 1695.96 729.15H1699.78C1700.91 732.525 1703.61 734.325 1707.43 734.325C1712.61 734.325 1715.08 731.85 1715.08 728.7C1715.08 720.6 1696.86 726 1696.86 713.85C1696.86 709.125 1700.68 705.3 1707.43 705.3C1713.06 705.3 1717.11 708 1718.23 712.95H1714.41C1713.51 710.475 1711.26 708.675 1707.43 708.675C1702.93 708.675 1700.68 710.925 1700.68 713.85C1700.68 722.4 1718.91 717 1718.91 728.7C1718.91 733.425 1714.86 737.7 1707.43 737.7Z" fill="#757575"/>
<path opacity="0.5" d="M1157.04 826.95C1151.42 826.95 1147.01 823.8 1146.24 818.175H1150.07C1150.52 821.325 1153.44 823.575 1157.04 823.575C1161.54 823.575 1164.02 821.1 1164.02 817.95C1164.02 814.8 1161.54 812.325 1157.04 812.325H1154.79V809.175H1157.04C1161.32 809.175 1163.57 806.7 1163.57 803.55C1163.57 800.4 1161.32 797.925 1157.04 797.925C1153.67 797.925 1150.97 800.175 1150.52 803.325H1146.69C1147.59 797.7 1151.64 794.55 1157.04 794.55C1163.57 794.55 1167.39 798.375 1167.39 803.55C1167.39 806.925 1165.82 809.4 1162.67 810.525C1166.04 811.65 1167.84 814.575 1167.84 817.95C1167.84 822.9 1164.02 826.95 1157.04 826.95ZM1185.41 826.95C1177.98 826.95 1172.58 821.55 1172.58 810.75C1172.58 800.67 1177.44 794.55 1185.41 794.55C1192.83 794.55 1198.23 799.95 1198.23 810.75C1198.23 820.83 1193.42 826.95 1185.41 826.95ZM1185.41 823.575C1190.94 823.575 1194.41 818.67 1194.41 810.75C1194.41 801.975 1190.36 797.925 1185.41 797.925C1179.87 797.925 1176.41 802.83 1176.41 810.75C1176.41 819.525 1180.46 823.575 1185.41 823.575Z" fill="black"/>
<path opacity="0.5" d="M1253.72 826.95C1248.1 826.95 1243.69 823.8 1242.92 818.175H1246.75C1247.2 821.325 1250.12 823.575 1253.72 823.575C1258.22 823.575 1260.7 821.1 1260.7 817.95C1260.7 814.8 1258.22 812.325 1253.72 812.325H1251.47V809.175H1253.72C1258 809.175 1260.25 806.7 1260.25 803.55C1260.25 800.4 1258 797.925 1253.72 797.925C1250.35 797.925 1247.65 800.175 1247.2 803.325H1243.37C1244.27 797.7 1248.32 794.55 1253.72 794.55C1260.25 794.55 1264.07 798.375 1264.07 803.55C1264.07 806.925 1262.5 809.4 1259.35 810.525C1262.72 811.65 1264.52 814.575 1264.52 817.95C1264.52 822.9 1260.7 826.95 1253.72 826.95ZM1278.26 826.5H1274.44V802.425H1268.36V799.05H1272.64C1273.76 799.05 1274.44 798.375 1274.44 797.25V795H1278.26V826.5Z" fill="black"/>
<path d="M1354.57 826.5H1350.74V802.425H1344.67V799.05H1348.94C1350.07 799.05 1350.74 798.375 1350.74 797.25V795H1354.57V826.5Z" fill="#F6911D"/>
<path d="M1450.45 826.5H1429.3V823.125L1443.48 808.725C1445.05 807.15 1446.18 805.575 1446.18 803.55C1446.18 799.95 1443.93 797.925 1439.88 797.925C1436.05 797.925 1433.58 800.4 1433.13 803.325H1429.3C1430.2 798.15 1433.8 794.55 1439.88 794.55C1446.18 794.55 1450 798.15 1450 803.55C1450 805.98 1448.74 808.41 1446.18 810.975L1434.21 823.125H1450.45V826.5Z" fill="black"/>
<path d="M1528.68 826.95C1523.06 826.95 1518.65 823.8 1517.88 818.175H1521.71C1522.16 821.325 1525.08 823.575 1528.68 823.575C1533.18 823.575 1535.66 821.1 1535.66 817.95C1535.66 814.8 1533.18 812.325 1528.68 812.325H1526.43V809.175H1528.68C1532.96 809.175 1535.21 806.7 1535.21 803.55C1535.21 800.4 1532.96 797.925 1528.68 797.925C1525.31 797.925 1522.61 800.175 1522.16 803.325H1518.33C1519.23 797.7 1523.28 794.55 1528.68 794.55C1535.21 794.55 1539.03 798.375 1539.03 803.55C1539.03 806.925 1537.46 809.4 1534.31 810.525C1537.68 811.65 1539.48 814.575 1539.48 817.95C1539.48 822.9 1535.66 826.95 1528.68 826.95Z" fill="black"/>
<path d="M1625.61 826.5H1621.78V819.075H1606.71V815.7L1620.21 795H1625.61V815.7H1629.66V819.075H1625.61V826.5ZM1621.56 799.05L1610.76 815.7H1621.78V799.05H1621.56Z" fill="black"/>
<path d="M1707.43 826.95C1702.25 826.95 1697.75 823.8 1696.63 818.175H1700.45C1701.35 821.325 1704.05 823.575 1707.43 823.575C1711.93 823.575 1714.63 820.65 1714.63 816.375C1714.63 812.1 1711.93 808.95 1707.43 808.95C1704.73 808.95 1702.48 810.3 1700.9 812.325H1697.3L1698.88 795H1716.65V798.375H1702.12L1701.22 808.005H1701.44C1703.24 806.25 1705.54 805.575 1708.1 805.575C1714.18 805.575 1718.45 810.3 1718.45 816.375C1718.45 822.675 1714.18 826.95 1707.43 826.95Z" fill="black"/>
<path d="M1172.57 916.2C1165.82 916.2 1161.54 911.925 1161.54 905.175C1161.54 902.25 1162.44 899.325 1164.69 895.725L1171.89 884.25H1176.17L1167.84 897.075H1168.07C1169.28 896.085 1170.99 895.5 1173.02 895.5C1179.32 895.5 1183.59 899.775 1183.59 905.85C1183.59 911.7 1179.32 916.2 1172.57 916.2ZM1172.57 912.825C1176.84 912.825 1179.77 910.125 1179.77 905.85C1179.77 901.575 1176.84 898.875 1172.57 898.875C1168.29 898.875 1165.37 901.575 1165.37 905.85C1165.37 910.125 1168.29 912.825 1172.57 912.825Z" fill="black"/>
<path d="M1259.36 915.75H1255.31L1267.69 887.625H1251.49V884.25H1271.74V887.625L1259.36 915.75Z" fill="black"/>
<path d="M1350.86 916.2C1344.11 916.2 1340.06 912.15 1340.06 906.975C1340.06 903.6 1342.54 900.63 1345.24 899.505C1342.94 898.38 1340.74 895.95 1340.74 892.575C1340.74 887.625 1344.56 883.8 1350.86 883.8C1357.16 883.8 1360.99 887.625 1360.99 892.575C1360.99 895.95 1358.78 898.38 1356.49 899.505C1359.19 900.63 1361.66 903.6 1361.66 906.975C1361.66 912.15 1357.61 916.2 1350.86 916.2ZM1350.86 897.975C1354.69 897.975 1357.16 895.725 1357.16 892.575C1357.16 889.425 1354.69 887.175 1350.86 887.175C1347.04 887.175 1344.56 889.425 1344.56 892.575C1344.56 895.725 1347.04 897.975 1350.86 897.975ZM1350.86 912.825C1355.14 912.825 1357.84 910.35 1357.84 906.975C1357.84 903.6 1355.14 901.125 1350.86 901.125C1346.59 901.125 1343.89 903.6 1343.89 906.975C1343.89 910.35 1346.59 912.825 1350.86 912.825Z" fill="#F6911D"/>
<path d="M1440.67 915.75H1436.4L1444.72 902.925H1444.5C1443.28 903.915 1441.57 904.5 1439.55 904.5C1433.25 904.5 1428.97 900.225 1428.97 894.15C1428.97 888.3 1433.25 883.8 1440 883.8C1446.75 883.8 1451.02 888.075 1451.02 894.825C1451.02 897.75 1450.12 900.675 1447.87 904.275L1440.67 915.75ZM1440 901.125C1444.27 901.125 1447.2 898.425 1447.2 894.15C1447.2 889.875 1444.27 887.175 1440 887.175C1435.72 887.175 1432.8 889.875 1432.8 894.15C1432.8 898.425 1435.72 901.125 1440 901.125Z" fill="black"/>
<path d="M1517.78 915.75H1513.96V891.675H1507.88V888.3H1512.16C1513.28 888.3 1513.96 887.625 1513.96 886.5V884.25H1517.78V915.75ZM1536.68 916.2C1529.26 916.2 1523.86 910.8 1523.86 900C1523.86 889.92 1528.72 883.8 1536.68 883.8C1544.11 883.8 1549.51 889.2 1549.51 900C1549.51 910.08 1544.69 916.2 1536.68 916.2ZM1536.68 912.825C1542.22 912.825 1545.68 907.92 1545.68 900C1545.68 891.225 1541.63 887.175 1536.68 887.175C1531.15 887.175 1527.68 892.08 1527.68 900C1527.68 908.775 1531.73 912.825 1536.68 912.825Z" fill="black"/>
<path d="M1614.46 915.75H1610.64V891.675H1604.56V888.3H1608.84C1609.96 888.3 1610.64 887.625 1610.64 886.5V884.25H1614.46V915.75ZM1629.54 915.75H1625.71V891.675H1619.64V888.3H1623.91C1625.04 888.3 1625.71 887.625 1625.71 886.5V884.25H1629.54V915.75Z" fill="black"/>
<path d="M1674.86 898.375C1674.86 880.386 1689.44 865.75 1707.43 865.75C1725.42 865.75 1740 880.386 1740 898.375C1740 916.364 1725.42 931 1707.43 931C1689.44 931 1674.86 916.364 1674.86 898.375Z" fill="black"/>
<path d="M1698.42 914.75H1694.59V890.675H1688.52V887.3H1692.79C1693.92 887.3 1694.59 886.625 1694.59 885.5V883.25H1698.42V914.75ZM1725.42 914.75H1704.27V911.375L1718.44 896.975C1720.02 895.4 1721.14 893.825 1721.14 891.8C1721.14 888.2 1718.89 886.175 1714.84 886.175C1711.02 886.175 1708.54 888.65 1708.09 891.575H1704.27C1705.17 886.4 1708.77 882.8 1714.84 882.8C1721.14 882.8 1724.97 886.4 1724.97 891.8C1724.97 894.23 1723.71 896.66 1721.14 899.225L1709.17 911.375H1725.42V914.75Z" fill="#FBFBFA"/>
<path d="M1163.45 1005H1159.63V980.925H1153.55V977.55H1157.83C1158.95 977.55 1159.63 976.875 1159.63 975.75V973.5H1163.45V1005ZM1179.65 1005.45C1174.03 1005.45 1169.62 1002.3 1168.85 996.675H1172.68C1173.13 999.825 1176.05 1002.07 1179.65 1002.07C1184.15 1002.07 1186.63 999.6 1186.63 996.45C1186.63 993.3 1184.15 990.825 1179.65 990.825H1177.4V987.675H1179.65C1183.93 987.675 1186.18 985.2 1186.18 982.05C1186.18 978.9 1183.93 976.425 1179.65 976.425C1176.28 976.425 1173.58 978.675 1173.13 981.825H1169.3C1170.2 976.2 1174.25 973.05 1179.65 973.05C1186.18 973.05 1190 976.875 1190 982.05C1190 985.425 1188.43 987.9 1185.28 989.025C1188.65 990.15 1190.45 993.075 1190.45 996.45C1190.45 1001.4 1186.63 1005.45 1179.65 1005.45Z" fill="black"/>
<path d="M1252.95 1005H1249.12V980.925H1243.05V977.55H1247.32C1248.45 977.55 1249.12 976.875 1249.12 975.75V973.5H1252.95V1005ZM1276.57 1005H1272.75V997.575H1257.67V994.2L1271.17 973.5H1276.57V994.2H1280.62V997.575H1276.57V1005ZM1272.52 977.55L1261.72 994.2H1272.75V977.55H1272.52Z" fill="black"/>
<path d="M1341.52 1005H1337.69V980.925H1331.62V977.55H1335.89C1337.02 977.55 1337.69 976.875 1337.69 975.75V973.5H1341.52V1005ZM1358.39 1005.45C1353.22 1005.45 1348.72 1002.3 1347.59 996.675H1351.42C1352.32 999.825 1355.02 1002.07 1358.39 1002.07C1362.89 1002.07 1365.59 999.15 1365.59 994.875C1365.59 990.6 1362.89 987.45 1358.39 987.45C1355.69 987.45 1353.44 988.8 1351.87 990.825H1348.27L1349.84 973.5H1367.62V976.875H1353.08L1352.18 986.505H1352.41C1354.21 984.75 1356.5 984.075 1359.07 984.075C1365.14 984.075 1369.42 988.8 1369.42 994.875C1369.42 1001.17 1365.14 1005.45 1358.39 1005.45Z" fill="#F6911D"/>
<path d="M1430.66 1005H1426.84V980.925H1420.76V977.55H1425.04C1426.16 977.55 1426.84 976.875 1426.84 975.75V973.5H1430.66V1005ZM1447.54 1005.45C1440.79 1005.45 1436.51 1001.17 1436.51 994.425C1436.51 991.5 1437.41 988.575 1439.66 984.975L1446.86 973.5H1451.14L1442.81 986.325H1443.04C1444.25 985.335 1445.96 984.75 1447.99 984.75C1454.29 984.75 1458.56 989.025 1458.56 995.1C1458.56 1000.95 1454.29 1005.45 1447.54 1005.45ZM1447.54 1002.07C1451.81 1002.07 1454.74 999.375 1454.74 995.1C1454.74 990.825 1451.81 988.125 1447.54 988.125C1443.26 988.125 1440.34 990.825 1440.34 995.1C1440.34 999.375 1443.26 1002.07 1447.54 1002.07Z" fill="black"/>
<path d="M1521.28 1005H1517.45V980.925H1511.38V977.55H1515.65C1516.78 977.55 1517.45 976.875 1517.45 975.75V973.5H1521.28V1005ZM1534.32 1005H1530.27L1542.65 976.875H1526.45V973.5H1546.7V976.875L1534.32 1005Z" fill="black"/>
<path d="M1608.73 1005H1604.9V980.925H1598.83V977.55H1603.1C1604.23 977.55 1604.9 976.875 1604.9 975.75V973.5H1608.73V1005ZM1625.83 1005.45C1619.08 1005.45 1615.03 1001.4 1615.03 996.225C1615.03 992.85 1617.5 989.88 1620.2 988.755C1617.91 987.63 1615.7 985.2 1615.7 981.825C1615.7 976.875 1619.53 973.05 1625.83 973.05C1632.13 973.05 1635.95 976.875 1635.95 981.825C1635.95 985.2 1633.75 987.63 1631.45 988.755C1634.15 989.88 1636.63 992.85 1636.63 996.225C1636.63 1001.4 1632.58 1005.45 1625.83 1005.45ZM1625.83 987.225C1629.65 987.225 1632.13 984.975 1632.13 981.825C1632.13 978.675 1629.65 976.425 1625.83 976.425C1622 976.425 1619.53 978.675 1619.53 981.825C1619.53 984.975 1622 987.225 1625.83 987.225ZM1625.83 1002.07C1630.1 1002.07 1632.8 999.6 1632.8 996.225C1632.8 992.85 1630.1 990.375 1625.83 990.375C1621.55 990.375 1618.85 992.85 1618.85 996.225C1618.85 999.6 1621.55 1002.07 1625.83 1002.07Z" fill="black"/>
<path d="M1698.09 1005H1694.26V980.925H1688.19V977.55H1692.46C1693.59 977.55 1694.26 976.875 1694.26 975.75V973.5H1698.09V1005ZM1715.64 1005H1711.36L1719.69 992.175H1719.46C1718.25 993.165 1716.54 993.75 1714.51 993.75C1708.21 993.75 1703.94 989.475 1703.94 983.4C1703.94 977.55 1708.21 973.05 1714.96 973.05C1721.71 973.05 1725.99 977.325 1725.99 984.075C1725.99 987 1725.09 989.925 1722.84 993.525L1715.64 1005ZM1714.96 990.375C1719.24 990.375 1722.16 987.675 1722.16 983.4C1722.16 979.125 1719.24 976.425 1714.96 976.425C1710.69 976.425 1707.76 979.125 1707.76 983.4C1707.76 987.675 1710.69 990.375 1714.96 990.375Z" fill="black"/>
<path d="M1168.63 1094.25H1147.48V1090.87L1161.66 1076.47C1163.23 1074.9 1164.36 1073.32 1164.36 1071.3C1164.36 1067.7 1162.11 1065.67 1158.06 1065.67C1154.23 1065.67 1151.76 1068.15 1151.31 1071.07H1147.48C1148.38 1065.9 1151.98 1062.3 1158.06 1062.3C1164.36 1062.3 1168.18 1065.9 1168.18 1071.3C1168.18 1073.73 1166.92 1076.16 1164.36 1078.72L1152.39 1090.87H1168.63V1094.25ZM1184.61 1094.7C1177.19 1094.7 1171.79 1089.3 1171.79 1078.5C1171.79 1068.42 1176.65 1062.3 1184.61 1062.3C1192.04 1062.3 1197.44 1067.7 1197.44 1078.5C1197.44 1088.58 1192.62 1094.7 1184.61 1094.7ZM1184.61 1091.32C1190.15 1091.32 1193.61 1086.42 1193.61 1078.5C1193.61 1069.72 1189.56 1065.67 1184.61 1065.67C1179.08 1065.67 1175.61 1070.58 1175.61 1078.5C1175.61 1087.27 1179.66 1091.32 1184.61 1091.32Z" fill="black"/>
<path d="M1264.96 1094.25H1243.81V1090.87L1257.99 1076.47C1259.56 1074.9 1260.69 1073.32 1260.69 1071.3C1260.69 1067.7 1258.44 1065.67 1254.39 1065.67C1250.56 1065.67 1248.09 1068.15 1247.64 1071.07H1243.81C1244.71 1065.9 1248.31 1062.3 1254.39 1062.3C1260.69 1062.3 1264.51 1065.9 1264.51 1071.3C1264.51 1073.73 1263.25 1076.16 1260.69 1078.72L1248.72 1090.87H1264.96V1094.25ZM1277.82 1094.25H1274V1070.17H1267.92V1066.8H1272.2C1273.32 1066.8 1274 1066.12 1274 1065V1062.75H1277.82V1094.25Z" fill="black"/>
<path d="M1349.27 1094.25H1328.12V1090.87L1342.29 1076.47C1343.87 1074.9 1344.99 1073.32 1344.99 1071.3C1344.99 1067.7 1342.74 1065.67 1338.69 1065.67C1334.87 1065.67 1332.39 1068.15 1331.94 1071.07H1328.12C1329.02 1065.9 1332.62 1062.3 1338.69 1062.3C1344.99 1062.3 1348.82 1065.9 1348.82 1071.3C1348.82 1073.73 1347.56 1076.16 1344.99 1078.72L1333.02 1090.87H1349.27V1094.25ZM1373.35 1094.25H1352.2V1090.87L1366.38 1076.47C1367.95 1074.9 1369.08 1073.32 1369.08 1071.3C1369.08 1067.7 1366.83 1065.67 1362.78 1065.67C1358.95 1065.67 1356.48 1068.15 1356.03 1071.07H1352.2C1353.1 1065.9 1356.7 1062.3 1362.78 1062.3C1369.08 1062.3 1372.9 1065.9 1372.9 1071.3C1372.9 1073.73 1371.64 1076.16 1369.08 1078.72L1357.11 1090.87H1373.35V1094.25Z" fill="#F6911D"/>
<path d="M1437.95 1094.25H1416.8V1090.87L1430.98 1076.47C1432.55 1074.9 1433.68 1073.32 1433.68 1071.3C1433.68 1067.7 1431.43 1065.67 1427.38 1065.67C1423.55 1065.67 1421.08 1068.15 1420.63 1071.07H1416.8C1417.7 1065.9 1421.3 1062.3 1427.38 1062.3C1433.68 1062.3 1437.5 1065.9 1437.5 1071.3C1437.5 1073.73 1436.24 1076.16 1433.68 1078.72L1421.71 1090.87H1437.95V1094.25ZM1451.94 1094.7C1446.31 1094.7 1441.9 1091.55 1441.14 1085.92H1444.96C1445.41 1089.07 1448.34 1091.32 1451.94 1091.32C1456.44 1091.32 1458.91 1088.85 1458.91 1085.7C1458.91 1082.55 1456.44 1080.07 1451.94 1080.07H1449.69V1076.92H1451.94C1456.21 1076.92 1458.46 1074.45 1458.46 1071.3C1458.46 1068.15 1456.21 1065.67 1451.94 1065.67C1448.56 1065.67 1445.86 1067.92 1445.41 1071.07H1441.59C1442.49 1065.45 1446.54 1062.3 1451.94 1062.3C1458.46 1062.3 1462.29 1066.12 1462.29 1071.3C1462.29 1074.67 1460.71 1077.15 1457.56 1078.27C1460.94 1079.4 1462.74 1082.32 1462.74 1085.7C1462.74 1090.65 1458.91 1094.7 1451.94 1094.7Z" fill="black"/>
<path d="M1528.23 1094.25H1507.08V1090.87L1521.26 1076.47C1522.83 1074.9 1523.96 1073.32 1523.96 1071.3C1523.96 1067.7 1521.71 1065.67 1517.66 1065.67C1513.83 1065.67 1511.36 1068.15 1510.91 1071.07H1507.08C1507.98 1065.9 1511.58 1062.3 1517.66 1062.3C1523.96 1062.3 1527.78 1065.9 1527.78 1071.3C1527.78 1073.73 1526.52 1076.16 1523.96 1078.72L1511.99 1090.87H1528.23V1094.25ZM1548.06 1094.25H1544.24V1086.82H1529.16V1083.45L1542.66 1062.75H1548.06V1083.45H1552.11V1086.82H1548.06V1094.25ZM1544.01 1066.8L1533.21 1083.45H1544.24V1066.8H1544.01Z" fill="black"/>
<path d="M1616.02 1094.25H1594.87V1090.87L1609.04 1076.47C1610.62 1074.9 1611.74 1073.32 1611.74 1071.3C1611.74 1067.7 1609.49 1065.67 1605.44 1065.67C1601.62 1065.67 1599.14 1068.15 1598.69 1071.07H1594.87C1595.77 1065.9 1599.37 1062.3 1605.44 1062.3C1611.74 1062.3 1615.57 1065.9 1615.57 1071.3C1615.57 1073.73 1614.31 1076.16 1611.74 1078.72L1599.77 1090.87H1616.02V1094.25ZM1630.68 1094.7C1625.5 1094.7 1621 1091.55 1619.88 1085.92H1623.7C1624.6 1089.07 1627.3 1091.32 1630.68 1091.32C1635.18 1091.32 1637.88 1088.4 1637.88 1084.12C1637.88 1079.85 1635.18 1076.7 1630.68 1076.7C1627.98 1076.7 1625.73 1078.05 1624.15 1080.07H1620.55L1622.13 1062.75H1639.9V1066.12H1625.37L1624.47 1075.75H1624.69C1626.49 1074 1628.79 1073.32 1631.35 1073.32C1637.43 1073.32 1641.7 1078.05 1641.7 1084.12C1641.7 1090.42 1637.43 1094.7 1630.68 1094.7Z" fill="black"/>
<path d="M1705.51 1094.25H1684.36V1090.87L1698.53 1076.47C1700.11 1074.9 1701.23 1073.32 1701.23 1071.3C1701.23 1067.7 1698.98 1065.67 1694.93 1065.67C1691.11 1065.67 1688.63 1068.15 1688.18 1071.07H1684.36C1685.26 1065.9 1688.86 1062.3 1694.93 1062.3C1701.23 1062.3 1705.06 1065.9 1705.06 1071.3C1705.06 1073.73 1703.8 1076.16 1701.23 1078.72L1689.26 1090.87H1705.51V1094.25ZM1719.47 1094.7C1712.72 1094.7 1708.44 1090.42 1708.44 1083.67C1708.44 1080.75 1709.34 1077.82 1711.59 1074.22L1718.79 1062.75H1723.07L1714.74 1075.57H1714.97C1716.18 1074.58 1717.89 1074 1719.92 1074C1726.22 1074 1730.49 1078.27 1730.49 1084.35C1730.49 1090.2 1726.22 1094.7 1719.47 1094.7ZM1719.47 1091.32C1723.74 1091.32 1726.67 1088.62 1726.67 1084.35C1726.67 1080.07 1723.74 1077.37 1719.47 1077.37C1715.19 1077.37 1712.27 1080.07 1712.27 1084.35C1712.27 1088.62 1715.19 1091.32 1719.47 1091.32Z" fill="black"/>
<path d="M1172.13 1183.5H1150.98V1180.12L1165.15 1165.72C1166.73 1164.15 1167.85 1162.57 1167.85 1160.55C1167.85 1156.95 1165.6 1154.92 1161.55 1154.92C1157.73 1154.92 1155.25 1157.4 1154.8 1160.32H1150.98C1151.88 1155.15 1155.48 1151.55 1161.55 1151.55C1167.85 1151.55 1171.68 1155.15 1171.68 1160.55C1171.68 1162.98 1170.42 1165.41 1167.85 1167.97L1155.88 1180.12H1172.13V1183.5ZM1182.26 1183.5H1178.21L1190.58 1155.38H1174.38V1152H1194.63V1155.38L1182.26 1183.5Z" fill="black"/>
<path d="M1259.58 1183.5H1238.43V1180.12L1252.6 1165.72C1254.18 1164.15 1255.3 1162.57 1255.3 1160.55C1255.3 1156.95 1253.05 1154.92 1249 1154.92C1245.18 1154.92 1242.7 1157.4 1242.25 1160.32H1238.43C1239.33 1155.15 1242.93 1151.55 1249 1151.55C1255.3 1151.55 1259.13 1155.15 1259.13 1160.55C1259.13 1162.98 1257.87 1165.41 1255.3 1167.97L1243.33 1180.12H1259.58V1183.5ZM1273.76 1183.95C1267.01 1183.95 1262.96 1179.9 1262.96 1174.72C1262.96 1171.35 1265.44 1168.38 1268.14 1167.25C1265.84 1166.13 1263.64 1163.7 1263.64 1160.32C1263.64 1155.38 1267.46 1151.55 1273.76 1151.55C1280.06 1151.55 1283.89 1155.38 1283.89 1160.32C1283.89 1163.7 1281.68 1166.13 1279.39 1167.25C1282.09 1168.38 1284.56 1171.35 1284.56 1174.72C1284.56 1179.9 1280.51 1183.95 1273.76 1183.95ZM1273.76 1165.72C1277.59 1165.72 1280.06 1163.47 1280.06 1160.32C1280.06 1157.17 1277.59 1154.92 1273.76 1154.92C1269.94 1154.92 1267.46 1157.17 1267.46 1160.32C1267.46 1163.47 1269.94 1165.72 1273.76 1165.72ZM1273.76 1180.57C1278.04 1180.57 1280.74 1178.1 1280.74 1174.72C1280.74 1171.35 1278.04 1168.87 1273.76 1168.87C1269.49 1168.87 1266.79 1171.35 1266.79 1174.72C1266.79 1178.1 1269.49 1180.57 1273.76 1180.57Z" fill="black"/>
<path d="M1348.94 1183.5H1327.79V1180.12L1341.96 1165.72C1343.54 1164.15 1344.66 1162.57 1344.66 1160.55C1344.66 1156.95 1342.41 1154.92 1338.36 1154.92C1334.54 1154.92 1332.06 1157.4 1331.61 1160.32H1327.79C1328.69 1155.15 1332.29 1151.55 1338.36 1151.55C1344.66 1151.55 1348.49 1155.15 1348.49 1160.55C1348.49 1162.98 1347.23 1165.41 1344.66 1167.97L1332.69 1180.12H1348.94V1183.5ZM1363.57 1183.5H1359.3L1367.62 1170.67H1367.4C1366.18 1171.66 1364.47 1172.25 1362.45 1172.25C1356.15 1172.25 1351.87 1167.97 1351.87 1161.9C1351.87 1156.05 1356.15 1151.55 1362.9 1151.55C1369.65 1151.55 1373.92 1155.82 1373.92 1162.57C1373.92 1165.5 1373.02 1168.42 1370.77 1172.02L1363.57 1183.5ZM1362.9 1168.87C1367.17 1168.87 1370.1 1166.17 1370.1 1161.9C1370.1 1157.62 1367.17 1154.92 1362.9 1154.92C1358.62 1154.92 1355.7 1157.62 1355.7 1161.9C1355.7 1166.17 1358.62 1168.87 1362.9 1168.87Z" fill="#F6911D"/>
<path d="M1424.47 1183.95C1418.85 1183.95 1414.44 1180.8 1413.67 1175.17H1417.5C1417.95 1178.32 1420.87 1180.57 1424.47 1180.57C1428.97 1180.57 1431.45 1178.1 1431.45 1174.95C1431.45 1171.8 1428.97 1169.32 1424.47 1169.32H1422.22V1166.17H1424.47C1428.75 1166.17 1431 1163.7 1431 1160.55C1431 1157.4 1428.75 1154.92 1424.47 1154.92C1421.1 1154.92 1418.4 1157.17 1417.95 1160.32H1414.12C1415.02 1154.7 1419.07 1151.55 1424.47 1151.55C1431 1151.55 1434.82 1155.38 1434.82 1160.55C1434.82 1163.92 1433.25 1166.4 1430.1 1167.52C1433.47 1168.65 1435.27 1171.57 1435.27 1174.95C1435.27 1179.9 1431.45 1183.95 1424.47 1183.95ZM1452.83 1183.95C1445.41 1183.95 1440.01 1178.55 1440.01 1167.75C1440.01 1157.67 1444.87 1151.55 1452.83 1151.55C1460.26 1151.55 1465.66 1156.95 1465.66 1167.75C1465.66 1177.83 1460.84 1183.95 1452.83 1183.95ZM1452.83 1180.57C1458.37 1180.57 1461.83 1175.67 1461.83 1167.75C1461.83 1158.97 1457.78 1154.92 1452.83 1154.92C1447.3 1154.92 1443.83 1159.83 1443.83 1167.75C1443.83 1176.52 1447.88 1180.57 1452.83 1180.57Z" fill="black"/>
<path opacity="0.5" d="M1532.86 1183.5H1529.03V1159.42H1522.96V1156.05H1527.23C1528.36 1156.05 1529.03 1155.38 1529.03 1154.25V1152H1532.86V1183.5Z" fill="black"/>
<path opacity="0.5" d="M1628.74 1183.5H1607.59V1180.12L1621.76 1165.72C1623.34 1164.15 1624.46 1162.57 1624.46 1160.55C1624.46 1156.95 1622.21 1154.92 1618.16 1154.92C1614.34 1154.92 1611.86 1157.4 1611.41 1160.32H1607.59C1608.49 1155.15 1612.09 1151.55 1618.16 1151.55C1624.46 1151.55 1628.29 1155.15 1628.29 1160.55C1628.29 1162.98 1627.03 1165.41 1624.46 1167.97L1612.49 1180.12H1628.74V1183.5Z" fill="black"/>
<path opacity="0.5" d="M1706.97 1183.95C1701.34 1183.95 1696.93 1180.8 1696.17 1175.17H1699.99C1700.44 1178.32 1703.37 1180.57 1706.97 1180.57C1711.47 1180.57 1713.94 1178.1 1713.94 1174.95C1713.94 1171.8 1711.47 1169.32 1706.97 1169.32H1704.72V1166.17H1706.97C1711.24 1166.17 1713.49 1163.7 1713.49 1160.55C1713.49 1157.4 1711.24 1154.92 1706.97 1154.92C1703.59 1154.92 1700.89 1157.17 1700.44 1160.32H1696.62C1697.52 1154.7 1701.57 1151.55 1706.97 1151.55C1713.49 1151.55 1717.32 1155.38 1717.32 1160.55C1717.32 1163.92 1715.74 1166.4 1712.59 1167.52C1715.97 1168.65 1717.77 1171.57 1717.77 1174.95C1717.77 1179.9 1713.94 1183.95 1706.97 1183.95Z" fill="black"/>
<path opacity="0.5" d="M1179.89 1272.75H1176.07V1265.32H1160.99V1261.95L1174.49 1241.25H1179.89V1261.95H1183.94V1265.32H1179.89V1272.75ZM1175.84 1245.3L1165.04 1261.95H1176.07V1245.3H1175.84Z" fill="black"/>
<path opacity="0.5" d="M1261.71 1273.2C1256.54 1273.2 1252.04 1270.05 1250.91 1264.42H1254.74C1255.64 1267.57 1258.34 1269.82 1261.71 1269.82C1266.21 1269.82 1268.91 1266.9 1268.91 1262.62C1268.91 1258.35 1266.21 1255.2 1261.71 1255.2C1259.01 1255.2 1256.76 1256.55 1255.19 1258.57H1251.59L1253.16 1241.25H1270.94V1244.62H1256.4L1255.5 1254.25H1255.73C1257.53 1252.5 1259.82 1251.82 1262.39 1251.82C1268.46 1251.82 1272.74 1256.55 1272.74 1262.62C1272.74 1268.92 1268.46 1273.2 1261.71 1273.2Z" fill="black"/>
<path opacity="0.5" d="M1350.85 1273.2C1344.1 1273.2 1339.83 1268.92 1339.83 1262.17C1339.83 1259.25 1340.73 1256.32 1342.98 1252.72L1350.18 1241.25H1354.45L1346.13 1254.07H1346.35C1347.57 1253.08 1349.28 1252.5 1351.3 1252.5C1357.6 1252.5 1361.88 1256.77 1361.88 1262.85C1361.88 1268.7 1357.6 1273.2 1350.85 1273.2ZM1350.85 1269.82C1355.13 1269.82 1358.05 1267.12 1358.05 1262.85C1358.05 1258.57 1355.13 1255.87 1350.85 1255.87C1346.58 1255.87 1343.65 1258.57 1343.65 1262.85C1343.65 1267.12 1346.58 1269.82 1350.85 1269.82Z" fill="#F6911D"/>
<path opacity="0.5" d="M1437.65 1272.75H1433.6L1445.97 1244.62H1429.77V1241.25H1450.02V1244.62L1437.65 1272.75Z" fill="black"/>
<path opacity="0.5" d="M1529.15 1273.2C1522.4 1273.2 1518.35 1269.15 1518.35 1263.97C1518.35 1260.6 1520.82 1257.63 1523.52 1256.5C1521.23 1255.38 1519.02 1252.95 1519.02 1249.57C1519.02 1244.62 1522.85 1240.8 1529.15 1240.8C1535.45 1240.8 1539.27 1244.62 1539.27 1249.57C1539.27 1252.95 1537.07 1255.38 1534.77 1256.5C1537.47 1257.63 1539.95 1260.6 1539.95 1263.97C1539.95 1269.15 1535.9 1273.2 1529.15 1273.2ZM1529.15 1254.97C1532.97 1254.97 1535.45 1252.72 1535.45 1249.57C1535.45 1246.42 1532.97 1244.17 1529.15 1244.17C1525.32 1244.17 1522.85 1246.42 1522.85 1249.57C1522.85 1252.72 1525.32 1254.97 1529.15 1254.97ZM1529.15 1269.82C1533.42 1269.82 1536.12 1267.35 1536.12 1263.97C1536.12 1260.6 1533.42 1258.12 1529.15 1258.12C1524.87 1258.12 1522.17 1260.6 1522.17 1263.97C1522.17 1267.35 1524.87 1269.82 1529.15 1269.82Z" fill="black"/>
<path opacity="0.5" d="M1618.96 1272.75H1614.68L1623.01 1259.92H1622.78C1621.57 1260.91 1619.86 1261.5 1617.83 1261.5C1611.53 1261.5 1607.26 1257.22 1607.26 1251.15C1607.26 1245.3 1611.53 1240.8 1618.28 1240.8C1625.03 1240.8 1629.31 1245.07 1629.31 1251.82C1629.31 1254.75 1628.41 1257.67 1626.16 1261.27L1618.96 1272.75ZM1618.28 1258.12C1622.56 1258.12 1625.48 1255.42 1625.48 1251.15C1625.48 1246.87 1622.56 1244.17 1618.28 1244.17C1614.01 1244.17 1611.08 1246.87 1611.08 1251.15C1611.08 1255.42 1614.01 1258.12 1618.28 1258.12Z" fill="black"/>
<path opacity="0.5" d="M1696.07 1272.75H1692.24V1248.67H1686.17V1245.3H1690.44C1691.57 1245.3 1692.24 1244.62 1692.24 1243.5V1241.25H1696.07V1272.75ZM1714.97 1273.2C1707.54 1273.2 1702.14 1267.8 1702.14 1257C1702.14 1246.92 1707 1240.8 1714.97 1240.8C1722.39 1240.8 1727.79 1246.2 1727.79 1257C1727.79 1267.08 1722.98 1273.2 1714.97 1273.2ZM1714.97 1269.82C1720.5 1269.82 1723.97 1264.92 1723.97 1257C1723.97 1248.22 1719.92 1244.17 1714.97 1244.17C1709.43 1244.17 1705.97 1249.08 1705.97 1257C1705.97 1265.77 1710.02 1269.82 1714.97 1269.82Z" fill="black"/>
<path d="M1365.39 648H1361.56L1358.64 640.125H1344.01L1341.09 648H1337.26L1349.19 616.5H1353.46L1365.39 648ZM1351.21 620.775L1345.27 636.75H1357.38L1351.44 620.775H1351.21ZM1372.13 657H1368.75V624.6H1371.45L1371.9 627.75H1372.13C1373.7 625.5 1376.4 624.15 1379.78 624.15C1385.63 624.15 1389.9 628.425 1389.9 636.3C1389.9 644.175 1385.63 648.45 1379.78 648.45C1376.4 648.45 1373.93 647.1 1372.35 645.075H1372.13V657ZM1379.33 645.3C1383.6 645.3 1386.53 642.15 1386.53 636.3C1386.53 630.45 1383.6 627.3 1379.33 627.3C1375.05 627.3 1372.13 630.45 1372.13 636.3C1372.13 642.15 1375.05 645.3 1379.33 645.3ZM1398.45 648H1395.08V624.6H1397.78L1398.23 627.75H1398.45C1399.8 625.5 1401.83 624.6 1404.75 624.6H1407.23V627.75H1404.75C1401.15 627.75 1398.45 630.225 1398.45 633.6V648ZM1412.74 620.325C1411.43 620.325 1410.35 619.29 1410.35 617.985C1410.35 616.68 1411.39 615.6 1412.74 615.6C1414.04 615.6 1415.08 616.68 1415.08 617.985C1415.08 619.245 1414.04 620.325 1412.74 620.325ZM1414.45 648H1411.07V624.6H1414.45V648ZM1429.74 648H1426.59C1423.21 648 1420.96 645.75 1420.96 642.15V616.5H1424.34V641.925C1424.34 643.77 1425.46 644.85 1427.04 644.85H1429.74V648ZM1462.39 648H1441.24V644.625L1455.41 630.225C1456.99 628.65 1458.11 627.075 1458.11 625.05C1458.11 621.45 1455.86 619.425 1451.81 619.425C1447.99 619.425 1445.51 621.9 1445.06 624.825H1441.24C1442.14 619.65 1445.74 616.05 1451.81 616.05C1458.11 616.05 1461.94 619.65 1461.94 625.05C1461.94 627.48 1460.68 629.91 1458.11 632.475L1446.14 644.625H1462.39V648ZM1478.37 648.45C1470.94 648.45 1465.54 643.05 1465.54 632.25C1465.54 622.17 1470.4 616.05 1478.37 616.05C1485.79 616.05 1491.19 621.45 1491.19 632.25C1491.19 642.33 1486.38 648.45 1478.37 648.45ZM1478.37 645.075C1483.9 645.075 1487.37 640.17 1487.37 632.25C1487.37 623.475 1483.32 619.425 1478.37 619.425C1472.83 619.425 1469.37 624.33 1469.37 632.25C1469.37 641.025 1473.42 645.075 1478.37 645.075ZM1515.95 648H1494.8V644.625L1508.98 630.225C1510.55 628.65 1511.68 627.075 1511.68 625.05C1511.68 621.45 1509.43 619.425 1505.38 619.425C1501.55 619.425 1499.08 621.9 1498.63 624.825H1494.8C1495.7 619.65 1499.3 616.05 1505.38 616.05C1511.68 616.05 1515.5 619.65 1515.5 625.05C1515.5 627.48 1514.24 629.91 1511.68 632.475L1499.71 644.625H1515.95V648ZM1529.91 648.45C1523.16 648.45 1518.89 644.175 1518.89 637.425C1518.89 634.5 1519.79 631.575 1522.04 627.975L1529.24 616.5H1533.51L1525.19 629.325H1525.41C1526.63 628.335 1528.34 627.75 1530.36 627.75C1536.66 627.75 1540.94 632.025 1540.94 638.1C1540.94 643.95 1536.66 648.45 1529.91 648.45ZM1529.91 645.075C1534.19 645.075 1537.11 642.375 1537.11 638.1C1537.11 633.825 1534.19 631.125 1529.91 631.125C1525.64 631.125 1522.71 633.825 1522.71 638.1C1522.71 642.375 1525.64 645.075 1529.91 645.075Z" fill="#757575"/>
<path d="M1180.07 645.625L1165.07 630.625L1180.07 615.625" stroke="#757575" stroke-width="3"/>
<path d="M1699.93 645.625L1714.93 630.625L1699.93 615.625" stroke="#757575" stroke-width="3"/>
<rect width="1440" height="810" transform="translate(360 1352)" fill="white"/>
<path opacity="0.1" d="M519.722 1893.19C524.28 1899.34 523.976 1908.02 518.475 1913.53L518.197 1913.8C512.32 1919.38 503.001 1919.31 497.53 1913.26L519.722 1893.19ZM720 1412C779.334 1412 837.336 1429.6 886.671 1462.56C936.006 1495.52 974.458 1542.38 997.164 1597.2C1019.87 1652.01 1025.81 1712.33 1014.24 1770.53C1003.64 1823.81 978.791 1873.12 942.47 1913.26L942.206 1913.55C936.615 1919.41 927.292 1919.29 921.525 1913.53C915.668 1907.67 915.702 1898.2 921.226 1892.02C953.369 1856.09 975.372 1812.14 984.812 1764.67C995.23 1712.3 989.883 1658.01 969.447 1608.68C949.012 1559.34 914.405 1517.17 870.004 1487.5C825.603 1457.84 773.401 1442 720 1442C666.599 1442 614.397 1457.84 569.996 1487.5C525.595 1517.17 490.988 1559.34 470.553 1608.68C450.117 1658.01 444.769 1712.3 455.187 1764.67C464.628 1812.14 486.631 1856.09 518.774 1892.02C519.111 1892.4 519.426 1892.79 519.722 1893.19L497.53 1913.26L496.417 1912.02C460.702 1872.1 436.254 1823.26 425.765 1770.53C414.189 1712.33 420.13 1652.01 442.836 1597.2C465.542 1542.38 503.994 1495.52 553.329 1462.56C602.664 1429.6 660.666 1412 720 1412Z" fill="#2A66FF"/>
<path d="M615.908 1430.64C663.092 1413.18 713.908 1407.87 763.68 1415.2C813.453 1422.52 860.585 1442.25 900.739 1472.56C940.893 1502.87 972.78 1542.79 993.466 1588.65C1012.09 1629.94 1021.1 1674.86 1019.89 1720.01C1019.67 1728.16 1012.65 1734.28 1004.55 1733.87L1004.16 1733.84C995.902 1733.21 989.764 1725.99 989.939 1717.71C990.789 1677.58 982.678 1637.69 966.12 1600.98C947.502 1559.71 918.803 1523.78 882.665 1496.5C846.526 1469.22 804.108 1451.47 759.312 1444.88C714.517 1438.28 668.782 1443.06 626.317 1458.77C583.852 1474.48 546.02 1500.62 516.301 1534.78C486.582 1568.94 465.93 1610.03 456.247 1654.26L455.801 1656.33C446.615 1699.92 448.358 1745.12 460.887 1787.9C472.206 1826.54 492.008 1862.1 518.774 1892.02C524.298 1898.2 524.332 1907.67 518.474 1913.53L518.197 1913.8C512.413 1919.29 503.296 1919.31 497.794 1913.55L497.53 1913.26C467.225 1879.77 444.83 1839.8 432.096 1796.33C417.954 1748.05 416.182 1696.99 426.941 1647.84C437.701 1598.7 460.646 1553.04 493.667 1515.09C526.688 1477.13 568.724 1448.09 615.908 1430.64Z" fill="#2A66FF"/>
<path d="M773.897 1677.27C760.649 1677.27 751.289 1668.49 751.289 1654.09C751.289 1639.54 760.649 1630.76 773.897 1630.76C787.145 1630.76 796.505 1639.69 796.505 1654.09C796.505 1668.49 787.145 1677.27 773.897 1677.27ZM775.193 1733H762.953L825.593 1632.2H837.833L775.193 1733ZM773.897 1667.05C780.665 1667.05 785.417 1662.15 785.417 1654.09C785.417 1645.88 780.665 1640.98 773.897 1640.98C767.129 1640.98 762.377 1645.88 762.377 1654.09C762.377 1662.15 767.129 1667.05 773.897 1667.05ZM826.889 1734.44C813.785 1734.44 804.425 1725.51 804.425 1711.11C804.425 1696.71 813.785 1687.93 826.889 1687.93C840.137 1687.93 849.497 1696.71 849.497 1711.11C849.497 1725.51 840.137 1734.44 826.889 1734.44ZM826.889 1724.22C833.657 1724.22 838.409 1719.32 838.409 1711.11C838.409 1703.05 833.657 1698.15 826.889 1698.15C820.121 1698.15 815.369 1703.05 815.369 1711.11C815.369 1719.32 820.121 1724.22 826.889 1724.22Z" fill="#0A0A0A"/>
<path d="M708.108 1733H691.404L716.46 1694.12H715.74C712.428 1696.57 707.676 1697.86 702.204 1697.86C683.196 1697.86 668.508 1684.9 668.508 1664.6C668.508 1645.45 682.332 1630.76 704.94 1630.76C727.116 1630.76 741.228 1644.87 741.228 1666.33C741.228 1676.26 737.916 1685.62 731.004 1696.71L708.108 1733ZM704.94 1685.05C717.612 1685.05 726.108 1677.13 726.108 1664.6C726.108 1652.22 717.612 1644.15 704.94 1644.15C692.124 1644.15 683.628 1652.22 683.628 1664.6C683.628 1677.13 692.556 1685.05 704.94 1685.05Z" fill="#0A0A0A"/>
<path d="M625.258 1734.44C602.218 1734.44 589.258 1721.48 589.258 1704.63C589.258 1693.83 597.034 1684.62 605.674 1681.02C598.618 1677.56 591.418 1669.5 591.418 1659.13C591.418 1642.57 604.666 1630.76 625.258 1630.76C645.85 1630.76 658.954 1642.57 658.954 1659.13C658.954 1669.5 651.754 1677.56 644.698 1681.02C653.338 1684.62 661.114 1693.83 661.114 1704.63C661.114 1721.48 648.154 1734.44 625.258 1734.44ZM625.258 1675.26C636.778 1675.26 643.834 1668.63 643.834 1659.56C643.834 1650.34 636.778 1643.72 625.258 1643.72C613.594 1643.72 606.538 1650.34 606.538 1659.56C606.538 1668.63 613.594 1675.26 625.258 1675.26ZM625.258 1721.48C637.93 1721.48 645.994 1714.42 645.994 1704.2C645.994 1694.12 637.93 1687.06 625.258 1687.06C612.442 1687.06 604.378 1694.12 604.378 1704.2C604.378 1714.42 612.442 1721.48 625.258 1721.48Z" fill="#0A0A0A"/>
<path d="M770.877 1815.51C765.012 1815.51 759.912 1811.94 758.637 1805.56H762.972C763.992 1809.13 767.052 1811.68 770.877 1811.68C775.977 1811.68 779.037 1808.37 779.037 1803.52C779.037 1798.68 775.977 1795.11 770.877 1795.11C767.817 1795.11 765.267 1796.64 763.482 1798.93H759.402L761.187 1779.3H781.332V1783.12H764.859L763.839 1794.04H764.094C766.134 1792.05 768.735 1791.28 771.642 1791.28C778.527 1791.28 783.372 1796.64 783.372 1803.52C783.372 1810.66 778.527 1815.51 770.877 1815.51Z" fill="#757575"/>
<path d="M754.263 1815H730.293V1811.18L746.358 1794.86C748.143 1793.07 749.418 1791.29 749.418 1788.99C749.418 1784.91 746.868 1782.62 742.278 1782.62C737.943 1782.62 735.138 1785.42 734.628 1788.74H730.293C731.313 1782.87 735.393 1778.79 742.278 1778.79C749.418 1778.79 753.753 1782.87 753.753 1788.99C753.753 1791.74 752.325 1794.5 749.418 1797.41L735.852 1811.18H754.263V1815Z" fill="#757575"/>
<path d="M722.403 1815.25C720.873 1815.25 719.598 1813.98 719.598 1812.45C719.598 1810.92 720.873 1809.64 722.403 1809.64C723.933 1809.64 725.208 1810.92 725.208 1812.45C725.208 1813.98 723.933 1815.25 722.403 1815.25Z" fill="#757575"/>
<path d="M701.254 1815.51C692.839 1815.51 686.719 1809.39 686.719 1797.15C686.719 1785.73 692.227 1778.79 701.254 1778.79C709.669 1778.79 715.789 1784.91 715.789 1797.15C715.789 1808.57 710.332 1815.51 701.254 1815.51ZM701.254 1811.69C707.527 1811.69 711.454 1806.13 711.454 1797.15C711.454 1787.21 706.864 1782.62 701.254 1782.62C694.981 1782.62 691.054 1788.17 691.054 1797.15C691.054 1807.1 695.644 1811.69 701.254 1811.69Z" fill="#757575"/>
<path d="M681.346 1805.06C681.346 1810.41 678.388 1814.03 673.186 1814.85V1820.61H669.361V1815H664.261V1820.61H660.436V1815H655.336V1779.3H660.436V1773.69H664.261V1779.3H669.361V1773.69H673.186V1779.56C678.082 1780.52 680.836 1784.04 680.836 1789.25C680.836 1792.56 679.051 1795.62 676.246 1796.9C679.051 1797.97 681.346 1801.28 681.346 1805.06ZM670.126 1783.13H659.671V1795.37H670.126C673.951 1795.37 676.501 1793.07 676.501 1789.25C676.501 1785.42 673.951 1783.13 670.126 1783.13ZM659.671 1811.18H670.636C674.461 1811.18 677.011 1808.88 677.011 1805.06C677.011 1801.23 674.461 1798.94 670.636 1798.94H659.671V1811.18Z" fill="#757575"/>
<path d="M436.065 2034H429.69L420.765 1998.3H425.355L432.75 2029.15H433.005L440.4 1998.3H446.265L453.66 2029.15H453.915L461.31 1998.3H465.9L456.975 2034H450.6L443.46 2003.65H443.205L436.065 2034ZM471.377 2002.63C469.898 2002.63 468.674 2001.46 468.674 1999.98C468.674 1998.5 469.847 1997.28 471.377 1997.28C472.856 1997.28 474.029 1998.5 474.029 1999.98C474.029 2001.41 472.856 2002.63 471.377 2002.63ZM473.315 2034H469.49V2007.48H473.315V2034ZM492.942 2034H488.862C485.037 2034 482.232 2031.19 482.232 2027.37V2011.05H478.152V2007.48H482.232L482.742 2000.34H486.057V2007.48H492.942V2011.05H486.057V2027.37C486.057 2029.15 487.332 2030.43 489.117 2030.43H492.942V2034ZM502.656 2034H498.831V1998.3H502.656V2010.79H502.911C504.696 2007.99 507.246 2006.97 510.306 2006.97C515.661 2006.97 520.251 2010.79 520.251 2017.68V2034H516.426V2017.68C516.426 2013.09 513.621 2010.54 509.796 2010.54C505.716 2010.54 502.656 2013.85 502.656 2017.68V2034ZM537.314 2034.51C530.684 2034.51 525.839 2029.66 525.839 2020.74C525.839 2011.81 530.684 2006.97 537.314 2006.97C541.139 2006.97 543.944 2008.5 545.729 2010.79H545.984V1998.3H549.809V2034H546.749L546.239 2030.43H545.984C544.199 2032.98 541.139 2034.51 537.314 2034.51ZM537.824 2030.94C542.669 2030.94 545.984 2027.37 545.984 2020.74C545.984 2014.11 542.669 2010.54 537.824 2010.54C532.979 2010.54 529.664 2014.11 529.664 2020.74C529.664 2027.37 532.979 2030.94 537.824 2030.94ZM561.021 2034H557.196V2007.48H560.256L560.766 2011.05H561.021C562.551 2008.5 564.846 2007.48 568.161 2007.48H570.966V2011.05H568.161C564.081 2011.05 561.021 2013.85 561.021 2017.68V2034ZM584.013 2006.97C590.388 2006.97 594.213 2010.74 594.213 2016.4V2034H591.153L590.643 2030.43H590.388C589.368 2032.21 586.308 2034.51 582.228 2034.51C576.618 2034.51 573.048 2030.94 573.048 2026.35C573.048 2021.76 576.618 2018.19 582.993 2018.19H590.388V2016.4C590.388 2012.83 587.838 2010.54 584.013 2010.54C580.698 2010.54 578.658 2012.07 577.893 2014.36H573.813C575.088 2009.52 578.913 2006.97 584.013 2006.97ZM582.228 2030.94C587.328 2030.94 590.388 2027.62 590.388 2023.54V2021.76H582.993C578.913 2021.76 576.873 2023.54 576.873 2026.35C576.873 2029.15 578.913 2030.94 582.228 2030.94ZM610.101 2034H605.409L598.014 2007.48H601.839L607.704 2028.9H607.959L613.977 2007.48H618.006L624.024 2028.9H624.279L630.144 2007.48H633.969L626.574 2034H621.882L616.119 2013.34H615.864L610.101 2034ZM639.916 2002.63C638.437 2002.63 637.213 2001.46 637.213 1999.98C637.213 1998.5 638.386 1997.28 639.916 1997.28C641.395 1997.28 642.568 1998.5 642.568 1999.98C642.568 2001.41 641.395 2002.63 639.916 2002.63ZM641.854 2034H638.029V2007.48H641.854V2034ZM652.811 2034H648.986V2007.48H652.046L652.556 2011.05H652.811C654.596 2007.99 657.656 2006.97 660.461 2006.97C666.071 2006.97 670.406 2011.05 670.406 2017.68V2034H666.581V2017.68C666.581 2013.09 663.776 2010.54 659.951 2010.54C655.871 2010.54 652.811 2013.85 652.811 2017.68V2034ZM688.24 2044.2C682.885 2044.2 678.295 2041.65 676.51 2036.3H680.59C681.865 2039.1 684.415 2040.63 688.24 2040.63C692.83 2040.63 696.145 2038.34 696.145 2033.49V2028.9H695.89C694.105 2031.19 691.3 2032.47 687.475 2032.47C680.845 2032.47 676 2027.88 676 2019.72C676 2011.56 680.845 2006.97 687.475 2006.97C691.3 2006.97 694.36 2008.5 696.145 2010.79H696.4L696.91 2007.48H699.97V2033.49C699.97 2040.38 695.125 2044.2 688.24 2044.2ZM687.985 2028.9C692.83 2028.9 696.145 2025.58 696.145 2019.72C696.145 2013.85 692.83 2010.54 687.985 2010.54C683.14 2010.54 679.825 2013.85 679.825 2019.72C679.825 2025.58 683.14 2028.9 687.985 2028.9ZM730.062 2034H725.982C722.157 2034 719.352 2031.19 719.352 2027.37V2011.05H715.272V2007.48H719.352L719.862 2000.34H723.177V2007.48H730.062V2011.05H723.177V2027.37C723.177 2029.15 724.452 2030.43 726.237 2030.43H730.062V2034ZM745.914 2034.51C738.774 2034.51 733.674 2029.66 733.674 2020.74C733.674 2011.81 738.774 2006.97 745.914 2006.97C753.054 2006.97 758.154 2011.81 758.154 2020.74C758.154 2029.66 753.054 2034.51 745.914 2034.51ZM745.914 2030.94C750.759 2030.94 754.329 2027.37 754.329 2020.74C754.329 2014.11 750.759 2010.54 745.914 2010.54C741.069 2010.54 737.499 2014.11 737.499 2020.74C737.499 2027.37 741.069 2030.94 745.914 2030.94Z" fill="#757575"/>
<path d="M438.615 2100.51C429.18 2100.51 422.55 2094.13 422.55 2082.15C422.55 2070.16 429.18 2063.79 438.615 2063.79C445.5 2063.79 450.6 2067.1 453.15 2073.73H448.56C446.52 2069.4 443.205 2067.61 438.615 2067.61C431.73 2067.61 426.885 2072.71 426.885 2082.15C426.885 2091.58 431.73 2096.68 438.615 2096.68C443.205 2096.68 446.52 2094.9 448.56 2090.56H453.15C450.6 2097.19 445.5 2100.51 438.615 2100.51ZM468.203 2100.51C461.063 2100.51 455.963 2095.66 455.963 2086.74C455.963 2077.81 461.063 2072.97 468.203 2072.97C475.343 2072.97 480.443 2077.81 480.443 2086.74C480.443 2095.66 475.343 2100.51 468.203 2100.51ZM468.203 2096.94C473.048 2096.94 476.618 2093.37 476.618 2086.74C476.618 2080.11 473.048 2076.54 468.203 2076.54C463.358 2076.54 459.788 2080.11 459.788 2086.74C459.788 2093.37 463.358 2096.94 468.203 2096.94ZM497.022 2100H493.452C489.627 2100 487.077 2097.45 487.077 2093.37V2064.3H490.902V2093.11C490.902 2095.21 492.177 2096.43 493.962 2096.43H497.022V2100ZM511.067 2100.51C504.437 2100.51 499.592 2095.66 499.592 2086.74C499.592 2077.81 504.437 2072.97 511.067 2072.97C514.892 2072.97 517.697 2074.5 519.482 2076.79H519.737V2064.3H523.562V2100H520.502L519.992 2096.43H519.737C517.952 2098.98 514.892 2100.51 511.067 2100.51ZM511.577 2096.94C516.422 2096.94 519.737 2093.37 519.737 2086.74C519.737 2080.11 516.422 2076.54 511.577 2076.54C506.732 2076.54 503.417 2080.11 503.417 2086.74C503.417 2093.37 506.732 2096.94 511.577 2096.94ZM541.914 2100.51C534.774 2100.51 529.674 2095.66 529.674 2086.74C529.674 2077.81 534.774 2072.97 541.914 2072.97C547.014 2072.97 551.094 2075.52 552.879 2080.36H548.799C547.269 2077.81 544.974 2076.54 541.914 2076.54C537.069 2076.54 533.499 2080.11 533.499 2086.74C533.499 2093.37 537.069 2096.94 541.914 2096.94C544.974 2096.94 547.269 2095.66 548.799 2093.11H552.879C551.094 2097.96 547.014 2100.51 541.914 2100.51ZM567.677 2072.97C574.052 2072.97 577.877 2076.74 577.877 2082.4V2100H574.817L574.307 2096.43H574.052C573.032 2098.21 569.972 2100.51 565.892 2100.51C560.282 2100.51 556.712 2096.94 556.712 2092.35C556.712 2087.76 560.282 2084.19 566.657 2084.19H574.052V2082.4C574.052 2078.83 571.502 2076.54 567.677 2076.54C564.362 2076.54 562.322 2078.07 561.557 2080.36H557.477C558.752 2075.52 562.577 2072.97 567.677 2072.97ZM565.892 2096.94C570.992 2096.94 574.052 2093.62 574.052 2089.54V2087.76H566.657C562.577 2087.76 560.537 2089.54 560.537 2092.35C560.537 2095.15 562.577 2096.94 565.892 2096.94ZM588.563 2100H584.738V2073.48H587.798L588.308 2077.05H588.563C590.093 2074.5 592.388 2073.48 595.703 2073.48H598.508V2077.05H595.703C591.623 2077.05 588.563 2079.85 588.563 2083.68V2100ZM611.523 2100.51C604.893 2100.51 600.048 2095.66 600.048 2086.74C600.048 2077.81 604.893 2072.97 611.523 2072.97C615.348 2072.97 618.153 2074.5 619.938 2076.79H620.193V2064.3H624.018V2100H620.958L620.448 2096.43H620.193C618.408 2098.98 615.348 2100.51 611.523 2100.51ZM612.033 2096.94C616.878 2096.94 620.193 2093.37 620.193 2086.74C620.193 2080.11 616.878 2076.54 612.033 2076.54C607.188 2076.54 603.873 2080.11 603.873 2086.74C603.873 2093.37 607.188 2096.94 612.033 2096.94ZM672.974 2082.15C672.974 2090 670.118 2095.41 665.528 2098.27L670.169 2105.1H665.579L662.009 2099.8C660.428 2100.26 658.694 2100.51 656.909 2100.51C647.474 2100.51 640.844 2094.13 640.844 2082.15C640.844 2070.16 647.474 2063.79 656.909 2063.79C666.344 2063.79 672.974 2070.16 672.974 2082.15ZM645.179 2082.15C645.179 2091.58 650.024 2096.68 656.909 2096.68C657.878 2096.68 658.796 2096.58 659.663 2096.38L654.359 2088.52H658.949L663.233 2094.85C666.599 2092.6 668.639 2088.32 668.639 2082.15C668.639 2072.71 663.794 2067.61 656.909 2067.61C650.024 2067.61 645.179 2072.71 645.179 2082.15Z" fill="#0A0A0A"/>
<rect x="913.5" y="1995.5" width="105" height="105" rx="52.5" fill="#FBFBFA"/>
<rect x="913.5" y="1995.5" width="105" height="105" rx="52.5" stroke="#F0F0F0" stroke-width="3"/>
<circle cx="966" cy="2028.5" r="4.5" fill="#757575"/>
<circle cx="966" cy="2046.5" r="4.5" fill="#757575"/>
<circle cx="966" cy="2064.5" r="4.5" fill="#757575"/>
<rect x="1140" y="1418" width="48" height="48" rx="24" fill="#2A66FF"/>
<path d="M1159.5 1433.75L1172.25 1433.75L1172.25 1446.5M1171.61 1434.39L1155.75 1450.25" stroke="white" stroke-width="3" stroke-linecap="round" stroke-linejoin="round"/>
<path d="M1228.35 1459H1224.53L1221.6 1451.12H1206.98L1204.05 1459H1200.23L1212.15 1427.5H1216.43L1228.35 1459ZM1214.18 1431.77L1208.24 1447.75H1220.34L1214.4 1431.77H1214.18ZM1235.09 1468H1231.71V1435.6H1234.41L1234.86 1438.75H1235.09C1236.66 1436.5 1239.36 1435.15 1242.74 1435.15C1248.59 1435.15 1252.86 1439.42 1252.86 1447.3C1252.86 1455.17 1248.59 1459.45 1242.74 1459.45C1239.36 1459.45 1236.89 1458.1 1235.31 1456.07H1235.09V1468ZM1242.29 1456.3C1246.56 1456.3 1249.49 1453.15 1249.49 1447.3C1249.49 1441.45 1246.56 1438.3 1242.29 1438.3C1238.01 1438.3 1235.09 1441.45 1235.09 1447.3C1235.09 1453.15 1238.01 1456.3 1242.29 1456.3ZM1261.41 1459H1258.04V1435.6H1260.74L1261.19 1438.75H1261.41C1262.76 1436.5 1264.79 1435.6 1267.71 1435.6H1270.19V1438.75H1267.71C1264.11 1438.75 1261.41 1441.22 1261.41 1444.6V1459ZM1301.93 1459H1280.78V1455.62L1294.95 1441.22C1296.53 1439.65 1297.65 1438.07 1297.65 1436.05C1297.65 1432.45 1295.4 1430.42 1291.35 1430.42C1287.53 1430.42 1285.05 1432.9 1284.6 1435.82H1280.78C1281.68 1430.65 1285.28 1427.05 1291.35 1427.05C1297.65 1427.05 1301.47 1430.65 1301.47 1436.05C1301.47 1438.48 1300.22 1440.91 1297.65 1443.47L1285.68 1455.62H1301.93V1459Z" fill="#757575"/>
<path d="M1438.73 1450.22C1438.73 1454.9 1436.21 1458.05 1431.76 1458.82V1463.95H1428.38V1459H1424.33V1463.95H1420.96V1459H1416.68V1427.5H1420.96V1422.55H1424.33V1427.5H1428.38V1422.55H1431.76V1427.77C1435.94 1428.67 1438.28 1431.77 1438.28 1436.28C1438.28 1439.2 1436.71 1441.9 1434.23 1443.02C1436.71 1443.97 1438.73 1446.89 1438.73 1450.22ZM1428.83 1430.88H1420.51V1441.67H1428.83C1432.21 1441.67 1434.46 1439.65 1434.46 1436.28C1434.46 1432.9 1432.21 1430.88 1428.83 1430.88ZM1420.51 1455.62H1429.28C1432.66 1455.62 1434.91 1453.6 1434.91 1450.22C1434.91 1446.85 1432.66 1444.82 1429.28 1444.82H1420.51V1455.62ZM1454.01 1459.45C1447.08 1459.45 1442.54 1453.46 1442.54 1443.25C1442.54 1433.03 1447.08 1427.05 1454.01 1427.05C1460.94 1427.05 1465.49 1433.03 1465.49 1443.25C1465.49 1453.46 1460.94 1459.45 1454.01 1459.45ZM1454.01 1456.07C1458.47 1456.07 1461.66 1451.44 1461.66 1443.25C1461.66 1435.06 1458.47 1430.42 1454.01 1430.42C1449.56 1430.42 1446.36 1435.06 1446.36 1443.25C1446.36 1451.44 1449.56 1456.07 1454.01 1456.07ZM1472.45 1459.23C1471.1 1459.23 1469.97 1458.1 1469.97 1456.75C1469.97 1455.4 1471.1 1454.27 1472.45 1454.27C1473.8 1454.27 1474.92 1455.4 1474.92 1456.75C1474.92 1458.1 1473.8 1459.23 1472.45 1459.23ZM1501.37 1459H1480.22V1455.62L1494.39 1441.22C1495.97 1439.65 1497.09 1438.07 1497.09 1436.05C1497.09 1432.45 1494.84 1430.42 1490.79 1430.42C1486.97 1430.42 1484.49 1432.9 1484.04 1435.82H1480.22C1481.12 1430.65 1484.72 1427.05 1490.79 1427.05C1497.09 1427.05 1500.92 1430.65 1500.92 1436.05C1500.92 1438.48 1499.66 1440.91 1497.09 1443.47L1485.12 1455.62H1501.37V1459ZM1515.53 1459H1511.48L1523.85 1430.88H1507.65V1427.5H1527.9V1430.88L1515.53 1459ZM1555.33 1459H1534.18V1455.62L1548.36 1441.22C1549.93 1439.65 1551.06 1438.07 1551.06 1436.05C1551.06 1432.45 1548.81 1430.42 1544.76 1430.42C1540.93 1430.42 1538.46 1432.9 1538.01 1435.82H1534.18C1535.08 1430.65 1538.68 1427.05 1544.76 1427.05C1551.06 1427.05 1554.88 1430.65 1554.88 1436.05C1554.88 1438.48 1553.62 1440.91 1551.06 1443.47L1539.09 1455.62H1555.33V1459ZM1581.72 1459.45C1574.79 1459.45 1570.24 1453.46 1570.24 1443.25C1570.24 1433.03 1574.79 1427.05 1581.72 1427.05C1588.65 1427.05 1593.19 1433.03 1593.19 1443.25C1593.19 1453.46 1588.65 1459.45 1581.72 1459.45ZM1581.72 1456.07C1586.17 1456.07 1589.37 1451.44 1589.37 1443.25C1589.37 1435.06 1586.17 1430.42 1581.72 1430.42C1577.26 1430.42 1574.07 1435.06 1574.07 1443.25C1574.07 1451.44 1577.26 1456.07 1581.72 1456.07ZM1618.38 1459H1599.93V1455.62H1607.35V1434.92H1600.83V1431.55H1605.55C1606.68 1431.55 1607.35 1430.88 1607.35 1429.75V1427.5H1611.18V1455.62H1618.38V1459ZM1645.36 1459H1626.91V1455.62H1634.33V1434.92H1627.81V1431.55H1632.53C1633.66 1431.55 1634.33 1430.88 1634.33 1429.75V1427.5H1638.16V1455.62H1645.36V1459ZM1672.55 1459.45C1665.62 1459.45 1661.08 1453.46 1661.08 1443.25C1661.08 1433.03 1665.62 1427.05 1672.55 1427.05C1679.48 1427.05 1684.03 1433.03 1684.03 1443.25C1684.03 1453.46 1679.48 1459.45 1672.55 1459.45ZM1672.55 1456.07C1677.01 1456.07 1680.2 1451.44 1680.2 1443.25C1680.2 1435.06 1677.01 1430.42 1672.55 1430.42C1668.1 1430.42 1664.9 1435.06 1664.9 1443.25C1664.9 1451.44 1668.1 1456.07 1672.55 1456.07ZM1699.54 1459.45C1692.61 1459.45 1688.06 1453.46 1688.06 1443.25C1688.06 1433.03 1692.61 1427.05 1699.54 1427.05C1706.47 1427.05 1711.01 1433.03 1711.01 1443.25C1711.01 1453.46 1706.47 1459.45 1699.54 1459.45ZM1699.54 1456.07C1703.99 1456.07 1707.19 1451.44 1707.19 1443.25C1707.19 1435.06 1703.99 1430.42 1699.54 1430.42C1695.08 1430.42 1691.89 1435.06 1691.89 1443.25C1691.89 1451.44 1695.08 1456.07 1699.54 1456.07ZM1726.52 1459.45C1719.59 1459.45 1715.04 1453.46 1715.04 1443.25C1715.04 1433.03 1719.59 1427.05 1726.52 1427.05C1733.45 1427.05 1737.99 1433.03 1737.99 1443.25C1737.99 1453.46 1733.45 1459.45 1726.52 1459.45ZM1726.52 1456.07C1730.97 1456.07 1734.17 1451.44 1734.17 1443.25C1734.17 1435.06 1730.97 1430.42 1726.52 1430.42C1722.06 1430.42 1718.87 1435.06 1718.87 1443.25C1718.87 1451.44 1722.06 1456.07 1726.52 1456.07Z" fill="black"/>
<line x1="1140" y1="1495.25" x2="1740" y2="1495.25" stroke="#F0F0F0" stroke-width="1.5"/>
<rect x="1140" y="1526" width="48" height="48" rx="24" fill="#2A66FF"/>
<path d="M1159.5 1541.75L1172.25 1541.75L1172.25 1554.5M1171.61 1542.39L1155.75 1558.25" stroke="white" stroke-width="3" stroke-linecap="round" stroke-linejoin="round"/>
<path d="M1207.65 1567H1203.83V1535.5H1209.9L1219.35 1561.38H1219.58L1229.03 1535.5H1235.1V1567H1231.28V1540.22H1231.05L1221.15 1567H1217.78L1207.88 1540.22H1207.65V1567ZM1250.41 1543.15C1256.04 1543.15 1259.41 1546.48 1259.41 1551.47V1567H1256.71L1256.26 1563.85H1256.04C1255.14 1565.42 1252.44 1567.45 1248.84 1567.45C1243.89 1567.45 1240.74 1564.3 1240.74 1560.25C1240.74 1556.2 1243.89 1553.05 1249.51 1553.05H1256.04V1551.47C1256.04 1548.32 1253.79 1546.3 1250.41 1546.3C1247.49 1546.3 1245.69 1547.65 1245.01 1549.67H1241.41C1242.54 1545.4 1245.91 1543.15 1250.41 1543.15ZM1248.84 1564.3C1253.34 1564.3 1256.04 1561.38 1256.04 1557.77V1556.2H1249.51C1245.91 1556.2 1244.11 1557.77 1244.11 1560.25C1244.11 1562.72 1245.91 1564.3 1248.84 1564.3ZM1268.84 1567H1265.46V1543.6H1268.16L1268.61 1546.75H1268.84C1270.19 1544.5 1272.21 1543.6 1275.14 1543.6H1277.61V1546.75H1275.14C1271.54 1546.75 1268.84 1549.22 1268.84 1552.6V1567ZM1296.72 1567H1292.9V1542.92H1286.82V1539.55H1291.1C1292.22 1539.55 1292.9 1538.88 1292.9 1537.75V1535.5H1296.72V1567ZM1320.35 1567H1316.52V1559.57H1301.45V1556.2L1314.95 1535.5H1320.35V1556.2H1324.4V1559.57H1320.35V1567ZM1316.3 1539.55L1305.5 1556.2H1316.52V1539.55H1316.3Z" fill="#757575"/>
<path d="M1438.73 1558.22C1438.73 1562.9 1436.21 1566.05 1431.76 1566.82V1571.95H1428.38V1567H1424.33V1571.95H1420.96V1567H1416.68V1535.5H1420.96V1530.55H1424.33V1535.5H1428.38V1530.55H1431.76V1535.77C1435.94 1536.67 1438.28 1539.77 1438.28 1544.28C1438.28 1547.2 1436.71 1549.9 1434.23 1551.02C1436.71 1551.97 1438.73 1554.89 1438.73 1558.22ZM1428.83 1538.88H1420.51V1549.67H1428.83C1432.21 1549.67 1434.46 1547.65 1434.46 1544.28C1434.46 1540.9 1432.21 1538.88 1428.83 1538.88ZM1420.51 1563.62H1429.28C1432.66 1563.62 1434.91 1561.6 1434.91 1558.22C1434.91 1554.85 1432.66 1552.82 1429.28 1552.82H1420.51V1563.62ZM1454.01 1567.45C1447.08 1567.45 1442.54 1561.46 1442.54 1551.25C1442.54 1541.03 1447.08 1535.05 1454.01 1535.05C1460.94 1535.05 1465.49 1541.03 1465.49 1551.25C1465.49 1561.46 1460.94 1567.45 1454.01 1567.45ZM1454.01 1564.07C1458.47 1564.07 1461.66 1559.44 1461.66 1551.25C1461.66 1543.06 1458.47 1538.42 1454.01 1538.42C1449.56 1538.42 1446.36 1543.06 1446.36 1551.25C1446.36 1559.44 1449.56 1564.07 1454.01 1564.07ZM1472.45 1567.23C1471.1 1567.23 1469.97 1566.1 1469.97 1564.75C1469.97 1563.4 1471.1 1562.27 1472.45 1562.27C1473.8 1562.27 1474.92 1563.4 1474.92 1564.75C1474.92 1566.1 1473.8 1567.23 1472.45 1567.23ZM1498.22 1567H1494.39V1559.57H1479.32V1556.2L1492.82 1535.5H1498.22V1556.2H1502.27V1559.57H1498.22V1567ZM1494.17 1539.55L1483.37 1556.2H1494.39V1539.55H1494.17ZM1518.54 1567H1514.27L1522.59 1554.17H1522.37C1521.15 1555.16 1519.44 1555.75 1517.42 1555.75C1511.12 1555.75 1506.84 1551.47 1506.84 1545.4C1506.84 1539.55 1511.12 1535.05 1517.87 1535.05C1524.62 1535.05 1528.89 1539.32 1528.89 1546.07C1528.89 1549 1527.99 1551.92 1525.74 1555.52L1518.54 1567ZM1517.87 1552.37C1522.14 1552.37 1525.07 1549.67 1525.07 1545.4C1525.07 1541.12 1522.14 1538.42 1517.87 1538.42C1513.59 1538.42 1510.67 1541.12 1510.67 1545.4C1510.67 1549.67 1513.59 1552.37 1517.87 1552.37ZM1554.52 1567H1536.07V1563.62H1543.5V1542.92H1536.97V1539.55H1541.7C1542.82 1539.55 1543.5 1538.88 1543.5 1537.75V1535.5H1547.32V1563.62H1554.52V1567ZM1581.72 1567.45C1574.79 1567.45 1570.24 1561.46 1570.24 1551.25C1570.24 1541.03 1574.79 1535.05 1581.72 1535.05C1588.65 1535.05 1593.19 1541.03 1593.19 1551.25C1593.19 1561.46 1588.65 1567.45 1581.72 1567.45ZM1581.72 1564.07C1586.17 1564.07 1589.37 1559.44 1589.37 1551.25C1589.37 1543.06 1586.17 1538.42 1581.72 1538.42C1577.26 1538.42 1574.07 1543.06 1574.07 1551.25C1574.07 1559.44 1577.26 1564.07 1581.72 1564.07ZM1619.19 1567H1598.04V1563.62L1612.21 1549.22C1613.79 1547.65 1614.91 1546.07 1614.91 1544.05C1614.91 1540.45 1612.66 1538.42 1608.61 1538.42C1604.79 1538.42 1602.31 1540.9 1601.86 1543.82H1598.04C1598.94 1538.65 1602.54 1535.05 1608.61 1535.05C1614.91 1535.05 1618.74 1538.65 1618.74 1544.05C1618.74 1546.48 1617.48 1548.91 1614.91 1551.47L1602.94 1563.62H1619.19V1567ZM1646.17 1567H1625.02V1563.62L1639.19 1549.22C1640.77 1547.65 1641.89 1546.07 1641.89 1544.05C1641.89 1540.45 1639.64 1538.42 1635.59 1538.42C1631.77 1538.42 1629.29 1540.9 1628.84 1543.82H1625.02C1625.92 1538.65 1629.52 1535.05 1635.59 1535.05C1641.89 1535.05 1645.72 1538.65 1645.72 1544.05C1645.72 1546.48 1644.46 1548.91 1641.89 1551.47L1629.92 1563.62H1646.17V1567ZM1672.55 1567.45C1665.62 1567.45 1661.08 1561.46 1661.08 1551.25C1661.08 1541.03 1665.62 1535.05 1672.55 1535.05C1679.48 1535.05 1684.03 1541.03 1684.03 1551.25C1684.03 1561.46 1679.48 1567.45 1672.55 1567.45ZM1672.55 1564.07C1677.01 1564.07 1680.2 1559.44 1680.2 1551.25C1680.2 1543.06 1677.01 1538.42 1672.55 1538.42C1668.1 1538.42 1664.9 1543.06 1664.9 1551.25C1664.9 1559.44 1668.1 1564.07 1672.55 1564.07ZM1699.54 1567.45C1694.36 1567.45 1689.86 1564.3 1688.74 1558.67H1692.56C1693.46 1561.82 1696.16 1564.07 1699.54 1564.07C1704.04 1564.07 1706.74 1561.15 1706.74 1556.87C1706.74 1552.6 1704.04 1549.45 1699.54 1549.45C1696.84 1549.45 1694.59 1550.8 1693.01 1552.82H1689.41L1690.99 1535.5H1708.76V1538.88H1694.23L1693.33 1548.5H1693.55C1695.35 1546.75 1697.65 1546.07 1700.21 1546.07C1706.29 1546.07 1710.56 1550.8 1710.56 1556.87C1710.56 1563.17 1706.29 1567.45 1699.54 1567.45ZM1737 1567H1715.85V1563.62L1730.03 1549.22C1731.6 1547.65 1732.73 1546.07 1732.73 1544.05C1732.73 1540.45 1730.48 1538.42 1726.43 1538.42C1722.6 1538.42 1720.13 1540.9 1719.68 1543.82H1715.85C1716.75 1538.65 1720.35 1535.05 1726.43 1535.05C1732.73 1535.05 1736.55 1538.65 1736.55 1544.05C1736.55 1546.48 1735.29 1548.91 1732.73 1551.47L1720.76 1563.62H1737V1567Z" fill="black"/>
<line x1="1140" y1="1603.25" x2="1740" y2="1603.25" stroke="#F0F0F0" stroke-width="1.5"/>
<rect x="1140" y="1634" width="48" height="48" rx="24" fill="#2A66FF"/>
<path d="M1159.5 1649.75L1172.25 1649.75L1172.25 1662.5M1171.61 1650.39L1155.75 1666.25" stroke="white" stroke-width="3" stroke-linecap="round" stroke-linejoin="round"/>
<path d="M1207.65 1675H1203.83V1643.5H1209.9L1219.35 1669.38H1219.58L1229.03 1643.5H1235.1V1675H1231.28V1648.22H1231.05L1221.15 1675H1217.78L1207.88 1648.22H1207.65V1675ZM1250.41 1651.15C1256.04 1651.15 1259.41 1654.48 1259.41 1659.47V1675H1256.71L1256.26 1671.85H1256.04C1255.14 1673.42 1252.44 1675.45 1248.84 1675.45C1243.89 1675.45 1240.74 1672.3 1240.74 1668.25C1240.74 1664.2 1243.89 1661.05 1249.51 1661.05H1256.04V1659.47C1256.04 1656.32 1253.79 1654.3 1250.41 1654.3C1247.49 1654.3 1245.69 1655.65 1245.01 1657.67H1241.41C1242.54 1653.4 1245.91 1651.15 1250.41 1651.15ZM1248.84 1672.3C1253.34 1672.3 1256.04 1669.38 1256.04 1665.77V1664.2H1249.51C1245.91 1664.2 1244.11 1665.77 1244.11 1668.25C1244.11 1670.72 1245.91 1672.3 1248.84 1672.3ZM1268.84 1675H1265.46V1651.6H1268.16L1268.61 1654.75H1268.84C1270.19 1652.5 1272.21 1651.6 1275.14 1651.6H1277.61V1654.75H1275.14C1271.54 1654.75 1268.84 1657.22 1268.84 1660.6V1675ZM1309.35 1675H1288.2V1671.62L1302.38 1657.22C1303.95 1655.65 1305.08 1654.07 1305.08 1652.05C1305.08 1648.45 1302.83 1646.42 1298.78 1646.42C1294.95 1646.42 1292.48 1648.9 1292.03 1651.82H1288.2C1289.1 1646.65 1292.7 1643.05 1298.78 1643.05C1305.08 1643.05 1308.9 1646.65 1308.9 1652.05C1308.9 1654.48 1307.64 1656.91 1305.08 1659.47L1293.11 1671.62H1309.35V1675Z" fill="#757575"/>
<path d="M1438.73 1666.22C1438.73 1670.9 1436.21 1674.05 1431.76 1674.82V1679.95H1428.38V1675H1424.33V1679.95H1420.96V1675H1416.68V1643.5H1420.96V1638.55H1424.33V1643.5H1428.38V1638.55H1431.76V1643.77C1435.94 1644.67 1438.28 1647.77 1438.28 1652.28C1438.28 1655.2 1436.71 1657.9 1434.23 1659.02C1436.71 1659.97 1438.73 1662.89 1438.73 1666.22ZM1428.83 1646.88H1420.51V1657.67H1428.83C1432.21 1657.67 1434.46 1655.65 1434.46 1652.28C1434.46 1648.9 1432.21 1646.88 1428.83 1646.88ZM1420.51 1671.62H1429.28C1432.66 1671.62 1434.91 1669.6 1434.91 1666.22C1434.91 1662.85 1432.66 1660.82 1429.28 1660.82H1420.51V1671.62ZM1454.01 1675.45C1447.08 1675.45 1442.54 1669.46 1442.54 1659.25C1442.54 1649.03 1447.08 1643.05 1454.01 1643.05C1460.94 1643.05 1465.49 1649.03 1465.49 1659.25C1465.49 1669.46 1460.94 1675.45 1454.01 1675.45ZM1454.01 1672.07C1458.47 1672.07 1461.66 1667.44 1461.66 1659.25C1461.66 1651.06 1458.47 1646.42 1454.01 1646.42C1449.56 1646.42 1446.36 1651.06 1446.36 1659.25C1446.36 1667.44 1449.56 1672.07 1454.01 1672.07ZM1472.45 1675.23C1471.1 1675.23 1469.97 1674.1 1469.97 1672.75C1469.97 1671.4 1471.1 1670.27 1472.45 1670.27C1473.8 1670.27 1474.92 1671.4 1474.92 1672.75C1474.92 1674.1 1473.8 1675.23 1472.45 1675.23ZM1501.37 1675H1480.22V1671.62L1494.39 1657.22C1495.97 1655.65 1497.09 1654.07 1497.09 1652.05C1497.09 1648.45 1494.84 1646.42 1490.79 1646.42C1486.97 1646.42 1484.49 1648.9 1484.04 1651.82H1480.22C1481.12 1646.65 1484.72 1643.05 1490.79 1643.05C1497.09 1643.05 1500.92 1646.65 1500.92 1652.05C1500.92 1654.48 1499.66 1656.91 1497.09 1659.47L1485.12 1671.62H1501.37V1675ZM1517.87 1675.45C1512.69 1675.45 1508.19 1672.3 1507.07 1666.67H1510.89C1511.79 1669.82 1514.49 1672.07 1517.87 1672.07C1522.37 1672.07 1525.07 1669.15 1525.07 1664.87C1525.07 1660.6 1522.37 1657.45 1517.87 1657.45C1515.17 1657.45 1512.92 1658.8 1511.34 1660.82H1507.74L1509.32 1643.5H1527.09V1646.88H1512.56L1511.66 1656.5H1511.88C1513.68 1654.75 1515.98 1654.07 1518.54 1654.07C1524.62 1654.07 1528.89 1658.8 1528.89 1664.87C1528.89 1671.17 1524.62 1675.45 1517.87 1675.45ZM1552.18 1675H1548.36V1667.57H1533.28V1664.2L1546.78 1643.5H1552.18V1664.2H1556.23V1667.57H1552.18V1675ZM1548.13 1647.55L1537.33 1664.2H1548.36V1647.55H1548.13ZM1581.72 1675.45C1574.79 1675.45 1570.24 1669.46 1570.24 1659.25C1570.24 1649.03 1574.79 1643.05 1581.72 1643.05C1588.65 1643.05 1593.19 1649.03 1593.19 1659.25C1593.19 1669.46 1588.65 1675.45 1581.72 1675.45ZM1581.72 1672.07C1586.17 1672.07 1589.37 1667.44 1589.37 1659.25C1589.37 1651.06 1586.17 1646.42 1581.72 1646.42C1577.26 1646.42 1574.07 1651.06 1574.07 1659.25C1574.07 1667.44 1577.26 1672.07 1581.72 1672.07ZM1608.25 1675.45C1602.63 1675.45 1598.22 1672.3 1597.45 1666.67H1601.28C1601.73 1669.82 1604.65 1672.07 1608.25 1672.07C1612.75 1672.07 1615.23 1669.6 1615.23 1666.45C1615.23 1663.3 1612.75 1660.82 1608.25 1660.82H1606V1657.67H1608.25C1612.53 1657.67 1614.78 1655.2 1614.78 1652.05C1614.78 1648.9 1612.53 1646.42 1608.25 1646.42C1604.88 1646.42 1602.18 1648.67 1601.73 1651.82H1597.9C1598.8 1646.2 1602.85 1643.05 1608.25 1643.05C1614.78 1643.05 1618.6 1646.88 1618.6 1652.05C1618.6 1655.42 1617.03 1657.9 1613.88 1659.02C1617.25 1660.15 1619.05 1663.07 1619.05 1666.45C1619.05 1671.4 1615.23 1675.45 1608.25 1675.45ZM1635.68 1675.45C1630.51 1675.45 1626.01 1672.3 1624.88 1666.67H1628.71C1629.61 1669.82 1632.31 1672.07 1635.68 1672.07C1640.18 1672.07 1642.88 1669.15 1642.88 1664.87C1642.88 1660.6 1640.18 1657.45 1635.68 1657.45C1632.98 1657.45 1630.73 1658.8 1629.16 1660.82H1625.56L1627.13 1643.5H1644.91V1646.88H1630.37L1629.47 1656.5H1629.7C1631.5 1654.75 1633.79 1654.07 1636.36 1654.07C1642.43 1654.07 1646.71 1658.8 1646.71 1664.87C1646.71 1671.17 1642.43 1675.45 1635.68 1675.45ZM1672.55 1675.45C1665.62 1675.45 1661.08 1669.46 1661.08 1659.25C1661.08 1649.03 1665.62 1643.05 1672.55 1643.05C1679.48 1643.05 1684.03 1649.03 1684.03 1659.25C1684.03 1669.46 1679.48 1675.45 1672.55 1675.45ZM1672.55 1672.07C1677.01 1672.07 1680.2 1667.44 1680.2 1659.25C1680.2 1651.06 1677.01 1646.42 1672.55 1646.42C1668.1 1646.42 1664.9 1651.06 1664.9 1659.25C1664.9 1667.44 1668.1 1672.07 1672.55 1672.07ZM1699.09 1675.45C1693.46 1675.45 1689.05 1672.3 1688.29 1666.67H1692.11C1692.56 1669.82 1695.49 1672.07 1699.09 1672.07C1703.59 1672.07 1706.06 1669.6 1706.06 1666.45C1706.06 1663.3 1703.59 1660.82 1699.09 1660.82H1696.84V1657.67H1699.09C1703.36 1657.67 1705.61 1655.2 1705.61 1652.05C1705.61 1648.9 1703.36 1646.42 1699.09 1646.42C1695.71 1646.42 1693.01 1648.67 1692.56 1651.82H1688.74C1689.64 1646.2 1693.69 1643.05 1699.09 1643.05C1705.61 1643.05 1709.44 1646.88 1709.44 1652.05C1709.44 1655.42 1707.86 1657.9 1704.71 1659.02C1708.09 1660.15 1709.89 1663.07 1709.89 1666.45C1709.89 1671.4 1706.06 1675.45 1699.09 1675.45ZM1737 1675H1715.85V1671.62L1730.03 1657.22C1731.6 1655.65 1732.73 1654.07 1732.73 1652.05C1732.73 1648.45 1730.48 1646.42 1726.43 1646.42C1722.6 1646.42 1720.13 1648.9 1719.68 1651.82H1715.85C1716.75 1646.65 1720.35 1643.05 1726.43 1643.05C1732.73 1643.05 1736.55 1646.65 1736.55 1652.05C1736.55 1654.48 1735.29 1656.91 1732.73 1659.47L1720.76 1671.62H1737V1675Z" fill="black"/>
<line x1="1140" y1="1711.25" x2="1740" y2="1711.25" stroke="#F0F0F0" stroke-width="1.5"/>
<rect x="1140" y="1742" width="48" height="48" rx="24" fill="#2A66FF"/>
<path d="M1159.5 1757.75L1172.25 1757.75L1172.25 1770.5M1171.61 1758.39L1155.75 1774.25" stroke="white" stroke-width="3" stroke-linecap="round" stroke-linejoin="round"/>
<path d="M1223.63 1751.5V1754.88H1207.65V1765.9H1222.5V1769.27H1207.65V1783H1203.83V1751.5H1223.63ZM1247.48 1770.17C1247.48 1771.16 1247.34 1772.02 1247.25 1772.42H1229.75C1230.11 1777.6 1232.94 1780.3 1237.13 1780.3C1239.83 1780.3 1241.85 1779.17 1243.2 1776.92H1246.8C1245.23 1781.2 1241.63 1783.45 1237.13 1783.45C1230.83 1783.45 1226.33 1779.17 1226.33 1771.3C1226.33 1763.42 1230.83 1759.15 1236.9 1759.15C1244.1 1759.15 1247.48 1765.22 1247.48 1770.17ZM1229.84 1769.27H1244.06C1243.74 1765.67 1241.49 1762.3 1236.9 1762.3C1232.49 1762.3 1230.33 1765.22 1229.84 1769.27ZM1263.88 1783.45C1260.51 1783.45 1257.81 1782.1 1256.23 1779.85H1256.01L1255.56 1783H1252.86V1751.5H1256.23V1762.52H1256.46C1258.03 1760.5 1260.51 1759.15 1263.88 1759.15C1269.73 1759.15 1274.01 1763.42 1274.01 1771.3C1274.01 1779.17 1269.73 1783.45 1263.88 1783.45ZM1263.43 1780.3C1267.71 1780.3 1270.63 1777.15 1270.63 1771.3C1270.63 1765.45 1267.71 1762.3 1263.43 1762.3C1259.16 1762.3 1256.23 1765.45 1256.23 1771.3C1256.23 1777.15 1259.16 1780.3 1263.43 1780.3ZM1295.8 1783H1291.98V1758.92H1285.9V1755.55H1290.18C1291.3 1755.55 1291.98 1754.88 1291.98 1753.75V1751.5H1295.8V1783ZM1319.42 1783H1315.6V1775.57H1300.52V1772.2L1314.02 1751.5H1319.42V1772.2H1323.47V1775.57H1319.42V1783ZM1315.37 1755.55L1304.57 1772.2H1315.6V1755.55H1315.37Z" fill="#757575"/>
<path d="M1438.73 1774.22C1438.73 1778.9 1436.21 1782.05 1431.76 1782.82V1787.95H1428.38V1783H1424.33V1787.95H1420.96V1783H1416.68V1751.5H1420.96V1746.55H1424.33V1751.5H1428.38V1746.55H1431.76V1751.77C1435.94 1752.67 1438.28 1755.77 1438.28 1760.28C1438.28 1763.2 1436.71 1765.9 1434.23 1767.02C1436.71 1767.97 1438.73 1770.89 1438.73 1774.22ZM1428.83 1754.88H1420.51V1765.67H1428.83C1432.21 1765.67 1434.46 1763.65 1434.46 1760.28C1434.46 1756.9 1432.21 1754.88 1428.83 1754.88ZM1420.51 1779.62H1429.28C1432.66 1779.62 1434.91 1777.6 1434.91 1774.22C1434.91 1770.85 1432.66 1768.82 1429.28 1768.82H1420.51V1779.62ZM1454.01 1783.45C1447.08 1783.45 1442.54 1777.46 1442.54 1767.25C1442.54 1757.03 1447.08 1751.05 1454.01 1751.05C1460.94 1751.05 1465.49 1757.03 1465.49 1767.25C1465.49 1777.46 1460.94 1783.45 1454.01 1783.45ZM1454.01 1780.07C1458.47 1780.07 1461.66 1775.44 1461.66 1767.25C1461.66 1759.06 1458.47 1754.42 1454.01 1754.42C1449.56 1754.42 1446.36 1759.06 1446.36 1767.25C1446.36 1775.44 1449.56 1780.07 1454.01 1780.07ZM1472.45 1783.23C1471.1 1783.23 1469.97 1782.1 1469.97 1780.75C1469.97 1779.4 1471.1 1778.27 1472.45 1778.27C1473.8 1778.27 1474.92 1779.4 1474.92 1780.75C1474.92 1782.1 1473.8 1783.23 1472.45 1783.23ZM1501.37 1783H1480.22V1779.62L1494.39 1765.22C1495.97 1763.65 1497.09 1762.07 1497.09 1760.05C1497.09 1756.45 1494.84 1754.42 1490.79 1754.42C1486.97 1754.42 1484.49 1756.9 1484.04 1759.82H1480.22C1481.12 1754.65 1484.72 1751.05 1490.79 1751.05C1497.09 1751.05 1500.92 1754.65 1500.92 1760.05C1500.92 1762.48 1499.66 1764.91 1497.09 1767.47L1485.12 1779.62H1501.37V1783ZM1517.87 1783.45C1512.69 1783.45 1508.19 1780.3 1507.07 1774.67H1510.89C1511.79 1777.82 1514.49 1780.07 1517.87 1780.07C1522.37 1780.07 1525.07 1777.15 1525.07 1772.87C1525.07 1768.6 1522.37 1765.45 1517.87 1765.45C1515.17 1765.45 1512.92 1766.8 1511.34 1768.82H1507.74L1509.32 1751.5H1527.09V1754.88H1512.56L1511.66 1764.5H1511.88C1513.68 1762.75 1515.98 1762.07 1518.54 1762.07C1524.62 1762.07 1528.89 1766.8 1528.89 1772.87C1528.89 1779.17 1524.62 1783.45 1517.87 1783.45ZM1555.33 1783H1534.18V1779.62L1548.36 1765.22C1549.93 1763.65 1551.06 1762.07 1551.06 1760.05C1551.06 1756.45 1548.81 1754.42 1544.76 1754.42C1540.93 1754.42 1538.46 1756.9 1538.01 1759.82H1534.18C1535.08 1754.65 1538.68 1751.05 1544.76 1751.05C1551.06 1751.05 1554.88 1754.65 1554.88 1760.05C1554.88 1762.48 1553.62 1764.91 1551.06 1767.47L1539.09 1779.62H1555.33V1783ZM1581.72 1783.45C1574.79 1783.45 1570.24 1777.46 1570.24 1767.25C1570.24 1757.03 1574.79 1751.05 1581.72 1751.05C1588.65 1751.05 1593.19 1757.03 1593.19 1767.25C1593.19 1777.46 1588.65 1783.45 1581.72 1783.45ZM1581.72 1780.07C1586.17 1780.07 1589.37 1775.44 1589.37 1767.25C1589.37 1759.06 1586.17 1754.42 1581.72 1754.42C1577.26 1754.42 1574.07 1759.06 1574.07 1767.25C1574.07 1775.44 1577.26 1780.07 1581.72 1780.07ZM1618.38 1783H1599.93V1779.62H1607.35V1758.92H1600.83V1755.55H1605.55C1606.68 1755.55 1607.35 1754.88 1607.35 1753.75V1751.5H1611.18V1779.62H1618.38V1783ZM1645.36 1783H1626.91V1779.62H1634.33V1758.92H1627.81V1755.55H1632.53C1633.66 1755.55 1634.33 1754.88 1634.33 1753.75V1751.5H1638.16V1779.62H1645.36V1783ZM1672.55 1783.45C1665.62 1783.45 1661.08 1777.46 1661.08 1767.25C1661.08 1757.03 1665.62 1751.05 1672.55 1751.05C1679.48 1751.05 1684.03 1757.03 1684.03 1767.25C1684.03 1777.46 1679.48 1783.45 1672.55 1783.45ZM1672.55 1780.07C1677.01 1780.07 1680.2 1775.44 1680.2 1767.25C1680.2 1759.06 1677.01 1754.42 1672.55 1754.42C1668.1 1754.42 1664.9 1759.06 1664.9 1767.25C1664.9 1775.44 1668.1 1780.07 1672.55 1780.07ZM1699.54 1783.45C1692.79 1783.45 1688.74 1779.4 1688.74 1774.22C1688.74 1770.85 1691.21 1767.88 1693.91 1766.75C1691.62 1765.63 1689.41 1763.2 1689.41 1759.82C1689.41 1754.88 1693.24 1751.05 1699.54 1751.05C1705.84 1751.05 1709.66 1754.88 1709.66 1759.82C1709.66 1763.2 1707.46 1765.63 1705.16 1766.75C1707.86 1767.88 1710.34 1770.85 1710.34 1774.22C1710.34 1779.4 1706.29 1783.45 1699.54 1783.45ZM1699.54 1765.22C1703.36 1765.22 1705.84 1762.97 1705.84 1759.82C1705.84 1756.67 1703.36 1754.42 1699.54 1754.42C1695.71 1754.42 1693.24 1756.67 1693.24 1759.82C1693.24 1762.97 1695.71 1765.22 1699.54 1765.22ZM1699.54 1780.07C1703.81 1780.07 1706.51 1777.6 1706.51 1774.22C1706.51 1770.85 1703.81 1768.37 1699.54 1768.37C1695.26 1768.37 1692.56 1770.85 1692.56 1774.22C1692.56 1777.6 1695.26 1780.07 1699.54 1780.07ZM1724.18 1783H1720.13L1732.5 1754.88H1716.3V1751.5H1736.55V1754.88L1724.18 1783Z" fill="black"/>
<line x1="1140" y1="1819.25" x2="1740" y2="1819.25" stroke="#F0F0F0" stroke-width="1.5"/>
<rect x="1140" y="1850" width="48" height="48" rx="24" fill="#2A66FF"/>
<path d="M1159.5 1865.75L1172.25 1865.75L1172.25 1878.5M1171.61 1866.39L1155.75 1882.25" stroke="white" stroke-width="3" stroke-linecap="round" stroke-linejoin="round"/>
<path d="M1223.63 1859.5V1862.88H1207.65V1873.9H1222.5V1877.27H1207.65V1891H1203.83V1859.5H1223.63ZM1247.48 1878.17C1247.48 1879.16 1247.34 1880.02 1247.25 1880.42H1229.75C1230.11 1885.6 1232.94 1888.3 1237.13 1888.3C1239.83 1888.3 1241.85 1887.17 1243.2 1884.92H1246.8C1245.23 1889.2 1241.63 1891.45 1237.13 1891.45C1230.83 1891.45 1226.33 1887.17 1226.33 1879.3C1226.33 1871.42 1230.83 1867.15 1236.9 1867.15C1244.1 1867.15 1247.48 1873.22 1247.48 1878.17ZM1229.84 1877.27H1244.06C1243.74 1873.67 1241.49 1870.3 1236.9 1870.3C1232.49 1870.3 1230.33 1873.22 1229.84 1877.27ZM1263.88 1891.45C1260.51 1891.45 1257.81 1890.1 1256.23 1887.85H1256.01L1255.56 1891H1252.86V1859.5H1256.23V1870.52H1256.46C1258.03 1868.5 1260.51 1867.15 1263.88 1867.15C1269.73 1867.15 1274.01 1871.42 1274.01 1879.3C1274.01 1887.17 1269.73 1891.45 1263.88 1891.45ZM1263.43 1888.3C1267.71 1888.3 1270.63 1885.15 1270.63 1879.3C1270.63 1873.45 1267.71 1870.3 1263.43 1870.3C1259.16 1870.3 1256.23 1873.45 1256.23 1879.3C1256.23 1885.15 1259.16 1888.3 1263.43 1888.3ZM1295.8 1891H1291.98V1866.92H1285.9V1863.55H1290.18C1291.3 1863.55 1291.98 1862.88 1291.98 1861.75V1859.5H1295.8V1891Z" fill="#757575"/>
<path d="M1438.73 1882.22C1438.73 1886.9 1436.21 1890.05 1431.76 1890.82V1895.95H1428.38V1891H1424.33V1895.95H1420.96V1891H1416.68V1859.5H1420.96V1854.55H1424.33V1859.5H1428.38V1854.55H1431.76V1859.77C1435.94 1860.67 1438.28 1863.77 1438.28 1868.28C1438.28 1871.2 1436.71 1873.9 1434.23 1875.02C1436.71 1875.97 1438.73 1878.89 1438.73 1882.22ZM1428.83 1862.88H1420.51V1873.67H1428.83C1432.21 1873.67 1434.46 1871.65 1434.46 1868.28C1434.46 1864.9 1432.21 1862.88 1428.83 1862.88ZM1420.51 1887.62H1429.28C1432.66 1887.62 1434.91 1885.6 1434.91 1882.22C1434.91 1878.85 1432.66 1876.82 1429.28 1876.82H1420.51V1887.62ZM1454.01 1891.45C1447.08 1891.45 1442.54 1885.46 1442.54 1875.25C1442.54 1865.03 1447.08 1859.05 1454.01 1859.05C1460.94 1859.05 1465.49 1865.03 1465.49 1875.25C1465.49 1885.46 1460.94 1891.45 1454.01 1891.45ZM1454.01 1888.07C1458.47 1888.07 1461.66 1883.44 1461.66 1875.25C1461.66 1867.06 1458.47 1862.42 1454.01 1862.42C1449.56 1862.42 1446.36 1867.06 1446.36 1875.25C1446.36 1883.44 1449.56 1888.07 1454.01 1888.07ZM1472.45 1891.23C1471.1 1891.23 1469.97 1890.1 1469.97 1888.75C1469.97 1887.4 1471.1 1886.27 1472.45 1886.27C1473.8 1886.27 1474.92 1887.4 1474.92 1888.75C1474.92 1890.1 1473.8 1891.23 1472.45 1891.23ZM1501.37 1891H1480.22V1887.62L1494.39 1873.22C1495.97 1871.65 1497.09 1870.07 1497.09 1868.05C1497.09 1864.45 1494.84 1862.42 1490.79 1862.42C1486.97 1862.42 1484.49 1864.9 1484.04 1867.82H1480.22C1481.12 1862.65 1484.72 1859.05 1490.79 1859.05C1497.09 1859.05 1500.92 1862.65 1500.92 1868.05C1500.92 1870.48 1499.66 1872.91 1497.09 1875.47L1485.12 1887.62H1501.37V1891ZM1517.87 1891.45C1512.69 1891.45 1508.19 1888.3 1507.07 1882.67H1510.89C1511.79 1885.82 1514.49 1888.07 1517.87 1888.07C1522.37 1888.07 1525.07 1885.15 1525.07 1880.87C1525.07 1876.6 1522.37 1873.45 1517.87 1873.45C1515.17 1873.45 1512.92 1874.8 1511.34 1876.82H1507.74L1509.32 1859.5H1527.09V1862.88H1512.56L1511.66 1872.5H1511.88C1513.68 1870.75 1515.98 1870.07 1518.54 1870.07C1524.62 1870.07 1528.89 1874.8 1528.89 1880.87C1528.89 1887.17 1524.62 1891.45 1517.87 1891.45ZM1552.18 1891H1548.36V1883.57H1533.28V1880.2L1546.78 1859.5H1552.18V1880.2H1556.23V1883.57H1552.18V1891ZM1548.13 1863.55L1537.33 1880.2H1548.36V1863.55H1548.13ZM1581.72 1891.45C1574.79 1891.45 1570.24 1885.46 1570.24 1875.25C1570.24 1865.03 1574.79 1859.05 1581.72 1859.05C1588.65 1859.05 1593.19 1865.03 1593.19 1875.25C1593.19 1885.46 1588.65 1891.45 1581.72 1891.45ZM1581.72 1888.07C1586.17 1888.07 1589.37 1883.44 1589.37 1875.25C1589.37 1867.06 1586.17 1862.42 1581.72 1862.42C1577.26 1862.42 1574.07 1867.06 1574.07 1875.25C1574.07 1883.44 1577.26 1888.07 1581.72 1888.07ZM1619.19 1891H1598.04V1887.62L1612.21 1873.22C1613.79 1871.65 1614.91 1870.07 1614.91 1868.05C1614.91 1864.45 1612.66 1862.42 1608.61 1862.42C1604.79 1862.42 1602.31 1864.9 1601.86 1867.82H1598.04C1598.94 1862.65 1602.54 1859.05 1608.61 1859.05C1614.91 1859.05 1618.74 1862.65 1618.74 1868.05C1618.74 1870.48 1617.48 1872.91 1614.91 1875.47L1602.94 1887.62H1619.19V1891ZM1645.36 1891H1626.91V1887.62H1634.33V1866.92H1627.81V1863.55H1632.53C1633.66 1863.55 1634.33 1862.88 1634.33 1861.75V1859.5H1638.16V1887.62H1645.36V1891ZM1672.55 1891.45C1665.62 1891.45 1661.08 1885.46 1661.08 1875.25C1661.08 1865.03 1665.62 1859.05 1672.55 1859.05C1679.48 1859.05 1684.03 1865.03 1684.03 1875.25C1684.03 1885.46 1679.48 1891.45 1672.55 1891.45ZM1672.55 1888.07C1677.01 1888.07 1680.2 1883.44 1680.2 1875.25C1680.2 1867.06 1677.01 1862.42 1672.55 1862.42C1668.1 1862.42 1664.9 1867.06 1664.9 1875.25C1664.9 1883.44 1668.1 1888.07 1672.55 1888.07ZM1700.21 1891H1695.94L1704.26 1878.17H1704.04C1702.82 1879.16 1701.11 1879.75 1699.09 1879.75C1692.79 1879.75 1688.51 1875.47 1688.51 1869.4C1688.51 1863.55 1692.79 1859.05 1699.54 1859.05C1706.29 1859.05 1710.56 1863.32 1710.56 1870.07C1710.56 1873 1709.66 1875.92 1707.41 1879.52L1700.21 1891ZM1699.54 1876.37C1703.81 1876.37 1706.74 1873.67 1706.74 1869.4C1706.74 1865.12 1703.81 1862.42 1699.54 1862.42C1695.26 1862.42 1692.34 1865.12 1692.34 1869.4C1692.34 1873.67 1695.26 1876.37 1699.54 1876.37ZM1727.19 1891H1722.92L1731.24 1878.17H1731.02C1729.8 1879.16 1728.09 1879.75 1726.07 1879.75C1719.77 1879.75 1715.49 1875.47 1715.49 1869.4C1715.49 1863.55 1719.77 1859.05 1726.52 1859.05C1733.27 1859.05 1737.54 1863.32 1737.54 1870.07C1737.54 1873 1736.64 1875.92 1734.39 1879.52L1727.19 1891ZM1726.52 1876.37C1730.79 1876.37 1733.72 1873.67 1733.72 1869.4C1733.72 1865.12 1730.79 1862.42 1726.52 1862.42C1722.24 1862.42 1719.32 1865.12 1719.32 1869.4C1719.32 1873.67 1722.24 1876.37 1726.52 1876.37Z" fill="black"/>
<rect x="1080" y="2099" width="720" height="63" fill="url(#paint0_linear_2749_24119)"/>
<defs>
<linearGradient id="paint0_linear_2749_24119" x1="1440" y1="2099" x2="1440" y2="2162" gradientUnits="userSpaceOnUse">
<stop stop-color="white" stop-opacity="0"/>
<stop offset="1" stop-color="white"/>
</linearGradient>
</defs>
</svg>
