<svg width="2160" height="2700" viewBox="0 0 2160 2700" fill="none" xmlns="http://www.w3.org/2000/svg">
<rect width="2160" height="2700" fill="white"/>
<rect x="86" y="757.121" width="972.5" height="1185.76" fill="#E7E7E7"/>
<path d="M118.577 1827.98C117.44 1824 116.302 1820.87 115.165 1818.6C114.028 1816.21 112.663 1814.39 111.07 1813.14C109.478 1811.78 107.374 1810.76 104.758 1810.08V1805.64H143.145V1810.08C139.847 1810.87 137.515 1811.95 136.15 1813.31C134.899 1814.68 134.33 1816.38 134.444 1818.43C134.558 1820.47 135.183 1823.49 136.321 1827.46L156.794 1897.36H157.818L184.092 1824.22L177.779 1805.64H196.887L225.038 1895.14H226.062L246.194 1828.49C247.445 1824.05 248.184 1820.7 248.412 1818.43C248.639 1816.16 248.127 1814.34 246.876 1812.97C245.739 1811.61 243.521 1810.64 240.222 1810.08V1805.64H270.762V1810.08C267.918 1810.76 265.587 1811.84 263.767 1813.31C262.061 1814.68 260.639 1816.5 259.501 1818.77C258.478 1821.04 257.34 1824.28 256.089 1828.49L227.427 1924.12H216.678L189.722 1839.06H188.698L158.159 1924.12H147.24L118.577 1827.98Z" fill="black"/>
<path d="M300.804 1919.69C304.33 1919.23 307.003 1917.98 308.822 1915.94C310.756 1913.89 312.633 1910.48 314.453 1905.71C314.68 1905.26 314.851 1904.86 314.964 1904.52C315.192 1904.06 315.363 1903.61 315.476 1903.15L353.864 1805.64H363.93L404.023 1901.96C404.251 1902.41 404.421 1902.93 404.535 1903.49C404.762 1903.95 404.99 1904.4 405.217 1904.86C406.696 1908.49 408.004 1911.28 409.141 1913.21C410.279 1915.03 411.53 1916.51 412.895 1917.64C414.373 1918.67 416.25 1919.35 418.525 1919.69V1924.12H379.626V1919.69C382.811 1919.46 385.085 1918.67 386.45 1917.3C387.815 1915.82 388.384 1913.95 388.156 1911.68C388.043 1909.4 387.246 1906.51 385.768 1902.98L355.74 1829.17H354.717L325.542 1903.15C324.064 1906.9 323.268 1909.91 323.154 1912.19C323.04 1914.35 323.722 1916.05 325.201 1917.3C326.68 1918.55 329.182 1919.35 332.708 1919.69V1924.12H300.804V1919.69ZM328.101 1886.96V1877.92H382.185V1886.96H328.101Z" fill="black"/>
<path d="M468.904 1919.69C471.975 1919.23 474.25 1918.5 475.729 1917.47C477.321 1916.45 478.402 1914.92 478.97 1912.87C479.539 1910.82 479.823 1907.76 479.823 1903.66V1825.93C479.823 1821.72 479.482 1818.6 478.8 1816.55C478.231 1814.39 477.207 1812.86 475.729 1811.95C474.25 1811.04 471.975 1810.42 468.904 1810.08V1805.64H507.633V1810.08C504.448 1810.42 502.116 1811.04 500.638 1811.95C499.159 1812.86 498.136 1814.34 497.567 1816.38C497.112 1818.43 496.884 1821.61 496.884 1825.93V1915.09H524.353C529.585 1915.09 533.85 1914.46 537.149 1913.21C540.561 1911.96 543.29 1909.57 545.338 1906.05C547.385 1902.53 548.75 1897.41 549.432 1890.71H554.21V1924.12H468.904V1919.69Z" fill="black"/>
<path d="M619.741 1826.44C619.741 1821.9 619.4 1818.54 618.718 1816.38C618.035 1814.11 616.955 1812.63 615.476 1811.95C614.111 1811.16 611.893 1810.53 608.822 1810.08V1805.64H656.934C669.901 1805.64 681.275 1808.14 691.056 1813.14C700.838 1818.03 708.402 1824.96 713.748 1833.94C719.207 1842.81 721.937 1852.98 721.937 1864.46C721.937 1876.16 719.207 1886.56 713.748 1895.65C708.402 1904.63 700.838 1911.62 691.056 1916.62C681.275 1921.62 669.901 1924.12 656.934 1924.12H608.822V1919.69C612.234 1919.12 614.68 1918.32 616.158 1917.3C617.637 1916.17 618.604 1914.52 619.059 1912.36C619.514 1910.09 619.741 1906.56 619.741 1901.79V1826.44ZM652.669 1915.09C663.133 1915.09 672.062 1913.15 679.455 1909.29C686.848 1905.43 692.478 1899.69 696.345 1892.07C700.326 1884.46 702.317 1875.25 702.317 1864.46C702.317 1853.89 700.326 1844.85 696.345 1837.35C692.478 1829.85 686.848 1824.22 679.455 1820.47C672.062 1816.61 663.133 1814.68 652.669 1814.68H636.802V1915.09H652.669Z" fill="black"/>
<path d="M870.011 1894.29V1924.12H778.222V1919.69C781.293 1919.12 783.511 1918.44 784.876 1917.64C786.355 1916.73 787.378 1915.31 787.947 1913.38C788.629 1911.45 789.028 1908.44 789.141 1904.35V1903.32V1826.1C789.141 1821.9 788.857 1818.77 788.288 1816.72C787.72 1814.56 786.639 1813.03 785.047 1812.12C783.568 1811.1 781.293 1810.42 778.222 1810.08V1805.64H866.598V1831.21H861.821C861.366 1827.12 860.286 1823.88 858.58 1821.5C856.874 1819.11 854.258 1817.41 850.732 1816.38C847.206 1815.25 842.599 1814.68 836.912 1814.68H806.202V1859.68H828.894C833.671 1859.68 837.481 1859.29 840.324 1858.49C843.168 1857.58 845.272 1856.22 846.637 1854.4C848.002 1852.58 848.741 1850.19 848.855 1847.24H853.632V1881.16H848.855C848.741 1878.09 848.002 1875.65 846.637 1873.83C845.272 1872.01 843.168 1870.71 840.324 1869.91C837.481 1869.12 833.671 1868.72 828.894 1868.72H806.202V1915.09H840.666C845.556 1915.09 849.708 1914.46 853.12 1913.21C856.532 1911.96 859.262 1909.8 861.31 1906.73C863.471 1903.66 864.779 1899.52 865.234 1894.29H870.011Z" fill="black"/>
<path d="M926.796 1919.69C929.753 1919.23 931.971 1918.55 933.45 1917.64C934.928 1916.62 935.952 1915.03 936.521 1912.87C937.203 1910.71 937.544 1907.53 937.544 1903.32V1816.72L929.696 1806.5V1805.64H954.605L1018.07 1895.48H1019.1V1826.1C1019.1 1821.78 1018.81 1818.6 1018.24 1816.55C1017.67 1814.39 1016.65 1812.86 1015.17 1811.95C1013.69 1811.04 1011.48 1810.42 1008.52 1810.08V1805.64H1039.74V1810.08C1036.67 1810.42 1034.39 1811.04 1032.92 1811.95C1031.55 1812.86 1030.53 1814.39 1029.84 1816.55C1029.28 1818.71 1028.99 1821.9 1028.99 1826.1V1924.12H1017.22L948.463 1826.95H947.44V1903.32C947.44 1907.53 947.724 1910.71 948.293 1912.87C948.975 1915.03 949.999 1916.62 951.364 1917.64C952.842 1918.55 955.117 1919.23 958.188 1919.69V1924.12H926.796V1919.69Z" fill="black"/>
<rect x="1101.5" y="757.121" width="972.5" height="1185.76" fill="#181818"/>
<path d="M1134.08 797.224C1132.94 793.246 1131.8 790.121 1130.67 787.848C1129.53 785.461 1128.16 783.643 1126.57 782.393C1124.98 781.029 1122.87 780.006 1120.26 779.324V774.892H1158.65V779.324C1155.35 780.12 1153.01 781.2 1151.65 782.563C1150.4 783.927 1149.83 785.632 1149.94 787.677C1150.06 789.723 1150.68 792.735 1151.82 796.712L1172.29 866.605H1173.32L1199.59 793.473L1193.28 774.892H1212.39L1240.54 864.389H1241.56L1261.69 797.735C1262.94 793.303 1263.68 789.95 1263.91 787.677C1264.14 785.404 1263.63 783.586 1262.38 782.222C1261.24 780.859 1259.02 779.893 1255.72 779.324V774.892H1286.26V779.324C1283.42 780.006 1281.09 781.086 1279.27 782.563C1277.56 783.927 1276.14 785.745 1275 788.018C1273.98 790.291 1272.84 793.53 1271.59 797.735L1242.93 893.369H1232.18L1205.22 808.304H1204.2L1173.66 893.369H1162.74L1134.08 797.224Z" fill="#404040"/>
<path d="M1316.3 888.937C1319.83 888.482 1322.5 887.232 1324.32 885.187C1326.26 883.141 1328.13 879.732 1329.95 874.958C1330.18 874.504 1330.35 874.106 1330.46 873.765C1330.69 873.31 1330.86 872.856 1330.98 872.401L1369.36 774.892H1379.43L1419.52 871.208C1419.75 871.663 1419.92 872.174 1420.03 872.742C1420.26 873.197 1420.49 873.651 1420.72 874.106C1422.2 877.743 1423.5 880.527 1424.64 882.459C1425.78 884.277 1427.03 885.755 1428.39 886.891C1429.87 887.914 1431.75 888.596 1434.02 888.937V893.369H1395.13V888.937C1398.31 888.71 1400.59 887.914 1401.95 886.55C1403.31 885.073 1403.88 883.198 1403.66 880.925C1403.54 878.652 1402.75 875.754 1401.27 872.231L1371.24 798.417H1370.22L1341.04 872.401C1339.56 876.152 1338.77 879.163 1338.65 881.436C1338.54 883.596 1339.22 885.3 1340.7 886.55C1342.18 887.8 1344.68 888.596 1348.21 888.937V893.369H1316.3V888.937ZM1343.6 856.207V847.172H1397.68V856.207H1343.6Z" fill="#404040"/>
<path d="M1484.4 888.937C1487.48 888.482 1489.75 887.744 1491.23 886.721C1492.82 885.698 1493.9 884.164 1494.47 882.118C1495.04 880.072 1495.32 877.004 1495.32 872.913V795.178C1495.32 790.973 1494.98 787.848 1494.3 785.802C1493.73 783.643 1492.71 782.109 1491.23 781.2C1489.75 780.29 1487.48 779.665 1484.4 779.324V774.892H1523.13V779.324C1519.95 779.665 1517.62 780.29 1516.14 781.2C1514.66 782.109 1513.64 783.586 1513.07 785.632C1512.61 787.677 1512.38 790.86 1512.38 795.178V884.334H1539.85C1545.08 884.334 1549.35 883.709 1552.65 882.459C1556.06 881.209 1558.79 878.822 1560.84 875.299C1562.88 871.776 1564.25 866.662 1564.93 859.957H1569.71V893.369H1484.4V888.937Z" fill="#404040"/>
<path d="M1635.24 795.69C1635.24 791.144 1634.9 787.791 1634.22 785.632C1633.53 783.359 1632.45 781.881 1630.98 781.2C1629.61 780.404 1627.39 779.779 1624.32 779.324V774.892H1672.43C1685.4 774.892 1696.77 777.392 1706.56 782.393C1716.34 787.28 1723.9 794.212 1729.25 803.19C1734.71 812.055 1737.44 822.226 1737.44 833.704C1737.44 845.41 1734.71 855.809 1729.25 864.901C1723.9 873.879 1716.34 880.868 1706.56 885.868C1696.77 890.869 1685.4 893.369 1672.43 893.369H1624.32V888.937C1627.73 888.369 1630.18 887.573 1631.66 886.55C1633.14 885.414 1634.1 883.766 1634.56 881.607C1635.01 879.334 1635.24 875.811 1635.24 871.038V795.69ZM1668.17 884.334C1678.63 884.334 1687.56 882.402 1694.95 878.538C1702.35 874.674 1707.98 868.935 1711.85 861.321C1715.83 853.706 1717.82 844.501 1717.82 833.704C1717.82 823.135 1715.83 814.1 1711.85 806.6C1707.98 799.099 1702.35 793.473 1694.95 789.723C1687.56 785.859 1678.63 783.927 1668.17 783.927H1652.3V884.334H1668.17Z" fill="#404040"/>
<path d="M1885.51 863.537V893.369H1793.72V888.937C1796.79 888.369 1799.01 887.687 1800.38 886.891C1801.85 885.982 1802.88 884.562 1803.45 882.63C1804.13 880.698 1804.53 877.686 1804.64 873.595V872.572V795.349C1804.64 791.144 1804.36 788.018 1803.79 785.973C1803.22 783.813 1802.14 782.279 1800.55 781.37C1799.07 780.347 1796.79 779.665 1793.72 779.324V774.892H1882.1V800.463H1877.32C1876.87 796.371 1875.79 793.132 1874.08 790.746C1872.37 788.359 1869.76 786.655 1866.23 785.632C1862.71 784.495 1858.1 783.927 1852.41 783.927H1821.7V828.931H1844.39C1849.17 828.931 1852.98 828.534 1855.82 827.738C1858.67 826.829 1860.77 825.465 1862.14 823.647C1863.5 821.828 1864.24 819.442 1864.35 816.487H1869.13V850.411H1864.35C1864.24 847.342 1863.5 844.899 1862.14 843.08C1860.77 841.262 1858.67 839.955 1855.82 839.16C1852.98 838.364 1849.17 837.966 1844.39 837.966H1821.7V884.334H1856.17C1861.06 884.334 1865.21 883.709 1868.62 882.459C1872.03 881.209 1874.76 879.05 1876.81 875.981C1878.97 872.913 1880.28 868.765 1880.73 863.537H1885.51Z" fill="#404040"/>
<path d="M1942.3 888.937C1945.25 888.482 1947.47 887.8 1948.95 886.891C1950.43 885.868 1951.45 884.277 1952.02 882.118C1952.7 879.959 1953.04 876.777 1953.04 872.572V785.973L1945.2 775.744V774.892H1970.11L2033.57 864.73H2034.6V795.349C2034.6 791.03 2034.31 787.848 2033.74 785.802C2033.17 783.643 2032.15 782.109 2030.67 781.2C2029.19 780.29 2026.98 779.665 2024.02 779.324V774.892H2055.24V779.324C2052.17 779.665 2049.89 780.29 2048.42 781.2C2047.05 782.109 2046.03 783.643 2045.34 785.802C2044.78 787.962 2044.49 791.144 2044.49 795.349V893.369H2032.72L1963.96 796.201H1962.94V872.572C1962.94 876.777 1963.22 879.959 1963.79 882.118C1964.47 884.277 1965.5 885.868 1966.86 886.891C1968.34 887.8 1970.62 888.482 1973.69 888.937V893.369H1942.3V888.937Z" fill="#404040"/>
<path d="M1914.59 1614.35H2074V1864.09H1914.59V1614.35Z" fill="#D9D9D9"/>
</svg>
